<?xml version="1.0" encoding="utf-8" standalone="no"?>
<!DOCTYPE svg PUBLIC "-//W3C//DTD SVG 1.1//EN"
  "http://www.w3.org/Graphics/SVG/1.1/DTD/svg11.dtd">
<svg xmlns:xlink="http://www.w3.org/1999/xlink" width="1000.340625pt" height="330.541644pt" viewBox="0 0 1000.340625 330.541644" xmlns="http://www.w3.org/2000/svg" version="1.1">
 <metadata>
  <rdf:RDF xmlns:dc="http://purl.org/dc/elements/1.1/" xmlns:cc="http://creativecommons.org/ns#" xmlns:rdf="http://www.w3.org/1999/02/22-rdf-syntax-ns#">
   <cc:Work>
    <dc:type rdf:resource="http://purl.org/dc/dcmitype/StillImage"/>
    <dc:date>2024-10-25T13:54:56.007465</dc:date>
    <dc:format>image/svg+xml</dc:format>
    <dc:creator>
     <cc:Agent>
      <dc:title>Matplotlib v3.5.3, https://matplotlib.org/</dc:title>
     </cc:Agent>
    </dc:creator>
   </cc:Work>
  </rdf:RDF>
 </metadata>
 <defs>
  <style type="text/css">*{stroke-linejoin: round; stroke-linecap: butt}</style>
 </defs>
 <g id="figure_1">
  <g id="axes_1">
   <g id="patch_1">
    <path d="M 40.600625 273.99006 
L 993.140625 273.99006 
L 993.140625 31.48286 
L 40.600625 31.48286 
z
" style="fill: #ffffff"/>
   </g>
   <g id="matplotlib.axis_1">
    <g id="xtick_1">
     <g id="text_1">
      <!-- 0 -->
      <g transform="translate(59.529676 287.06881)scale(0.08 -0.08)">
       <defs>
        <path id="DejaVuSans-30" d="M 2034 4250 
Q 1547 4250 1301 3770 
Q 1056 3291 1056 2328 
Q 1056 1369 1301 889 
Q 1547 409 2034 409 
Q 2525 409 2770 889 
Q 3016 1369 3016 2328 
Q 3016 3291 2770 3770 
Q 2525 4250 2034 4250 
z
M 2034 4750 
Q 2819 4750 3233 4129 
Q 3647 3509 3647 2328 
Q 3647 1150 3233 529 
Q 2819 -91 2034 -91 
Q 1250 -91 836 529 
Q 422 1150 422 2328 
Q 422 3509 836 4129 
Q 1250 4750 2034 4750 
z
" transform="scale(0.015625)"/>
       </defs>
       <use xlink:href="#DejaVuSans-30"/>
      </g>
     </g>
    </g>
    <g id="xtick_2">
     <g id="text_2">
      <!-- 200 -->
      <g transform="translate(229.025453 287.06881)scale(0.08 -0.08)">
       <defs>
        <path id="DejaVuSans-32" d="M 1228 531 
L 3431 531 
L 3431 0 
L 469 0 
L 469 531 
Q 828 903 1448 1529 
Q 2069 2156 2228 2338 
Q 2531 2678 2651 2914 
Q 2772 3150 2772 3378 
Q 2772 3750 2511 3984 
Q 2250 4219 1831 4219 
Q 1534 4219 1204 4116 
Q 875 4013 500 3803 
L 500 4441 
Q 881 4594 1212 4672 
Q 1544 4750 1819 4750 
Q 2544 4750 2975 4387 
Q 3406 4025 3406 3419 
Q 3406 3131 3298 2873 
Q 3191 2616 2906 2266 
Q 2828 2175 2409 1742 
Q 1991 1309 1228 531 
z
" transform="scale(0.015625)"/>
       </defs>
       <use xlink:href="#DejaVuSans-32"/>
       <use xlink:href="#DejaVuSans-30" x="63.623047"/>
       <use xlink:href="#DejaVuSans-30" x="127.246094"/>
      </g>
     </g>
    </g>
    <g id="xtick_3">
     <g id="text_3">
      <!-- 400 -->
      <g transform="translate(403.61123 287.06881)scale(0.08 -0.08)">
       <defs>
        <path id="DejaVuSans-34" d="M 2419 4116 
L 825 1625 
L 2419 1625 
L 2419 4116 
z
M 2253 4666 
L 3047 4666 
L 3047 1625 
L 3713 1625 
L 3713 1100 
L 3047 1100 
L 3047 0 
L 2419 0 
L 2419 1100 
L 313 1100 
L 313 1709 
L 2253 4666 
z
" transform="scale(0.015625)"/>
       </defs>
       <use xlink:href="#DejaVuSans-34"/>
       <use xlink:href="#DejaVuSans-30" x="63.623047"/>
       <use xlink:href="#DejaVuSans-30" x="127.246094"/>
      </g>
     </g>
    </g>
    <g id="xtick_4">
     <g id="text_4">
      <!-- 600 -->
      <g transform="translate(578.197007 287.06881)scale(0.08 -0.08)">
       <defs>
        <path id="DejaVuSans-36" d="M 2113 2584 
Q 1688 2584 1439 2293 
Q 1191 2003 1191 1497 
Q 1191 994 1439 701 
Q 1688 409 2113 409 
Q 2538 409 2786 701 
Q 3034 994 3034 1497 
Q 3034 2003 2786 2293 
Q 2538 2584 2113 2584 
z
M 3366 4563 
L 3366 3988 
Q 3128 4100 2886 4159 
Q 2644 4219 2406 4219 
Q 1781 4219 1451 3797 
Q 1122 3375 1075 2522 
Q 1259 2794 1537 2939 
Q 1816 3084 2150 3084 
Q 2853 3084 3261 2657 
Q 3669 2231 3669 1497 
Q 3669 778 3244 343 
Q 2819 -91 2113 -91 
Q 1303 -91 875 529 
Q 447 1150 447 2328 
Q 447 3434 972 4092 
Q 1497 4750 2381 4750 
Q 2619 4750 2861 4703 
Q 3103 4656 3366 4563 
z
" transform="scale(0.015625)"/>
       </defs>
       <use xlink:href="#DejaVuSans-36"/>
       <use xlink:href="#DejaVuSans-30" x="63.623047"/>
       <use xlink:href="#DejaVuSans-30" x="127.246094"/>
      </g>
     </g>
    </g>
    <g id="xtick_5">
     <g id="text_5">
      <!-- 800 -->
      <g transform="translate(752.782784 287.06881)scale(0.08 -0.08)">
       <defs>
        <path id="DejaVuSans-38" d="M 2034 2216 
Q 1584 2216 1326 1975 
Q 1069 1734 1069 1313 
Q 1069 891 1326 650 
Q 1584 409 2034 409 
Q 2484 409 2743 651 
Q 3003 894 3003 1313 
Q 3003 1734 2745 1975 
Q 2488 2216 2034 2216 
z
M 1403 2484 
Q 997 2584 770 2862 
Q 544 3141 544 3541 
Q 544 4100 942 4425 
Q 1341 4750 2034 4750 
Q 2731 4750 3128 4425 
Q 3525 4100 3525 3541 
Q 3525 3141 3298 2862 
Q 3072 2584 2669 2484 
Q 3125 2378 3379 2068 
Q 3634 1759 3634 1313 
Q 3634 634 3220 271 
Q 2806 -91 2034 -91 
Q 1263 -91 848 271 
Q 434 634 434 1313 
Q 434 1759 690 2068 
Q 947 2378 1403 2484 
z
M 1172 3481 
Q 1172 3119 1398 2916 
Q 1625 2713 2034 2713 
Q 2441 2713 2670 2916 
Q 2900 3119 2900 3481 
Q 2900 3844 2670 4047 
Q 2441 4250 2034 4250 
Q 1625 4250 1398 4047 
Q 1172 3844 1172 3481 
z
" transform="scale(0.015625)"/>
       </defs>
       <use xlink:href="#DejaVuSans-38"/>
       <use xlink:href="#DejaVuSans-30" x="63.623047"/>
       <use xlink:href="#DejaVuSans-30" x="127.246094"/>
      </g>
     </g>
    </g>
    <g id="xtick_6">
     <g id="text_6">
      <!-- 1000 -->
      <g transform="translate(924.823561 287.06881)scale(0.08 -0.08)">
       <defs>
        <path id="DejaVuSans-31" d="M 794 531 
L 1825 531 
L 1825 4091 
L 703 3866 
L 703 4441 
L 1819 4666 
L 2450 4666 
L 2450 531 
L 3481 531 
L 3481 0 
L 794 0 
L 794 531 
z
" transform="scale(0.015625)"/>
       </defs>
       <use xlink:href="#DejaVuSans-31"/>
       <use xlink:href="#DejaVuSans-30" x="63.623047"/>
       <use xlink:href="#DejaVuSans-30" x="127.246094"/>
       <use xlink:href="#DejaVuSans-30" x="190.869141"/>
      </g>
     </g>
    </g>
    <g id="text_7">
     <!-- Insert Size (bp) -->
     <g transform="translate(478.837813 300.330997)scale(0.1 -0.1)">
      <defs>
       <path id="DejaVuSans-49" d="M 628 4666 
L 1259 4666 
L 1259 0 
L 628 0 
L 628 4666 
z
" transform="scale(0.015625)"/>
       <path id="DejaVuSans-6e" d="M 3513 2113 
L 3513 0 
L 2938 0 
L 2938 2094 
Q 2938 2591 2744 2837 
Q 2550 3084 2163 3084 
Q 1697 3084 1428 2787 
Q 1159 2491 1159 1978 
L 1159 0 
L 581 0 
L 581 3500 
L 1159 3500 
L 1159 2956 
Q 1366 3272 1645 3428 
Q 1925 3584 2291 3584 
Q 2894 3584 3203 3211 
Q 3513 2838 3513 2113 
z
" transform="scale(0.015625)"/>
       <path id="DejaVuSans-73" d="M 2834 3397 
L 2834 2853 
Q 2591 2978 2328 3040 
Q 2066 3103 1784 3103 
Q 1356 3103 1142 2972 
Q 928 2841 928 2578 
Q 928 2378 1081 2264 
Q 1234 2150 1697 2047 
L 1894 2003 
Q 2506 1872 2764 1633 
Q 3022 1394 3022 966 
Q 3022 478 2636 193 
Q 2250 -91 1575 -91 
Q 1294 -91 989 -36 
Q 684 19 347 128 
L 347 722 
Q 666 556 975 473 
Q 1284 391 1588 391 
Q 1994 391 2212 530 
Q 2431 669 2431 922 
Q 2431 1156 2273 1281 
Q 2116 1406 1581 1522 
L 1381 1569 
Q 847 1681 609 1914 
Q 372 2147 372 2553 
Q 372 3047 722 3315 
Q 1072 3584 1716 3584 
Q 2034 3584 2315 3537 
Q 2597 3491 2834 3397 
z
" transform="scale(0.015625)"/>
       <path id="DejaVuSans-65" d="M 3597 1894 
L 3597 1613 
L 953 1613 
Q 991 1019 1311 708 
Q 1631 397 2203 397 
Q 2534 397 2845 478 
Q 3156 559 3463 722 
L 3463 178 
Q 3153 47 2828 -22 
Q 2503 -91 2169 -91 
Q 1331 -91 842 396 
Q 353 884 353 1716 
Q 353 2575 817 3079 
Q 1281 3584 2069 3584 
Q 2775 3584 3186 3129 
Q 3597 2675 3597 1894 
z
M 3022 2063 
Q 3016 2534 2758 2815 
Q 2500 3097 2075 3097 
Q 1594 3097 1305 2825 
Q 1016 2553 972 2059 
L 3022 2063 
z
" transform="scale(0.015625)"/>
       <path id="DejaVuSans-72" d="M 2631 2963 
Q 2534 3019 2420 3045 
Q 2306 3072 2169 3072 
Q 1681 3072 1420 2755 
Q 1159 2438 1159 1844 
L 1159 0 
L 581 0 
L 581 3500 
L 1159 3500 
L 1159 2956 
Q 1341 3275 1631 3429 
Q 1922 3584 2338 3584 
Q 2397 3584 2469 3576 
Q 2541 3569 2628 3553 
L 2631 2963 
z
" transform="scale(0.015625)"/>
       <path id="DejaVuSans-74" d="M 1172 4494 
L 1172 3500 
L 2356 3500 
L 2356 3053 
L 1172 3053 
L 1172 1153 
Q 1172 725 1289 603 
Q 1406 481 1766 481 
L 2356 481 
L 2356 0 
L 1766 0 
Q 1100 0 847 248 
Q 594 497 594 1153 
L 594 3053 
L 172 3053 
L 172 3500 
L 594 3500 
L 594 4494 
L 1172 4494 
z
" transform="scale(0.015625)"/>
       <path id="DejaVuSans-20" transform="scale(0.015625)"/>
       <path id="DejaVuSans-53" d="M 3425 4513 
L 3425 3897 
Q 3066 4069 2747 4153 
Q 2428 4238 2131 4238 
Q 1616 4238 1336 4038 
Q 1056 3838 1056 3469 
Q 1056 3159 1242 3001 
Q 1428 2844 1947 2747 
L 2328 2669 
Q 3034 2534 3370 2195 
Q 3706 1856 3706 1288 
Q 3706 609 3251 259 
Q 2797 -91 1919 -91 
Q 1588 -91 1214 -16 
Q 841 59 441 206 
L 441 856 
Q 825 641 1194 531 
Q 1563 422 1919 422 
Q 2459 422 2753 634 
Q 3047 847 3047 1241 
Q 3047 1584 2836 1778 
Q 2625 1972 2144 2069 
L 1759 2144 
Q 1053 2284 737 2584 
Q 422 2884 422 3419 
Q 422 4038 858 4394 
Q 1294 4750 2059 4750 
Q 2388 4750 2728 4690 
Q 3069 4631 3425 4513 
z
" transform="scale(0.015625)"/>
       <path id="DejaVuSans-69" d="M 603 3500 
L 1178 3500 
L 1178 0 
L 603 0 
L 603 3500 
z
M 603 4863 
L 1178 4863 
L 1178 4134 
L 603 4134 
L 603 4863 
z
" transform="scale(0.015625)"/>
       <path id="DejaVuSans-7a" d="M 353 3500 
L 3084 3500 
L 3084 2975 
L 922 459 
L 3084 459 
L 3084 0 
L 275 0 
L 275 525 
L 2438 3041 
L 353 3041 
L 353 3500 
z
" transform="scale(0.015625)"/>
       <path id="DejaVuSans-28" d="M 1984 4856 
Q 1566 4138 1362 3434 
Q 1159 2731 1159 2009 
Q 1159 1288 1364 580 
Q 1569 -128 1984 -844 
L 1484 -844 
Q 1016 -109 783 600 
Q 550 1309 550 2009 
Q 550 2706 781 3412 
Q 1013 4119 1484 4856 
L 1984 4856 
z
" transform="scale(0.015625)"/>
       <path id="DejaVuSans-62" d="M 3116 1747 
Q 3116 2381 2855 2742 
Q 2594 3103 2138 3103 
Q 1681 3103 1420 2742 
Q 1159 2381 1159 1747 
Q 1159 1113 1420 752 
Q 1681 391 2138 391 
Q 2594 391 2855 752 
Q 3116 1113 3116 1747 
z
M 1159 2969 
Q 1341 3281 1617 3432 
Q 1894 3584 2278 3584 
Q 2916 3584 3314 3078 
Q 3713 2572 3713 1747 
Q 3713 922 3314 415 
Q 2916 -91 2278 -91 
Q 1894 -91 1617 61 
Q 1341 213 1159 525 
L 1159 0 
L 581 0 
L 581 4863 
L 1159 4863 
L 1159 2969 
z
" transform="scale(0.015625)"/>
       <path id="DejaVuSans-70" d="M 1159 525 
L 1159 -1331 
L 581 -1331 
L 581 3500 
L 1159 3500 
L 1159 2969 
Q 1341 3281 1617 3432 
Q 1894 3584 2278 3584 
Q 2916 3584 3314 3078 
Q 3713 2572 3713 1747 
Q 3713 922 3314 415 
Q 2916 -91 2278 -91 
Q 1894 -91 1617 61 
Q 1341 213 1159 525 
z
M 3116 1747 
Q 3116 2381 2855 2742 
Q 2594 3103 2138 3103 
Q 1681 3103 1420 2742 
Q 1159 2381 1159 1747 
Q 1159 1113 1420 752 
Q 1681 391 2138 391 
Q 2594 391 2855 752 
Q 3116 1113 3116 1747 
z
" transform="scale(0.015625)"/>
       <path id="DejaVuSans-29" d="M 513 4856 
L 1013 4856 
Q 1481 4119 1714 3412 
Q 1947 2706 1947 2009 
Q 1947 1309 1714 600 
Q 1481 -109 1013 -844 
L 513 -844 
Q 928 -128 1133 580 
Q 1338 1288 1338 2009 
Q 1338 2731 1133 3434 
Q 928 4138 513 4856 
z
" transform="scale(0.015625)"/>
      </defs>
      <use xlink:href="#DejaVuSans-49"/>
      <use xlink:href="#DejaVuSans-6e" x="29.492188"/>
      <use xlink:href="#DejaVuSans-73" x="92.871094"/>
      <use xlink:href="#DejaVuSans-65" x="144.970703"/>
      <use xlink:href="#DejaVuSans-72" x="206.494141"/>
      <use xlink:href="#DejaVuSans-74" x="247.607422"/>
      <use xlink:href="#DejaVuSans-20" x="286.816406"/>
      <use xlink:href="#DejaVuSans-53" x="318.603516"/>
      <use xlink:href="#DejaVuSans-69" x="382.080078"/>
      <use xlink:href="#DejaVuSans-7a" x="409.863281"/>
      <use xlink:href="#DejaVuSans-65" x="462.353516"/>
      <use xlink:href="#DejaVuSans-20" x="523.876953"/>
      <use xlink:href="#DejaVuSans-28" x="555.664062"/>
      <use xlink:href="#DejaVuSans-62" x="594.677734"/>
      <use xlink:href="#DejaVuSans-70" x="658.154297"/>
      <use xlink:href="#DejaVuSans-29" x="721.630859"/>
     </g>
    </g>
   </g>
   <g id="matplotlib.axis_2">
    <g id="ytick_1">
     <g id="line2d_1">
      <path d="M 40.600625 273.99006 
L 993.140625 273.99006 
" clip-path="url(#p8fc26a67ae)" style="fill: none; stroke: #dedede; stroke-linecap: square"/>
     </g>
     <g id="text_8">
      <!-- 0.0 -->
      <g transform="translate(20.878125 277.029435)scale(0.08 -0.08)">
       <defs>
        <path id="DejaVuSans-2e" d="M 684 794 
L 1344 794 
L 1344 0 
L 684 0 
L 684 794 
z
" transform="scale(0.015625)"/>
       </defs>
       <use xlink:href="#DejaVuSans-30"/>
       <use xlink:href="#DejaVuSans-2e" x="63.623047"/>
       <use xlink:href="#DejaVuSans-30" x="95.410156"/>
      </g>
     </g>
    </g>
    <g id="ytick_2">
     <g id="line2d_2">
      <path d="M 40.600625 245.956594 
L 993.140625 245.956594 
" clip-path="url(#p8fc26a67ae)" style="fill: none; stroke: #dedede; stroke-linecap: square"/>
     </g>
     <g id="text_9">
      <!-- 0.2 -->
      <g transform="translate(20.878125 248.995969)scale(0.08 -0.08)">
       <use xlink:href="#DejaVuSans-30"/>
       <use xlink:href="#DejaVuSans-2e" x="63.623047"/>
       <use xlink:href="#DejaVuSans-32" x="95.410156"/>
      </g>
     </g>
    </g>
    <g id="ytick_3">
     <g id="line2d_3">
      <path d="M 40.600625 217.923127 
L 993.140625 217.923127 
" clip-path="url(#p8fc26a67ae)" style="fill: none; stroke: #dedede; stroke-linecap: square"/>
     </g>
     <g id="text_10">
      <!-- 0.4 -->
      <g transform="translate(20.878125 220.962502)scale(0.08 -0.08)">
       <use xlink:href="#DejaVuSans-30"/>
       <use xlink:href="#DejaVuSans-2e" x="63.623047"/>
       <use xlink:href="#DejaVuSans-34" x="95.410156"/>
      </g>
     </g>
    </g>
    <g id="ytick_4">
     <g id="line2d_4">
      <path d="M 40.600625 189.889661 
L 993.140625 189.889661 
" clip-path="url(#p8fc26a67ae)" style="fill: none; stroke: #dedede; stroke-linecap: square"/>
     </g>
     <g id="text_11">
      <!-- 0.6 -->
      <g transform="translate(20.878125 192.929036)scale(0.08 -0.08)">
       <use xlink:href="#DejaVuSans-30"/>
       <use xlink:href="#DejaVuSans-2e" x="63.623047"/>
       <use xlink:href="#DejaVuSans-36" x="95.410156"/>
      </g>
     </g>
    </g>
    <g id="ytick_5">
     <g id="line2d_5">
      <path d="M 40.600625 161.856195 
L 993.140625 161.856195 
" clip-path="url(#p8fc26a67ae)" style="fill: none; stroke: #dedede; stroke-linecap: square"/>
     </g>
     <g id="text_12">
      <!-- 0.8 -->
      <g transform="translate(20.878125 164.89557)scale(0.08 -0.08)">
       <use xlink:href="#DejaVuSans-30"/>
       <use xlink:href="#DejaVuSans-2e" x="63.623047"/>
       <use xlink:href="#DejaVuSans-38" x="95.410156"/>
      </g>
     </g>
    </g>
    <g id="ytick_6">
     <g id="line2d_6">
      <path d="M 40.600625 133.822728 
L 993.140625 133.822728 
" clip-path="url(#p8fc26a67ae)" style="fill: none; stroke: #dedede; stroke-linecap: square"/>
     </g>
     <g id="text_13">
      <!-- 1.0 -->
      <g transform="translate(20.878125 136.862103)scale(0.08 -0.08)">
       <use xlink:href="#DejaVuSans-31"/>
       <use xlink:href="#DejaVuSans-2e" x="63.623047"/>
       <use xlink:href="#DejaVuSans-30" x="95.410156"/>
      </g>
     </g>
    </g>
    <g id="ytick_7">
     <g id="line2d_7">
      <path d="M 40.600625 105.789262 
L 993.140625 105.789262 
" clip-path="url(#p8fc26a67ae)" style="fill: none; stroke: #dedede; stroke-linecap: square"/>
     </g>
     <g id="text_14">
      <!-- 1.2 -->
      <g transform="translate(20.878125 108.828637)scale(0.08 -0.08)">
       <use xlink:href="#DejaVuSans-31"/>
       <use xlink:href="#DejaVuSans-2e" x="63.623047"/>
       <use xlink:href="#DejaVuSans-32" x="95.410156"/>
      </g>
     </g>
    </g>
    <g id="ytick_8">
     <g id="line2d_8">
      <path d="M 40.600625 77.755796 
L 993.140625 77.755796 
" clip-path="url(#p8fc26a67ae)" style="fill: none; stroke: #dedede; stroke-linecap: square"/>
     </g>
     <g id="text_15">
      <!-- 1.4 -->
      <g transform="translate(20.878125 80.795171)scale(0.08 -0.08)">
       <use xlink:href="#DejaVuSans-31"/>
       <use xlink:href="#DejaVuSans-2e" x="63.623047"/>
       <use xlink:href="#DejaVuSans-34" x="95.410156"/>
      </g>
     </g>
    </g>
    <g id="ytick_9">
     <g id="line2d_9">
      <path d="M 40.600625 49.72233 
L 993.140625 49.72233 
" clip-path="url(#p8fc26a67ae)" style="fill: none; stroke: #dedede; stroke-linecap: square"/>
     </g>
     <g id="text_16">
      <!-- 1.6 -->
      <g transform="translate(20.878125 52.761705)scale(0.08 -0.08)">
       <use xlink:href="#DejaVuSans-31"/>
       <use xlink:href="#DejaVuSans-2e" x="63.623047"/>
       <use xlink:href="#DejaVuSans-36" x="95.410156"/>
      </g>
     </g>
    </g>
    <g id="text_17">
     <!-- Percentage of Counts -->
     <g transform="translate(14.798438 206.309897)rotate(-90)scale(0.1 -0.1)">
      <defs>
       <path id="DejaVuSans-50" d="M 1259 4147 
L 1259 2394 
L 2053 2394 
Q 2494 2394 2734 2622 
Q 2975 2850 2975 3272 
Q 2975 3691 2734 3919 
Q 2494 4147 2053 4147 
L 1259 4147 
z
M 628 4666 
L 2053 4666 
Q 2838 4666 3239 4311 
Q 3641 3956 3641 3272 
Q 3641 2581 3239 2228 
Q 2838 1875 2053 1875 
L 1259 1875 
L 1259 0 
L 628 0 
L 628 4666 
z
" transform="scale(0.015625)"/>
       <path id="DejaVuSans-63" d="M 3122 3366 
L 3122 2828 
Q 2878 2963 2633 3030 
Q 2388 3097 2138 3097 
Q 1578 3097 1268 2742 
Q 959 2388 959 1747 
Q 959 1106 1268 751 
Q 1578 397 2138 397 
Q 2388 397 2633 464 
Q 2878 531 3122 666 
L 3122 134 
Q 2881 22 2623 -34 
Q 2366 -91 2075 -91 
Q 1284 -91 818 406 
Q 353 903 353 1747 
Q 353 2603 823 3093 
Q 1294 3584 2113 3584 
Q 2378 3584 2631 3529 
Q 2884 3475 3122 3366 
z
" transform="scale(0.015625)"/>
       <path id="DejaVuSans-61" d="M 2194 1759 
Q 1497 1759 1228 1600 
Q 959 1441 959 1056 
Q 959 750 1161 570 
Q 1363 391 1709 391 
Q 2188 391 2477 730 
Q 2766 1069 2766 1631 
L 2766 1759 
L 2194 1759 
z
M 3341 1997 
L 3341 0 
L 2766 0 
L 2766 531 
Q 2569 213 2275 61 
Q 1981 -91 1556 -91 
Q 1019 -91 701 211 
Q 384 513 384 1019 
Q 384 1609 779 1909 
Q 1175 2209 1959 2209 
L 2766 2209 
L 2766 2266 
Q 2766 2663 2505 2880 
Q 2244 3097 1772 3097 
Q 1472 3097 1187 3025 
Q 903 2953 641 2809 
L 641 3341 
Q 956 3463 1253 3523 
Q 1550 3584 1831 3584 
Q 2591 3584 2966 3190 
Q 3341 2797 3341 1997 
z
" transform="scale(0.015625)"/>
       <path id="DejaVuSans-67" d="M 2906 1791 
Q 2906 2416 2648 2759 
Q 2391 3103 1925 3103 
Q 1463 3103 1205 2759 
Q 947 2416 947 1791 
Q 947 1169 1205 825 
Q 1463 481 1925 481 
Q 2391 481 2648 825 
Q 2906 1169 2906 1791 
z
M 3481 434 
Q 3481 -459 3084 -895 
Q 2688 -1331 1869 -1331 
Q 1566 -1331 1297 -1286 
Q 1028 -1241 775 -1147 
L 775 -588 
Q 1028 -725 1275 -790 
Q 1522 -856 1778 -856 
Q 2344 -856 2625 -561 
Q 2906 -266 2906 331 
L 2906 616 
Q 2728 306 2450 153 
Q 2172 0 1784 0 
Q 1141 0 747 490 
Q 353 981 353 1791 
Q 353 2603 747 3093 
Q 1141 3584 1784 3584 
Q 2172 3584 2450 3431 
Q 2728 3278 2906 2969 
L 2906 3500 
L 3481 3500 
L 3481 434 
z
" transform="scale(0.015625)"/>
       <path id="DejaVuSans-6f" d="M 1959 3097 
Q 1497 3097 1228 2736 
Q 959 2375 959 1747 
Q 959 1119 1226 758 
Q 1494 397 1959 397 
Q 2419 397 2687 759 
Q 2956 1122 2956 1747 
Q 2956 2369 2687 2733 
Q 2419 3097 1959 3097 
z
M 1959 3584 
Q 2709 3584 3137 3096 
Q 3566 2609 3566 1747 
Q 3566 888 3137 398 
Q 2709 -91 1959 -91 
Q 1206 -91 779 398 
Q 353 888 353 1747 
Q 353 2609 779 3096 
Q 1206 3584 1959 3584 
z
" transform="scale(0.015625)"/>
       <path id="DejaVuSans-66" d="M 2375 4863 
L 2375 4384 
L 1825 4384 
Q 1516 4384 1395 4259 
Q 1275 4134 1275 3809 
L 1275 3500 
L 2222 3500 
L 2222 3053 
L 1275 3053 
L 1275 0 
L 697 0 
L 697 3053 
L 147 3053 
L 147 3500 
L 697 3500 
L 697 3744 
Q 697 4328 969 4595 
Q 1241 4863 1831 4863 
L 2375 4863 
z
" transform="scale(0.015625)"/>
       <path id="DejaVuSans-43" d="M 4122 4306 
L 4122 3641 
Q 3803 3938 3442 4084 
Q 3081 4231 2675 4231 
Q 1875 4231 1450 3742 
Q 1025 3253 1025 2328 
Q 1025 1406 1450 917 
Q 1875 428 2675 428 
Q 3081 428 3442 575 
Q 3803 722 4122 1019 
L 4122 359 
Q 3791 134 3420 21 
Q 3050 -91 2638 -91 
Q 1578 -91 968 557 
Q 359 1206 359 2328 
Q 359 3453 968 4101 
Q 1578 4750 2638 4750 
Q 3056 4750 3426 4639 
Q 3797 4528 4122 4306 
z
" transform="scale(0.015625)"/>
       <path id="DejaVuSans-75" d="M 544 1381 
L 544 3500 
L 1119 3500 
L 1119 1403 
Q 1119 906 1312 657 
Q 1506 409 1894 409 
Q 2359 409 2629 706 
Q 2900 1003 2900 1516 
L 2900 3500 
L 3475 3500 
L 3475 0 
L 2900 0 
L 2900 538 
Q 2691 219 2414 64 
Q 2138 -91 1772 -91 
Q 1169 -91 856 284 
Q 544 659 544 1381 
z
M 1991 3584 
L 1991 3584 
z
" transform="scale(0.015625)"/>
      </defs>
      <use xlink:href="#DejaVuSans-50"/>
      <use xlink:href="#DejaVuSans-65" x="56.677734"/>
      <use xlink:href="#DejaVuSans-72" x="118.201172"/>
      <use xlink:href="#DejaVuSans-63" x="157.064453"/>
      <use xlink:href="#DejaVuSans-65" x="212.044922"/>
      <use xlink:href="#DejaVuSans-6e" x="273.568359"/>
      <use xlink:href="#DejaVuSans-74" x="336.947266"/>
      <use xlink:href="#DejaVuSans-61" x="376.15625"/>
      <use xlink:href="#DejaVuSans-67" x="437.435547"/>
      <use xlink:href="#DejaVuSans-65" x="500.912109"/>
      <use xlink:href="#DejaVuSans-20" x="562.435547"/>
      <use xlink:href="#DejaVuSans-6f" x="594.222656"/>
      <use xlink:href="#DejaVuSans-66" x="655.404297"/>
      <use xlink:href="#DejaVuSans-20" x="690.609375"/>
      <use xlink:href="#DejaVuSans-43" x="722.396484"/>
      <use xlink:href="#DejaVuSans-6f" x="792.220703"/>
      <use xlink:href="#DejaVuSans-75" x="853.402344"/>
      <use xlink:href="#DejaVuSans-6e" x="916.78125"/>
      <use xlink:href="#DejaVuSans-74" x="980.160156"/>
      <use xlink:href="#DejaVuSans-73" x="1019.369141"/>
     </g>
    </g>
   </g>
   <g id="line2d_10">
    <path d="M 84.770827 270.555638 
L 85.643755 270.269437 
L 86.516684 270.269437 
L 87.389613 251.952521 
L 88.262542 241.649257 
L 89.135471 266.548813 
L 90.0084 271.128042 
L 90.881329 271.414244 
L 91.754258 263.972997 
L 92.627187 250.235311 
L 93.500115 234.494212 
L 94.373044 230.201185 
L 95.245973 210.739462 
L 96.118902 156.074918 
L 96.991831 43.025207 
L 97.86476 75.079809 
L 98.737689 160.367945 
L 99.610618 174.105632 
L 100.483547 150.350882 
L 101.356475 155.788717 
L 102.229404 148.34747 
L 103.102333 163.229963 
L 103.975262 169.812605 
L 104.848191 151.49569 
L 105.72112 95.113935 
L 106.594049 83.952065 
L 107.466978 139.761416 
L 108.339907 162.085156 
L 109.212835 163.802367 
L 110.085764 161.226551 
L 110.958693 162.085156 
L 111.831622 167.236789 
L 112.704551 180.11587 
L 113.57748 166.378183 
L 114.450409 164.660972 
L 115.323338 153.2129 
L 116.196266 164.947174 
L 117.069195 186.412309 
L 117.942124 171.529816 
L 118.815053 179.257264 
L 119.687982 176.96765 
L 120.560911 186.984713 
L 121.43384 178.684861 
L 122.306769 185.839906 
L 123.179698 176.109044 
L 124.925555 194.42596 
L 125.798484 189.846731 
L 126.671413 183.264089 
L 127.544342 190.991538 
L 128.417271 192.136345 
L 129.2902 191.850143 
L 130.163129 198.718987 
L 131.036058 198.718987 
L 131.908986 208.449848 
L 132.781915 196.14317 
L 133.654844 202.153408 
L 134.527773 202.43961 
L 135.400702 200.149996 
L 136.273631 205.015426 
L 137.14656 211.598068 
L 138.019489 204.729224 
L 138.892418 210.167059 
L 139.765346 209.308453 
L 140.638275 212.742875 
L 141.511204 205.015426 
L 142.384133 220.470323 
L 143.257062 209.880857 
L 144.129991 211.884269 
L 145.00292 214.460086 
L 145.875849 214.173884 
L 146.748777 219.89792 
L 147.621706 220.470323 
L 148.494635 222.187534 
L 149.367564 225.049552 
L 150.240493 227.339167 
L 151.113422 220.184122 
L 151.986351 222.473736 
L 152.85928 220.184122 
L 153.732209 224.76335 
L 154.605137 235.066615 
L 155.478066 221.615131 
L 156.350995 221.042727 
L 157.223924 233.635606 
L 158.096853 235.352817 
L 158.969782 233.349404 
L 159.842711 233.635606 
L 160.71564 233.063203 
L 161.588569 237.35623 
L 162.461497 234.494212 
L 163.334426 227.91157 
L 164.207355 233.349404 
L 165.080284 233.921808 
L 165.953213 236.497624 
L 166.826142 232.490799 
L 167.699071 237.070028 
L 168.572 233.063203 
L 169.444929 239.645844 
L 170.317857 239.645844 
L 171.190786 239.932046 
L 172.063715 241.076853 
L 172.936644 235.925221 
L 173.809573 229.914983 
L 174.682502 239.645844 
L 175.555431 239.932046 
L 176.42836 249.949109 
L 177.301288 243.080266 
L 178.174217 245.656082 
L 179.047146 240.218248 
L 180.793004 245.083678 
L 181.665933 237.642431 
L 182.538862 224.76335 
L 184.28472 241.076853 
L 185.157648 241.363055 
L 186.030577 245.942284 
L 186.903506 248.5181 
L 187.776435 248.5181 
L 188.649364 252.524925 
L 190.395222 242.794064 
L 191.268151 251.093916 
L 192.14108 243.080266 
L 193.014008 237.928633 
L 193.886937 235.925221 
L 194.759866 239.645844 
L 195.632795 239.645844 
L 196.505724 244.511275 
L 197.378653 251.093916 
L 198.251582 250.807714 
L 199.124511 246.228485 
L 199.99744 239.359642 
L 200.870368 239.07344 
L 201.743297 239.932046 
L 202.616226 237.35623 
L 203.489155 251.380118 
L 204.362084 244.511275 
L 205.235013 243.366467 
L 206.107942 246.228485 
L 206.980871 243.366467 
L 207.853799 245.656082 
L 208.726728 238.787239 
L 209.599657 238.501037 
L 210.472586 239.07344 
L 211.345515 237.35623 
L 212.218444 240.504449 
L 213.091373 246.800889 
L 213.964302 250.521512 
L 214.837231 247.945696 
L 215.710159 243.080266 
L 216.583088 234.20801 
L 217.456017 240.790651 
L 218.328946 236.783826 
L 219.201875 236.783826 
L 220.074804 243.652669 
L 220.947733 242.794064 
L 221.820662 247.087091 
L 222.693591 246.800889 
L 223.566519 240.504449 
L 224.439448 239.359642 
L 225.312377 245.656082 
L 226.185306 238.787239 
L 227.058235 239.645844 
L 227.931164 241.649257 
L 228.804093 237.070028 
L 229.677022 237.928633 
L 230.549951 241.935458 
L 231.422879 246.514687 
L 232.295808 236.783826 
L 233.168737 239.359642 
L 234.041666 238.787239 
L 234.914595 239.932046 
L 235.787524 233.063203 
L 236.660453 239.932046 
L 237.533382 249.090503 
L 238.40631 241.076853 
L 239.279239 242.22166 
L 240.152168 239.359642 
L 241.025097 235.066615 
L 241.898026 237.070028 
L 243.643884 245.942284 
L 244.516813 242.22166 
L 245.389742 246.228485 
L 246.26267 235.639019 
L 247.135599 244.511275 
L 248.008528 240.790651 
L 248.881457 238.787239 
L 249.754386 236.497624 
L 250.627315 242.507862 
L 251.500244 243.652669 
L 252.373173 243.938871 
L 253.246102 245.656082 
L 254.11903 249.376705 
L 254.991959 245.083678 
L 255.864888 241.363055 
L 256.737817 246.514687 
L 257.610746 242.507862 
L 258.483675 243.938871 
L 259.356604 247.087091 
L 260.229533 249.090503 
L 261.102462 247.945696 
L 261.97539 250.521512 
L 262.848319 247.087091 
L 263.721248 246.800889 
L 264.594177 248.231898 
L 265.467106 244.225073 
L 266.340035 245.083678 
L 267.212964 250.235311 
L 268.085893 252.238723 
L 268.958821 251.380118 
L 269.83175 254.528338 
L 270.704679 246.800889 
L 271.577608 251.093916 
L 272.450537 250.235311 
L 273.323466 255.673145 
L 274.196395 247.945696 
L 275.069324 254.528338 
L 275.942253 253.38353 
L 276.815181 251.952521 
L 277.68811 248.5181 
L 278.561039 252.238723 
L 279.433968 252.524925 
L 280.306897 253.38353 
L 281.179826 252.811127 
L 282.052755 258.821365 
L 282.925684 253.38353 
L 283.798613 259.393768 
L 284.671541 254.528338 
L 285.54447 254.814539 
L 286.417399 257.104154 
L 287.290328 255.673145 
L 288.163257 256.53175 
L 289.036186 256.53175 
L 289.909115 255.673145 
L 290.782044 258.535163 
L 291.654973 256.245548 
L 292.527901 259.393768 
L 293.40083 258.535163 
L 294.273759 261.110979 
L 295.146688 257.104154 
L 296.019617 257.962759 
L 296.892546 256.53175 
L 297.765475 259.393768 
L 298.638404 258.821365 
L 299.511332 259.393768 
L 301.25719 259.966172 
L 302.130119 261.969584 
L 303.003048 259.966172 
L 303.875977 256.53175 
L 304.748906 259.966172 
L 305.621835 262.255786 
L 306.494764 254.242136 
L 307.367692 257.390356 
L 308.240621 259.67997 
L 309.11355 258.821365 
L 309.986479 261.683383 
L 310.859408 261.683383 
L 311.732337 261.397181 
L 312.605266 257.962759 
L 313.478195 261.683383 
L 314.351124 260.538575 
L 315.224052 260.252374 
L 316.096981 262.255786 
L 316.96991 260.538575 
L 318.715768 262.82819 
L 319.588697 260.538575 
L 320.461626 264.831602 
L 321.334555 261.969584 
L 322.207484 255.673145 
L 323.080412 264.545401 
L 323.953341 263.400593 
L 325.699199 258.821365 
L 326.572128 257.676557 
L 327.445057 260.538575 
L 328.317986 259.107566 
L 329.190915 261.969584 
L 330.063843 259.966172 
L 330.936772 260.538575 
L 331.809701 258.248961 
L 332.68263 259.67997 
L 333.555559 258.821365 
L 334.428488 260.252374 
L 335.301417 259.393768 
L 336.174346 261.397181 
L 337.047275 253.097329 
L 337.920203 262.541988 
L 338.793132 262.82819 
L 339.666061 258.821365 
L 340.53899 261.969584 
L 341.411919 257.676557 
L 342.284848 259.393768 
L 343.157777 258.821365 
L 344.030706 257.104154 
L 344.903635 257.676557 
L 345.776563 260.538575 
L 346.649492 261.110979 
L 347.522421 259.966172 
L 348.39535 258.535163 
L 349.268279 260.538575 
L 350.141208 261.683383 
L 351.014137 261.397181 
L 351.887066 255.959347 
L 352.759995 259.393768 
L 353.632923 260.824777 
L 354.505852 256.817952 
L 355.378781 259.107566 
L 357.124639 257.390356 
L 357.997568 261.683383 
L 358.870497 260.538575 
L 359.743426 261.110979 
L 360.616354 257.962759 
L 361.489283 258.535163 
L 362.362212 258.821365 
L 363.235141 258.248961 
L 364.10807 259.966172 
L 364.980999 257.676557 
L 365.853928 258.821365 
L 366.726857 260.824777 
L 367.599786 257.390356 
L 368.472714 258.535163 
L 369.345643 260.538575 
L 370.218572 260.538575 
L 371.091501 262.541988 
L 371.96443 260.538575 
L 372.837359 259.393768 
L 373.710288 261.397181 
L 374.583217 260.538575 
L 375.456146 263.400593 
L 376.329074 260.538575 
L 377.202003 261.683383 
L 378.074932 262.255786 
L 378.947861 260.252374 
L 379.82079 262.82819 
L 380.693719 261.969584 
L 381.566648 260.538575 
L 382.439577 263.114392 
L 383.312505 259.107566 
L 384.185434 264.831602 
L 385.058363 259.966172 
L 385.931292 261.110979 
L 386.804221 264.545401 
L 387.67715 261.683383 
L 388.550079 261.683383 
L 389.423008 261.110979 
L 390.295937 260.252374 
L 391.168865 262.541988 
L 392.041794 264.259199 
L 392.914723 261.969584 
L 393.787652 261.110979 
L 394.660581 262.255786 
L 397.279368 263.114392 
L 398.152297 264.545401 
L 399.025225 262.541988 
L 399.898154 257.676557 
L 400.771083 263.972997 
L 401.644012 264.831602 
L 402.516941 262.82819 
L 403.38987 257.962759 
L 404.262799 261.683383 
L 405.135728 262.82819 
L 406.008657 267.121217 
L 406.881585 263.400593 
L 407.754514 266.262611 
L 408.627443 266.548813 
L 409.500372 268.266024 
L 410.373301 263.400593 
L 411.24623 267.121217 
L 412.119159 266.548813 
L 412.992088 262.541988 
L 413.865016 266.262611 
L 414.737945 266.548813 
L 415.610874 265.690208 
L 416.483803 264.259199 
L 418.229661 266.548813 
L 419.10259 267.121217 
L 419.975519 265.97641 
L 420.848448 265.690208 
L 421.721376 267.121217 
L 422.594305 265.404006 
L 423.467234 265.404006 
L 424.340163 268.838428 
L 425.213092 264.831602 
L 426.086021 265.97641 
L 426.95895 264.259199 
L 427.831879 266.262611 
L 428.704808 269.124629 
L 429.577736 267.69362 
L 430.450665 265.97641 
L 431.323594 267.407419 
L 432.196523 265.97641 
L 433.069452 265.690208 
L 433.942381 267.979822 
L 434.81531 265.97641 
L 435.688239 265.97641 
L 436.561168 269.124629 
L 437.434096 267.69362 
L 438.307025 269.124629 
L 439.179954 267.407419 
L 440.052883 266.835015 
L 440.925812 265.97641 
L 441.798741 267.979822 
L 442.67167 267.407419 
L 443.544599 268.266024 
L 444.417527 267.979822 
L 445.290456 266.835015 
L 446.163385 267.979822 
L 447.036314 266.548813 
L 447.909243 265.690208 
L 448.782172 268.266024 
L 449.655101 270.269437 
L 450.52803 267.407419 
L 451.400959 268.552226 
L 452.273887 269.410831 
L 453.146816 269.983235 
L 454.019745 270.269437 
L 454.892674 270.269437 
L 455.765603 271.986647 
L 456.638532 269.697033 
L 457.511461 266.835015 
L 458.38439 268.838428 
L 459.257319 268.266024 
L 460.130247 267.979822 
L 461.003176 268.552226 
L 461.876105 267.69362 
L 462.749034 269.983235 
L 463.621963 265.690208 
L 464.494892 269.124629 
L 465.367821 266.548813 
L 466.24075 269.697033 
L 467.113679 268.552226 
L 467.986607 269.410831 
L 468.859536 267.979822 
L 469.732465 270.269437 
L 470.605394 269.983235 
L 471.478323 270.555638 
L 472.351252 270.269437 
L 473.224181 269.697033 
L 474.09711 268.552226 
L 474.970038 269.410831 
L 475.842967 268.552226 
L 476.715896 268.552226 
L 477.588825 268.266024 
L 478.461754 268.552226 
L 479.334683 269.124629 
L 480.207612 268.838428 
L 481.080541 268.838428 
L 481.95347 267.121217 
L 482.826398 268.552226 
L 483.699327 268.838428 
L 484.572256 268.838428 
L 485.445185 269.697033 
L 486.318114 268.552226 
L 487.191043 270.269437 
L 488.063972 267.407419 
L 488.936901 271.414244 
L 489.80983 270.84184 
L 490.682758 267.979822 
L 491.555687 270.555638 
L 492.428616 267.407419 
L 493.301545 269.697033 
L 494.174474 267.69362 
L 495.047403 268.552226 
L 496.793261 270.84184 
L 497.66619 267.121217 
L 498.539118 269.410831 
L 499.412047 270.269437 
L 500.284976 269.410831 
L 501.157905 270.555638 
L 502.030834 269.410831 
L 502.903763 270.269437 
L 503.776692 270.555638 
L 504.649621 270.269437 
L 505.522549 271.986647 
L 507.268407 269.697033 
L 508.141336 271.986647 
L 509.887194 269.124629 
L 511.633052 270.269437 
L 512.505981 269.410831 
L 513.378909 270.555638 
L 514.251838 269.124629 
L 515.124767 269.410831 
L 515.997696 270.84184 
L 516.870625 270.84184 
L 517.743554 271.414244 
L 518.616483 270.269437 
L 519.489412 270.269437 
L 520.362341 270.84184 
L 521.235269 268.552226 
L 522.108198 270.269437 
L 522.981127 270.555638 
L 523.854056 271.986647 
L 524.726985 269.697033 
L 525.599914 269.983235 
L 526.472843 268.266024 
L 527.345772 270.555638 
L 528.218701 271.414244 
L 529.091629 270.84184 
L 529.964558 271.128042 
L 530.837487 272.272849 
L 531.710416 271.700446 
L 532.583345 271.700446 
L 533.456274 271.128042 
L 534.329203 271.986647 
L 535.202132 270.555638 
L 536.07506 271.128042 
L 536.947989 272.272849 
L 537.820918 270.269437 
L 538.693847 270.555638 
L 539.566776 269.410831 
L 540.439705 272.559051 
L 541.312634 273.131455 
L 542.185563 272.272849 
L 543.058492 270.84184 
L 543.93142 272.272849 
L 544.804349 272.559051 
L 545.677278 271.700446 
L 546.550207 271.700446 
L 547.423136 272.845253 
L 548.296065 273.703858 
L 549.168994 271.128042 
L 550.041923 272.272849 
L 550.914852 269.697033 
L 551.78778 271.700446 
L 552.660709 271.700446 
L 553.533638 270.555638 
L 554.406567 271.414244 
L 555.279496 272.845253 
L 556.152425 272.272849 
L 557.025354 273.131455 
L 557.898283 271.700446 
L 558.771212 272.272849 
L 559.64414 272.559051 
L 560.517069 272.559051 
L 561.389998 272.272849 
L 562.262927 270.84184 
L 563.135856 272.559051 
L 564.008785 271.986647 
L 564.881714 272.559051 
L 566.627571 270.269437 
L 567.5005 272.559051 
L 568.373429 272.559051 
L 569.246358 272.272849 
L 570.119287 270.269437 
L 570.992216 271.414244 
L 571.865145 272.272849 
L 572.738074 272.272849 
L 573.611003 272.559051 
L 574.483931 273.703858 
L 575.35686 271.414244 
L 577.975647 273.131455 
L 578.848576 272.272849 
L 580.594434 272.845253 
L 581.467363 273.417656 
L 582.340291 273.417656 
L 583.21322 272.559051 
L 584.959078 273.703858 
L 585.832007 272.845253 
L 586.704936 272.272849 
L 587.577865 271.986647 
L 588.450794 272.845253 
L 589.323723 272.559051 
L 590.196651 273.131455 
L 591.06958 272.845253 
L 591.942509 271.986647 
L 592.815438 271.414244 
L 593.688367 273.131455 
L 594.561296 272.559051 
L 595.434225 273.131455 
L 596.307154 272.559051 
L 598.053011 271.986647 
L 598.92594 273.131455 
L 600.671798 273.703858 
L 601.544727 273.131455 
L 602.417656 271.986647 
L 603.290585 272.272849 
L 604.163514 273.703858 
L 605.036442 273.417656 
L 605.909371 272.845253 
L 606.7823 273.417656 
L 607.655229 273.417656 
L 608.528158 272.272849 
L 609.401087 273.417656 
L 610.274016 273.131455 
L 611.146945 271.700446 
L 612.019874 272.559051 
L 612.892802 272.272849 
L 613.765731 273.417656 
L 614.63866 273.417656 
L 615.511589 272.845253 
L 616.384518 273.703858 
L 617.257447 273.703858 
L 618.130376 273.131455 
L 619.876234 273.131455 
L 620.749162 272.845253 
L 621.622091 273.703858 
L 622.49502 273.417656 
L 623.367949 273.703858 
L 624.240878 272.272849 
L 625.113807 273.131455 
L 625.986736 273.417656 
L 626.859665 272.845253 
L 627.732593 272.845253 
L 628.605522 272.272849 
L 629.478451 273.703858 
L 630.35138 273.131455 
L 631.224309 273.417656 
L 632.097238 273.417656 
L 632.970167 273.703858 
L 633.843096 273.131455 
L 634.716025 273.703858 
L 635.588953 272.559051 
L 636.461882 273.703858 
L 638.20774 273.131455 
L 639.080669 272.559051 
L 639.953598 273.703858 
L 641.699456 273.417656 
L 642.572385 273.703858 
L 643.445313 273.703858 
L 644.318242 272.559051 
L 645.191171 273.417656 
L 646.0641 273.417656 
L 646.937029 272.845253 
L 647.809958 273.703858 
L 649.555816 273.703858 
L 652.174602 273.417656 
L 653.047531 273.703858 
L 653.92046 273.131455 
L 655.666318 273.131455 
L 656.539247 273.417656 
L 657.412176 273.131455 
L 658.285104 273.703858 
L 659.158033 273.417656 
L 660.030962 273.417656 
L 660.903891 273.131455 
L 662.649749 273.703858 
L 663.522678 273.417656 
L 664.395607 273.703858 
L 670.506109 273.131455 
L 671.379038 273.417656 
L 673.997824 273.417656 
L 674.870753 273.703858 
L 680.108327 273.703858 
L 680.981255 272.845253 
L 683.600042 273.131455 
L 684.472971 273.703858 
L 685.3459 273.131455 
L 687.091758 273.703858 
L 687.964687 273.417656 
L 689.710544 273.131455 
L 690.583473 273.703858 
L 691.456402 273.703858 
L 692.329331 273.417656 
L 693.20226 273.703858 
L 694.075189 273.703858 
L 698.439833 273.131455 
L 701.931549 273.703858 
L 704.550335 273.417656 
L 705.423264 273.703858 
L 710.660838 273.703858 
L 713.279624 273.417656 
L 714.152553 273.703858 
L 715.025482 273.417656 
L 717.644269 273.703858 
L 721.135984 273.417656 
L 735.102846 273.703858 
L 735.975775 273.131455 
L 739.467491 273.417656 
L 742.959206 273.417656 
L 753.434353 273.703858 
L 753.434353 273.703858 
" clip-path="url(#p8fc26a67ae)" style="fill: none; stroke: #7cb5ec; stroke-linecap: square"/>
   </g>
   <g id="line2d_11">
    <path d="M 83.897898 273.642431 
L 84.770827 269.470888 
L 85.643755 268.428002 
L 86.516684 266.689859 
L 87.389613 264.604088 
L 88.262542 267.037488 
L 89.135471 268.775631 
L 90.0084 268.428002 
L 90.881329 264.951716 
L 91.754258 256.60863 
L 93.500115 224.279169 
L 94.373044 209.678767 
L 95.245973 198.90228 
L 96.118902 181.173221 
L 96.991831 175.958792 
L 97.86476 178.739821 
L 98.737689 189.863937 
L 99.610618 159.620248 
L 100.483547 167.963334 
L 101.356475 151.972418 
L 102.229404 154.405818 
L 103.102333 177.696935 
L 103.975262 172.482506 
L 104.848191 178.044564 
L 105.72112 147.453246 
L 106.594049 165.182305 
L 107.466978 172.482506 
L 108.339907 165.877563 
L 109.212835 170.744363 
L 110.085764 162.053648 
L 110.958693 173.873021 
L 111.831622 164.834677 
L 112.704551 184.649507 
L 113.57748 184.649507 
L 114.450409 173.525392 
L 115.323338 180.130336 
L 116.196266 181.868479 
L 117.069195 183.95425 
L 117.942124 185.344765 
L 118.815053 187.082908 
L 119.687982 190.559194 
L 120.560911 194.730737 
L 121.43384 204.464338 
L 122.306769 204.464338 
L 123.179698 195.773623 
L 124.052626 192.992594 
L 124.925555 195.773623 
L 125.798484 200.292795 
L 126.671413 179.435078 
L 127.544342 207.592996 
L 128.417271 206.202481 
L 129.2902 199.597538 
L 130.163129 214.545568 
L 131.036058 202.726195 
L 131.908986 211.069282 
L 132.781915 202.378567 
L 133.654844 203.769081 
L 134.527773 202.030938 
L 135.400702 197.164137 
L 136.273631 211.764539 
L 137.14656 205.854853 
L 138.019489 208.288253 
L 138.892418 216.631339 
L 139.765346 221.49814 
L 140.638275 219.06474 
L 141.511204 220.455254 
L 142.384133 220.802883 
L 143.257062 225.322055 
L 144.129991 226.364941 
L 145.00292 219.759997 
L 145.875849 216.283711 
L 146.748777 223.236283 
L 147.621706 222.888654 
L 148.494635 219.759997 
L 149.367564 226.017312 
L 150.240493 222.541026 
L 151.986351 216.978968 
L 152.85928 221.150511 
L 153.732209 223.583912 
L 154.605137 231.231741 
L 155.478066 228.798341 
L 156.350995 240.270085 
L 157.223924 235.750913 
L 158.096853 238.184313 
L 158.969782 232.622256 
L 159.842711 232.274627 
L 160.71564 236.793799 
L 161.588569 231.57937 
L 162.461497 233.665141 
L 163.334426 233.317513 
L 164.207355 238.184313 
L 165.080284 233.317513 
L 165.953213 234.708027 
L 166.826142 236.793799 
L 167.699071 234.360399 
L 168.572 236.098542 
L 169.444929 240.617714 
L 170.317857 235.055656 
L 171.190786 239.922456 
L 172.063715 234.360399 
L 172.936644 239.922456 
L 173.809573 236.793799 
L 174.682502 243.746371 
L 175.555431 238.531942 
L 176.42836 244.441628 
L 177.301288 244.441628 
L 178.174217 245.136885 
L 179.920075 247.222657 
L 180.793004 242.355857 
L 181.665933 242.008228 
L 182.538862 240.270085 
L 183.411791 242.355857 
L 184.28472 236.44617 
L 185.157648 243.746371 
L 186.030577 246.179771 
L 186.903506 246.179771 
L 187.776435 251.741829 
L 188.649364 243.746371 
L 189.522293 241.660599 
L 190.395222 247.570286 
L 191.268151 242.703485 
L 192.14108 249.308429 
L 193.886937 242.703485 
L 194.759866 238.184313 
L 195.632795 247.917914 
L 196.505724 247.917914 
L 197.378653 243.398742 
L 198.251582 249.308429 
L 199.124511 241.660599 
L 199.99744 245.832143 
L 200.870368 249.308429 
L 201.743297 243.051114 
L 202.616226 252.784715 
L 203.489155 251.3942 
L 204.362084 246.179771 
L 205.235013 254.175229 
L 206.107942 246.179771 
L 206.980871 247.570286 
L 207.853799 242.703485 
L 208.726728 243.746371 
L 210.472586 246.5274 
L 211.345515 246.179771 
L 212.218444 247.570286 
L 213.091373 249.308429 
L 213.964302 249.656057 
L 214.837231 246.875028 
L 215.710159 242.703485 
L 216.583088 243.398742 
L 217.456017 236.44617 
L 218.328946 244.094 
L 219.201875 237.836685 
L 220.074804 246.5274 
L 220.947733 250.351315 
L 221.820662 242.703485 
L 222.693591 250.351315 
L 223.566519 246.875028 
L 224.439448 246.875028 
L 225.312377 244.789257 
L 226.185306 245.832143 
L 227.058235 243.746371 
L 227.931164 247.222657 
L 228.804093 242.355857 
L 229.677022 245.136885 
L 230.549951 243.051114 
L 231.422879 241.312971 
L 232.295808 243.746371 
L 233.168737 239.227199 
L 234.041666 243.051114 
L 234.914595 245.136885 
L 235.787524 237.141427 
L 237.533382 245.484514 
L 238.40631 245.484514 
L 239.279239 244.441628 
L 240.152168 244.441628 
L 241.025097 246.5274 
L 241.898026 242.355857 
L 242.770955 244.094 
L 243.643884 246.5274 
L 244.516813 243.051114 
L 245.389742 238.531942 
L 246.26267 248.9608 
L 247.135599 244.094 
L 248.008528 239.922456 
L 248.881457 243.746371 
L 249.754386 240.617714 
L 250.627315 246.179771 
L 252.373173 242.703485 
L 253.246102 244.441628 
L 254.11903 255.218115 
L 254.991959 245.484514 
L 255.864888 251.046572 
L 256.737817 247.222657 
L 258.483675 250.003686 
L 259.356604 249.656057 
L 260.229533 241.312971 
L 261.102462 246.875028 
L 261.97539 249.656057 
L 262.848319 245.484514 
L 263.721248 246.875028 
L 264.594177 243.746371 
L 265.467106 255.913372 
L 266.340035 249.308429 
L 267.212964 245.484514 
L 268.085893 251.046572 
L 268.958821 248.9608 
L 269.83175 252.784715 
L 270.704679 249.308429 
L 271.577608 250.351315 
L 272.450537 248.265543 
L 273.323466 255.565744 
L 274.196395 248.613172 
L 275.069324 250.351315 
L 275.942253 251.046572 
L 276.815181 248.265543 
L 277.68811 251.741829 
L 278.561039 252.089458 
L 279.433968 247.570286 
L 280.306897 256.60863 
L 281.179826 255.565744 
L 282.052755 250.698943 
L 282.925684 252.437086 
L 283.798613 258.694401 
L 284.671541 253.479972 
L 285.54447 253.479972 
L 286.417399 250.351315 
L 287.290328 249.308429 
L 288.163257 256.261001 
L 289.036186 253.132343 
L 289.909115 255.565744 
L 290.782044 254.870486 
L 291.654973 257.999144 
L 292.527901 256.261001 
L 293.40083 257.303887 
L 295.146688 253.827601 
L 296.019617 258.694401 
L 297.765475 252.784715 
L 298.638404 255.913372 
L 299.511332 254.175229 
L 300.384261 254.522858 
L 301.25719 257.303887 
L 302.130119 259.04203 
L 303.003048 260.084916 
L 303.875977 259.04203 
L 304.748906 257.651515 
L 305.621835 256.956258 
L 306.494764 253.827601 
L 307.367692 254.175229 
L 308.240621 257.999144 
L 309.11355 257.651515 
L 309.986479 257.651515 
L 310.859408 257.999144 
L 311.732337 257.999144 
L 312.605266 257.303887 
L 313.478195 258.346773 
L 314.351124 255.913372 
L 315.224052 256.60863 
L 316.096981 260.432544 
L 316.96991 261.127801 
L 317.842839 261.47543 
L 318.715768 259.04203 
L 319.588697 259.389658 
L 320.461626 263.213573 
L 321.334555 261.47543 
L 322.207484 256.261001 
L 323.080412 258.694401 
L 323.953341 263.213573 
L 324.82627 257.303887 
L 325.699199 260.432544 
L 326.572128 257.651515 
L 327.445057 258.694401 
L 328.317986 257.999144 
L 329.190915 259.737287 
L 330.063843 260.780173 
L 330.936772 258.694401 
L 331.809701 255.218115 
L 332.68263 263.561202 
L 333.555559 259.389658 
L 334.428488 260.432544 
L 335.301417 258.346773 
L 336.174346 261.127801 
L 337.047275 260.084916 
L 337.920203 257.651515 
L 338.793132 255.565744 
L 339.666061 264.604088 
L 340.53899 258.694401 
L 341.411919 257.651515 
L 342.284848 251.3942 
L 343.157777 261.47543 
L 344.030706 258.694401 
L 344.903635 260.432544 
L 345.776563 254.870486 
L 346.649492 260.084916 
L 347.522421 259.737287 
L 348.39535 255.913372 
L 350.141208 262.518316 
L 351.014137 257.651515 
L 351.887066 257.303887 
L 352.759995 260.780173 
L 353.632923 259.389658 
L 354.505852 258.694401 
L 355.378781 259.04203 
L 356.25171 255.218115 
L 357.124639 259.389658 
L 357.997568 257.651515 
L 358.870497 253.479972 
L 359.743426 261.127801 
L 360.616354 259.389658 
L 361.489283 256.60863 
L 362.362212 260.432544 
L 363.235141 258.694401 
L 364.10807 255.913372 
L 364.980999 256.956258 
L 365.853928 262.170687 
L 366.726857 259.04203 
L 367.599786 260.084916 
L 368.472714 261.823059 
L 369.345643 261.823059 
L 371.091501 259.737287 
L 372.837359 255.565744 
L 373.710288 255.565744 
L 374.583217 258.346773 
L 375.456146 261.823059 
L 376.329074 253.827601 
L 377.202003 257.999144 
L 378.074932 260.084916 
L 378.947861 256.60863 
L 379.82079 258.694401 
L 380.693719 258.694401 
L 381.566648 261.47543 
L 382.439577 259.389658 
L 383.312505 261.127801 
L 384.185434 259.04203 
L 385.058363 261.47543 
L 385.931292 262.170687 
L 386.804221 263.213573 
L 387.67715 260.084916 
L 388.550079 260.084916 
L 389.423008 262.170687 
L 390.295937 262.865945 
L 391.168865 258.346773 
L 392.041794 261.823059 
L 392.914723 260.780173 
L 393.787652 256.956258 
L 394.660581 263.561202 
L 395.53351 258.346773 
L 396.406439 259.737287 
L 397.279368 259.04203 
L 398.152297 261.823059 
L 399.025225 260.780173 
L 399.898154 262.518316 
L 400.771083 261.823059 
L 401.644012 263.90883 
L 402.516941 256.261001 
L 403.38987 256.60863 
L 404.262799 263.213573 
L 405.135728 262.518316 
L 406.008657 261.47543 
L 406.881585 258.346773 
L 407.754514 263.561202 
L 408.627443 259.389658 
L 409.500372 261.823059 
L 410.373301 262.865945 
L 411.24623 261.127801 
L 412.119159 257.651515 
L 412.992088 260.084916 
L 413.865016 263.561202 
L 414.737945 263.561202 
L 415.610874 257.651515 
L 416.483803 263.90883 
L 417.356732 262.170687 
L 418.229661 267.732745 
L 419.10259 261.823059 
L 419.975519 263.90883 
L 420.848448 264.951716 
L 421.721376 259.389658 
L 422.594305 259.737287 
L 423.467234 264.951716 
L 424.340163 262.865945 
L 425.213092 264.604088 
L 426.086021 263.561202 
L 426.95895 265.646973 
L 427.831879 262.518316 
L 428.704808 260.780173 
L 429.577736 261.823059 
L 430.450665 265.299345 
L 431.323594 263.213573 
L 432.196523 263.213573 
L 433.069452 263.561202 
L 433.942381 263.213573 
L 434.81531 265.299345 
L 435.688239 265.646973 
L 436.561168 261.823059 
L 437.434096 263.213573 
L 438.307025 262.518316 
L 439.179954 264.951716 
L 440.052883 262.170687 
L 440.925812 264.604088 
L 441.798741 261.47543 
L 442.67167 263.90883 
L 443.544599 264.256459 
L 444.417527 263.90883 
L 445.290456 265.646973 
L 446.163385 263.561202 
L 447.036314 266.689859 
L 447.909243 263.90883 
L 448.782172 263.561202 
L 449.655101 265.994602 
L 450.52803 262.865945 
L 451.400959 264.256459 
L 452.273887 266.342231 
L 453.146816 266.342231 
L 454.019745 264.951716 
L 454.892674 268.428002 
L 455.765603 266.342231 
L 456.638532 260.432544 
L 457.511461 264.604088 
L 458.38439 264.951716 
L 459.257319 268.080374 
L 460.130247 264.951716 
L 461.003176 265.994602 
L 461.876105 265.646973 
L 462.749034 267.385116 
L 463.621963 267.732745 
L 464.494892 269.123259 
L 465.367821 262.865945 
L 466.24075 267.037488 
L 467.113679 268.080374 
L 467.986607 263.213573 
L 468.859536 265.994602 
L 469.732465 265.646973 
L 470.605394 265.994602 
L 471.478323 265.994602 
L 472.351252 263.561202 
L 473.224181 267.732745 
L 474.09711 264.604088 
L 476.715896 267.732745 
L 477.588825 263.90883 
L 478.461754 265.299345 
L 479.334683 263.90883 
L 480.207612 267.732745 
L 481.080541 269.470888 
L 481.95347 265.646973 
L 482.826398 266.689859 
L 484.572256 265.994602 
L 485.445185 267.732745 
L 486.318114 267.037488 
L 487.191043 265.994602 
L 488.063972 267.037488 
L 488.936901 267.732745 
L 489.80983 266.689859 
L 490.682758 268.428002 
L 491.555687 266.689859 
L 492.428616 266.342231 
L 493.301545 263.561202 
L 494.174474 265.646973 
L 495.047403 262.518316 
L 495.920332 265.994602 
L 496.793261 264.256459 
L 497.66619 265.994602 
L 498.539118 267.037488 
L 499.412047 268.775631 
L 500.284976 265.994602 
L 501.157905 268.080374 
L 502.030834 266.689859 
L 502.903763 265.646973 
L 503.776692 268.080374 
L 504.649621 264.256459 
L 505.522549 267.037488 
L 506.395478 267.732745 
L 507.268407 267.037488 
L 508.141336 266.689859 
L 509.014265 268.080374 
L 509.887194 265.646973 
L 510.760123 264.604088 
L 511.633052 266.342231 
L 512.505981 265.299345 
L 513.378909 265.994602 
L 514.251838 267.037488 
L 515.124767 267.385116 
L 515.997696 267.385116 
L 517.743554 270.166145 
L 518.616483 268.080374 
L 519.489412 269.123259 
L 520.362341 268.775631 
L 521.235269 266.689859 
L 522.108198 269.818517 
L 522.981127 267.732745 
L 523.854056 266.689859 
L 524.726985 266.689859 
L 525.599914 267.732745 
L 526.472843 269.470888 
L 527.345772 268.775631 
L 528.218701 270.166145 
L 529.091629 267.732745 
L 529.964558 267.732745 
L 530.837487 269.818517 
L 531.710416 268.080374 
L 532.583345 267.385116 
L 533.456274 269.470888 
L 534.329203 266.689859 
L 536.07506 269.470888 
L 536.947989 270.166145 
L 537.820918 267.732745 
L 538.693847 263.90883 
L 539.566776 267.732745 
L 540.439705 266.342231 
L 541.312634 268.080374 
L 542.185563 268.080374 
L 543.058492 267.037488 
L 543.93142 269.123259 
L 544.804349 268.080374 
L 545.677278 268.080374 
L 546.550207 269.818517 
L 547.423136 270.861403 
L 548.296065 269.123259 
L 549.168994 268.080374 
L 550.041923 271.209031 
L 551.78778 267.732745 
L 552.660709 270.166145 
L 553.533638 266.689859 
L 554.406567 269.123259 
L 555.279496 270.861403 
L 556.152425 267.037488 
L 557.025354 267.732745 
L 557.898283 267.732745 
L 560.517069 270.861403 
L 561.389998 269.123259 
L 563.135856 269.123259 
L 564.881714 268.428002 
L 565.754643 269.818517 
L 566.627571 268.080374 
L 567.5005 269.470888 
L 568.373429 270.513774 
L 569.246358 269.123259 
L 570.119287 270.166145 
L 570.992216 269.470888 
L 572.738074 270.861403 
L 573.611003 269.818517 
L 574.483931 269.818517 
L 575.35686 269.470888 
L 576.229789 269.818517 
L 577.102718 267.732745 
L 577.975647 271.209031 
L 578.848576 271.209031 
L 579.721505 269.470888 
L 580.594434 269.123259 
L 581.467363 268.428002 
L 582.340291 269.123259 
L 583.21322 272.251917 
L 584.086149 272.251917 
L 584.959078 268.428002 
L 585.832007 271.55666 
L 587.577865 272.251917 
L 588.450794 270.166145 
L 589.323723 270.513774 
L 590.196651 270.166145 
L 591.06958 270.166145 
L 591.942509 270.513774 
L 592.815438 272.251917 
L 593.688367 270.166145 
L 594.561296 270.166145 
L 595.434225 269.123259 
L 596.307154 270.166145 
L 597.180082 271.55666 
L 598.053011 271.209031 
L 599.798869 269.818517 
L 600.671798 272.251917 
L 601.544727 270.513774 
L 602.417656 271.55666 
L 604.163514 271.55666 
L 605.036442 270.861403 
L 605.909371 270.513774 
L 606.7823 272.947174 
L 607.655229 270.513774 
L 608.528158 270.861403 
L 609.401087 272.599546 
L 610.274016 272.251917 
L 611.146945 270.166145 
L 612.019874 269.818517 
L 612.892802 271.904288 
L 613.765731 271.55666 
L 614.63866 271.55666 
L 615.511589 270.513774 
L 616.384518 270.513774 
L 617.257447 271.904288 
L 618.130376 270.513774 
L 619.003305 272.599546 
L 619.876234 272.251917 
L 620.749162 270.166145 
L 621.622091 270.861403 
L 622.49502 273.294803 
L 623.367949 271.209031 
L 624.240878 271.55666 
L 625.113807 272.251917 
L 625.986736 270.861403 
L 627.732593 272.251917 
L 628.605522 272.251917 
L 629.478451 270.861403 
L 630.35138 271.209031 
L 631.224309 272.251917 
L 632.097238 271.209031 
L 632.970167 271.55666 
L 633.843096 271.209031 
L 634.716025 271.209031 
L 635.588953 273.642431 
L 636.461882 271.55666 
L 638.20774 270.861403 
L 639.080669 270.861403 
L 639.953598 273.294803 
L 640.826527 271.209031 
L 641.699456 270.513774 
L 642.572385 268.775631 
L 643.445313 272.251917 
L 644.318242 270.513774 
L 645.191171 272.947174 
L 646.0641 273.294803 
L 646.937029 271.904288 
L 647.809958 272.599546 
L 648.682887 271.55666 
L 649.555816 270.861403 
L 650.428745 272.947174 
L 651.301673 271.904288 
L 652.174602 271.209031 
L 653.92046 271.904288 
L 654.793389 272.599546 
L 655.666318 271.55666 
L 656.539247 272.251917 
L 658.285104 271.55666 
L 659.158033 272.251917 
L 660.030962 273.642431 
L 660.903891 271.904288 
L 662.649749 273.294803 
L 663.522678 271.904288 
L 665.268536 273.294803 
L 666.141464 272.947174 
L 667.014393 271.55666 
L 667.887322 272.947174 
L 668.760251 273.642431 
L 669.63318 273.294803 
L 670.506109 273.294803 
L 671.379038 271.904288 
L 672.251967 271.904288 
L 673.124896 272.947174 
L 673.997824 272.947174 
L 674.870753 271.55666 
L 675.743682 272.947174 
L 676.616611 272.251917 
L 677.48954 272.599546 
L 678.362469 273.642431 
L 679.235398 272.947174 
L 680.108327 272.947174 
L 680.981255 273.642431 
L 681.854184 272.947174 
L 682.727113 273.294803 
L 683.600042 273.294803 
L 684.472971 272.599546 
L 685.3459 272.599546 
L 686.218829 272.251917 
L 687.091758 273.642431 
L 687.964687 272.947174 
L 688.837615 272.947174 
L 689.710544 273.294803 
L 690.583473 272.947174 
L 691.456402 272.251917 
L 693.20226 272.251917 
L 694.075189 272.947174 
L 694.948118 272.947174 
L 695.821047 271.904288 
L 696.693975 272.947174 
L 697.566904 271.55666 
L 698.439833 272.947174 
L 699.312762 272.947174 
L 700.185691 272.599546 
L 701.05862 273.294803 
L 701.931549 272.947174 
L 703.677407 273.294803 
L 704.550335 272.947174 
L 705.423264 272.947174 
L 706.296193 272.251917 
L 707.169122 272.947174 
L 708.042051 272.251917 
L 708.91498 273.294803 
L 709.787909 272.947174 
L 710.660838 273.642431 
L 711.533766 273.642431 
L 712.406695 273.294803 
L 714.152553 273.294803 
L 715.025482 271.904288 
L 715.898411 273.642431 
L 716.77134 272.947174 
L 717.644269 272.599546 
L 718.517198 273.642431 
L 719.390126 273.294803 
L 722.008913 273.294803 
L 722.881842 272.947174 
L 723.754771 272.947174 
L 724.6277 273.642431 
L 725.500629 273.642431 
L 727.246486 272.251917 
L 728.119415 272.599546 
L 728.992344 273.642431 
L 729.865273 273.294803 
L 730.738202 272.599546 
L 733.356989 273.642431 
L 734.229918 272.947174 
L 735.102846 273.642431 
L 736.848704 273.642431 
L 737.721633 272.947174 
L 738.594562 273.294803 
L 739.467491 272.947174 
L 740.34042 273.294803 
L 741.213349 273.294803 
L 742.959206 273.642431 
L 743.832135 273.642431 
L 745.577993 272.947174 
L 746.450922 273.642431 
L 747.323851 272.947174 
L 749.069709 272.947174 
L 749.942637 273.642431 
L 750.815566 273.642431 
L 751.688495 273.294803 
L 753.434353 272.947174 
L 754.307282 273.642431 
L 757.798997 273.642431 
L 758.671926 273.294803 
L 760.417784 273.642431 
L 761.290713 273.294803 
L 762.163642 273.642431 
L 763.036571 272.947174 
L 764.782429 273.294803 
L 765.655357 272.947174 
L 766.528286 273.294803 
L 768.274144 272.599546 
L 771.76586 273.642431 
L 777.876362 273.642431 
L 778.749291 273.294803 
L 780.495148 273.642431 
L 795.33494 273.642431 
L 797.953726 273.294803 
L 800.572513 273.294803 
L 801.445442 272.947174 
L 804.937157 273.642431 
L 811.047659 273.642431 
L 813.666446 273.294803 
L 816.285233 273.642431 
L 821.522806 273.642431 
L 822.395735 273.294803 
L 823.268664 273.642431 
L 829.379166 273.642431 
L 831.997953 273.294803 
L 835.489668 273.642431 
L 949.843352 273.642431 
L 949.843352 273.642431 
" clip-path="url(#p8fc26a67ae)" style="fill: none; stroke: #434348; stroke-linecap: square"/>
   </g>
   <g id="line2d_12">
    <path d="M 84.770827 271.749892 
L 85.643755 270.335049 
L 86.516684 268.330687 
L 87.389613 268.684398 
L 89.135471 270.806663 
L 90.0084 270.335049 
L 90.881329 268.920205 
L 91.754258 265.618905 
L 92.627187 255.361292 
L 93.500115 234.374452 
L 94.373044 221.287153 
L 95.245973 212.090672 
L 96.118902 205.488071 
L 96.991831 201.715156 
L 97.86476 199.710795 
L 98.737689 190.0427 
L 99.610618 182.143159 
L 100.483547 175.894268 
L 101.356475 176.60169 
L 103.102333 171.060221 
L 103.975262 174.95104 
L 104.848191 174.95104 
L 105.72112 172.00345 
L 106.594049 184.14752 
L 107.466978 180.610412 
L 108.339907 182.732677 
L 109.212835 181.907352 
L 110.085764 180.138798 
L 110.958693 175.894268 
L 111.831622 173.064582 
L 112.704551 179.54928 
L 113.57748 178.016533 
L 114.450409 182.732677 
L 115.323338 185.680267 
L 116.196266 187.684628 
L 117.069195 188.74576 
L 117.942124 187.920435 
L 118.815053 190.514314 
L 119.687982 188.627857 
L 120.560911 186.269785 
L 121.43384 188.038339 
L 122.306769 189.217375 
L 123.179698 186.505592 
L 124.052626 188.274146 
L 124.925555 199.23918 
L 125.798484 196.645301 
L 126.671413 196.173687 
L 127.544342 201.361445 
L 128.417271 199.357084 
L 129.2902 193.108193 
L 130.163129 194.758844 
L 131.036058 197.706434 
L 131.908986 193.579808 
L 132.781915 201.361445 
L 133.654844 200.064506 
L 134.527773 202.658385 
L 135.400702 201.243542 
L 136.273631 212.32648 
L 137.14656 206.313396 
L 138.019489 209.37889 
L 138.892418 207.728239 
L 139.765346 207.846143 
L 140.638275 210.440022 
L 141.511204 210.557926 
L 142.384133 212.798094 
L 143.257062 213.623419 
L 144.129991 217.750045 
L 145.00292 217.396334 
L 145.875849 214.095033 
L 146.748777 216.099395 
L 147.621706 214.566648 
L 148.494635 219.990213 
L 149.367564 214.684551 
L 151.113422 220.461828 
L 152.85928 221.994574 
L 153.732209 225.295875 
L 154.605137 226.1212 
L 155.478066 223.763128 
L 156.350995 223.763128 
L 157.223924 219.87231 
L 158.096853 224.234743 
L 158.969782 226.828622 
L 159.842711 227.889754 
L 160.71564 229.304597 
L 161.588569 229.186694 
L 162.461497 230.012019 
L 163.334426 228.479272 
L 164.207355 235.907199 
L 165.080284 231.898476 
L 165.953213 233.077512 
L 166.826142 236.378813 
L 167.699071 236.260909 
L 168.572 233.077512 
L 169.444929 237.557849 
L 170.317857 235.907199 
L 171.190786 233.784934 
L 172.063715 234.610259 
L 172.936644 238.736885 
L 173.809573 237.793656 
L 174.682502 238.147367 
L 175.555431 237.439945 
L 176.42836 241.920282 
L 177.301288 239.56221 
L 178.174217 238.147367 
L 179.047146 242.156089 
L 179.920075 242.156089 
L 180.793004 240.85915 
L 181.665933 237.204138 
L 182.538862 232.134284 
L 183.411791 235.435584 
L 184.28472 240.85915 
L 185.157648 238.854789 
L 186.030577 243.570932 
L 186.903506 246.400619 
L 187.776435 246.636426 
L 188.649364 245.221583 
L 189.522293 249.348209 
L 190.395222 242.745607 
L 191.268151 243.688836 
L 192.14108 241.566571 
L 193.014008 235.199777 
L 193.886937 222.112478 
L 194.759866 229.186694 
L 195.632795 233.66703 
L 196.505724 243.570932 
L 197.378653 244.396258 
L 198.251582 242.627704 
L 199.124511 247.10804 
L 199.99744 244.278354 
L 200.870368 240.741246 
L 201.743297 238.736885 
L 202.616226 239.56221 
L 203.489155 240.85915 
L 204.362084 240.505439 
L 206.107942 242.5098 
L 206.980871 238.147367 
L 207.853799 241.21286 
L 208.726728 239.090596 
L 209.599657 239.56221 
L 210.472586 236.850427 
L 211.345515 237.322042 
L 212.218444 244.278354 
L 213.091373 238.736885 
L 213.964302 244.749968 
L 214.837231 234.96397 
L 215.710159 237.086235 
L 216.583088 233.784934 
L 217.456017 237.322042 
L 218.328946 234.374452 
L 219.201875 240.623342 
L 220.074804 236.732524 
L 220.947733 240.151728 
L 221.820662 240.387535 
L 222.693591 236.732524 
L 223.566519 238.972692 
L 224.439448 236.850427 
L 225.312377 235.435584 
L 226.185306 237.204138 
L 227.058235 233.66703 
L 227.931164 234.846066 
L 228.804093 236.496717 
L 229.677022 236.496717 
L 230.549951 234.728163 
L 231.422879 235.789295 
L 233.168737 236.61462 
L 234.041666 232.252187 
L 234.914595 233.784934 
L 235.787524 234.138645 
L 236.660453 236.850427 
L 237.533382 236.260909 
L 238.40631 232.959609 
L 239.279239 234.846066 
L 240.152168 233.31332 
L 241.025097 237.675753 
L 241.898026 234.728163 
L 242.770955 234.96397 
L 243.643884 237.322042 
L 244.516813 235.789295 
L 245.389742 230.601537 
L 246.26267 234.728163 
L 247.135599 236.025102 
L 248.008528 239.56221 
L 248.881457 237.204138 
L 249.754386 240.85915 
L 250.627315 238.029463 
L 251.500244 240.033824 
L 252.373173 240.623342 
L 253.246102 238.147367 
L 254.11903 239.326403 
L 254.991959 236.850427 
L 255.864888 245.103679 
L 257.610746 239.326403 
L 258.483675 244.16045 
L 259.356604 239.208499 
L 260.229533 240.623342 
L 261.97539 246.282715 
L 262.848319 244.042547 
L 263.721248 242.391896 
L 264.594177 244.042547 
L 265.467106 240.623342 
L 266.340035 243.453029 
L 267.212964 245.221583 
L 268.085893 245.339486 
L 269.83175 250.05563 
L 270.704679 248.169173 
L 271.577608 248.40498 
L 272.450537 250.763052 
L 273.323466 245.575293 
L 274.196395 249.819823 
L 275.069324 246.636426 
L 275.942253 248.40498 
L 276.815181 250.527244 
L 277.68811 250.763052 
L 278.561039 250.409341 
L 279.433968 251.35257 
L 280.306897 254.535967 
L 281.179826 250.527244 
L 282.052755 252.413702 
L 282.925684 255.715003 
L 283.798613 253.828545 
L 284.671541 253.00322 
L 286.417399 253.592738 
L 287.290328 255.95081 
L 288.163257 253.828545 
L 289.036186 255.715003 
L 289.909115 253.828545 
L 290.782044 255.361292 
L 291.654973 257.247749 
L 292.527901 254.65387 
L 293.40083 256.658231 
L 294.273759 257.955171 
L 295.146688 255.832906 
L 296.019617 255.479195 
L 296.892546 257.129846 
L 297.765475 259.487918 
L 298.638404 258.8984 
L 299.511332 255.361292 
L 300.384261 255.95081 
L 302.130119 260.077436 
L 303.003048 258.780496 
L 303.875977 257.129846 
L 304.748906 259.016303 
L 305.621835 259.959532 
L 306.494764 256.776135 
L 308.240621 260.902761 
L 309.986479 259.841629 
L 310.859408 258.544689 
L 311.732337 261.492279 
L 312.605266 258.544689 
L 313.478195 259.841629 
L 314.351124 261.728086 
L 315.224052 257.365653 
L 316.096981 258.426785 
L 316.96991 257.955171 
L 317.842839 259.016303 
L 318.715768 260.431147 
L 319.588697 257.837267 
L 320.461626 259.841629 
L 321.334555 259.370014 
L 322.207484 258.426785 
L 323.080412 257.129846 
L 323.953341 259.605821 
L 324.82627 255.243388 
L 325.699199 256.776135 
L 326.572128 259.605821 
L 327.445057 259.016303 
L 328.317986 259.370014 
L 329.190915 261.728086 
L 330.063843 260.077436 
L 330.936772 257.247749 
L 331.809701 260.077436 
L 332.68263 258.426785 
L 333.555559 259.252111 
L 334.428488 257.955171 
L 335.301417 257.719364 
L 336.174346 257.011942 
L 337.047275 258.780496 
L 338.793132 259.841629 
L 339.666061 260.902761 
L 340.53899 259.134207 
L 341.411919 257.955171 
L 342.284848 257.129846 
L 343.157777 255.479195 
L 344.030706 257.719364 
L 344.903635 259.370014 
L 345.776563 257.955171 
L 346.649492 257.247749 
L 347.522421 258.190978 
L 348.39535 257.719364 
L 349.268279 256.186617 
L 350.141208 256.540328 
L 351.014137 258.426785 
L 352.759995 255.832906 
L 353.632923 257.247749 
L 354.505852 260.077436 
L 355.378781 258.308882 
L 356.25171 258.308882 
L 357.124639 257.129846 
L 357.997568 256.776135 
L 358.870497 258.308882 
L 359.743426 257.483557 
L 360.616354 259.959532 
L 361.489283 259.723725 
L 362.362212 259.016303 
L 363.235141 258.8984 
L 364.10807 256.304521 
L 364.980999 255.715003 
L 365.853928 256.658231 
L 366.726857 258.426785 
L 367.599786 257.60146 
L 368.472714 257.719364 
L 370.218572 259.723725 
L 371.091501 256.422424 
L 371.96443 257.60146 
L 372.837359 257.719364 
L 373.710288 258.544689 
L 374.583217 258.544689 
L 375.456146 257.483557 
L 376.329074 257.247749 
L 377.202003 260.313243 
L 378.074932 258.073075 
L 378.947861 257.955171 
L 379.82079 259.487918 
L 380.693719 259.959532 
L 381.566648 260.077436 
L 382.439577 258.190978 
L 383.312505 258.662593 
L 384.185434 260.902761 
L 385.058363 259.723725 
L 385.931292 260.077436 
L 387.67715 257.483557 
L 388.550079 258.8984 
L 389.423008 257.719364 
L 390.295937 257.955171 
L 391.168865 262.1997 
L 392.041794 259.605821 
L 392.914723 259.959532 
L 393.787652 259.959532 
L 394.660581 261.492279 
L 395.53351 259.370014 
L 396.406439 259.016303 
L 397.279368 259.723725 
L 398.152297 259.134207 
L 399.025225 264.086158 
L 399.898154 262.1997 
L 400.771083 261.256472 
L 401.644012 260.902761 
L 402.516941 262.907122 
L 403.38987 259.841629 
L 404.262799 258.544689 
L 405.135728 262.907122 
L 406.008657 262.907122 
L 406.881585 261.492279 
L 407.754514 262.671315 
L 408.627443 261.963893 
L 409.500372 262.671315 
L 410.373301 261.728086 
L 411.24623 262.907122 
L 412.119159 262.553411 
L 413.865016 263.850351 
L 414.737945 263.850351 
L 415.610874 264.675676 
L 416.483803 263.49664 
L 417.356732 265.14729 
L 418.229661 263.968254 
L 419.10259 264.086158 
L 419.975519 264.911483 
L 420.848448 263.850351 
L 421.721376 266.208423 
L 422.594305 265.029387 
L 423.467234 264.204062 
L 424.340163 264.911483 
L 425.213092 267.976977 
L 426.086021 265.14729 
L 426.95895 263.968254 
L 427.831879 266.090519 
L 428.704808 265.383098 
L 429.577736 266.090519 
L 431.323594 265.854712 
L 433.069452 265.854712 
L 433.942381 266.915844 
L 434.81531 267.387459 
L 435.688239 264.321965 
L 436.561168 265.972616 
L 437.434096 268.330687 
L 439.179954 265.854712 
L 440.052883 265.972616 
L 440.925812 268.566495 
L 441.798741 268.330687 
L 442.67167 268.448591 
L 445.290456 266.090519 
L 446.163385 268.448591 
L 447.036314 266.44423 
L 447.909243 267.505362 
L 448.782172 269.745531 
L 449.655101 267.151651 
L 450.52803 268.330687 
L 451.400959 267.505362 
L 452.273887 267.151651 
L 453.146816 267.859073 
L 454.019745 267.976977 
L 454.892674 267.387459 
L 455.765603 268.684398 
L 456.638532 267.269555 
L 457.511461 268.684398 
L 458.38439 268.212784 
L 459.257319 266.915844 
L 460.130247 265.14729 
L 461.003176 269.745531 
L 461.876105 267.387459 
L 462.749034 267.623266 
L 463.621963 269.627627 
L 464.494892 266.44423 
L 465.367821 268.330687 
L 466.24075 268.212784 
L 467.113679 267.741169 
L 467.986607 268.09488 
L 468.859536 268.684398 
L 469.732465 268.330687 
L 470.605394 268.566495 
L 471.478323 269.273916 
L 472.351252 269.156013 
L 473.224181 267.387459 
L 474.09711 266.915844 
L 474.970038 268.09488 
L 475.842967 267.269555 
L 476.715896 267.741169 
L 477.588825 267.859073 
L 478.461754 267.387459 
L 479.334683 268.330687 
L 480.207612 268.09488 
L 481.080541 268.448591 
L 481.95347 269.39182 
L 482.826398 269.39182 
L 483.699327 267.859073 
L 484.572256 269.39182 
L 485.445185 267.741169 
L 486.318114 268.920205 
L 487.191043 269.156013 
L 488.063972 267.387459 
L 488.936901 268.684398 
L 489.80983 269.39182 
L 490.682758 267.033748 
L 492.428616 268.566495 
L 493.301545 268.920205 
L 494.174474 267.859073 
L 495.047403 267.387459 
L 495.920332 268.330687 
L 496.793261 268.448591 
L 497.66619 268.448591 
L 498.539118 269.273916 
L 499.412047 269.39182 
L 500.284976 268.802302 
L 501.157905 269.627627 
L 502.030834 267.976977 
L 502.903763 270.099241 
L 503.776692 269.981338 
L 504.649621 270.217145 
L 505.522549 268.920205 
L 506.395478 268.684398 
L 507.268407 269.745531 
L 508.141336 269.156013 
L 509.887194 270.099241 
L 511.633052 268.330687 
L 512.505981 270.806663 
L 513.378909 270.570856 
L 514.251838 268.566495 
L 515.124767 269.981338 
L 515.997696 268.566495 
L 516.870625 270.099241 
L 517.743554 269.863434 
L 518.616483 269.745531 
L 519.489412 267.859073 
L 520.362341 269.863434 
L 521.235269 270.688759 
L 522.981127 269.273916 
L 523.854056 269.273916 
L 524.726985 268.802302 
L 525.599914 270.099241 
L 526.472843 269.156013 
L 527.345772 270.570856 
L 528.218701 269.627627 
L 529.091629 270.452952 
L 529.964558 269.273916 
L 530.837487 269.627627 
L 531.710416 270.570856 
L 532.583345 270.099241 
L 533.456274 269.863434 
L 534.329203 269.863434 
L 535.202132 268.566495 
L 536.07506 271.631988 
L 536.947989 270.924567 
L 537.820918 271.278277 
L 538.693847 269.863434 
L 539.566776 269.273916 
L 540.439705 271.278277 
L 541.312634 270.335049 
L 542.185563 270.924567 
L 543.058492 271.160374 
L 543.93142 270.570856 
L 544.804349 271.514084 
L 545.677278 270.099241 
L 546.550207 272.103602 
L 547.423136 270.688759 
L 548.296065 269.863434 
L 549.168994 270.217145 
L 550.041923 271.514084 
L 550.914852 271.631988 
L 551.78778 271.514084 
L 552.660709 270.806663 
L 553.533638 270.806663 
L 554.406567 270.688759 
L 555.279496 271.04247 
L 556.152425 271.160374 
L 557.025354 271.04247 
L 557.898283 271.749892 
L 558.771212 271.514084 
L 559.64414 271.514084 
L 560.517069 271.160374 
L 561.389998 271.278277 
L 562.262927 270.570856 
L 563.135856 271.749892 
L 564.008785 271.160374 
L 564.881714 271.749892 
L 565.754643 271.985699 
L 566.627571 272.103602 
L 567.5005 271.396181 
L 568.373429 271.867795 
L 569.246358 272.103602 
L 570.119287 272.221506 
L 571.865145 271.396181 
L 572.738074 271.749892 
L 573.611003 272.575217 
L 574.483931 271.631988 
L 575.35686 272.575217 
L 576.229789 272.221506 
L 577.102718 272.221506 
L 577.975647 272.69312 
L 578.848576 272.103602 
L 580.594434 272.103602 
L 581.467363 271.985699 
L 583.21322 272.811024 
L 584.086149 272.457313 
L 584.959078 272.457313 
L 585.832007 272.221506 
L 586.704936 272.33941 
L 588.450794 272.811024 
L 589.323723 273.164735 
L 590.196651 272.928928 
L 591.06958 273.400542 
L 591.942509 272.69312 
L 592.815438 272.575217 
L 593.688367 272.811024 
L 594.561296 272.928928 
L 595.434225 272.221506 
L 596.307154 272.221506 
L 597.180082 272.457313 
L 598.053011 272.928928 
L 598.92594 272.69312 
L 599.798869 272.575217 
L 600.671798 272.928928 
L 602.417656 271.631988 
L 603.290585 272.457313 
L 604.163514 272.103602 
L 605.036442 273.164735 
L 605.909371 272.457313 
L 606.7823 272.811024 
L 607.655229 271.867795 
L 608.528158 272.457313 
L 609.401087 271.396181 
L 610.274016 273.164735 
L 611.146945 272.221506 
L 612.019874 272.33941 
L 613.765731 272.928928 
L 614.63866 273.046831 
L 615.511589 273.282638 
L 616.384518 273.282638 
L 617.257447 272.811024 
L 618.130376 272.928928 
L 619.003305 272.811024 
L 619.876234 272.811024 
L 620.749162 272.69312 
L 621.622091 272.811024 
L 622.49502 272.69312 
L 623.367949 272.811024 
L 624.240878 272.33941 
L 625.113807 273.046831 
L 626.859665 273.282638 
L 627.732593 273.282638 
L 628.605522 272.221506 
L 629.478451 273.282638 
L 630.35138 272.928928 
L 631.224309 273.282638 
L 632.097238 273.282638 
L 632.970167 272.457313 
L 633.843096 272.575217 
L 634.716025 273.046831 
L 635.588953 272.575217 
L 637.334811 273.636349 
L 638.20774 272.69312 
L 639.953598 273.282638 
L 641.699456 272.457313 
L 642.572385 273.754253 
L 643.445313 272.928928 
L 645.191171 273.754253 
L 646.0641 273.046831 
L 646.937029 272.69312 
L 647.809958 273.282638 
L 648.682887 273.400542 
L 649.555816 273.636349 
L 650.428745 273.518446 
L 651.301673 273.164735 
L 653.92046 273.518446 
L 654.793389 273.400542 
L 655.666318 273.400542 
L 656.539247 273.282638 
L 657.412176 273.046831 
L 658.285104 272.928928 
L 659.158033 273.164735 
L 660.030962 273.282638 
L 660.903891 273.518446 
L 661.77682 272.811024 
L 662.649749 273.282638 
L 663.522678 273.046831 
L 664.395607 273.518446 
L 665.268536 273.400542 
L 666.141464 273.754253 
L 667.014393 273.282638 
L 667.887322 273.636349 
L 668.760251 272.69312 
L 669.63318 273.164735 
L 670.506109 273.046831 
L 672.251967 273.636349 
L 673.124896 273.400542 
L 673.997824 273.518446 
L 674.870753 273.400542 
L 675.743682 273.400542 
L 676.616611 273.754253 
L 677.48954 273.046831 
L 679.235398 273.754253 
L 680.108327 273.636349 
L 680.981255 273.872156 
L 681.854184 273.400542 
L 682.727113 273.754253 
L 683.600042 273.282638 
L 684.472971 273.636349 
L 685.3459 273.518446 
L 686.218829 273.282638 
L 687.091758 273.636349 
L 688.837615 273.400542 
L 689.710544 273.518446 
L 690.583473 273.518446 
L 691.456402 273.400542 
L 692.329331 273.400542 
L 693.20226 273.754253 
L 694.075189 273.518446 
L 695.821047 273.518446 
L 696.693975 273.754253 
L 698.439833 273.754253 
L 699.312762 273.518446 
L 700.185691 273.400542 
L 701.05862 273.636349 
L 701.931549 273.636349 
L 702.804478 273.872156 
L 703.677407 273.400542 
L 704.550335 273.872156 
L 705.423264 273.518446 
L 707.169122 273.754253 
L 711.533766 273.636349 
L 712.406695 273.754253 
L 714.152553 273.754253 
L 715.025482 273.636349 
L 715.898411 273.754253 
L 716.77134 273.754253 
L 717.644269 273.636349 
L 718.517198 273.754253 
L 719.390126 273.400542 
L 720.263055 273.872156 
L 721.135984 273.872156 
L 722.008913 273.636349 
L 722.881842 273.872156 
L 725.500629 273.754253 
L 726.373558 273.872156 
L 727.246486 273.754253 
L 728.119415 273.400542 
L 728.992344 273.872156 
L 729.865273 273.754253 
L 730.738202 273.754253 
L 731.611131 273.636349 
L 733.356989 273.636349 
L 734.229918 273.872156 
L 735.975775 273.518446 
L 736.848704 273.518446 
L 737.721633 273.872156 
L 738.594562 273.872156 
L 739.467491 273.754253 
L 740.34042 273.872156 
L 745.577993 273.754253 
L 746.450922 273.872156 
L 748.19678 273.872156 
L 749.069709 273.754253 
L 749.942637 273.872156 
L 751.688495 273.754253 
L 752.561424 273.872156 
L 754.307282 273.872156 
L 755.180211 273.636349 
L 756.05314 273.872156 
L 756.926069 273.872156 
L 757.798997 273.754253 
L 758.671926 273.754253 
L 759.544855 273.872156 
L 763.9095 273.872156 
L 766.528286 273.636349 
L 767.401215 273.872156 
L 768.274144 273.754253 
L 769.147073 273.754253 
L 770.020002 273.872156 
L 771.76586 273.872156 
L 774.384646 273.754253 
L 775.257575 273.872156 
L 776.130504 273.754253 
L 778.749291 273.872156 
L 783.986864 273.872156 
L 786.605651 273.754253 
L 790.970295 273.872156 
L 802.318371 273.872156 
L 808.428873 273.754253 
L 810.174731 273.872156 
L 814.539375 273.872156 
L 815.412304 273.754253 
L 817.158162 273.872156 
L 818.904019 273.754253 
L 825.014522 273.872156 
L 838.108455 273.872156 
L 842.473099 273.754253 
L 859.058748 273.754253 
L 872.152681 273.872156 
L 880.009041 273.872156 
L 880.009041 273.872156 
" clip-path="url(#p8fc26a67ae)" style="fill: none; stroke: #90ed7d; stroke-linecap: square"/>
   </g>
   <g id="line2d_13">
    <path d="M 40.600625 273.99006 
L 993.140625 273.99006 
" clip-path="url(#p8fc26a67ae)" style="fill: none; stroke: #dedede; stroke-width: 2; stroke-linecap: square"/>
   </g>
   <g id="text_18">
    <!-- Picard: Insert Size -->
    <g transform="translate(445.328125 19.3575)scale(0.16 -0.16)">
     <defs>
      <path id="DejaVuSans-64" d="M 2906 2969 
L 2906 4863 
L 3481 4863 
L 3481 0 
L 2906 0 
L 2906 525 
Q 2725 213 2448 61 
Q 2172 -91 1784 -91 
Q 1150 -91 751 415 
Q 353 922 353 1747 
Q 353 2572 751 3078 
Q 1150 3584 1784 3584 
Q 2172 3584 2448 3432 
Q 2725 3281 2906 2969 
z
M 947 1747 
Q 947 1113 1208 752 
Q 1469 391 1925 391 
Q 2381 391 2643 752 
Q 2906 1113 2906 1747 
Q 2906 2381 2643 2742 
Q 2381 3103 1925 3103 
Q 1469 3103 1208 2742 
Q 947 2381 947 1747 
z
" transform="scale(0.015625)"/>
      <path id="DejaVuSans-3a" d="M 750 794 
L 1409 794 
L 1409 0 
L 750 0 
L 750 794 
z
M 750 3309 
L 1409 3309 
L 1409 2516 
L 750 2516 
L 750 3309 
z
" transform="scale(0.015625)"/>
     </defs>
     <use xlink:href="#DejaVuSans-50"/>
     <use xlink:href="#DejaVuSans-69" x="58.052734"/>
     <use xlink:href="#DejaVuSans-63" x="85.835938"/>
     <use xlink:href="#DejaVuSans-61" x="140.816406"/>
     <use xlink:href="#DejaVuSans-72" x="202.095703"/>
     <use xlink:href="#DejaVuSans-64" x="241.458984"/>
     <use xlink:href="#DejaVuSans-3a" x="304.935547"/>
     <use xlink:href="#DejaVuSans-20" x="338.626953"/>
     <use xlink:href="#DejaVuSans-49" x="370.414062"/>
     <use xlink:href="#DejaVuSans-6e" x="399.90625"/>
     <use xlink:href="#DejaVuSans-73" x="463.285156"/>
     <use xlink:href="#DejaVuSans-65" x="515.384766"/>
     <use xlink:href="#DejaVuSans-72" x="576.908203"/>
     <use xlink:href="#DejaVuSans-74" x="618.021484"/>
     <use xlink:href="#DejaVuSans-20" x="657.230469"/>
     <use xlink:href="#DejaVuSans-53" x="689.017578"/>
     <use xlink:href="#DejaVuSans-69" x="752.494141"/>
     <use xlink:href="#DejaVuSans-7a" x="780.277344"/>
     <use xlink:href="#DejaVuSans-65" x="832.767578"/>
    </g>
   </g>
   <g id="legend_1">
    <g id="line2d_14">
     <path d="M 47.800625 315.455394 
L 55.800625 315.455394 
L 63.800625 315.455394 
" style="fill: none; stroke: #7cb5ec; stroke-linecap: square"/>
    </g>
    <g id="text_19">
     <!-- OSMOTIC_STRESS_T0_PE_REP1 -->
     <g transform="translate(70.200625 318.255394)scale(0.08 -0.08)">
      <defs>
       <path id="DejaVuSans-4f" d="M 2522 4238 
Q 1834 4238 1429 3725 
Q 1025 3213 1025 2328 
Q 1025 1447 1429 934 
Q 1834 422 2522 422 
Q 3209 422 3611 934 
Q 4013 1447 4013 2328 
Q 4013 3213 3611 3725 
Q 3209 4238 2522 4238 
z
M 2522 4750 
Q 3503 4750 4090 4092 
Q 4678 3434 4678 2328 
Q 4678 1225 4090 567 
Q 3503 -91 2522 -91 
Q 1538 -91 948 565 
Q 359 1222 359 2328 
Q 359 3434 948 4092 
Q 1538 4750 2522 4750 
z
" transform="scale(0.015625)"/>
       <path id="DejaVuSans-4d" d="M 628 4666 
L 1569 4666 
L 2759 1491 
L 3956 4666 
L 4897 4666 
L 4897 0 
L 4281 0 
L 4281 4097 
L 3078 897 
L 2444 897 
L 1241 4097 
L 1241 0 
L 628 0 
L 628 4666 
z
" transform="scale(0.015625)"/>
       <path id="DejaVuSans-54" d="M -19 4666 
L 3928 4666 
L 3928 4134 
L 2272 4134 
L 2272 0 
L 1638 0 
L 1638 4134 
L -19 4134 
L -19 4666 
z
" transform="scale(0.015625)"/>
       <path id="DejaVuSans-5f" d="M 3263 -1063 
L 3263 -1509 
L -63 -1509 
L -63 -1063 
L 3263 -1063 
z
" transform="scale(0.015625)"/>
       <path id="DejaVuSans-52" d="M 2841 2188 
Q 3044 2119 3236 1894 
Q 3428 1669 3622 1275 
L 4263 0 
L 3584 0 
L 2988 1197 
Q 2756 1666 2539 1819 
Q 2322 1972 1947 1972 
L 1259 1972 
L 1259 0 
L 628 0 
L 628 4666 
L 2053 4666 
Q 2853 4666 3247 4331 
Q 3641 3997 3641 3322 
Q 3641 2881 3436 2590 
Q 3231 2300 2841 2188 
z
M 1259 4147 
L 1259 2491 
L 2053 2491 
Q 2509 2491 2742 2702 
Q 2975 2913 2975 3322 
Q 2975 3731 2742 3939 
Q 2509 4147 2053 4147 
L 1259 4147 
z
" transform="scale(0.015625)"/>
       <path id="DejaVuSans-45" d="M 628 4666 
L 3578 4666 
L 3578 4134 
L 1259 4134 
L 1259 2753 
L 3481 2753 
L 3481 2222 
L 1259 2222 
L 1259 531 
L 3634 531 
L 3634 0 
L 628 0 
L 628 4666 
z
" transform="scale(0.015625)"/>
      </defs>
      <use xlink:href="#DejaVuSans-4f"/>
      <use xlink:href="#DejaVuSans-53" x="78.710938"/>
      <use xlink:href="#DejaVuSans-4d" x="142.1875"/>
      <use xlink:href="#DejaVuSans-4f" x="228.466797"/>
      <use xlink:href="#DejaVuSans-54" x="307.177734"/>
      <use xlink:href="#DejaVuSans-49" x="368.261719"/>
      <use xlink:href="#DejaVuSans-43" x="397.753906"/>
      <use xlink:href="#DejaVuSans-5f" x="467.578125"/>
      <use xlink:href="#DejaVuSans-53" x="517.578125"/>
      <use xlink:href="#DejaVuSans-54" x="581.054688"/>
      <use xlink:href="#DejaVuSans-52" x="642.138672"/>
      <use xlink:href="#DejaVuSans-45" x="711.621094"/>
      <use xlink:href="#DejaVuSans-53" x="774.804688"/>
      <use xlink:href="#DejaVuSans-53" x="838.28125"/>
      <use xlink:href="#DejaVuSans-5f" x="901.757812"/>
      <use xlink:href="#DejaVuSans-54" x="951.757812"/>
      <use xlink:href="#DejaVuSans-30" x="1012.841797"/>
      <use xlink:href="#DejaVuSans-5f" x="1076.464844"/>
      <use xlink:href="#DejaVuSans-50" x="1126.464844"/>
      <use xlink:href="#DejaVuSans-45" x="1186.767578"/>
      <use xlink:href="#DejaVuSans-5f" x="1249.951172"/>
      <use xlink:href="#DejaVuSans-52" x="1299.951172"/>
      <use xlink:href="#DejaVuSans-45" x="1369.433594"/>
      <use xlink:href="#DejaVuSans-50" x="1432.617188"/>
      <use xlink:href="#DejaVuSans-31" x="1492.919922"/>
     </g>
    </g>
    <g id="line2d_15">
     <path d="M 440.861875 315.455394 
L 448.861875 315.455394 
L 456.861875 315.455394 
" style="fill: none; stroke: #434348; stroke-linecap: square"/>
    </g>
    <g id="text_20">
     <!-- OSMOTIC_STRESS_T0_PE_REP2 -->
     <g transform="translate(463.261875 318.255394)scale(0.08 -0.08)">
      <use xlink:href="#DejaVuSans-4f"/>
      <use xlink:href="#DejaVuSans-53" x="78.710938"/>
      <use xlink:href="#DejaVuSans-4d" x="142.1875"/>
      <use xlink:href="#DejaVuSans-4f" x="228.466797"/>
      <use xlink:href="#DejaVuSans-54" x="307.177734"/>
      <use xlink:href="#DejaVuSans-49" x="368.261719"/>
      <use xlink:href="#DejaVuSans-43" x="397.753906"/>
      <use xlink:href="#DejaVuSans-5f" x="467.578125"/>
      <use xlink:href="#DejaVuSans-53" x="517.578125"/>
      <use xlink:href="#DejaVuSans-54" x="581.054688"/>
      <use xlink:href="#DejaVuSans-52" x="642.138672"/>
      <use xlink:href="#DejaVuSans-45" x="711.621094"/>
      <use xlink:href="#DejaVuSans-53" x="774.804688"/>
      <use xlink:href="#DejaVuSans-53" x="838.28125"/>
      <use xlink:href="#DejaVuSans-5f" x="901.757812"/>
      <use xlink:href="#DejaVuSans-54" x="951.757812"/>
      <use xlink:href="#DejaVuSans-30" x="1012.841797"/>
      <use xlink:href="#DejaVuSans-5f" x="1076.464844"/>
      <use xlink:href="#DejaVuSans-50" x="1126.464844"/>
      <use xlink:href="#DejaVuSans-45" x="1186.767578"/>
      <use xlink:href="#DejaVuSans-5f" x="1249.951172"/>
      <use xlink:href="#DejaVuSans-52" x="1299.951172"/>
      <use xlink:href="#DejaVuSans-45" x="1369.433594"/>
      <use xlink:href="#DejaVuSans-50" x="1432.617188"/>
      <use xlink:href="#DejaVuSans-32" x="1492.919922"/>
     </g>
    </g>
    <g id="line2d_16">
     <path d="M 833.923125 315.455394 
L 841.923125 315.455394 
L 849.923125 315.455394 
" style="fill: none; stroke: #90ed7d; stroke-linecap: square"/>
    </g>
    <g id="text_21">
     <!-- OSMOTIC_STRESS_T15_PE_REP1 -->
     <g transform="translate(856.323125 318.255394)scale(0.08 -0.08)">
      <defs>
       <path id="DejaVuSans-35" d="M 691 4666 
L 3169 4666 
L 3169 4134 
L 1269 4134 
L 1269 2991 
Q 1406 3038 1543 3061 
Q 1681 3084 1819 3084 
Q 2600 3084 3056 2656 
Q 3513 2228 3513 1497 
Q 3513 744 3044 326 
Q 2575 -91 1722 -91 
Q 1428 -91 1123 -41 
Q 819 9 494 109 
L 494 744 
Q 775 591 1075 516 
Q 1375 441 1709 441 
Q 2250 441 2565 725 
Q 2881 1009 2881 1497 
Q 2881 1984 2565 2268 
Q 2250 2553 1709 2553 
Q 1456 2553 1204 2497 
Q 953 2441 691 2322 
L 691 4666 
z
" transform="scale(0.015625)"/>
      </defs>
      <use xlink:href="#DejaVuSans-4f"/>
      <use xlink:href="#DejaVuSans-53" x="78.710938"/>
      <use xlink:href="#DejaVuSans-4d" x="142.1875"/>
      <use xlink:href="#DejaVuSans-4f" x="228.466797"/>
      <use xlink:href="#DejaVuSans-54" x="307.177734"/>
      <use xlink:href="#DejaVuSans-49" x="368.261719"/>
      <use xlink:href="#DejaVuSans-43" x="397.753906"/>
      <use xlink:href="#DejaVuSans-5f" x="467.578125"/>
      <use xlink:href="#DejaVuSans-53" x="517.578125"/>
      <use xlink:href="#DejaVuSans-54" x="581.054688"/>
      <use xlink:href="#DejaVuSans-52" x="642.138672"/>
      <use xlink:href="#DejaVuSans-45" x="711.621094"/>
      <use xlink:href="#DejaVuSans-53" x="774.804688"/>
      <use xlink:href="#DejaVuSans-53" x="838.28125"/>
      <use xlink:href="#DejaVuSans-5f" x="901.757812"/>
      <use xlink:href="#DejaVuSans-54" x="951.757812"/>
      <use xlink:href="#DejaVuSans-31" x="1012.841797"/>
      <use xlink:href="#DejaVuSans-35" x="1076.464844"/>
      <use xlink:href="#DejaVuSans-5f" x="1140.087891"/>
      <use xlink:href="#DejaVuSans-50" x="1190.087891"/>
      <use xlink:href="#DejaVuSans-45" x="1250.390625"/>
      <use xlink:href="#DejaVuSans-5f" x="1313.574219"/>
      <use xlink:href="#DejaVuSans-52" x="1363.574219"/>
      <use xlink:href="#DejaVuSans-45" x="1433.056641"/>
      <use xlink:href="#DejaVuSans-50" x="1496.240234"/>
      <use xlink:href="#DejaVuSans-31" x="1556.542969"/>
     </g>
    </g>
   </g>
  </g>
 </g>
 <defs>
  <clipPath id="p8fc26a67ae">
   <rect x="40.600625" y="31.48286" width="952.54" height="242.5072"/>
  </clipPath>
 </defs>
</svg>
