<?xml version="1.0" encoding="utf-8" standalone="no"?>
<!DOCTYPE svg PUBLIC "-//W3C//DTD SVG 1.1//EN"
  "http://www.w3.org/Graphics/SVG/1.1/DTD/svg11.dtd">
<svg xmlns:xlink="http://www.w3.org/1999/xlink" width="1000.311875pt" height="330.541644pt" viewBox="0 0 1000.311875 330.541644" xmlns="http://www.w3.org/2000/svg" version="1.1">
 <metadata>
  <rdf:RDF xmlns:dc="http://purl.org/dc/elements/1.1/" xmlns:cc="http://creativecommons.org/ns#" xmlns:rdf="http://www.w3.org/1999/02/22-rdf-syntax-ns#">
   <cc:Work>
    <dc:type rdf:resource="http://purl.org/dc/dcmitype/StillImage"/>
    <dc:date>2024-10-25T13:54:57.777775</dc:date>
    <dc:format>image/svg+xml</dc:format>
    <dc:creator>
     <cc:Agent>
      <dc:title>Matplotlib v3.5.3, https://matplotlib.org/</dc:title>
     </cc:Agent>
    </dc:creator>
   </cc:Work>
  </rdf:RDF>
 </metadata>
 <defs>
  <style type="text/css">*{stroke-linejoin: round; stroke-linecap: butt}</style>
 </defs>
 <g id="figure_1">
  <g id="axes_1">
   <g id="patch_1">
    <path d="M 40.600625 273.99006 
L 986.750625 273.99006 
L 986.750625 31.48286 
L 40.600625 31.48286 
z
" style="fill: #ffffff"/>
   </g>
   <g id="matplotlib.axis_1">
    <g id="xtick_1">
     <g id="text_1">
      <!-- 0.0 -->
      <g transform="translate(34.239375 287.06881)scale(0.08 -0.08)">
       <defs>
        <path id="DejaVuSans-30" d="M 2034 4250 
Q 1547 4250 1301 3770 
Q 1056 3291 1056 2328 
Q 1056 1369 1301 889 
Q 1547 409 2034 409 
Q 2525 409 2770 889 
Q 3016 1369 3016 2328 
Q 3016 3291 2770 3770 
Q 2525 4250 2034 4250 
z
M 2034 4750 
Q 2819 4750 3233 4129 
Q 3647 3509 3647 2328 
Q 3647 1150 3233 529 
Q 2819 -91 2034 -91 
Q 1250 -91 836 529 
Q 422 1150 422 2328 
Q 422 3509 836 4129 
Q 1250 4750 2034 4750 
z
" transform="scale(0.015625)"/>
        <path id="DejaVuSans-2e" d="M 684 794 
L 1344 794 
L 1344 0 
L 684 0 
L 684 794 
z
" transform="scale(0.015625)"/>
       </defs>
       <use xlink:href="#DejaVuSans-30"/>
       <use xlink:href="#DejaVuSans-2e" x="63.623047"/>
       <use xlink:href="#DejaVuSans-30" x="95.410156"/>
      </g>
     </g>
    </g>
    <g id="xtick_2">
     <g id="text_2">
      <!-- 0.2 -->
      <g transform="translate(223.469375 287.06881)scale(0.08 -0.08)">
       <defs>
        <path id="DejaVuSans-32" d="M 1228 531 
L 3431 531 
L 3431 0 
L 469 0 
L 469 531 
Q 828 903 1448 1529 
Q 2069 2156 2228 2338 
Q 2531 2678 2651 2914 
Q 2772 3150 2772 3378 
Q 2772 3750 2511 3984 
Q 2250 4219 1831 4219 
Q 1534 4219 1204 4116 
Q 875 4013 500 3803 
L 500 4441 
Q 881 4594 1212 4672 
Q 1544 4750 1819 4750 
Q 2544 4750 2975 4387 
Q 3406 4025 3406 3419 
Q 3406 3131 3298 2873 
Q 3191 2616 2906 2266 
Q 2828 2175 2409 1742 
Q 1991 1309 1228 531 
z
" transform="scale(0.015625)"/>
       </defs>
       <use xlink:href="#DejaVuSans-30"/>
       <use xlink:href="#DejaVuSans-2e" x="63.623047"/>
       <use xlink:href="#DejaVuSans-32" x="95.410156"/>
      </g>
     </g>
    </g>
    <g id="xtick_3">
     <g id="text_3">
      <!-- 0.4 -->
      <g transform="translate(412.699375 287.06881)scale(0.08 -0.08)">
       <defs>
        <path id="DejaVuSans-34" d="M 2419 4116 
L 825 1625 
L 2419 1625 
L 2419 4116 
z
M 2253 4666 
L 3047 4666 
L 3047 1625 
L 3713 1625 
L 3713 1100 
L 3047 1100 
L 3047 0 
L 2419 0 
L 2419 1100 
L 313 1100 
L 313 1709 
L 2253 4666 
z
" transform="scale(0.015625)"/>
       </defs>
       <use xlink:href="#DejaVuSans-30"/>
       <use xlink:href="#DejaVuSans-2e" x="63.623047"/>
       <use xlink:href="#DejaVuSans-34" x="95.410156"/>
      </g>
     </g>
    </g>
    <g id="xtick_4">
     <g id="text_4">
      <!-- 0.6 -->
      <g transform="translate(601.929375 287.06881)scale(0.08 -0.08)">
       <defs>
        <path id="DejaVuSans-36" d="M 2113 2584 
Q 1688 2584 1439 2293 
Q 1191 2003 1191 1497 
Q 1191 994 1439 701 
Q 1688 409 2113 409 
Q 2538 409 2786 701 
Q 3034 994 3034 1497 
Q 3034 2003 2786 2293 
Q 2538 2584 2113 2584 
z
M 3366 4563 
L 3366 3988 
Q 3128 4100 2886 4159 
Q 2644 4219 2406 4219 
Q 1781 4219 1451 3797 
Q 1122 3375 1075 2522 
Q 1259 2794 1537 2939 
Q 1816 3084 2150 3084 
Q 2853 3084 3261 2657 
Q 3669 2231 3669 1497 
Q 3669 778 3244 343 
Q 2819 -91 2113 -91 
Q 1303 -91 875 529 
Q 447 1150 447 2328 
Q 447 3434 972 4092 
Q 1497 4750 2381 4750 
Q 2619 4750 2861 4703 
Q 3103 4656 3366 4563 
z
" transform="scale(0.015625)"/>
       </defs>
       <use xlink:href="#DejaVuSans-30"/>
       <use xlink:href="#DejaVuSans-2e" x="63.623047"/>
       <use xlink:href="#DejaVuSans-36" x="95.410156"/>
      </g>
     </g>
    </g>
    <g id="xtick_5">
     <g id="text_5">
      <!-- 0.8 -->
      <g transform="translate(791.159375 287.06881)scale(0.08 -0.08)">
       <defs>
        <path id="DejaVuSans-38" d="M 2034 2216 
Q 1584 2216 1326 1975 
Q 1069 1734 1069 1313 
Q 1069 891 1326 650 
Q 1584 409 2034 409 
Q 2484 409 2743 651 
Q 3003 894 3003 1313 
Q 3003 1734 2745 1975 
Q 2488 2216 2034 2216 
z
M 1403 2484 
Q 997 2584 770 2862 
Q 544 3141 544 3541 
Q 544 4100 942 4425 
Q 1341 4750 2034 4750 
Q 2731 4750 3128 4425 
Q 3525 4100 3525 3541 
Q 3525 3141 3298 2862 
Q 3072 2584 2669 2484 
Q 3125 2378 3379 2068 
Q 3634 1759 3634 1313 
Q 3634 634 3220 271 
Q 2806 -91 2034 -91 
Q 1263 -91 848 271 
Q 434 634 434 1313 
Q 434 1759 690 2068 
Q 947 2378 1403 2484 
z
M 1172 3481 
Q 1172 3119 1398 2916 
Q 1625 2713 2034 2713 
Q 2441 2713 2670 2916 
Q 2900 3119 2900 3481 
Q 2900 3844 2670 4047 
Q 2441 4250 2034 4250 
Q 1625 4250 1398 4047 
Q 1172 3844 1172 3481 
z
" transform="scale(0.015625)"/>
       </defs>
       <use xlink:href="#DejaVuSans-30"/>
       <use xlink:href="#DejaVuSans-2e" x="63.623047"/>
       <use xlink:href="#DejaVuSans-38" x="95.410156"/>
      </g>
     </g>
    </g>
    <g id="xtick_6">
     <g id="text_6">
      <!-- 1.0 -->
      <g transform="translate(980.389375 287.06881)scale(0.08 -0.08)">
       <defs>
        <path id="DejaVuSans-31" d="M 794 531 
L 1825 531 
L 1825 4091 
L 703 3866 
L 703 4441 
L 1819 4666 
L 2450 4666 
L 2450 531 
L 3481 531 
L 3481 0 
L 794 0 
L 794 531 
z
" transform="scale(0.015625)"/>
       </defs>
       <use xlink:href="#DejaVuSans-31"/>
       <use xlink:href="#DejaVuSans-2e" x="63.623047"/>
       <use xlink:href="#DejaVuSans-30" x="95.410156"/>
      </g>
     </g>
    </g>
    <g id="text_7">
     <!-- rank -->
     <g transform="translate(502.492031 300.330997)scale(0.1 -0.1)">
      <defs>
       <path id="DejaVuSans-72" d="M 2631 2963 
Q 2534 3019 2420 3045 
Q 2306 3072 2169 3072 
Q 1681 3072 1420 2755 
Q 1159 2438 1159 1844 
L 1159 0 
L 581 0 
L 581 3500 
L 1159 3500 
L 1159 2956 
Q 1341 3275 1631 3429 
Q 1922 3584 2338 3584 
Q 2397 3584 2469 3576 
Q 2541 3569 2628 3553 
L 2631 2963 
z
" transform="scale(0.015625)"/>
       <path id="DejaVuSans-61" d="M 2194 1759 
Q 1497 1759 1228 1600 
Q 959 1441 959 1056 
Q 959 750 1161 570 
Q 1363 391 1709 391 
Q 2188 391 2477 730 
Q 2766 1069 2766 1631 
L 2766 1759 
L 2194 1759 
z
M 3341 1997 
L 3341 0 
L 2766 0 
L 2766 531 
Q 2569 213 2275 61 
Q 1981 -91 1556 -91 
Q 1019 -91 701 211 
Q 384 513 384 1019 
Q 384 1609 779 1909 
Q 1175 2209 1959 2209 
L 2766 2209 
L 2766 2266 
Q 2766 2663 2505 2880 
Q 2244 3097 1772 3097 
Q 1472 3097 1187 3025 
Q 903 2953 641 2809 
L 641 3341 
Q 956 3463 1253 3523 
Q 1550 3584 1831 3584 
Q 2591 3584 2966 3190 
Q 3341 2797 3341 1997 
z
" transform="scale(0.015625)"/>
       <path id="DejaVuSans-6e" d="M 3513 2113 
L 3513 0 
L 2938 0 
L 2938 2094 
Q 2938 2591 2744 2837 
Q 2550 3084 2163 3084 
Q 1697 3084 1428 2787 
Q 1159 2491 1159 1978 
L 1159 0 
L 581 0 
L 581 3500 
L 1159 3500 
L 1159 2956 
Q 1366 3272 1645 3428 
Q 1925 3584 2291 3584 
Q 2894 3584 3203 3211 
Q 3513 2838 3513 2113 
z
" transform="scale(0.015625)"/>
       <path id="DejaVuSans-6b" d="M 581 4863 
L 1159 4863 
L 1159 1991 
L 2875 3500 
L 3609 3500 
L 1753 1863 
L 3688 0 
L 2938 0 
L 1159 1709 
L 1159 0 
L 581 0 
L 581 4863 
z
" transform="scale(0.015625)"/>
      </defs>
      <use xlink:href="#DejaVuSans-72"/>
      <use xlink:href="#DejaVuSans-61" x="41.113281"/>
      <use xlink:href="#DejaVuSans-6e" x="102.392578"/>
      <use xlink:href="#DejaVuSans-6b" x="165.771484"/>
     </g>
    </g>
   </g>
   <g id="matplotlib.axis_2">
    <g id="ytick_1">
     <g id="line2d_1">
      <path d="M 40.600625 273.99006 
L 986.750625 273.99006 
" clip-path="url(#p2eadf12a49)" style="fill: none; stroke: #dedede; stroke-linecap: square"/>
     </g>
     <g id="text_8">
      <!-- 0.0 -->
      <g transform="translate(20.878125 277.029435)scale(0.08 -0.08)">
       <use xlink:href="#DejaVuSans-30"/>
       <use xlink:href="#DejaVuSans-2e" x="63.623047"/>
       <use xlink:href="#DejaVuSans-30" x="95.410156"/>
      </g>
     </g>
    </g>
    <g id="ytick_2">
     <g id="line2d_2">
      <path d="M 40.600625 225.48862 
L 986.750625 225.48862 
" clip-path="url(#p2eadf12a49)" style="fill: none; stroke: #dedede; stroke-linecap: square"/>
     </g>
     <g id="text_9">
      <!-- 0.2 -->
      <g transform="translate(20.878125 228.527995)scale(0.08 -0.08)">
       <use xlink:href="#DejaVuSans-30"/>
       <use xlink:href="#DejaVuSans-2e" x="63.623047"/>
       <use xlink:href="#DejaVuSans-32" x="95.410156"/>
      </g>
     </g>
    </g>
    <g id="ytick_3">
     <g id="line2d_3">
      <path d="M 40.600625 176.98718 
L 986.750625 176.98718 
" clip-path="url(#p2eadf12a49)" style="fill: none; stroke: #dedede; stroke-linecap: square"/>
     </g>
     <g id="text_10">
      <!-- 0.4 -->
      <g transform="translate(20.878125 180.026555)scale(0.08 -0.08)">
       <use xlink:href="#DejaVuSans-30"/>
       <use xlink:href="#DejaVuSans-2e" x="63.623047"/>
       <use xlink:href="#DejaVuSans-34" x="95.410156"/>
      </g>
     </g>
    </g>
    <g id="ytick_4">
     <g id="line2d_4">
      <path d="M 40.600625 128.48574 
L 986.750625 128.48574 
" clip-path="url(#p2eadf12a49)" style="fill: none; stroke: #dedede; stroke-linecap: square"/>
     </g>
     <g id="text_11">
      <!-- 0.6 -->
      <g transform="translate(20.878125 131.525115)scale(0.08 -0.08)">
       <use xlink:href="#DejaVuSans-30"/>
       <use xlink:href="#DejaVuSans-2e" x="63.623047"/>
       <use xlink:href="#DejaVuSans-36" x="95.410156"/>
      </g>
     </g>
    </g>
    <g id="ytick_5">
     <g id="line2d_5">
      <path d="M 40.600625 79.9843 
L 986.750625 79.9843 
" clip-path="url(#p2eadf12a49)" style="fill: none; stroke: #dedede; stroke-linecap: square"/>
     </g>
     <g id="text_12">
      <!-- 0.8 -->
      <g transform="translate(20.878125 83.023675)scale(0.08 -0.08)">
       <use xlink:href="#DejaVuSans-30"/>
       <use xlink:href="#DejaVuSans-2e" x="63.623047"/>
       <use xlink:href="#DejaVuSans-38" x="95.410156"/>
      </g>
     </g>
    </g>
    <g id="ytick_6">
     <g id="line2d_6">
      <path d="M 40.600625 31.48286 
L 986.750625 31.48286 
" clip-path="url(#p2eadf12a49)" style="fill: none; stroke: #dedede; stroke-linecap: square"/>
     </g>
     <g id="text_13">
      <!-- 1.0 -->
      <g transform="translate(20.878125 34.522235)scale(0.08 -0.08)">
       <use xlink:href="#DejaVuSans-31"/>
       <use xlink:href="#DejaVuSans-2e" x="63.623047"/>
       <use xlink:href="#DejaVuSans-30" x="95.410156"/>
      </g>
     </g>
    </g>
    <g id="text_14">
     <!-- Fraction w.r.t. bin with highest coverage -->
     <g transform="translate(14.798438 252.696616)rotate(-90)scale(0.1 -0.1)">
      <defs>
       <path id="DejaVuSans-46" d="M 628 4666 
L 3309 4666 
L 3309 4134 
L 1259 4134 
L 1259 2759 
L 3109 2759 
L 3109 2228 
L 1259 2228 
L 1259 0 
L 628 0 
L 628 4666 
z
" transform="scale(0.015625)"/>
       <path id="DejaVuSans-63" d="M 3122 3366 
L 3122 2828 
Q 2878 2963 2633 3030 
Q 2388 3097 2138 3097 
Q 1578 3097 1268 2742 
Q 959 2388 959 1747 
Q 959 1106 1268 751 
Q 1578 397 2138 397 
Q 2388 397 2633 464 
Q 2878 531 3122 666 
L 3122 134 
Q 2881 22 2623 -34 
Q 2366 -91 2075 -91 
Q 1284 -91 818 406 
Q 353 903 353 1747 
Q 353 2603 823 3093 
Q 1294 3584 2113 3584 
Q 2378 3584 2631 3529 
Q 2884 3475 3122 3366 
z
" transform="scale(0.015625)"/>
       <path id="DejaVuSans-74" d="M 1172 4494 
L 1172 3500 
L 2356 3500 
L 2356 3053 
L 1172 3053 
L 1172 1153 
Q 1172 725 1289 603 
Q 1406 481 1766 481 
L 2356 481 
L 2356 0 
L 1766 0 
Q 1100 0 847 248 
Q 594 497 594 1153 
L 594 3053 
L 172 3053 
L 172 3500 
L 594 3500 
L 594 4494 
L 1172 4494 
z
" transform="scale(0.015625)"/>
       <path id="DejaVuSans-69" d="M 603 3500 
L 1178 3500 
L 1178 0 
L 603 0 
L 603 3500 
z
M 603 4863 
L 1178 4863 
L 1178 4134 
L 603 4134 
L 603 4863 
z
" transform="scale(0.015625)"/>
       <path id="DejaVuSans-6f" d="M 1959 3097 
Q 1497 3097 1228 2736 
Q 959 2375 959 1747 
Q 959 1119 1226 758 
Q 1494 397 1959 397 
Q 2419 397 2687 759 
Q 2956 1122 2956 1747 
Q 2956 2369 2687 2733 
Q 2419 3097 1959 3097 
z
M 1959 3584 
Q 2709 3584 3137 3096 
Q 3566 2609 3566 1747 
Q 3566 888 3137 398 
Q 2709 -91 1959 -91 
Q 1206 -91 779 398 
Q 353 888 353 1747 
Q 353 2609 779 3096 
Q 1206 3584 1959 3584 
z
" transform="scale(0.015625)"/>
       <path id="DejaVuSans-20" transform="scale(0.015625)"/>
       <path id="DejaVuSans-77" d="M 269 3500 
L 844 3500 
L 1563 769 
L 2278 3500 
L 2956 3500 
L 3675 769 
L 4391 3500 
L 4966 3500 
L 4050 0 
L 3372 0 
L 2619 2869 
L 1863 0 
L 1184 0 
L 269 3500 
z
" transform="scale(0.015625)"/>
       <path id="DejaVuSans-62" d="M 3116 1747 
Q 3116 2381 2855 2742 
Q 2594 3103 2138 3103 
Q 1681 3103 1420 2742 
Q 1159 2381 1159 1747 
Q 1159 1113 1420 752 
Q 1681 391 2138 391 
Q 2594 391 2855 752 
Q 3116 1113 3116 1747 
z
M 1159 2969 
Q 1341 3281 1617 3432 
Q 1894 3584 2278 3584 
Q 2916 3584 3314 3078 
Q 3713 2572 3713 1747 
Q 3713 922 3314 415 
Q 2916 -91 2278 -91 
Q 1894 -91 1617 61 
Q 1341 213 1159 525 
L 1159 0 
L 581 0 
L 581 4863 
L 1159 4863 
L 1159 2969 
z
" transform="scale(0.015625)"/>
       <path id="DejaVuSans-68" d="M 3513 2113 
L 3513 0 
L 2938 0 
L 2938 2094 
Q 2938 2591 2744 2837 
Q 2550 3084 2163 3084 
Q 1697 3084 1428 2787 
Q 1159 2491 1159 1978 
L 1159 0 
L 581 0 
L 581 4863 
L 1159 4863 
L 1159 2956 
Q 1366 3272 1645 3428 
Q 1925 3584 2291 3584 
Q 2894 3584 3203 3211 
Q 3513 2838 3513 2113 
z
" transform="scale(0.015625)"/>
       <path id="DejaVuSans-67" d="M 2906 1791 
Q 2906 2416 2648 2759 
Q 2391 3103 1925 3103 
Q 1463 3103 1205 2759 
Q 947 2416 947 1791 
Q 947 1169 1205 825 
Q 1463 481 1925 481 
Q 2391 481 2648 825 
Q 2906 1169 2906 1791 
z
M 3481 434 
Q 3481 -459 3084 -895 
Q 2688 -1331 1869 -1331 
Q 1566 -1331 1297 -1286 
Q 1028 -1241 775 -1147 
L 775 -588 
Q 1028 -725 1275 -790 
Q 1522 -856 1778 -856 
Q 2344 -856 2625 -561 
Q 2906 -266 2906 331 
L 2906 616 
Q 2728 306 2450 153 
Q 2172 0 1784 0 
Q 1141 0 747 490 
Q 353 981 353 1791 
Q 353 2603 747 3093 
Q 1141 3584 1784 3584 
Q 2172 3584 2450 3431 
Q 2728 3278 2906 2969 
L 2906 3500 
L 3481 3500 
L 3481 434 
z
" transform="scale(0.015625)"/>
       <path id="DejaVuSans-65" d="M 3597 1894 
L 3597 1613 
L 953 1613 
Q 991 1019 1311 708 
Q 1631 397 2203 397 
Q 2534 397 2845 478 
Q 3156 559 3463 722 
L 3463 178 
Q 3153 47 2828 -22 
Q 2503 -91 2169 -91 
Q 1331 -91 842 396 
Q 353 884 353 1716 
Q 353 2575 817 3079 
Q 1281 3584 2069 3584 
Q 2775 3584 3186 3129 
Q 3597 2675 3597 1894 
z
M 3022 2063 
Q 3016 2534 2758 2815 
Q 2500 3097 2075 3097 
Q 1594 3097 1305 2825 
Q 1016 2553 972 2059 
L 3022 2063 
z
" transform="scale(0.015625)"/>
       <path id="DejaVuSans-73" d="M 2834 3397 
L 2834 2853 
Q 2591 2978 2328 3040 
Q 2066 3103 1784 3103 
Q 1356 3103 1142 2972 
Q 928 2841 928 2578 
Q 928 2378 1081 2264 
Q 1234 2150 1697 2047 
L 1894 2003 
Q 2506 1872 2764 1633 
Q 3022 1394 3022 966 
Q 3022 478 2636 193 
Q 2250 -91 1575 -91 
Q 1294 -91 989 -36 
Q 684 19 347 128 
L 347 722 
Q 666 556 975 473 
Q 1284 391 1588 391 
Q 1994 391 2212 530 
Q 2431 669 2431 922 
Q 2431 1156 2273 1281 
Q 2116 1406 1581 1522 
L 1381 1569 
Q 847 1681 609 1914 
Q 372 2147 372 2553 
Q 372 3047 722 3315 
Q 1072 3584 1716 3584 
Q 2034 3584 2315 3537 
Q 2597 3491 2834 3397 
z
" transform="scale(0.015625)"/>
       <path id="DejaVuSans-76" d="M 191 3500 
L 800 3500 
L 1894 563 
L 2988 3500 
L 3597 3500 
L 2284 0 
L 1503 0 
L 191 3500 
z
" transform="scale(0.015625)"/>
      </defs>
      <use xlink:href="#DejaVuSans-46"/>
      <use xlink:href="#DejaVuSans-72" x="50.269531"/>
      <use xlink:href="#DejaVuSans-61" x="91.382812"/>
      <use xlink:href="#DejaVuSans-63" x="152.662109"/>
      <use xlink:href="#DejaVuSans-74" x="207.642578"/>
      <use xlink:href="#DejaVuSans-69" x="246.851562"/>
      <use xlink:href="#DejaVuSans-6f" x="274.634766"/>
      <use xlink:href="#DejaVuSans-6e" x="335.816406"/>
      <use xlink:href="#DejaVuSans-20" x="399.195312"/>
      <use xlink:href="#DejaVuSans-77" x="430.982422"/>
      <use xlink:href="#DejaVuSans-2e" x="503.644531"/>
      <use xlink:href="#DejaVuSans-72" x="535.431641"/>
      <use xlink:href="#DejaVuSans-2e" x="567.419922"/>
      <use xlink:href="#DejaVuSans-74" x="599.207031"/>
      <use xlink:href="#DejaVuSans-2e" x="638.416016"/>
      <use xlink:href="#DejaVuSans-20" x="670.203125"/>
      <use xlink:href="#DejaVuSans-62" x="701.990234"/>
      <use xlink:href="#DejaVuSans-69" x="765.466797"/>
      <use xlink:href="#DejaVuSans-6e" x="793.25"/>
      <use xlink:href="#DejaVuSans-20" x="856.628906"/>
      <use xlink:href="#DejaVuSans-77" x="888.416016"/>
      <use xlink:href="#DejaVuSans-69" x="970.203125"/>
      <use xlink:href="#DejaVuSans-74" x="997.986328"/>
      <use xlink:href="#DejaVuSans-68" x="1037.195312"/>
      <use xlink:href="#DejaVuSans-20" x="1100.574219"/>
      <use xlink:href="#DejaVuSans-68" x="1132.361328"/>
      <use xlink:href="#DejaVuSans-69" x="1195.740234"/>
      <use xlink:href="#DejaVuSans-67" x="1223.523438"/>
      <use xlink:href="#DejaVuSans-68" x="1287"/>
      <use xlink:href="#DejaVuSans-65" x="1350.378906"/>
      <use xlink:href="#DejaVuSans-73" x="1411.902344"/>
      <use xlink:href="#DejaVuSans-74" x="1464.001953"/>
      <use xlink:href="#DejaVuSans-20" x="1503.210938"/>
      <use xlink:href="#DejaVuSans-63" x="1534.998047"/>
      <use xlink:href="#DejaVuSans-6f" x="1589.978516"/>
      <use xlink:href="#DejaVuSans-76" x="1651.160156"/>
      <use xlink:href="#DejaVuSans-65" x="1710.339844"/>
      <use xlink:href="#DejaVuSans-72" x="1771.863281"/>
      <use xlink:href="#DejaVuSans-61" x="1812.976562"/>
      <use xlink:href="#DejaVuSans-67" x="1874.255859"/>
      <use xlink:href="#DejaVuSans-65" x="1937.732422"/>
     </g>
    </g>
   </g>
   <g id="line2d_7">
    <path d="M 40.600625 273.981966 
L 52.888287 273.957686 
L 65.17595 273.888891 
L 77.463612 273.807955 
L 89.751274 273.686552 
L 102.038937 273.548961 
L 114.326599 273.395184 
L 126.614261 273.172611 
L 138.901924 272.90957 
L 151.189586 272.610109 
L 163.477248 272.3066 
L 175.764911 272.003092 
L 188.052573 271.695537 
L 200.340235 271.387982 
L 212.627898 271.080427 
L 224.91556 270.772872 
L 237.203222 270.465317 
L 249.490885 270.157762 
L 261.778547 269.817832 
L 274.066209 269.413154 
L 286.353872 269.008477 
L 298.641534 268.571425 
L 310.929196 268.081765 
L 323.216859 267.579964 
L 335.504521 267.033649 
L 347.792183 266.4671 
L 360.079846 265.860084 
L 372.367508 265.253067 
L 384.65517 264.642004 
L 396.942833 264.026893 
L 409.230495 263.411783 
L 421.518157 262.796673 
L 433.80582 262.181563 
L 446.093482 261.396488 
L 458.381144 260.562852 
L 470.668807 259.664467 
L 482.956469 258.757989 
L 495.244131 257.835323 
L 507.531794 256.843863 
L 519.819456 255.828122 
L 532.107119 254.7881 
L 544.394781 253.748078 
L 556.682443 252.699963 
L 568.970106 251.639707 
L 581.257768 250.55517 
L 593.54543 249.470634 
L 605.833093 248.36991 
L 618.120755 247.212532 
L 630.408417 246.038966 
L 642.69608 244.81684 
L 654.983742 243.586619 
L 667.271404 242.356399 
L 679.559067 241.109991 
L 691.846729 239.600543 
L 704.134391 237.941364 
L 716.422054 236.278139 
L 728.709716 234.525884 
L 740.997378 232.721021 
L 753.285041 230.770474 
L 765.572703 228.77946 
L 777.860365 226.735837 
L 790.148028 224.372519 
L 802.43569 221.430511 
L 814.723352 218.464223 
L 827.011015 215.396766 
L 839.298677 211.985332 
L 851.586339 208.254203 
L 863.874002 202.507779 
L 876.161664 195.183111 
L 888.449326 185.576061 
L 900.736989 164.698735 
L 913.024651 143.056568 
L 925.312313 118.982287 
L 937.599976 93.463307 
L 949.887638 64.5248 
L 962.1753 31.48286 
" clip-path="url(#p2eadf12a49)" style="fill: none; stroke: #7cb5ec; stroke-linecap: square"/>
   </g>
   <g id="line2d_8">
    <path d="M 40.600625 273.980751 
L 54.514596 273.878348 
L 68.428566 273.7294 
L 82.342537 273.552523 
L 96.256507 273.324445 
L 110.170478 273.06844 
L 124.084449 272.723996 
L 137.998419 272.374897 
L 151.91239 272.021144 
L 165.82636 271.66739 
L 179.740331 271.313637 
L 193.654301 270.959884 
L 207.568272 270.60613 
L 221.482243 270.252377 
L 235.396213 269.898624 
L 249.310184 269.54487 
L 263.224154 269.191117 
L 277.138125 268.809436 
L 291.052096 268.409136 
L 304.966066 268.004182 
L 318.880037 267.589918 
L 332.794007 267.171 
L 346.707978 266.752081 
L 360.621949 266.305235 
L 374.535919 265.746677 
L 388.44989 265.188119 
L 402.36386 264.564396 
L 416.277831 263.922055 
L 430.191801 263.228512 
L 444.105772 262.530315 
L 458.019743 261.832117 
L 471.933713 261.13392 
L 485.847684 260.431068 
L 499.761654 259.723562 
L 513.675625 259.016055 
L 527.589596 258.308548 
L 541.503566 257.601042 
L 555.417537 256.884226 
L 569.331507 256.083626 
L 583.245478 255.096841 
L 597.159449 254.105401 
L 611.073419 253.048795 
L 624.98739 251.978226 
L 638.90136 250.740089 
L 652.815331 249.436788 
L 666.729301 248.091594 
L 680.643272 246.681236 
L 694.557243 245.270877 
L 708.471213 243.632441 
L 722.385184 241.970731 
L 736.299154 240.309022 
L 750.213125 238.596111 
L 764.127096 236.757525 
L 778.041066 234.448819 
L 791.955037 231.958582 
L 805.869007 228.821349 
L 819.782978 223.086821 
L 833.696949 215.974518 
L 847.610919 207.181886 
L 861.52489 194.94947 
L 875.43886 182.707743 
L 889.352831 165.736894 
L 903.266801 145.540373 
L 917.180772 123.747308 
L 931.094743 100.753343 
L 945.008713 69.148278 
L 958.922684 31.48286 
" clip-path="url(#p2eadf12a49)" style="fill: none; stroke: #434348; stroke-linecap: square"/>
   </g>
   <g id="line2d_9">
    <path d="M 40.600625 273.968958 
L 52.730753 273.940821 
L 64.860881 273.845861 
L 76.99101 273.726282 
L 89.121138 273.596151 
L 101.251266 273.46602 
L 113.381394 273.304236 
L 125.511522 273.138935 
L 137.641651 272.910328 
L 149.771779 272.68172 
L 161.901907 272.396839 
L 174.032035 272.090856 
L 186.162163 271.735635 
L 198.292292 271.362828 
L 210.42242 270.986505 
L 222.552548 270.592596 
L 234.682676 270.188136 
L 246.812804 269.76609 
L 258.942933 269.287773 
L 271.073061 268.788352 
L 283.203189 268.26783 
L 295.333317 267.58904 
L 307.463446 266.885632 
L 319.593574 266.182223 
L 331.723702 265.478814 
L 343.85383 264.775405 
L 355.983958 264.071997 
L 368.114087 263.368588 
L 380.244215 262.665179 
L 392.374343 261.96177 
L 404.504471 261.258362 
L 416.634599 260.554953 
L 428.764728 259.770652 
L 440.894856 258.912493 
L 453.024984 258.033233 
L 465.155112 257.07308 
L 477.28524 256.098858 
L 489.415369 255.092984 
L 501.545497 254.073041 
L 513.675625 253.03903 
L 525.805753 251.913576 
L 537.935881 250.738884 
L 550.06601 249.55364 
L 562.196138 248.217163 
L 574.326266 246.873653 
L 586.456394 245.466835 
L 598.586522 244.060018 
L 610.716651 242.6532 
L 622.846779 241.246383 
L 634.976907 239.839565 
L 647.107035 238.432748 
L 659.237163 237.02593 
L 671.367292 235.492499 
L 683.49742 233.948517 
L 695.627548 232.32716 
L 707.757676 230.582706 
L 719.887804 228.764395 
L 732.017933 226.756163 
L 744.148061 224.702209 
L 756.278189 222.620119 
L 768.408317 220.538029 
L 780.538446 218.083133 
L 792.668574 215.610651 
L 804.798702 213.117067 
L 816.92883 210.173301 
L 829.058958 207.014996 
L 841.189087 203.434646 
L 853.319215 199.108682 
L 865.449343 192.932753 
L 877.579471 186.682966 
L 889.709599 178.920851 
L 901.839728 166.020334 
L 913.969856 152.145597 
L 926.099984 137.729234 
L 938.230112 108.994987 
L 950.36024 74.851526 
L 962.490369 31.48286 
" clip-path="url(#p2eadf12a49)" style="fill: none; stroke: #90ed7d; stroke-linecap: square"/>
   </g>
   <g id="line2d_10">
    <path d="M 40.600625 273.964646 
L 54.514596 273.924711 
L 68.428566 273.881145 
L 82.342537 273.728663 
L 96.256507 273.56529 
L 110.170478 273.398287 
L 124.084449 273.224022 
L 137.998419 273.024344 
L 151.91239 272.806514 
L 165.82636 272.526964 
L 179.740331 272.225632 
L 193.654301 271.913408 
L 207.568272 271.586662 
L 221.482243 271.169153 
L 235.396213 270.733492 
L 249.310184 270.283309 
L 263.224154 269.785929 
L 277.138125 269.266766 
L 291.052096 268.718559 
L 304.966066 267.992457 
L 318.880037 267.266355 
L 332.794007 266.540253 
L 346.707978 265.814151 
L 360.621949 265.088049 
L 374.535919 264.361947 
L 388.44989 263.635844 
L 402.36386 262.909742 
L 416.277831 262.18364 
L 430.191801 261.457538 
L 444.105772 260.731436 
L 458.019743 260.005334 
L 471.933713 259.279232 
L 485.847684 258.55313 
L 499.761654 257.827028 
L 513.675625 257.082773 
L 527.589596 256.331258 
L 541.503566 255.56522 
L 555.417537 254.751986 
L 569.331507 253.866141 
L 583.245478 252.907686 
L 597.159449 251.546245 
L 611.073419 250.177543 
L 624.98739 248.787057 
L 638.90136 247.334853 
L 652.815331 245.882649 
L 666.729301 244.332421 
L 680.643272 242.578884 
L 694.557243 240.821717 
L 708.471213 239.028245 
L 722.385184 237.060509 
L 736.299154 234.951182 
L 750.213125 232.827334 
L 764.127096 230.278715 
L 778.041066 227.363416 
L 791.955037 223.914431 
L 805.869007 220.026154 
L 819.782978 215.08866 
L 833.696949 208.953098 
L 847.610919 201.692077 
L 861.52489 190.796915 
L 875.43886 179.854557 
L 889.352831 168.549148 
L 903.266801 150.788691 
L 917.180772 131.125847 
L 931.094743 102.448446 
L 945.008713 68.005794 
L 958.922684 31.48286 
" clip-path="url(#p2eadf12a49)" style="fill: none; stroke: #f7a35c; stroke-linecap: square"/>
   </g>
   <g id="line2d_11">
    <path d="M 40.600625 273.939771 
L 50.774281 273.810457 
L 60.947937 273.666775 
L 71.121593 273.49675 
L 81.295249 273.230938 
L 91.468905 272.890889 
L 101.64256 272.526894 
L 111.816216 272.155714 
L 121.989872 271.760588 
L 132.163528 271.310383 
L 142.337184 270.860178 
L 152.51084 270.381236 
L 162.684496 269.902295 
L 172.858152 269.423354 
L 183.031808 268.944412 
L 193.205464 268.465471 
L 203.37912 267.974556 
L 213.552776 267.459694 
L 223.726431 266.892148 
L 233.900087 266.319813 
L 244.073743 265.678032 
L 254.247399 265.017092 
L 264.421055 264.341785 
L 274.594711 263.666478 
L 284.768367 262.969618 
L 294.942023 262.270363 
L 305.115679 261.547162 
L 315.289335 260.795224 
L 325.462991 260.002576 
L 335.636647 259.169218 
L 345.810302 258.304728 
L 355.983958 257.406713 
L 366.157614 256.496725 
L 376.33127 255.550815 
L 386.504926 254.592932 
L 396.678582 253.63505 
L 406.852238 252.658009 
L 417.025894 251.558838 
L 427.19955 250.428537 
L 437.373206 249.240762 
L 447.546862 248.048198 
L 457.720517 246.759845 
L 467.894173 245.459519 
L 478.067829 244.142431 
L 488.241485 242.763079 
L 498.415141 241.326255 
L 508.588797 239.867878 
L 518.762453 238.387949 
L 528.936109 236.862521 
L 539.109765 235.325119 
L 549.283421 233.679955 
L 559.457077 232.010844 
L 569.630733 230.336944 
L 579.804388 228.634307 
L 589.978044 226.883776 
L 600.1517 225.032668 
L 610.325356 223.155217 
L 620.499012 221.239452 
L 630.672668 219.321291 
L 640.846324 217.379184 
L 651.01998 215.279026 
L 661.193636 213.135763 
L 671.367292 210.810502 
L 681.540948 208.427769 
L 691.714603 205.807959 
L 701.888259 203.130677 
L 712.061915 200.381553 
L 722.235571 197.632429 
L 732.409227 194.536073 
L 742.582883 191.114036 
L 752.756539 187.658474 
L 762.930195 184.056834 
L 773.103851 180.407301 
L 783.277507 176.630848 
L 793.451163 172.844816 
L 803.624819 169.044415 
L 813.798474 165.212884 
L 823.97213 161.335853 
L 834.145786 157.375008 
L 844.319442 153.404583 
L 854.493098 148.380488 
L 864.666754 142.793636 
L 874.84041 137.173258 
L 885.014066 130.939836 
L 895.187722 124.153236 
L 905.361378 116.84459 
L 915.535034 108.999529 
L 925.70869 100.618054 
L 935.882345 86.949066 
L 946.056001 70.542928 
L 956.229657 53.499797 
L 966.403313 31.48286 
" clip-path="url(#p2eadf12a49)" style="fill: none; stroke: #8085e9; stroke-linecap: square"/>
   </g>
   <g id="line2d_12">
    <path d="M 40.600625 273.980543 
L 50.560099 273.866337 
L 60.519572 273.63158 
L 70.479046 273.396823 
L 80.43852 273.155721 
L 90.397993 272.914619 
L 100.357467 272.673517 
L 110.316941 272.407036 
L 120.276414 272.140555 
L 130.235888 271.794764 
L 140.195362 271.436284 
L 150.154836 271.036563 
L 160.114309 270.611462 
L 170.073783 270.180017 
L 180.033257 269.729537 
L 189.99273 269.266368 
L 199.952204 268.796853 
L 209.911678 268.317822 
L 219.871151 267.813412 
L 229.830625 267.210657 
L 239.790099 266.598385 
L 249.749572 265.982941 
L 259.709046 265.364325 
L 269.66852 264.736191 
L 279.627993 264.082678 
L 289.587467 263.422821 
L 299.546941 262.743929 
L 309.506414 262.011106 
L 319.465888 261.252904 
L 329.425362 260.377324 
L 339.384836 259.501743 
L 349.344309 258.56906 
L 359.303783 257.633204 
L 369.263257 256.687831 
L 379.22273 255.732941 
L 389.182204 254.774879 
L 399.141678 253.813644 
L 409.101151 252.849236 
L 419.060625 251.862622 
L 429.020099 250.793526 
L 438.979572 249.699051 
L 448.939046 248.547472 
L 458.89852 247.389549 
L 468.857993 246.142799 
L 478.817467 244.886531 
L 488.776941 243.604885 
L 498.736414 242.256618 
L 508.695888 240.841731 
L 518.655362 239.423671 
L 528.614836 238.002439 
L 538.574309 236.578035 
L 548.533783 235.147286 
L 558.493257 233.713365 
L 568.45273 232.219168 
L 578.412204 230.709109 
L 588.371678 229.195878 
L 598.331151 227.64775 
L 608.290625 226.064726 
L 618.250099 224.3326 
L 628.209572 222.578267 
L 638.169046 220.716073 
L 648.12852 218.828499 
L 658.087993 216.829892 
L 668.047467 214.828112 
L 678.006941 212.791436 
L 687.966414 210.580279 
L 697.925888 208.299328 
L 707.885362 205.973965 
L 717.844836 203.59467 
L 727.804309 201.132894 
L 737.763783 198.242844 
L 747.723257 195.298864 
L 757.68273 192.307298 
L 767.642204 189.093664 
L 777.601678 185.851479 
L 787.561151 182.533157 
L 797.520625 179.179938 
L 807.480099 175.817202 
L 817.439572 172.26095 
L 827.399046 168.692008 
L 837.35852 165.065963 
L 847.317993 161.363781 
L 857.277467 157.64891 
L 867.236941 151.161367 
L 877.196414 144.299482 
L 887.155888 137.075944 
L 897.115362 129.519305 
L 907.074836 120.887225 
L 917.034309 112.185353 
L 926.993783 99.559231 
L 936.953257 84.966225 
L 946.91273 68.545922 
L 956.872204 50.913764 
L 966.831678 31.48286 
" clip-path="url(#p2eadf12a49)" style="fill: none; stroke: #f15c80; stroke-linecap: square"/>
   </g>
   <g id="line2d_13">
    <path d="M 40.600625 273.99006 
L 986.750625 273.99006 
" clip-path="url(#p2eadf12a49)" style="fill: none; stroke: #dedede; stroke-width: 2; stroke-linecap: square"/>
   </g>
   <g id="text_15">
    <!-- deepTools: Fingerprint plot -->
    <g transform="translate(407.454375 19.3575)scale(0.16 -0.16)">
     <defs>
      <path id="DejaVuSans-64" d="M 2906 2969 
L 2906 4863 
L 3481 4863 
L 3481 0 
L 2906 0 
L 2906 525 
Q 2725 213 2448 61 
Q 2172 -91 1784 -91 
Q 1150 -91 751 415 
Q 353 922 353 1747 
Q 353 2572 751 3078 
Q 1150 3584 1784 3584 
Q 2172 3584 2448 3432 
Q 2725 3281 2906 2969 
z
M 947 1747 
Q 947 1113 1208 752 
Q 1469 391 1925 391 
Q 2381 391 2643 752 
Q 2906 1113 2906 1747 
Q 2906 2381 2643 2742 
Q 2381 3103 1925 3103 
Q 1469 3103 1208 2742 
Q 947 2381 947 1747 
z
" transform="scale(0.015625)"/>
      <path id="DejaVuSans-70" d="M 1159 525 
L 1159 -1331 
L 581 -1331 
L 581 3500 
L 1159 3500 
L 1159 2969 
Q 1341 3281 1617 3432 
Q 1894 3584 2278 3584 
Q 2916 3584 3314 3078 
Q 3713 2572 3713 1747 
Q 3713 922 3314 415 
Q 2916 -91 2278 -91 
Q 1894 -91 1617 61 
Q 1341 213 1159 525 
z
M 3116 1747 
Q 3116 2381 2855 2742 
Q 2594 3103 2138 3103 
Q 1681 3103 1420 2742 
Q 1159 2381 1159 1747 
Q 1159 1113 1420 752 
Q 1681 391 2138 391 
Q 2594 391 2855 752 
Q 3116 1113 3116 1747 
z
" transform="scale(0.015625)"/>
      <path id="DejaVuSans-54" d="M -19 4666 
L 3928 4666 
L 3928 4134 
L 2272 4134 
L 2272 0 
L 1638 0 
L 1638 4134 
L -19 4134 
L -19 4666 
z
" transform="scale(0.015625)"/>
      <path id="DejaVuSans-6c" d="M 603 4863 
L 1178 4863 
L 1178 0 
L 603 0 
L 603 4863 
z
" transform="scale(0.015625)"/>
      <path id="DejaVuSans-3a" d="M 750 794 
L 1409 794 
L 1409 0 
L 750 0 
L 750 794 
z
M 750 3309 
L 1409 3309 
L 1409 2516 
L 750 2516 
L 750 3309 
z
" transform="scale(0.015625)"/>
     </defs>
     <use xlink:href="#DejaVuSans-64"/>
     <use xlink:href="#DejaVuSans-65" x="63.476562"/>
     <use xlink:href="#DejaVuSans-65" x="125"/>
     <use xlink:href="#DejaVuSans-70" x="186.523438"/>
     <use xlink:href="#DejaVuSans-54" x="250"/>
     <use xlink:href="#DejaVuSans-6f" x="294.083984"/>
     <use xlink:href="#DejaVuSans-6f" x="355.265625"/>
     <use xlink:href="#DejaVuSans-6c" x="416.447266"/>
     <use xlink:href="#DejaVuSans-73" x="444.230469"/>
     <use xlink:href="#DejaVuSans-3a" x="496.330078"/>
     <use xlink:href="#DejaVuSans-20" x="530.021484"/>
     <use xlink:href="#DejaVuSans-46" x="561.808594"/>
     <use xlink:href="#DejaVuSans-69" x="612.078125"/>
     <use xlink:href="#DejaVuSans-6e" x="639.861328"/>
     <use xlink:href="#DejaVuSans-67" x="703.240234"/>
     <use xlink:href="#DejaVuSans-65" x="766.716797"/>
     <use xlink:href="#DejaVuSans-72" x="828.240234"/>
     <use xlink:href="#DejaVuSans-70" x="869.353516"/>
     <use xlink:href="#DejaVuSans-72" x="932.830078"/>
     <use xlink:href="#DejaVuSans-69" x="973.943359"/>
     <use xlink:href="#DejaVuSans-6e" x="1001.726562"/>
     <use xlink:href="#DejaVuSans-74" x="1065.105469"/>
     <use xlink:href="#DejaVuSans-20" x="1104.314453"/>
     <use xlink:href="#DejaVuSans-70" x="1136.101562"/>
     <use xlink:href="#DejaVuSans-6c" x="1199.578125"/>
     <use xlink:href="#DejaVuSans-6f" x="1227.361328"/>
     <use xlink:href="#DejaVuSans-74" x="1288.542969"/>
    </g>
   </g>
   <g id="legend_1">
    <g id="line2d_14">
     <path d="M 47.800625 303.490394 
L 55.800625 303.490394 
L 63.800625 303.490394 
" style="fill: none; stroke: #7cb5ec; stroke-linecap: square"/>
    </g>
    <g id="text_16">
     <!-- OSMOTIC_STRESS_T0_PE_REP1 -->
     <g transform="translate(70.200625 306.290394)scale(0.08 -0.08)">
      <defs>
       <path id="DejaVuSans-4f" d="M 2522 4238 
Q 1834 4238 1429 3725 
Q 1025 3213 1025 2328 
Q 1025 1447 1429 934 
Q 1834 422 2522 422 
Q 3209 422 3611 934 
Q 4013 1447 4013 2328 
Q 4013 3213 3611 3725 
Q 3209 4238 2522 4238 
z
M 2522 4750 
Q 3503 4750 4090 4092 
Q 4678 3434 4678 2328 
Q 4678 1225 4090 567 
Q 3503 -91 2522 -91 
Q 1538 -91 948 565 
Q 359 1222 359 2328 
Q 359 3434 948 4092 
Q 1538 4750 2522 4750 
z
" transform="scale(0.015625)"/>
       <path id="DejaVuSans-53" d="M 3425 4513 
L 3425 3897 
Q 3066 4069 2747 4153 
Q 2428 4238 2131 4238 
Q 1616 4238 1336 4038 
Q 1056 3838 1056 3469 
Q 1056 3159 1242 3001 
Q 1428 2844 1947 2747 
L 2328 2669 
Q 3034 2534 3370 2195 
Q 3706 1856 3706 1288 
Q 3706 609 3251 259 
Q 2797 -91 1919 -91 
Q 1588 -91 1214 -16 
Q 841 59 441 206 
L 441 856 
Q 825 641 1194 531 
Q 1563 422 1919 422 
Q 2459 422 2753 634 
Q 3047 847 3047 1241 
Q 3047 1584 2836 1778 
Q 2625 1972 2144 2069 
L 1759 2144 
Q 1053 2284 737 2584 
Q 422 2884 422 3419 
Q 422 4038 858 4394 
Q 1294 4750 2059 4750 
Q 2388 4750 2728 4690 
Q 3069 4631 3425 4513 
z
" transform="scale(0.015625)"/>
       <path id="DejaVuSans-4d" d="M 628 4666 
L 1569 4666 
L 2759 1491 
L 3956 4666 
L 4897 4666 
L 4897 0 
L 4281 0 
L 4281 4097 
L 3078 897 
L 2444 897 
L 1241 4097 
L 1241 0 
L 628 0 
L 628 4666 
z
" transform="scale(0.015625)"/>
       <path id="DejaVuSans-49" d="M 628 4666 
L 1259 4666 
L 1259 0 
L 628 0 
L 628 4666 
z
" transform="scale(0.015625)"/>
       <path id="DejaVuSans-43" d="M 4122 4306 
L 4122 3641 
Q 3803 3938 3442 4084 
Q 3081 4231 2675 4231 
Q 1875 4231 1450 3742 
Q 1025 3253 1025 2328 
Q 1025 1406 1450 917 
Q 1875 428 2675 428 
Q 3081 428 3442 575 
Q 3803 722 4122 1019 
L 4122 359 
Q 3791 134 3420 21 
Q 3050 -91 2638 -91 
Q 1578 -91 968 557 
Q 359 1206 359 2328 
Q 359 3453 968 4101 
Q 1578 4750 2638 4750 
Q 3056 4750 3426 4639 
Q 3797 4528 4122 4306 
z
" transform="scale(0.015625)"/>
       <path id="DejaVuSans-5f" d="M 3263 -1063 
L 3263 -1509 
L -63 -1509 
L -63 -1063 
L 3263 -1063 
z
" transform="scale(0.015625)"/>
       <path id="DejaVuSans-52" d="M 2841 2188 
Q 3044 2119 3236 1894 
Q 3428 1669 3622 1275 
L 4263 0 
L 3584 0 
L 2988 1197 
Q 2756 1666 2539 1819 
Q 2322 1972 1947 1972 
L 1259 1972 
L 1259 0 
L 628 0 
L 628 4666 
L 2053 4666 
Q 2853 4666 3247 4331 
Q 3641 3997 3641 3322 
Q 3641 2881 3436 2590 
Q 3231 2300 2841 2188 
z
M 1259 4147 
L 1259 2491 
L 2053 2491 
Q 2509 2491 2742 2702 
Q 2975 2913 2975 3322 
Q 2975 3731 2742 3939 
Q 2509 4147 2053 4147 
L 1259 4147 
z
" transform="scale(0.015625)"/>
       <path id="DejaVuSans-45" d="M 628 4666 
L 3578 4666 
L 3578 4134 
L 1259 4134 
L 1259 2753 
L 3481 2753 
L 3481 2222 
L 1259 2222 
L 1259 531 
L 3634 531 
L 3634 0 
L 628 0 
L 628 4666 
z
" transform="scale(0.015625)"/>
       <path id="DejaVuSans-50" d="M 1259 4147 
L 1259 2394 
L 2053 2394 
Q 2494 2394 2734 2622 
Q 2975 2850 2975 3272 
Q 2975 3691 2734 3919 
Q 2494 4147 2053 4147 
L 1259 4147 
z
M 628 4666 
L 2053 4666 
Q 2838 4666 3239 4311 
Q 3641 3956 3641 3272 
Q 3641 2581 3239 2228 
Q 2838 1875 2053 1875 
L 1259 1875 
L 1259 0 
L 628 0 
L 628 4666 
z
" transform="scale(0.015625)"/>
      </defs>
      <use xlink:href="#DejaVuSans-4f"/>
      <use xlink:href="#DejaVuSans-53" x="78.710938"/>
      <use xlink:href="#DejaVuSans-4d" x="142.1875"/>
      <use xlink:href="#DejaVuSans-4f" x="228.466797"/>
      <use xlink:href="#DejaVuSans-54" x="307.177734"/>
      <use xlink:href="#DejaVuSans-49" x="368.261719"/>
      <use xlink:href="#DejaVuSans-43" x="397.753906"/>
      <use xlink:href="#DejaVuSans-5f" x="467.578125"/>
      <use xlink:href="#DejaVuSans-53" x="517.578125"/>
      <use xlink:href="#DejaVuSans-54" x="581.054688"/>
      <use xlink:href="#DejaVuSans-52" x="642.138672"/>
      <use xlink:href="#DejaVuSans-45" x="711.621094"/>
      <use xlink:href="#DejaVuSans-53" x="774.804688"/>
      <use xlink:href="#DejaVuSans-53" x="838.28125"/>
      <use xlink:href="#DejaVuSans-5f" x="901.757812"/>
      <use xlink:href="#DejaVuSans-54" x="951.757812"/>
      <use xlink:href="#DejaVuSans-30" x="1012.841797"/>
      <use xlink:href="#DejaVuSans-5f" x="1076.464844"/>
      <use xlink:href="#DejaVuSans-50" x="1126.464844"/>
      <use xlink:href="#DejaVuSans-45" x="1186.767578"/>
      <use xlink:href="#DejaVuSans-5f" x="1249.951172"/>
      <use xlink:href="#DejaVuSans-52" x="1299.951172"/>
      <use xlink:href="#DejaVuSans-45" x="1369.433594"/>
      <use xlink:href="#DejaVuSans-50" x="1432.617188"/>
      <use xlink:href="#DejaVuSans-31" x="1492.919922"/>
     </g>
    </g>
    <g id="line2d_15">
     <path d="M 47.800625 315.455394 
L 55.800625 315.455394 
L 63.800625 315.455394 
" style="fill: none; stroke: #434348; stroke-linecap: square"/>
    </g>
    <g id="text_17">
     <!-- OSMOTIC_STRESS_T0_PE_REP2 -->
     <g transform="translate(70.200625 318.255394)scale(0.08 -0.08)">
      <use xlink:href="#DejaVuSans-4f"/>
      <use xlink:href="#DejaVuSans-53" x="78.710938"/>
      <use xlink:href="#DejaVuSans-4d" x="142.1875"/>
      <use xlink:href="#DejaVuSans-4f" x="228.466797"/>
      <use xlink:href="#DejaVuSans-54" x="307.177734"/>
      <use xlink:href="#DejaVuSans-49" x="368.261719"/>
      <use xlink:href="#DejaVuSans-43" x="397.753906"/>
      <use xlink:href="#DejaVuSans-5f" x="467.578125"/>
      <use xlink:href="#DejaVuSans-53" x="517.578125"/>
      <use xlink:href="#DejaVuSans-54" x="581.054688"/>
      <use xlink:href="#DejaVuSans-52" x="642.138672"/>
      <use xlink:href="#DejaVuSans-45" x="711.621094"/>
      <use xlink:href="#DejaVuSans-53" x="774.804688"/>
      <use xlink:href="#DejaVuSans-53" x="838.28125"/>
      <use xlink:href="#DejaVuSans-5f" x="901.757812"/>
      <use xlink:href="#DejaVuSans-54" x="951.757812"/>
      <use xlink:href="#DejaVuSans-30" x="1012.841797"/>
      <use xlink:href="#DejaVuSans-5f" x="1076.464844"/>
      <use xlink:href="#DejaVuSans-50" x="1126.464844"/>
      <use xlink:href="#DejaVuSans-45" x="1186.767578"/>
      <use xlink:href="#DejaVuSans-5f" x="1249.951172"/>
      <use xlink:href="#DejaVuSans-52" x="1299.951172"/>
      <use xlink:href="#DejaVuSans-45" x="1369.433594"/>
      <use xlink:href="#DejaVuSans-50" x="1432.617188"/>
      <use xlink:href="#DejaVuSans-32" x="1492.919922"/>
     </g>
    </g>
    <g id="line2d_16">
     <path d="M 234.9075 303.490394 
L 242.9075 303.490394 
L 250.9075 303.490394 
" style="fill: none; stroke: #90ed7d; stroke-linecap: square"/>
    </g>
    <g id="text_18">
     <!-- OSMOTIC_STRESS_T100_SE_REP1 -->
     <g transform="translate(257.3075 306.290394)scale(0.08 -0.08)">
      <use xlink:href="#DejaVuSans-4f"/>
      <use xlink:href="#DejaVuSans-53" x="78.710938"/>
      <use xlink:href="#DejaVuSans-4d" x="142.1875"/>
      <use xlink:href="#DejaVuSans-4f" x="228.466797"/>
      <use xlink:href="#DejaVuSans-54" x="307.177734"/>
      <use xlink:href="#DejaVuSans-49" x="368.261719"/>
      <use xlink:href="#DejaVuSans-43" x="397.753906"/>
      <use xlink:href="#DejaVuSans-5f" x="467.578125"/>
      <use xlink:href="#DejaVuSans-53" x="517.578125"/>
      <use xlink:href="#DejaVuSans-54" x="581.054688"/>
      <use xlink:href="#DejaVuSans-52" x="642.138672"/>
      <use xlink:href="#DejaVuSans-45" x="711.621094"/>
      <use xlink:href="#DejaVuSans-53" x="774.804688"/>
      <use xlink:href="#DejaVuSans-53" x="838.28125"/>
      <use xlink:href="#DejaVuSans-5f" x="901.757812"/>
      <use xlink:href="#DejaVuSans-54" x="951.757812"/>
      <use xlink:href="#DejaVuSans-31" x="1012.841797"/>
      <use xlink:href="#DejaVuSans-30" x="1076.464844"/>
      <use xlink:href="#DejaVuSans-30" x="1140.087891"/>
      <use xlink:href="#DejaVuSans-5f" x="1203.710938"/>
      <use xlink:href="#DejaVuSans-53" x="1253.710938"/>
      <use xlink:href="#DejaVuSans-45" x="1317.1875"/>
      <use xlink:href="#DejaVuSans-5f" x="1380.371094"/>
      <use xlink:href="#DejaVuSans-52" x="1430.371094"/>
      <use xlink:href="#DejaVuSans-45" x="1499.853516"/>
      <use xlink:href="#DejaVuSans-50" x="1563.037109"/>
      <use xlink:href="#DejaVuSans-31" x="1623.339844"/>
     </g>
    </g>
    <g id="line2d_17">
     <path d="M 432.449375 303.490394 
L 440.449375 303.490394 
L 448.449375 303.490394 
" style="fill: none; stroke: #f7a35c; stroke-linecap: square"/>
    </g>
    <g id="text_19">
     <!-- OSMOTIC_STRESS_T100_SE_REP2 -->
     <g transform="translate(454.849375 306.290394)scale(0.08 -0.08)">
      <use xlink:href="#DejaVuSans-4f"/>
      <use xlink:href="#DejaVuSans-53" x="78.710938"/>
      <use xlink:href="#DejaVuSans-4d" x="142.1875"/>
      <use xlink:href="#DejaVuSans-4f" x="228.466797"/>
      <use xlink:href="#DejaVuSans-54" x="307.177734"/>
      <use xlink:href="#DejaVuSans-49" x="368.261719"/>
      <use xlink:href="#DejaVuSans-43" x="397.753906"/>
      <use xlink:href="#DejaVuSans-5f" x="467.578125"/>
      <use xlink:href="#DejaVuSans-53" x="517.578125"/>
      <use xlink:href="#DejaVuSans-54" x="581.054688"/>
      <use xlink:href="#DejaVuSans-52" x="642.138672"/>
      <use xlink:href="#DejaVuSans-45" x="711.621094"/>
      <use xlink:href="#DejaVuSans-53" x="774.804688"/>
      <use xlink:href="#DejaVuSans-53" x="838.28125"/>
      <use xlink:href="#DejaVuSans-5f" x="901.757812"/>
      <use xlink:href="#DejaVuSans-54" x="951.757812"/>
      <use xlink:href="#DejaVuSans-31" x="1012.841797"/>
      <use xlink:href="#DejaVuSans-30" x="1076.464844"/>
      <use xlink:href="#DejaVuSans-30" x="1140.087891"/>
      <use xlink:href="#DejaVuSans-5f" x="1203.710938"/>
      <use xlink:href="#DejaVuSans-53" x="1253.710938"/>
      <use xlink:href="#DejaVuSans-45" x="1317.1875"/>
      <use xlink:href="#DejaVuSans-5f" x="1380.371094"/>
      <use xlink:href="#DejaVuSans-52" x="1430.371094"/>
      <use xlink:href="#DejaVuSans-45" x="1499.853516"/>
      <use xlink:href="#DejaVuSans-50" x="1563.037109"/>
      <use xlink:href="#DejaVuSans-32" x="1623.339844"/>
     </g>
    </g>
    <g id="line2d_18">
     <path d="M 629.99125 303.490394 
L 637.99125 303.490394 
L 645.99125 303.490394 
" style="fill: none; stroke: #8085e9; stroke-linecap: square"/>
    </g>
    <g id="text_20">
     <!-- OSMOTIC_STRESS_T150_SE_REP1 -->
     <g transform="translate(652.39125 306.290394)scale(0.08 -0.08)">
      <defs>
       <path id="DejaVuSans-35" d="M 691 4666 
L 3169 4666 
L 3169 4134 
L 1269 4134 
L 1269 2991 
Q 1406 3038 1543 3061 
Q 1681 3084 1819 3084 
Q 2600 3084 3056 2656 
Q 3513 2228 3513 1497 
Q 3513 744 3044 326 
Q 2575 -91 1722 -91 
Q 1428 -91 1123 -41 
Q 819 9 494 109 
L 494 744 
Q 775 591 1075 516 
Q 1375 441 1709 441 
Q 2250 441 2565 725 
Q 2881 1009 2881 1497 
Q 2881 1984 2565 2268 
Q 2250 2553 1709 2553 
Q 1456 2553 1204 2497 
Q 953 2441 691 2322 
L 691 4666 
z
" transform="scale(0.015625)"/>
      </defs>
      <use xlink:href="#DejaVuSans-4f"/>
      <use xlink:href="#DejaVuSans-53" x="78.710938"/>
      <use xlink:href="#DejaVuSans-4d" x="142.1875"/>
      <use xlink:href="#DejaVuSans-4f" x="228.466797"/>
      <use xlink:href="#DejaVuSans-54" x="307.177734"/>
      <use xlink:href="#DejaVuSans-49" x="368.261719"/>
      <use xlink:href="#DejaVuSans-43" x="397.753906"/>
      <use xlink:href="#DejaVuSans-5f" x="467.578125"/>
      <use xlink:href="#DejaVuSans-53" x="517.578125"/>
      <use xlink:href="#DejaVuSans-54" x="581.054688"/>
      <use xlink:href="#DejaVuSans-52" x="642.138672"/>
      <use xlink:href="#DejaVuSans-45" x="711.621094"/>
      <use xlink:href="#DejaVuSans-53" x="774.804688"/>
      <use xlink:href="#DejaVuSans-53" x="838.28125"/>
      <use xlink:href="#DejaVuSans-5f" x="901.757812"/>
      <use xlink:href="#DejaVuSans-54" x="951.757812"/>
      <use xlink:href="#DejaVuSans-31" x="1012.841797"/>
      <use xlink:href="#DejaVuSans-35" x="1076.464844"/>
      <use xlink:href="#DejaVuSans-30" x="1140.087891"/>
      <use xlink:href="#DejaVuSans-5f" x="1203.710938"/>
      <use xlink:href="#DejaVuSans-53" x="1253.710938"/>
      <use xlink:href="#DejaVuSans-45" x="1317.1875"/>
      <use xlink:href="#DejaVuSans-5f" x="1380.371094"/>
      <use xlink:href="#DejaVuSans-52" x="1430.371094"/>
      <use xlink:href="#DejaVuSans-45" x="1499.853516"/>
      <use xlink:href="#DejaVuSans-50" x="1563.037109"/>
      <use xlink:href="#DejaVuSans-31" x="1623.339844"/>
     </g>
    </g>
    <g id="line2d_19">
     <path d="M 827.533125 303.490394 
L 835.533125 303.490394 
L 843.533125 303.490394 
" style="fill: none; stroke: #f15c80; stroke-linecap: square"/>
    </g>
    <g id="text_21">
     <!-- OSMOTIC_STRESS_T15_PE_REP1 -->
     <g transform="translate(849.933125 306.290394)scale(0.08 -0.08)">
      <use xlink:href="#DejaVuSans-4f"/>
      <use xlink:href="#DejaVuSans-53" x="78.710938"/>
      <use xlink:href="#DejaVuSans-4d" x="142.1875"/>
      <use xlink:href="#DejaVuSans-4f" x="228.466797"/>
      <use xlink:href="#DejaVuSans-54" x="307.177734"/>
      <use xlink:href="#DejaVuSans-49" x="368.261719"/>
      <use xlink:href="#DejaVuSans-43" x="397.753906"/>
      <use xlink:href="#DejaVuSans-5f" x="467.578125"/>
      <use xlink:href="#DejaVuSans-53" x="517.578125"/>
      <use xlink:href="#DejaVuSans-54" x="581.054688"/>
      <use xlink:href="#DejaVuSans-52" x="642.138672"/>
      <use xlink:href="#DejaVuSans-45" x="711.621094"/>
      <use xlink:href="#DejaVuSans-53" x="774.804688"/>
      <use xlink:href="#DejaVuSans-53" x="838.28125"/>
      <use xlink:href="#DejaVuSans-5f" x="901.757812"/>
      <use xlink:href="#DejaVuSans-54" x="951.757812"/>
      <use xlink:href="#DejaVuSans-31" x="1012.841797"/>
      <use xlink:href="#DejaVuSans-35" x="1076.464844"/>
      <use xlink:href="#DejaVuSans-5f" x="1140.087891"/>
      <use xlink:href="#DejaVuSans-50" x="1190.087891"/>
      <use xlink:href="#DejaVuSans-45" x="1250.390625"/>
      <use xlink:href="#DejaVuSans-5f" x="1313.574219"/>
      <use xlink:href="#DejaVuSans-52" x="1363.574219"/>
      <use xlink:href="#DejaVuSans-45" x="1433.056641"/>
      <use xlink:href="#DejaVuSans-50" x="1496.240234"/>
      <use xlink:href="#DejaVuSans-31" x="1556.542969"/>
     </g>
    </g>
   </g>
  </g>
 </g>
 <defs>
  <clipPath id="p2eadf12a49">
   <rect x="40.600625" y="31.48286" width="946.15" height="242.5072"/>
  </clipPath>
 </defs>
</svg>
