<?xml version="1.0" encoding="utf-8" standalone="no"?>
<!DOCTYPE svg PUBLIC "-//W3C//DTD SVG 1.1//EN"
  "http://www.w3.org/Graphics/SVG/1.1/DTD/svg11.dtd">
<svg xmlns:xlink="http://www.w3.org/1999/xlink" width="1000.278125pt" height="330.541644pt" viewBox="0 0 1000.278125 330.541644" xmlns="http://www.w3.org/2000/svg" version="1.1">
 <metadata>
  <rdf:RDF xmlns:dc="http://purl.org/dc/elements/1.1/" xmlns:cc="http://creativecommons.org/ns#" xmlns:rdf="http://www.w3.org/1999/02/22-rdf-syntax-ns#">
   <cc:Work>
    <dc:type rdf:resource="http://purl.org/dc/dcmitype/StillImage"/>
    <dc:date>2024-10-25T13:54:54.290016</dc:date>
    <dc:format>image/svg+xml</dc:format>
    <dc:creator>
     <cc:Agent>
      <dc:title>Matplotlib v3.5.3, https://matplotlib.org/</dc:title>
     </cc:Agent>
    </dc:creator>
   </cc:Work>
  </rdf:RDF>
 </metadata>
 <defs>
  <style type="text/css">*{stroke-linejoin: round; stroke-linecap: butt}</style>
 </defs>
 <g id="figure_1">
  <g id="axes_1">
   <g id="patch_1">
    <path d="M 43.148125 273.99006 
L 993.078125 273.99006 
L 993.078125 31.48286 
L 43.148125 31.48286 
z
" style="fill: #ffffff"/>
   </g>
   <g id="matplotlib.axis_1">
    <g id="xtick_1">
     <g id="text_1">
      <!-- 0 -->
      <g transform="translate(72.267458 287.06881)scale(0.08 -0.08)">
       <defs>
        <path id="DejaVuSans-30" d="M 2034 4250 
Q 1547 4250 1301 3770 
Q 1056 3291 1056 2328 
Q 1056 1369 1301 889 
Q 1547 409 2034 409 
Q 2525 409 2770 889 
Q 3016 1369 3016 2328 
Q 3016 3291 2770 3770 
Q 2525 4250 2034 4250 
z
M 2034 4750 
Q 2819 4750 3233 4129 
Q 3647 3509 3647 2328 
Q 3647 1150 3233 529 
Q 2819 -91 2034 -91 
Q 1250 -91 836 529 
Q 422 1150 422 2328 
Q 422 3509 836 4129 
Q 1250 4750 2034 4750 
z
" transform="scale(0.015625)"/>
       </defs>
       <use xlink:href="#DejaVuSans-30"/>
      </g>
     </g>
    </g>
    <g id="xtick_2">
     <g id="text_2">
      <!-- 10 -->
      <g transform="translate(184.865489 287.06881)scale(0.08 -0.08)">
       <defs>
        <path id="DejaVuSans-31" d="M 794 531 
L 1825 531 
L 1825 4091 
L 703 3866 
L 703 4441 
L 1819 4666 
L 2450 4666 
L 2450 531 
L 3481 531 
L 3481 0 
L 794 0 
L 794 531 
z
" transform="scale(0.015625)"/>
       </defs>
       <use xlink:href="#DejaVuSans-31"/>
       <use xlink:href="#DejaVuSans-30" x="63.623047"/>
      </g>
     </g>
    </g>
    <g id="xtick_3">
     <g id="text_3">
      <!-- 20 -->
      <g transform="translate(300.008519 287.06881)scale(0.08 -0.08)">
       <defs>
        <path id="DejaVuSans-32" d="M 1228 531 
L 3431 531 
L 3431 0 
L 469 0 
L 469 531 
Q 828 903 1448 1529 
Q 2069 2156 2228 2338 
Q 2531 2678 2651 2914 
Q 2772 3150 2772 3378 
Q 2772 3750 2511 3984 
Q 2250 4219 1831 4219 
Q 1534 4219 1204 4116 
Q 875 4013 500 3803 
L 500 4441 
Q 881 4594 1212 4672 
Q 1544 4750 1819 4750 
Q 2544 4750 2975 4387 
Q 3406 4025 3406 3419 
Q 3406 3131 3298 2873 
Q 3191 2616 2906 2266 
Q 2828 2175 2409 1742 
Q 1991 1309 1228 531 
z
" transform="scale(0.015625)"/>
       </defs>
       <use xlink:href="#DejaVuSans-32"/>
       <use xlink:href="#DejaVuSans-30" x="63.623047"/>
      </g>
     </g>
    </g>
    <g id="xtick_4">
     <g id="text_4">
      <!-- 30 -->
      <g transform="translate(415.151549 287.06881)scale(0.08 -0.08)">
       <defs>
        <path id="DejaVuSans-33" d="M 2597 2516 
Q 3050 2419 3304 2112 
Q 3559 1806 3559 1356 
Q 3559 666 3084 287 
Q 2609 -91 1734 -91 
Q 1441 -91 1130 -33 
Q 819 25 488 141 
L 488 750 
Q 750 597 1062 519 
Q 1375 441 1716 441 
Q 2309 441 2620 675 
Q 2931 909 2931 1356 
Q 2931 1769 2642 2001 
Q 2353 2234 1838 2234 
L 1294 2234 
L 1294 2753 
L 1863 2753 
Q 2328 2753 2575 2939 
Q 2822 3125 2822 3475 
Q 2822 3834 2567 4026 
Q 2313 4219 1838 4219 
Q 1578 4219 1281 4162 
Q 984 4106 628 3988 
L 628 4550 
Q 988 4650 1302 4700 
Q 1616 4750 1894 4750 
Q 2613 4750 3031 4423 
Q 3450 4097 3450 3541 
Q 3450 3153 3228 2886 
Q 3006 2619 2597 2516 
z
" transform="scale(0.015625)"/>
       </defs>
       <use xlink:href="#DejaVuSans-33"/>
       <use xlink:href="#DejaVuSans-30" x="63.623047"/>
      </g>
     </g>
    </g>
    <g id="xtick_5">
     <g id="text_5">
      <!-- 40 -->
      <g transform="translate(530.29458 287.06881)scale(0.08 -0.08)">
       <defs>
        <path id="DejaVuSans-34" d="M 2419 4116 
L 825 1625 
L 2419 1625 
L 2419 4116 
z
M 2253 4666 
L 3047 4666 
L 3047 1625 
L 3713 1625 
L 3713 1100 
L 3047 1100 
L 3047 0 
L 2419 0 
L 2419 1100 
L 313 1100 
L 313 1709 
L 2253 4666 
z
" transform="scale(0.015625)"/>
       </defs>
       <use xlink:href="#DejaVuSans-34"/>
       <use xlink:href="#DejaVuSans-30" x="63.623047"/>
      </g>
     </g>
    </g>
    <g id="xtick_6">
     <g id="text_6">
      <!-- 50 -->
      <g transform="translate(645.43761 287.06881)scale(0.08 -0.08)">
       <defs>
        <path id="DejaVuSans-35" d="M 691 4666 
L 3169 4666 
L 3169 4134 
L 1269 4134 
L 1269 2991 
Q 1406 3038 1543 3061 
Q 1681 3084 1819 3084 
Q 2600 3084 3056 2656 
Q 3513 2228 3513 1497 
Q 3513 744 3044 326 
Q 2575 -91 1722 -91 
Q 1428 -91 1123 -41 
Q 819 9 494 109 
L 494 744 
Q 775 591 1075 516 
Q 1375 441 1709 441 
Q 2250 441 2565 725 
Q 2881 1009 2881 1497 
Q 2881 1984 2565 2268 
Q 2250 2553 1709 2553 
Q 1456 2553 1204 2497 
Q 953 2441 691 2322 
L 691 4666 
z
" transform="scale(0.015625)"/>
       </defs>
       <use xlink:href="#DejaVuSans-35"/>
       <use xlink:href="#DejaVuSans-30" x="63.623047"/>
      </g>
     </g>
    </g>
    <g id="xtick_7">
     <g id="text_7">
      <!-- 60 -->
      <g transform="translate(760.58064 287.06881)scale(0.08 -0.08)">
       <defs>
        <path id="DejaVuSans-36" d="M 2113 2584 
Q 1688 2584 1439 2293 
Q 1191 2003 1191 1497 
Q 1191 994 1439 701 
Q 1688 409 2113 409 
Q 2538 409 2786 701 
Q 3034 994 3034 1497 
Q 3034 2003 2786 2293 
Q 2538 2584 2113 2584 
z
M 3366 4563 
L 3366 3988 
Q 3128 4100 2886 4159 
Q 2644 4219 2406 4219 
Q 1781 4219 1451 3797 
Q 1122 3375 1075 2522 
Q 1259 2794 1537 2939 
Q 1816 3084 2150 3084 
Q 2853 3084 3261 2657 
Q 3669 2231 3669 1497 
Q 3669 778 3244 343 
Q 2819 -91 2113 -91 
Q 1303 -91 875 529 
Q 447 1150 447 2328 
Q 447 3434 972 4092 
Q 1497 4750 2381 4750 
Q 2619 4750 2861 4703 
Q 3103 4656 3366 4563 
z
" transform="scale(0.015625)"/>
       </defs>
       <use xlink:href="#DejaVuSans-36"/>
       <use xlink:href="#DejaVuSans-30" x="63.623047"/>
      </g>
     </g>
    </g>
    <g id="xtick_8">
     <g id="text_8">
      <!-- 70 -->
      <g transform="translate(875.72367 287.06881)scale(0.08 -0.08)">
       <defs>
        <path id="DejaVuSans-37" d="M 525 4666 
L 3525 4666 
L 3525 4397 
L 1831 0 
L 1172 0 
L 2766 4134 
L 525 4134 
L 525 4666 
z
" transform="scale(0.015625)"/>
       </defs>
       <use xlink:href="#DejaVuSans-37"/>
       <use xlink:href="#DejaVuSans-30" x="63.623047"/>
      </g>
     </g>
    </g>
    <g id="text_9">
     <!-- Cycle # -->
     <g transform="translate(498.668594 300.330997)scale(0.1 -0.1)">
      <defs>
       <path id="DejaVuSans-43" d="M 4122 4306 
L 4122 3641 
Q 3803 3938 3442 4084 
Q 3081 4231 2675 4231 
Q 1875 4231 1450 3742 
Q 1025 3253 1025 2328 
Q 1025 1406 1450 917 
Q 1875 428 2675 428 
Q 3081 428 3442 575 
Q 3803 722 4122 1019 
L 4122 359 
Q 3791 134 3420 21 
Q 3050 -91 2638 -91 
Q 1578 -91 968 557 
Q 359 1206 359 2328 
Q 359 3453 968 4101 
Q 1578 4750 2638 4750 
Q 3056 4750 3426 4639 
Q 3797 4528 4122 4306 
z
" transform="scale(0.015625)"/>
       <path id="DejaVuSans-79" d="M 2059 -325 
Q 1816 -950 1584 -1140 
Q 1353 -1331 966 -1331 
L 506 -1331 
L 506 -850 
L 844 -850 
Q 1081 -850 1212 -737 
Q 1344 -625 1503 -206 
L 1606 56 
L 191 3500 
L 800 3500 
L 1894 763 
L 2988 3500 
L 3597 3500 
L 2059 -325 
z
" transform="scale(0.015625)"/>
       <path id="DejaVuSans-63" d="M 3122 3366 
L 3122 2828 
Q 2878 2963 2633 3030 
Q 2388 3097 2138 3097 
Q 1578 3097 1268 2742 
Q 959 2388 959 1747 
Q 959 1106 1268 751 
Q 1578 397 2138 397 
Q 2388 397 2633 464 
Q 2878 531 3122 666 
L 3122 134 
Q 2881 22 2623 -34 
Q 2366 -91 2075 -91 
Q 1284 -91 818 406 
Q 353 903 353 1747 
Q 353 2603 823 3093 
Q 1294 3584 2113 3584 
Q 2378 3584 2631 3529 
Q 2884 3475 3122 3366 
z
" transform="scale(0.015625)"/>
       <path id="DejaVuSans-6c" d="M 603 4863 
L 1178 4863 
L 1178 0 
L 603 0 
L 603 4863 
z
" transform="scale(0.015625)"/>
       <path id="DejaVuSans-65" d="M 3597 1894 
L 3597 1613 
L 953 1613 
Q 991 1019 1311 708 
Q 1631 397 2203 397 
Q 2534 397 2845 478 
Q 3156 559 3463 722 
L 3463 178 
Q 3153 47 2828 -22 
Q 2503 -91 2169 -91 
Q 1331 -91 842 396 
Q 353 884 353 1716 
Q 353 2575 817 3079 
Q 1281 3584 2069 3584 
Q 2775 3584 3186 3129 
Q 3597 2675 3597 1894 
z
M 3022 2063 
Q 3016 2534 2758 2815 
Q 2500 3097 2075 3097 
Q 1594 3097 1305 2825 
Q 1016 2553 972 2059 
L 3022 2063 
z
" transform="scale(0.015625)"/>
       <path id="DejaVuSans-20" transform="scale(0.015625)"/>
       <path id="DejaVuSans-23" d="M 3272 2816 
L 2363 2816 
L 2100 1772 
L 3016 1772 
L 3272 2816 
z
M 2803 4594 
L 2478 3297 
L 3391 3297 
L 3719 4594 
L 4219 4594 
L 3897 3297 
L 4872 3297 
L 4872 2816 
L 3775 2816 
L 3519 1772 
L 4513 1772 
L 4513 1294 
L 3397 1294 
L 3072 0 
L 2572 0 
L 2894 1294 
L 1978 1294 
L 1656 0 
L 1153 0 
L 1478 1294 
L 494 1294 
L 494 1772 
L 1594 1772 
L 1856 2816 
L 850 2816 
L 850 3297 
L 1978 3297 
L 2297 4594 
L 2803 4594 
z
" transform="scale(0.015625)"/>
      </defs>
      <use xlink:href="#DejaVuSans-43"/>
      <use xlink:href="#DejaVuSans-79" x="69.824219"/>
      <use xlink:href="#DejaVuSans-63" x="129.003906"/>
      <use xlink:href="#DejaVuSans-6c" x="183.984375"/>
      <use xlink:href="#DejaVuSans-65" x="211.767578"/>
      <use xlink:href="#DejaVuSans-20" x="273.291016"/>
      <use xlink:href="#DejaVuSans-23" x="305.078125"/>
     </g>
    </g>
   </g>
   <g id="matplotlib.axis_2">
    <g id="ytick_1">
     <g id="line2d_1">
      <path d="M 43.148125 273.99006 
L 993.078125 273.99006 
" clip-path="url(#pf8ab21b663)" style="fill: none; stroke: #dedede; stroke-linecap: square"/>
     </g>
     <g id="text_10">
      <!-- 0 -->
      <g transform="translate(31.058125 277.029435)scale(0.08 -0.08)">
       <use xlink:href="#DejaVuSans-30"/>
      </g>
     </g>
    </g>
    <g id="ytick_2">
     <g id="line2d_2">
      <path d="M 43.148125 225.48862 
L 993.078125 225.48862 
" clip-path="url(#pf8ab21b663)" style="fill: none; stroke: #dedede; stroke-linecap: square"/>
     </g>
     <g id="text_11">
      <!-- 20 -->
      <g transform="translate(25.968125 228.527995)scale(0.08 -0.08)">
       <use xlink:href="#DejaVuSans-32"/>
       <use xlink:href="#DejaVuSans-30" x="63.623047"/>
      </g>
     </g>
    </g>
    <g id="ytick_3">
     <g id="line2d_3">
      <path d="M 43.148125 176.98718 
L 993.078125 176.98718 
" clip-path="url(#pf8ab21b663)" style="fill: none; stroke: #dedede; stroke-linecap: square"/>
     </g>
     <g id="text_12">
      <!-- 40 -->
      <g transform="translate(25.968125 180.026555)scale(0.08 -0.08)">
       <use xlink:href="#DejaVuSans-34"/>
       <use xlink:href="#DejaVuSans-30" x="63.623047"/>
      </g>
     </g>
    </g>
    <g id="ytick_4">
     <g id="line2d_4">
      <path d="M 43.148125 128.48574 
L 993.078125 128.48574 
" clip-path="url(#pf8ab21b663)" style="fill: none; stroke: #dedede; stroke-linecap: square"/>
     </g>
     <g id="text_13">
      <!-- 60 -->
      <g transform="translate(25.968125 131.525115)scale(0.08 -0.08)">
       <use xlink:href="#DejaVuSans-36"/>
       <use xlink:href="#DejaVuSans-30" x="63.623047"/>
      </g>
     </g>
    </g>
    <g id="ytick_5">
     <g id="line2d_5">
      <path d="M 43.148125 79.9843 
L 993.078125 79.9843 
" clip-path="url(#pf8ab21b663)" style="fill: none; stroke: #dedede; stroke-linecap: square"/>
     </g>
     <g id="text_14">
      <!-- 80 -->
      <g transform="translate(25.968125 83.023675)scale(0.08 -0.08)">
       <defs>
        <path id="DejaVuSans-38" d="M 2034 2216 
Q 1584 2216 1326 1975 
Q 1069 1734 1069 1313 
Q 1069 891 1326 650 
Q 1584 409 2034 409 
Q 2484 409 2743 651 
Q 3003 894 3003 1313 
Q 3003 1734 2745 1975 
Q 2488 2216 2034 2216 
z
M 1403 2484 
Q 997 2584 770 2862 
Q 544 3141 544 3541 
Q 544 4100 942 4425 
Q 1341 4750 2034 4750 
Q 2731 4750 3128 4425 
Q 3525 4100 3525 3541 
Q 3525 3141 3298 2862 
Q 3072 2584 2669 2484 
Q 3125 2378 3379 2068 
Q 3634 1759 3634 1313 
Q 3634 634 3220 271 
Q 2806 -91 2034 -91 
Q 1263 -91 848 271 
Q 434 634 434 1313 
Q 434 1759 690 2068 
Q 947 2378 1403 2484 
z
M 1172 3481 
Q 1172 3119 1398 2916 
Q 1625 2713 2034 2713 
Q 2441 2713 2670 2916 
Q 2900 3119 2900 3481 
Q 2900 3844 2670 4047 
Q 2441 4250 2034 4250 
Q 1625 4250 1398 4047 
Q 1172 3844 1172 3481 
z
" transform="scale(0.015625)"/>
       </defs>
       <use xlink:href="#DejaVuSans-38"/>
       <use xlink:href="#DejaVuSans-30" x="63.623047"/>
      </g>
     </g>
    </g>
    <g id="ytick_6">
     <g id="line2d_6">
      <path d="M 43.148125 31.48286 
L 993.078125 31.48286 
" clip-path="url(#pf8ab21b663)" style="fill: none; stroke: #dedede; stroke-linecap: square"/>
     </g>
     <g id="text_15">
      <!-- 100 -->
      <g transform="translate(20.878125 34.522235)scale(0.08 -0.08)">
       <use xlink:href="#DejaVuSans-31"/>
       <use xlink:href="#DejaVuSans-30" x="63.623047"/>
       <use xlink:href="#DejaVuSans-30" x="127.246094"/>
      </g>
     </g>
    </g>
    <g id="text_16">
     <!-- % Thymine -->
     <g transform="translate(14.798437 180.763022)rotate(-90)scale(0.1 -0.1)">
      <defs>
       <path id="DejaVuSans-25" d="M 4653 2053 
Q 4381 2053 4226 1822 
Q 4072 1591 4072 1178 
Q 4072 772 4226 539 
Q 4381 306 4653 306 
Q 4919 306 5073 539 
Q 5228 772 5228 1178 
Q 5228 1588 5073 1820 
Q 4919 2053 4653 2053 
z
M 4653 2450 
Q 5147 2450 5437 2106 
Q 5728 1763 5728 1178 
Q 5728 594 5436 251 
Q 5144 -91 4653 -91 
Q 4153 -91 3862 251 
Q 3572 594 3572 1178 
Q 3572 1766 3864 2108 
Q 4156 2450 4653 2450 
z
M 1428 4353 
Q 1159 4353 1004 4120 
Q 850 3888 850 3481 
Q 850 3069 1003 2837 
Q 1156 2606 1428 2606 
Q 1700 2606 1854 2837 
Q 2009 3069 2009 3481 
Q 2009 3884 1853 4118 
Q 1697 4353 1428 4353 
z
M 4250 4750 
L 4750 4750 
L 1831 -91 
L 1331 -91 
L 4250 4750 
z
M 1428 4750 
Q 1922 4750 2215 4408 
Q 2509 4066 2509 3481 
Q 2509 2891 2217 2550 
Q 1925 2209 1428 2209 
Q 931 2209 642 2551 
Q 353 2894 353 3481 
Q 353 4063 643 4406 
Q 934 4750 1428 4750 
z
" transform="scale(0.015625)"/>
       <path id="DejaVuSans-54" d="M -19 4666 
L 3928 4666 
L 3928 4134 
L 2272 4134 
L 2272 0 
L 1638 0 
L 1638 4134 
L -19 4134 
L -19 4666 
z
" transform="scale(0.015625)"/>
       <path id="DejaVuSans-68" d="M 3513 2113 
L 3513 0 
L 2938 0 
L 2938 2094 
Q 2938 2591 2744 2837 
Q 2550 3084 2163 3084 
Q 1697 3084 1428 2787 
Q 1159 2491 1159 1978 
L 1159 0 
L 581 0 
L 581 4863 
L 1159 4863 
L 1159 2956 
Q 1366 3272 1645 3428 
Q 1925 3584 2291 3584 
Q 2894 3584 3203 3211 
Q 3513 2838 3513 2113 
z
" transform="scale(0.015625)"/>
       <path id="DejaVuSans-6d" d="M 3328 2828 
Q 3544 3216 3844 3400 
Q 4144 3584 4550 3584 
Q 5097 3584 5394 3201 
Q 5691 2819 5691 2113 
L 5691 0 
L 5113 0 
L 5113 2094 
Q 5113 2597 4934 2840 
Q 4756 3084 4391 3084 
Q 3944 3084 3684 2787 
Q 3425 2491 3425 1978 
L 3425 0 
L 2847 0 
L 2847 2094 
Q 2847 2600 2669 2842 
Q 2491 3084 2119 3084 
Q 1678 3084 1418 2786 
Q 1159 2488 1159 1978 
L 1159 0 
L 581 0 
L 581 3500 
L 1159 3500 
L 1159 2956 
Q 1356 3278 1631 3431 
Q 1906 3584 2284 3584 
Q 2666 3584 2933 3390 
Q 3200 3197 3328 2828 
z
" transform="scale(0.015625)"/>
       <path id="DejaVuSans-69" d="M 603 3500 
L 1178 3500 
L 1178 0 
L 603 0 
L 603 3500 
z
M 603 4863 
L 1178 4863 
L 1178 4134 
L 603 4134 
L 603 4863 
z
" transform="scale(0.015625)"/>
       <path id="DejaVuSans-6e" d="M 3513 2113 
L 3513 0 
L 2938 0 
L 2938 2094 
Q 2938 2591 2744 2837 
Q 2550 3084 2163 3084 
Q 1697 3084 1428 2787 
Q 1159 2491 1159 1978 
L 1159 0 
L 581 0 
L 581 3500 
L 1159 3500 
L 1159 2956 
Q 1366 3272 1645 3428 
Q 1925 3584 2291 3584 
Q 2894 3584 3203 3211 
Q 3513 2838 3513 2113 
z
" transform="scale(0.015625)"/>
      </defs>
      <use xlink:href="#DejaVuSans-25"/>
      <use xlink:href="#DejaVuSans-20" x="95.019531"/>
      <use xlink:href="#DejaVuSans-54" x="126.806641"/>
      <use xlink:href="#DejaVuSans-68" x="187.890625"/>
      <use xlink:href="#DejaVuSans-79" x="251.269531"/>
      <use xlink:href="#DejaVuSans-6d" x="310.449219"/>
      <use xlink:href="#DejaVuSans-69" x="407.861328"/>
      <use xlink:href="#DejaVuSans-6e" x="435.644531"/>
      <use xlink:href="#DejaVuSans-65" x="499.023438"/>
     </g>
    </g>
   </g>
   <g id="line2d_7">
    <path d="M 86.326761 227.375188 
L 97.841064 199.259774 
L 109.355367 202.516233 
L 120.86967 203.218995 
L 132.383973 182.923041 
L 143.898277 203.273435 
L 155.41258 204.040534 
L 166.926883 201.392804 
L 178.441186 223.074485 
L 189.955489 198.655994 
L 201.469792 214.62155 
L 212.984095 203.238791 
L 224.498398 214.01282 
L 236.012701 212.632043 
L 247.527004 207.193062 
L 259.041307 202.684499 
L 270.55561 200.358457 
L 282.069913 200.843462 
L 293.584216 200.873157 
L 305.098519 202.625112 
L 316.612822 202.778531 
L 328.127125 202.579113 
L 339.641428 203.915378 
L 351.155731 202.772718 
L 362.670034 203.993798 
L 374.184337 203.755438 
L 385.69864 202.609948 
L 397.212943 201.991712 
L 408.727246 201.482136 
L 420.241549 202.289346 
L 431.755852 202.678749 
L 443.270155 203.109083 
L 454.784458 203.148449 
L 466.298761 202.830779 
L 477.813064 203.181765 
L 489.327367 202.959505 
L 500.84167 202.861423 
L 512.355973 202.15505 
L 523.870277 202.476804 
L 535.38458 202.488641 
L 546.898883 202.207432 
L 558.413186 202.805125 
L 569.927489 202.888416 
L 581.441792 203.979936 
L 592.956095 202.21963 
L 604.470398 203.352083 
L 615.984701 202.45338 
L 627.499004 203.175516 
L 639.013307 202.660789 
L 650.52761 201.795031 
L 662.041913 201.747034 
L 673.556216 201.812938 
L 685.070519 202.718208 
L 696.584822 202.286322 
L 708.099125 202.875942 
L 719.613428 202.18174 
L 731.127731 202.312602 
L 742.642034 201.264535 
L 754.156337 201.781385 
L 765.67064 201.639114 
L 777.184943 202.062441 
L 788.699246 202.631812 
L 800.213549 202.226265 
L 811.727852 202.25888 
L 823.242155 202.163582 
L 834.756458 202.142023 
L 846.270761 202.715688 
L 857.785064 202.981585 
L 869.299367 203.173333 
L 880.81367 203.893686 
L 892.327973 201.194389 
L 903.842277 201.308094 
L 915.35658 201.841653 
L 926.870883 201.82292 
L 938.385186 198.023853 
L 949.899489 186.718293 
" clip-path="url(#pf8ab21b663)" style="fill: none; stroke: #7cb5ec; stroke-linecap: square"/>
   </g>
   <g id="line2d_8">
    <path d="M 86.326761 228.310555 
L 97.841064 200.219886 
L 109.355367 203.357568 
L 120.86967 203.357568 
L 132.383973 182.096554 
L 143.898277 202.808226 
L 155.41258 204.763091 
L 166.926883 201.476937 
L 178.441186 221.797636 
L 189.955489 200.012026 
L 201.469792 213.95343 
L 212.984095 202.669653 
L 224.498398 213.839605 
L 236.012701 212.8498 
L 247.527004 207.494952 
L 259.041307 202.758735 
L 270.55561 200.541572 
L 282.069913 201.175047 
L 293.584216 201.877809 
L 305.098519 202.704297 
L 316.612822 202.204444 
L 328.127125 203.356125 
L 339.641428 203.552653 
L 351.155731 203.01524 
L 362.670034 203.201874 
L 374.184337 203.464829 
L 385.69864 203.030215 
L 397.212943 202.565656 
L 408.727246 202.251483 
L 420.241549 202.82729 
L 431.755852 203.155375 
L 443.270155 203.267503 
L 454.784458 203.6 
L 466.298761 203.904871 
L 477.813064 203.934861 
L 489.327367 202.506424 
L 500.84167 202.889731 
L 512.355973 201.295163 
L 523.870277 201.762249 
L 535.38458 202.297858 
L 546.898883 202.390823 
L 558.413186 202.252509 
L 569.927489 202.929565 
L 581.441792 203.684562 
L 592.956095 203.204379 
L 604.470398 203.03546 
L 615.984701 202.503887 
L 627.499004 201.645336 
L 639.013307 201.59676 
L 650.52761 202.106541 
L 662.041913 202.771433 
L 673.556216 202.229153 
L 685.070519 202.544366 
L 696.584822 202.343182 
L 708.099125 202.033872 
L 719.613428 202.647267 
L 731.127731 201.675187 
L 742.642034 201.068227 
L 754.156337 201.694471 
L 765.67064 200.603375 
L 777.184943 201.702362 
L 788.699246 201.627066 
L 800.213549 202.549893 
L 811.727852 202.009378 
L 823.242155 201.489889 
L 834.756458 201.954109 
L 846.270761 200.849964 
L 857.785064 203.022154 
L 869.299367 202.545344 
L 880.81367 201.626911 
L 892.327973 201.504624 
L 903.842277 201.692463 
L 915.35658 201.33992 
L 926.870883 201.304218 
L 938.385186 197.683811 
L 949.899489 187.425696 
" clip-path="url(#pf8ab21b663)" style="fill: none; stroke: #434348; stroke-linecap: square"/>
   </g>
   <g id="line2d_9">
    <path d="M 86.326761 226.621708 
L 97.841064 199.593599 
L 109.355367 202.137633 
L 120.86967 202.612761 
L 132.383973 182.501059 
L 143.898277 201.969234 
L 155.41258 203.178103 
L 166.926883 200.28524 
L 178.441186 222.056881 
L 189.955489 197.590849 
L 201.469792 213.624882 
L 212.984095 201.987276 
L 224.498398 213.083596 
L 236.012701 211.068817 
L 247.527004 206.413777 
L 259.041307 201.812863 
L 270.55561 198.950073 
L 282.069913 200.152928 
L 293.584216 199.774027 
L 305.098519 200.688197 
L 316.612822 200.315313 
L 328.127125 200.970866 
L 339.641428 202.384219 
L 351.155731 201.482078 
L 362.670034 201.829118 
L 374.184337 201.100156 
L 385.69864 202.109779 
L 397.212943 200.886318 
L 408.727246 201.213807 
L 420.241549 200.922046 
L 431.755852 200.795244 
L 443.270155 201.467756 
L 454.784458 202.34487 
L 466.298761 201.885979 
L 477.813064 201.973907 
L 489.327367 201.802377 
L 500.84167 201.377865 
L 512.355973 201.007382 
L 523.870277 201.063285 
L 535.38458 200.767955 
L 546.898883 201.042008 
L 558.413186 201.17381 
L 569.927489 202.127644 
L 581.441792 203.59483 
L 592.956095 201.834904 
L 604.470398 201.010591 
L 615.984701 201.657486 
L 627.499004 201.454602 
L 639.013307 200.872847 
L 650.52761 200.123388 
L 662.041913 201.127326 
L 673.556216 201.838932 
L 685.070519 201.330407 
L 696.584822 202.087825 
L 708.099125 200.925146 
L 719.613428 202.441143 
L 731.127731 201.18781 
L 742.642034 199.829234 
L 754.156337 201.055891 
L 765.67064 200.53194 
L 777.184943 201.021654 
L 788.699246 201.234912 
L 800.213549 199.830796 
L 811.727852 202.41599 
L 823.242155 201.481511 
L 834.756458 201.367624 
L 846.270761 201.104021 
L 857.785064 201.575152 
L 869.299367 201.17155 
L 880.81367 202.806672 
L 892.327973 200.823171 
L 903.842277 200.462044 
L 915.35658 200.623573 
L 926.870883 201.252167 
L 938.385186 196.631883 
L 949.899489 184.814898 
" clip-path="url(#pf8ab21b663)" style="fill: none; stroke: #90ed7d; stroke-linecap: square"/>
   </g>
   <g id="line2d_10">
    <path d="M 86.326761 227.704275 
L 97.841064 198.589217 
L 109.355367 202.01735 
L 120.86967 202.227848 
L 132.383973 183.006257 
L 143.898277 203.039775 
L 155.41258 203.971984 
L 166.926883 200.549868 
L 178.441186 222.086952 
L 189.955489 198.865874 
L 201.469792 212.981355 
L 212.984095 200.856596 
L 224.498398 214.172179 
L 236.012701 211.676259 
L 247.527004 205.114695 
L 259.041307 201.043038 
L 270.55561 200.279225 
L 282.069913 199.8462 
L 293.584216 200.471682 
L 305.098519 201.788806 
L 316.612822 202.520775 
L 328.127125 201.963877 
L 339.641428 203.656536 
L 351.155731 201.327533 
L 362.670034 202.888787 
L 374.184337 201.854622 
L 385.69864 201.699573 
L 397.212943 202.283273 
L 408.727246 201.633754 
L 420.241549 202.897784 
L 431.755852 200.88859 
L 443.270155 202.017144 
L 454.784458 202.355026 
L 466.298761 202.81336 
L 477.813064 201.507185 
L 489.327367 201.606191 
L 500.84167 202.48996 
L 512.355973 201.42514 
L 523.870277 200.917921 
L 535.38458 200.427354 
L 546.898883 201.05561 
L 558.413186 200.368883 
L 569.927489 201.453717 
L 581.441792 202.285061 
L 592.956095 202.002072 
L 604.470398 200.821297 
L 615.984701 201.263487 
L 627.499004 201.403186 
L 639.013307 201.144576 
L 650.52761 200.082465 
L 662.041913 201.467334 
L 673.556216 202.617276 
L 685.070519 201.449245 
L 696.584822 200.914483 
L 708.099125 201.249853 
L 719.613428 201.076058 
L 731.127731 199.312968 
L 742.642034 200.832998 
L 754.156337 201.707974 
L 765.67064 201.209255 
L 777.184943 200.929559 
L 788.699246 202.313533 
L 800.213549 201.457284 
L 811.727852 200.839575 
L 823.242155 201.346015 
L 834.756458 201.35539 
L 846.270761 199.368863 
L 857.785064 200.784191 
L 869.299367 201.030777 
L 880.81367 202.11986 
L 892.327973 200.664594 
L 903.842277 201.275995 
L 915.35658 201.407175 
L 926.870883 200.937487 
L 938.385186 196.39476 
L 949.899489 185.922239 
" clip-path="url(#pf8ab21b663)" style="fill: none; stroke: #f7a35c; stroke-linecap: square"/>
   </g>
   <g id="line2d_11">
    <path d="M 86.326761 227.360649 
L 97.841064 199.477487 
L 109.355367 202.514472 
L 120.86967 203.142634 
L 132.383973 183.373675 
L 143.898277 203.350293 
L 155.41258 204.134197 
L 166.926883 201.66827 
L 178.441186 223.088104 
L 189.955489 199.134853 
L 201.469792 214.376887 
L 212.984095 203.345101 
L 224.498398 213.702001 
L 236.012701 212.642948 
L 247.527004 207.08293 
L 259.041307 202.758469 
L 270.55561 200.666323 
L 282.069913 200.8013 
L 293.584216 201.434656 
L 305.098519 202.519665 
L 316.612822 202.992083 
L 328.127125 202.561196 
L 339.641428 203.511226 
L 351.155731 203.132252 
L 362.670034 204.045944 
L 374.184337 203.926541 
L 385.69864 202.61311 
L 397.212943 202.135499 
L 408.727246 201.616354 
L 420.241549 202.332772 
L 431.755852 202.962216 
L 443.270155 203.272892 
L 454.784458 203.134903 
L 466.298761 202.859267 
L 477.813064 203.169096 
L 489.327367 203.097797 
L 500.84167 202.364123 
L 512.355973 201.894886 
L 523.870277 202.664412 
L 535.38458 202.352056 
L 546.898883 202.555885 
L 558.413186 202.832062 
L 569.927489 203.030312 
L 581.441792 203.849208 
L 592.956095 202.217665 
L 604.470398 203.6603 
L 615.984701 202.490505 
L 627.499004 202.870439 
L 639.013307 202.451515 
L 650.52761 201.697063 
L 662.041913 201.842567 
L 673.556216 201.55742 
L 685.070519 202.857727 
L 696.584822 202.453227 
L 708.099125 202.970362 
L 719.613428 202.126948 
L 731.127731 202.485372 
L 742.642034 201.449189 
L 754.156337 201.551663 
L 765.67064 201.630679 
L 777.184943 202.191506 
L 788.699246 202.274747 
L 800.213549 202.304692 
L 811.727852 202.154514 
L 823.242155 202.292159 
L 834.756458 202.395477 
L 846.270761 202.989585 
L 857.785064 202.981971 
L 869.299367 202.89928 
L 880.81367 203.875915 
L 892.327973 201.210247 
L 903.842277 201.206289 
L 915.35658 202.057683 
L 926.870883 201.698686 
L 938.385186 198.05071 
L 949.899489 186.8252 
" clip-path="url(#pf8ab21b663)" style="fill: none; stroke: #8085e9; stroke-linecap: square"/>
   </g>
   <g id="line2d_12">
    <path d="M 86.326761 226.616021 
L 97.841064 200.187718 
L 109.355367 202.890393 
L 120.86967 202.427078 
L 132.383973 183.444 
L 143.898277 202.459251 
L 155.41258 203.7205 
L 166.926883 201.08861 
L 178.441186 222.053649 
L 189.955489 198.180015 
L 201.469792 213.154124 
L 212.984095 202.285509 
L 224.498398 213.154124 
L 236.012701 211.648349 
L 247.527004 207.143889 
L 259.041307 202.420642 
L 270.55561 199.94319 
L 282.069913 200.367896 
L 293.584216 200.940606 
L 305.098519 200.934172 
L 316.612822 200.734688 
L 328.127125 201.526185 
L 339.641428 202.439948 
L 351.155731 202.111765 
L 362.670034 202.279073 
L 374.184337 201.584101 
L 385.69864 202.420642 
L 397.212943 200.651033 
L 408.727246 201.223742 
L 420.241549 200.663902 
L 431.755852 201.45678 
L 443.270155 201.936665 
L 454.784458 202.778497 
L 466.298761 202.187658 
L 477.813064 202.319225 
L 489.327367 202.195037 
L 500.84167 200.810602 
L 512.355973 201.668387 
L 523.870277 201.323813 
L 535.38458 201.095929 
L 546.898883 201.445399 
L 558.413186 201.425424 
L 569.927489 202.525674 
L 581.441792 202.928641 
L 592.956095 202.148253 
L 604.470398 202.010322 
L 615.984701 201.98821 
L 627.499004 201.048744 
L 639.013307 200.884036 
L 650.52761 200.602825 
L 662.041913 201.197491 
L 673.556216 201.696697 
L 685.070519 201.40532 
L 696.584822 201.979642 
L 708.099125 201.785045 
L 719.613428 202.40879 
L 731.127731 201.688311 
L 742.642034 200.089027 
L 754.156337 200.543827 
L 765.67064 201.067061 
L 777.184943 201.51972 
L 788.699246 201.468102 
L 800.213549 200.177256 
L 811.727852 202.747469 
L 823.242155 202.167711 
L 834.756458 201.969988 
L 846.270761 201.973272 
L 857.785064 201.583327 
L 869.299367 201.461644 
L 880.81367 203.342807 
L 892.327973 201.216632 
L 903.842277 201.510919 
L 915.35658 201.24746 
L 926.870883 200.969592 
L 938.385186 196.861974 
L 949.899489 185.455078 
" clip-path="url(#pf8ab21b663)" style="fill: none; stroke: #f15c80; stroke-linecap: square"/>
   </g>
   <g id="line2d_13">
    <path d="M 86.326761 229.003051 
L 97.841064 199.174869 
L 109.355367 202.17982 
L 120.86967 202.069156 
L 132.383973 181.79425 
L 143.898277 202.215999 
L 155.41258 203.624835 
L 166.926883 200.687986 
L 178.441186 225.087251 
L 189.955489 196.506167 
L 201.469792 214.516719 
L 212.984095 202.754421 
L 224.498398 213.703764 
L 236.012701 212.912092 
L 247.527004 206.827706 
L 259.041307 203.224742 
L 270.55561 201.566912 
L 282.069913 201.188101 
L 293.584216 200.998696 
L 305.098519 201.694602 
L 316.612822 202.269203 
L 328.127125 203.314125 
L 339.641428 203.890854 
L 351.155731 203.684424 
L 362.670034 203.235383 
L 374.184337 203.065131 
L 385.69864 202.58204 
L 397.212943 201.920187 
L 408.727246 201.552015 
L 420.241549 201.809521 
L 431.755852 202.48259 
L 443.270155 202.728538 
L 454.784458 203.234566 
L 466.298761 203.186625 
L 477.813064 203.541076 
L 489.327367 203.200448 
L 500.84167 202.8811 
L 512.355973 202.131619 
L 523.870277 201.965761 
L 535.38458 201.833369 
L 546.898883 201.338613 
L 558.413186 201.921761 
L 569.927489 202.971087 
L 581.441792 202.916603 
L 592.956095 202.979948 
L 604.470398 203.005421 
L 615.984701 202.98157 
L 627.499004 202.010312 
L 639.013307 202.052363 
L 650.52761 202.534537 
L 662.041913 201.841207 
L 673.556216 202.525516 
L 685.070519 202.499209 
L 696.584822 202.298685 
L 708.099125 203.137844 
L 719.613428 203.240992 
L 731.127731 202.174948 
L 742.642034 201.838729 
L 754.156337 201.916103 
L 765.67064 202.725143 
L 777.184943 202.372858 
L 788.699246 202.326677 
L 800.213549 202.790419 
L 811.727852 203.264601 
L 823.242155 202.420627 
L 834.756458 202.253911 
L 846.270761 202.691731 
L 857.785064 202.042604 
L 869.299367 202.774906 
L 880.81367 201.814558 
L 892.327973 201.864463 
L 903.842277 202.738469 
L 915.35658 202.534615 
L 926.870883 201.500707 
L 938.385186 197.871582 
L 949.899489 186.151973 
" clip-path="url(#pf8ab21b663)" style="fill: none; stroke: #e4d354; stroke-linecap: square"/>
   </g>
   <g id="line2d_14">
    <path d="M 86.326761 229.094161 
L 97.841064 199.243795 
L 109.355367 202.026078 
L 120.86967 202.115827 
L 132.383973 181.471058 
L 143.898277 201.999559 
L 155.41258 203.404978 
L 166.926883 200.48807 
L 178.441186 225.349098 
L 189.955489 196.257534 
L 201.469792 214.650372 
L 212.984095 202.772643 
L 224.498398 213.938482 
L 236.012701 213.100128 
L 247.527004 206.866512 
L 259.041307 203.035776 
L 270.55561 200.998019 
L 282.069913 201.332546 
L 293.584216 200.690011 
L 305.098519 201.805779 
L 316.612822 202.336125 
L 328.127125 203.244089 
L 339.641428 204.094705 
L 351.155731 203.376343 
L 362.670034 203.377788 
L 374.184337 203.156285 
L 385.69864 202.612923 
L 397.212943 202.193298 
L 408.727246 201.460878 
L 420.241549 201.957977 
L 431.755852 202.395149 
L 443.270155 202.642771 
L 454.784458 203.259304 
L 466.298761 203.18362 
L 477.813064 203.537004 
L 489.327367 203.218568 
L 500.84167 203.11558 
L 512.355973 202.378899 
L 523.870277 201.990422 
L 535.38458 201.936575 
L 546.898883 201.160596 
L 558.413186 201.938132 
L 569.927489 202.758937 
L 581.441792 202.922692 
L 592.956095 203.003428 
L 604.470398 202.736548 
L 615.984701 202.815196 
L 627.499004 202.142677 
L 639.013307 202.037082 
L 650.52761 202.44335 
L 662.041913 201.942485 
L 673.556216 202.716095 
L 685.070519 202.543316 
L 696.584822 202.634863 
L 708.099125 202.920771 
L 719.613428 203.346352 
L 731.127731 201.842376 
L 742.642034 201.640266 
L 754.156337 202.272004 
L 765.67064 202.48444 
L 777.184943 202.173995 
L 788.699246 202.45186 
L 800.213549 202.682321 
L 811.727852 203.384111 
L 823.242155 202.079019 
L 834.756458 202.419725 
L 846.270761 202.494056 
L 857.785064 201.998989 
L 869.299367 203.159302 
L 880.81367 201.79725 
L 892.327973 201.86012 
L 903.842277 202.578938 
L 915.35658 202.497228 
L 926.870883 201.701348 
L 938.385186 198.048913 
L 949.899489 186.256297 
" clip-path="url(#pf8ab21b663)" style="fill: none; stroke: #2b908f; stroke-linecap: square"/>
   </g>
   <g id="line2d_15">
    <path d="M 86.326761 230.546496 
L 97.841064 199.874093 
L 109.355367 202.852195 
L 120.86967 202.744086 
L 132.383973 181.750511 
L 143.898277 202.521748 
L 155.41258 203.29075 
L 166.926883 200.867473 
L 178.441186 224.129299 
L 189.955489 196.946987 
L 201.469792 214.324003 
L 212.984095 201.991401 
L 224.498398 213.887488 
L 236.012701 212.339283 
L 247.527004 206.976661 
L 259.041307 202.870553 
L 270.55561 200.426878 
L 282.069913 200.371803 
L 293.584216 200.271853 
L 305.098519 201.19996 
L 316.612822 202.407151 
L 328.127125 202.907761 
L 339.641428 203.207284 
L 351.155731 203.160022 
L 362.670034 203.790662 
L 374.184337 201.995606 
L 385.69864 202.810375 
L 397.212943 201.979885 
L 408.727246 201.561783 
L 420.241549 203.314804 
L 431.755852 203.046337 
L 443.270155 203.133753 
L 454.784458 203.825908 
L 466.298761 203.348038 
L 477.813064 202.881636 
L 489.327367 203.160829 
L 500.84167 203.056217 
L 512.355973 201.859077 
L 523.870277 201.781043 
L 535.38458 202.676057 
L 546.898883 201.816893 
L 558.413186 202.547691 
L 569.927489 202.665785 
L 581.441792 203.597827 
L 592.956095 202.591173 
L 604.470398 202.880816 
L 615.984701 203.165549 
L 627.499004 202.322649 
L 639.013307 202.629581 
L 650.52761 201.988295 
L 662.041913 202.234646 
L 673.556216 202.588037 
L 685.070519 202.009779 
L 696.584822 203.305065 
L 708.099125 202.966877 
L 719.613428 203.059646 
L 731.127731 202.349907 
L 742.642034 202.265393 
L 754.156337 202.421282 
L 765.67064 202.014583 
L 777.184943 202.308698 
L 788.699246 201.999416 
L 800.213549 202.485585 
L 811.727852 202.609436 
L 823.242155 202.494213 
L 834.756458 202.68302 
L 846.270761 202.411327 
L 857.785064 202.110746 
L 869.299367 202.035096 
L 880.81367 201.72152 
L 892.327973 201.617118 
L 903.842277 202.565047 
L 915.35658 201.823089 
L 926.870883 201.435172 
L 938.385186 197.845731 
L 949.899489 187.136021 
" clip-path="url(#pf8ab21b663)" style="fill: none; stroke: #f45b5b; stroke-linecap: square"/>
   </g>
   <g id="line2d_16">
    <path d="M 43.148125 273.99006 
L 993.078125 273.99006 
" clip-path="url(#pf8ab21b663)" style="fill: none; stroke: #dedede; stroke-width: 2; stroke-linecap: square"/>
   </g>
   <g id="text_17">
    <!-- Picard: Base Distribution -->
    <g transform="translate(419.786875 19.3575)scale(0.16 -0.16)">
     <defs>
      <path id="DejaVuSans-50" d="M 1259 4147 
L 1259 2394 
L 2053 2394 
Q 2494 2394 2734 2622 
Q 2975 2850 2975 3272 
Q 2975 3691 2734 3919 
Q 2494 4147 2053 4147 
L 1259 4147 
z
M 628 4666 
L 2053 4666 
Q 2838 4666 3239 4311 
Q 3641 3956 3641 3272 
Q 3641 2581 3239 2228 
Q 2838 1875 2053 1875 
L 1259 1875 
L 1259 0 
L 628 0 
L 628 4666 
z
" transform="scale(0.015625)"/>
      <path id="DejaVuSans-61" d="M 2194 1759 
Q 1497 1759 1228 1600 
Q 959 1441 959 1056 
Q 959 750 1161 570 
Q 1363 391 1709 391 
Q 2188 391 2477 730 
Q 2766 1069 2766 1631 
L 2766 1759 
L 2194 1759 
z
M 3341 1997 
L 3341 0 
L 2766 0 
L 2766 531 
Q 2569 213 2275 61 
Q 1981 -91 1556 -91 
Q 1019 -91 701 211 
Q 384 513 384 1019 
Q 384 1609 779 1909 
Q 1175 2209 1959 2209 
L 2766 2209 
L 2766 2266 
Q 2766 2663 2505 2880 
Q 2244 3097 1772 3097 
Q 1472 3097 1187 3025 
Q 903 2953 641 2809 
L 641 3341 
Q 956 3463 1253 3523 
Q 1550 3584 1831 3584 
Q 2591 3584 2966 3190 
Q 3341 2797 3341 1997 
z
" transform="scale(0.015625)"/>
      <path id="DejaVuSans-72" d="M 2631 2963 
Q 2534 3019 2420 3045 
Q 2306 3072 2169 3072 
Q 1681 3072 1420 2755 
Q 1159 2438 1159 1844 
L 1159 0 
L 581 0 
L 581 3500 
L 1159 3500 
L 1159 2956 
Q 1341 3275 1631 3429 
Q 1922 3584 2338 3584 
Q 2397 3584 2469 3576 
Q 2541 3569 2628 3553 
L 2631 2963 
z
" transform="scale(0.015625)"/>
      <path id="DejaVuSans-64" d="M 2906 2969 
L 2906 4863 
L 3481 4863 
L 3481 0 
L 2906 0 
L 2906 525 
Q 2725 213 2448 61 
Q 2172 -91 1784 -91 
Q 1150 -91 751 415 
Q 353 922 353 1747 
Q 353 2572 751 3078 
Q 1150 3584 1784 3584 
Q 2172 3584 2448 3432 
Q 2725 3281 2906 2969 
z
M 947 1747 
Q 947 1113 1208 752 
Q 1469 391 1925 391 
Q 2381 391 2643 752 
Q 2906 1113 2906 1747 
Q 2906 2381 2643 2742 
Q 2381 3103 1925 3103 
Q 1469 3103 1208 2742 
Q 947 2381 947 1747 
z
" transform="scale(0.015625)"/>
      <path id="DejaVuSans-3a" d="M 750 794 
L 1409 794 
L 1409 0 
L 750 0 
L 750 794 
z
M 750 3309 
L 1409 3309 
L 1409 2516 
L 750 2516 
L 750 3309 
z
" transform="scale(0.015625)"/>
      <path id="DejaVuSans-42" d="M 1259 2228 
L 1259 519 
L 2272 519 
Q 2781 519 3026 730 
Q 3272 941 3272 1375 
Q 3272 1813 3026 2020 
Q 2781 2228 2272 2228 
L 1259 2228 
z
M 1259 4147 
L 1259 2741 
L 2194 2741 
Q 2656 2741 2882 2914 
Q 3109 3088 3109 3444 
Q 3109 3797 2882 3972 
Q 2656 4147 2194 4147 
L 1259 4147 
z
M 628 4666 
L 2241 4666 
Q 2963 4666 3353 4366 
Q 3744 4066 3744 3513 
Q 3744 3084 3544 2831 
Q 3344 2578 2956 2516 
Q 3422 2416 3680 2098 
Q 3938 1781 3938 1306 
Q 3938 681 3513 340 
Q 3088 0 2303 0 
L 628 0 
L 628 4666 
z
" transform="scale(0.015625)"/>
      <path id="DejaVuSans-73" d="M 2834 3397 
L 2834 2853 
Q 2591 2978 2328 3040 
Q 2066 3103 1784 3103 
Q 1356 3103 1142 2972 
Q 928 2841 928 2578 
Q 928 2378 1081 2264 
Q 1234 2150 1697 2047 
L 1894 2003 
Q 2506 1872 2764 1633 
Q 3022 1394 3022 966 
Q 3022 478 2636 193 
Q 2250 -91 1575 -91 
Q 1294 -91 989 -36 
Q 684 19 347 128 
L 347 722 
Q 666 556 975 473 
Q 1284 391 1588 391 
Q 1994 391 2212 530 
Q 2431 669 2431 922 
Q 2431 1156 2273 1281 
Q 2116 1406 1581 1522 
L 1381 1569 
Q 847 1681 609 1914 
Q 372 2147 372 2553 
Q 372 3047 722 3315 
Q 1072 3584 1716 3584 
Q 2034 3584 2315 3537 
Q 2597 3491 2834 3397 
z
" transform="scale(0.015625)"/>
      <path id="DejaVuSans-44" d="M 1259 4147 
L 1259 519 
L 2022 519 
Q 2988 519 3436 956 
Q 3884 1394 3884 2338 
Q 3884 3275 3436 3711 
Q 2988 4147 2022 4147 
L 1259 4147 
z
M 628 4666 
L 1925 4666 
Q 3281 4666 3915 4102 
Q 4550 3538 4550 2338 
Q 4550 1131 3912 565 
Q 3275 0 1925 0 
L 628 0 
L 628 4666 
z
" transform="scale(0.015625)"/>
      <path id="DejaVuSans-74" d="M 1172 4494 
L 1172 3500 
L 2356 3500 
L 2356 3053 
L 1172 3053 
L 1172 1153 
Q 1172 725 1289 603 
Q 1406 481 1766 481 
L 2356 481 
L 2356 0 
L 1766 0 
Q 1100 0 847 248 
Q 594 497 594 1153 
L 594 3053 
L 172 3053 
L 172 3500 
L 594 3500 
L 594 4494 
L 1172 4494 
z
" transform="scale(0.015625)"/>
      <path id="DejaVuSans-62" d="M 3116 1747 
Q 3116 2381 2855 2742 
Q 2594 3103 2138 3103 
Q 1681 3103 1420 2742 
Q 1159 2381 1159 1747 
Q 1159 1113 1420 752 
Q 1681 391 2138 391 
Q 2594 391 2855 752 
Q 3116 1113 3116 1747 
z
M 1159 2969 
Q 1341 3281 1617 3432 
Q 1894 3584 2278 3584 
Q 2916 3584 3314 3078 
Q 3713 2572 3713 1747 
Q 3713 922 3314 415 
Q 2916 -91 2278 -91 
Q 1894 -91 1617 61 
Q 1341 213 1159 525 
L 1159 0 
L 581 0 
L 581 4863 
L 1159 4863 
L 1159 2969 
z
" transform="scale(0.015625)"/>
      <path id="DejaVuSans-75" d="M 544 1381 
L 544 3500 
L 1119 3500 
L 1119 1403 
Q 1119 906 1312 657 
Q 1506 409 1894 409 
Q 2359 409 2629 706 
Q 2900 1003 2900 1516 
L 2900 3500 
L 3475 3500 
L 3475 0 
L 2900 0 
L 2900 538 
Q 2691 219 2414 64 
Q 2138 -91 1772 -91 
Q 1169 -91 856 284 
Q 544 659 544 1381 
z
M 1991 3584 
L 1991 3584 
z
" transform="scale(0.015625)"/>
      <path id="DejaVuSans-6f" d="M 1959 3097 
Q 1497 3097 1228 2736 
Q 959 2375 959 1747 
Q 959 1119 1226 758 
Q 1494 397 1959 397 
Q 2419 397 2687 759 
Q 2956 1122 2956 1747 
Q 2956 2369 2687 2733 
Q 2419 3097 1959 3097 
z
M 1959 3584 
Q 2709 3584 3137 3096 
Q 3566 2609 3566 1747 
Q 3566 888 3137 398 
Q 2709 -91 1959 -91 
Q 1206 -91 779 398 
Q 353 888 353 1747 
Q 353 2609 779 3096 
Q 1206 3584 1959 3584 
z
" transform="scale(0.015625)"/>
     </defs>
     <use xlink:href="#DejaVuSans-50"/>
     <use xlink:href="#DejaVuSans-69" x="58.052734"/>
     <use xlink:href="#DejaVuSans-63" x="85.835938"/>
     <use xlink:href="#DejaVuSans-61" x="140.816406"/>
     <use xlink:href="#DejaVuSans-72" x="202.095703"/>
     <use xlink:href="#DejaVuSans-64" x="241.458984"/>
     <use xlink:href="#DejaVuSans-3a" x="304.935547"/>
     <use xlink:href="#DejaVuSans-20" x="338.626953"/>
     <use xlink:href="#DejaVuSans-42" x="370.414062"/>
     <use xlink:href="#DejaVuSans-61" x="439.017578"/>
     <use xlink:href="#DejaVuSans-73" x="500.296875"/>
     <use xlink:href="#DejaVuSans-65" x="552.396484"/>
     <use xlink:href="#DejaVuSans-20" x="613.919922"/>
     <use xlink:href="#DejaVuSans-44" x="645.707031"/>
     <use xlink:href="#DejaVuSans-69" x="722.708984"/>
     <use xlink:href="#DejaVuSans-73" x="750.492188"/>
     <use xlink:href="#DejaVuSans-74" x="802.591797"/>
     <use xlink:href="#DejaVuSans-72" x="841.800781"/>
     <use xlink:href="#DejaVuSans-69" x="882.914062"/>
     <use xlink:href="#DejaVuSans-62" x="910.697266"/>
     <use xlink:href="#DejaVuSans-75" x="974.173828"/>
     <use xlink:href="#DejaVuSans-74" x="1037.552734"/>
     <use xlink:href="#DejaVuSans-69" x="1076.761719"/>
     <use xlink:href="#DejaVuSans-6f" x="1104.544922"/>
     <use xlink:href="#DejaVuSans-6e" x="1165.726562"/>
    </g>
   </g>
   <g id="legend_1">
    <g id="line2d_17">
     <path d="M 50.348125 303.490394 
L 58.348125 303.490394 
L 66.348125 303.490394 
" style="fill: none; stroke: #7cb5ec; stroke-linecap: square"/>
    </g>
    <g id="text_18">
     <!-- OSMOTIC_STRESS_T0_PE_REP1_R1 -->
     <g transform="translate(72.748125 306.290394)scale(0.08 -0.08)">
      <defs>
       <path id="DejaVuSans-4f" d="M 2522 4238 
Q 1834 4238 1429 3725 
Q 1025 3213 1025 2328 
Q 1025 1447 1429 934 
Q 1834 422 2522 422 
Q 3209 422 3611 934 
Q 4013 1447 4013 2328 
Q 4013 3213 3611 3725 
Q 3209 4238 2522 4238 
z
M 2522 4750 
Q 3503 4750 4090 4092 
Q 4678 3434 4678 2328 
Q 4678 1225 4090 567 
Q 3503 -91 2522 -91 
Q 1538 -91 948 565 
Q 359 1222 359 2328 
Q 359 3434 948 4092 
Q 1538 4750 2522 4750 
z
" transform="scale(0.015625)"/>
       <path id="DejaVuSans-53" d="M 3425 4513 
L 3425 3897 
Q 3066 4069 2747 4153 
Q 2428 4238 2131 4238 
Q 1616 4238 1336 4038 
Q 1056 3838 1056 3469 
Q 1056 3159 1242 3001 
Q 1428 2844 1947 2747 
L 2328 2669 
Q 3034 2534 3370 2195 
Q 3706 1856 3706 1288 
Q 3706 609 3251 259 
Q 2797 -91 1919 -91 
Q 1588 -91 1214 -16 
Q 841 59 441 206 
L 441 856 
Q 825 641 1194 531 
Q 1563 422 1919 422 
Q 2459 422 2753 634 
Q 3047 847 3047 1241 
Q 3047 1584 2836 1778 
Q 2625 1972 2144 2069 
L 1759 2144 
Q 1053 2284 737 2584 
Q 422 2884 422 3419 
Q 422 4038 858 4394 
Q 1294 4750 2059 4750 
Q 2388 4750 2728 4690 
Q 3069 4631 3425 4513 
z
" transform="scale(0.015625)"/>
       <path id="DejaVuSans-4d" d="M 628 4666 
L 1569 4666 
L 2759 1491 
L 3956 4666 
L 4897 4666 
L 4897 0 
L 4281 0 
L 4281 4097 
L 3078 897 
L 2444 897 
L 1241 4097 
L 1241 0 
L 628 0 
L 628 4666 
z
" transform="scale(0.015625)"/>
       <path id="DejaVuSans-49" d="M 628 4666 
L 1259 4666 
L 1259 0 
L 628 0 
L 628 4666 
z
" transform="scale(0.015625)"/>
       <path id="DejaVuSans-5f" d="M 3263 -1063 
L 3263 -1509 
L -63 -1509 
L -63 -1063 
L 3263 -1063 
z
" transform="scale(0.015625)"/>
       <path id="DejaVuSans-52" d="M 2841 2188 
Q 3044 2119 3236 1894 
Q 3428 1669 3622 1275 
L 4263 0 
L 3584 0 
L 2988 1197 
Q 2756 1666 2539 1819 
Q 2322 1972 1947 1972 
L 1259 1972 
L 1259 0 
L 628 0 
L 628 4666 
L 2053 4666 
Q 2853 4666 3247 4331 
Q 3641 3997 3641 3322 
Q 3641 2881 3436 2590 
Q 3231 2300 2841 2188 
z
M 1259 4147 
L 1259 2491 
L 2053 2491 
Q 2509 2491 2742 2702 
Q 2975 2913 2975 3322 
Q 2975 3731 2742 3939 
Q 2509 4147 2053 4147 
L 1259 4147 
z
" transform="scale(0.015625)"/>
       <path id="DejaVuSans-45" d="M 628 4666 
L 3578 4666 
L 3578 4134 
L 1259 4134 
L 1259 2753 
L 3481 2753 
L 3481 2222 
L 1259 2222 
L 1259 531 
L 3634 531 
L 3634 0 
L 628 0 
L 628 4666 
z
" transform="scale(0.015625)"/>
      </defs>
      <use xlink:href="#DejaVuSans-4f"/>
      <use xlink:href="#DejaVuSans-53" x="78.710938"/>
      <use xlink:href="#DejaVuSans-4d" x="142.1875"/>
      <use xlink:href="#DejaVuSans-4f" x="228.466797"/>
      <use xlink:href="#DejaVuSans-54" x="307.177734"/>
      <use xlink:href="#DejaVuSans-49" x="368.261719"/>
      <use xlink:href="#DejaVuSans-43" x="397.753906"/>
      <use xlink:href="#DejaVuSans-5f" x="467.578125"/>
      <use xlink:href="#DejaVuSans-53" x="517.578125"/>
      <use xlink:href="#DejaVuSans-54" x="581.054688"/>
      <use xlink:href="#DejaVuSans-52" x="642.138672"/>
      <use xlink:href="#DejaVuSans-45" x="711.621094"/>
      <use xlink:href="#DejaVuSans-53" x="774.804688"/>
      <use xlink:href="#DejaVuSans-53" x="838.28125"/>
      <use xlink:href="#DejaVuSans-5f" x="901.757812"/>
      <use xlink:href="#DejaVuSans-54" x="951.757812"/>
      <use xlink:href="#DejaVuSans-30" x="1012.841797"/>
      <use xlink:href="#DejaVuSans-5f" x="1076.464844"/>
      <use xlink:href="#DejaVuSans-50" x="1126.464844"/>
      <use xlink:href="#DejaVuSans-45" x="1186.767578"/>
      <use xlink:href="#DejaVuSans-5f" x="1249.951172"/>
      <use xlink:href="#DejaVuSans-52" x="1299.951172"/>
      <use xlink:href="#DejaVuSans-45" x="1369.433594"/>
      <use xlink:href="#DejaVuSans-50" x="1432.617188"/>
      <use xlink:href="#DejaVuSans-31" x="1492.919922"/>
      <use xlink:href="#DejaVuSans-5f" x="1556.542969"/>
      <use xlink:href="#DejaVuSans-52" x="1606.542969"/>
      <use xlink:href="#DejaVuSans-31" x="1676.025391"/>
     </g>
    </g>
    <g id="line2d_18">
     <path d="M 50.348125 315.455394 
L 58.348125 315.455394 
L 66.348125 315.455394 
" style="fill: none; stroke: #434348; stroke-linecap: square"/>
    </g>
    <g id="text_19">
     <!-- OSMOTIC_STRESS_T0_PE_REP1_R2 -->
     <g transform="translate(72.748125 318.255394)scale(0.08 -0.08)">
      <use xlink:href="#DejaVuSans-4f"/>
      <use xlink:href="#DejaVuSans-53" x="78.710938"/>
      <use xlink:href="#DejaVuSans-4d" x="142.1875"/>
      <use xlink:href="#DejaVuSans-4f" x="228.466797"/>
      <use xlink:href="#DejaVuSans-54" x="307.177734"/>
      <use xlink:href="#DejaVuSans-49" x="368.261719"/>
      <use xlink:href="#DejaVuSans-43" x="397.753906"/>
      <use xlink:href="#DejaVuSans-5f" x="467.578125"/>
      <use xlink:href="#DejaVuSans-53" x="517.578125"/>
      <use xlink:href="#DejaVuSans-54" x="581.054688"/>
      <use xlink:href="#DejaVuSans-52" x="642.138672"/>
      <use xlink:href="#DejaVuSans-45" x="711.621094"/>
      <use xlink:href="#DejaVuSans-53" x="774.804688"/>
      <use xlink:href="#DejaVuSans-53" x="838.28125"/>
      <use xlink:href="#DejaVuSans-5f" x="901.757812"/>
      <use xlink:href="#DejaVuSans-54" x="951.757812"/>
      <use xlink:href="#DejaVuSans-30" x="1012.841797"/>
      <use xlink:href="#DejaVuSans-5f" x="1076.464844"/>
      <use xlink:href="#DejaVuSans-50" x="1126.464844"/>
      <use xlink:href="#DejaVuSans-45" x="1186.767578"/>
      <use xlink:href="#DejaVuSans-5f" x="1249.951172"/>
      <use xlink:href="#DejaVuSans-52" x="1299.951172"/>
      <use xlink:href="#DejaVuSans-45" x="1369.433594"/>
      <use xlink:href="#DejaVuSans-50" x="1432.617188"/>
      <use xlink:href="#DejaVuSans-31" x="1492.919922"/>
      <use xlink:href="#DejaVuSans-5f" x="1556.542969"/>
      <use xlink:href="#DejaVuSans-52" x="1606.542969"/>
      <use xlink:href="#DejaVuSans-32" x="1676.025391"/>
     </g>
    </g>
    <g id="line2d_19">
     <path d="M 242.345 303.490394 
L 250.345 303.490394 
L 258.345 303.490394 
" style="fill: none; stroke: #90ed7d; stroke-linecap: square"/>
    </g>
    <g id="text_20">
     <!-- OSMOTIC_STRESS_T0_PE_REP2_R1 -->
     <g transform="translate(264.745 306.290394)scale(0.08 -0.08)">
      <use xlink:href="#DejaVuSans-4f"/>
      <use xlink:href="#DejaVuSans-53" x="78.710938"/>
      <use xlink:href="#DejaVuSans-4d" x="142.1875"/>
      <use xlink:href="#DejaVuSans-4f" x="228.466797"/>
      <use xlink:href="#DejaVuSans-54" x="307.177734"/>
      <use xlink:href="#DejaVuSans-49" x="368.261719"/>
      <use xlink:href="#DejaVuSans-43" x="397.753906"/>
      <use xlink:href="#DejaVuSans-5f" x="467.578125"/>
      <use xlink:href="#DejaVuSans-53" x="517.578125"/>
      <use xlink:href="#DejaVuSans-54" x="581.054688"/>
      <use xlink:href="#DejaVuSans-52" x="642.138672"/>
      <use xlink:href="#DejaVuSans-45" x="711.621094"/>
      <use xlink:href="#DejaVuSans-53" x="774.804688"/>
      <use xlink:href="#DejaVuSans-53" x="838.28125"/>
      <use xlink:href="#DejaVuSans-5f" x="901.757812"/>
      <use xlink:href="#DejaVuSans-54" x="951.757812"/>
      <use xlink:href="#DejaVuSans-30" x="1012.841797"/>
      <use xlink:href="#DejaVuSans-5f" x="1076.464844"/>
      <use xlink:href="#DejaVuSans-50" x="1126.464844"/>
      <use xlink:href="#DejaVuSans-45" x="1186.767578"/>
      <use xlink:href="#DejaVuSans-5f" x="1249.951172"/>
      <use xlink:href="#DejaVuSans-52" x="1299.951172"/>
      <use xlink:href="#DejaVuSans-45" x="1369.433594"/>
      <use xlink:href="#DejaVuSans-50" x="1432.617188"/>
      <use xlink:href="#DejaVuSans-32" x="1492.919922"/>
      <use xlink:href="#DejaVuSans-5f" x="1556.542969"/>
      <use xlink:href="#DejaVuSans-52" x="1606.542969"/>
      <use xlink:href="#DejaVuSans-31" x="1676.025391"/>
     </g>
    </g>
    <g id="line2d_20">
     <path d="M 242.345 315.455394 
L 250.345 315.455394 
L 258.345 315.455394 
" style="fill: none; stroke: #f7a35c; stroke-linecap: square"/>
    </g>
    <g id="text_21">
     <!-- OSMOTIC_STRESS_T0_PE_REP2_R2 -->
     <g transform="translate(264.745 318.255394)scale(0.08 -0.08)">
      <use xlink:href="#DejaVuSans-4f"/>
      <use xlink:href="#DejaVuSans-53" x="78.710938"/>
      <use xlink:href="#DejaVuSans-4d" x="142.1875"/>
      <use xlink:href="#DejaVuSans-4f" x="228.466797"/>
      <use xlink:href="#DejaVuSans-54" x="307.177734"/>
      <use xlink:href="#DejaVuSans-49" x="368.261719"/>
      <use xlink:href="#DejaVuSans-43" x="397.753906"/>
      <use xlink:href="#DejaVuSans-5f" x="467.578125"/>
      <use xlink:href="#DejaVuSans-53" x="517.578125"/>
      <use xlink:href="#DejaVuSans-54" x="581.054688"/>
      <use xlink:href="#DejaVuSans-52" x="642.138672"/>
      <use xlink:href="#DejaVuSans-45" x="711.621094"/>
      <use xlink:href="#DejaVuSans-53" x="774.804688"/>
      <use xlink:href="#DejaVuSans-53" x="838.28125"/>
      <use xlink:href="#DejaVuSans-5f" x="901.757812"/>
      <use xlink:href="#DejaVuSans-54" x="951.757812"/>
      <use xlink:href="#DejaVuSans-30" x="1012.841797"/>
      <use xlink:href="#DejaVuSans-5f" x="1076.464844"/>
      <use xlink:href="#DejaVuSans-50" x="1126.464844"/>
      <use xlink:href="#DejaVuSans-45" x="1186.767578"/>
      <use xlink:href="#DejaVuSans-5f" x="1249.951172"/>
      <use xlink:href="#DejaVuSans-52" x="1299.951172"/>
      <use xlink:href="#DejaVuSans-45" x="1369.433594"/>
      <use xlink:href="#DejaVuSans-50" x="1432.617188"/>
      <use xlink:href="#DejaVuSans-32" x="1492.919922"/>
      <use xlink:href="#DejaVuSans-5f" x="1556.542969"/>
      <use xlink:href="#DejaVuSans-52" x="1606.542969"/>
      <use xlink:href="#DejaVuSans-32" x="1676.025391"/>
     </g>
    </g>
    <g id="line2d_21">
     <path d="M 434.341875 303.490394 
L 442.341875 303.490394 
L 450.341875 303.490394 
" style="fill: none; stroke: #8085e9; stroke-linecap: square"/>
    </g>
    <g id="text_22">
     <!-- OSMOTIC_STRESS_T100_SE_REP1 -->
     <g transform="translate(456.741875 306.290394)scale(0.08 -0.08)">
      <use xlink:href="#DejaVuSans-4f"/>
      <use xlink:href="#DejaVuSans-53" x="78.710938"/>
      <use xlink:href="#DejaVuSans-4d" x="142.1875"/>
      <use xlink:href="#DejaVuSans-4f" x="228.466797"/>
      <use xlink:href="#DejaVuSans-54" x="307.177734"/>
      <use xlink:href="#DejaVuSans-49" x="368.261719"/>
      <use xlink:href="#DejaVuSans-43" x="397.753906"/>
      <use xlink:href="#DejaVuSans-5f" x="467.578125"/>
      <use xlink:href="#DejaVuSans-53" x="517.578125"/>
      <use xlink:href="#DejaVuSans-54" x="581.054688"/>
      <use xlink:href="#DejaVuSans-52" x="642.138672"/>
      <use xlink:href="#DejaVuSans-45" x="711.621094"/>
      <use xlink:href="#DejaVuSans-53" x="774.804688"/>
      <use xlink:href="#DejaVuSans-53" x="838.28125"/>
      <use xlink:href="#DejaVuSans-5f" x="901.757812"/>
      <use xlink:href="#DejaVuSans-54" x="951.757812"/>
      <use xlink:href="#DejaVuSans-31" x="1012.841797"/>
      <use xlink:href="#DejaVuSans-30" x="1076.464844"/>
      <use xlink:href="#DejaVuSans-30" x="1140.087891"/>
      <use xlink:href="#DejaVuSans-5f" x="1203.710938"/>
      <use xlink:href="#DejaVuSans-53" x="1253.710938"/>
      <use xlink:href="#DejaVuSans-45" x="1317.1875"/>
      <use xlink:href="#DejaVuSans-5f" x="1380.371094"/>
      <use xlink:href="#DejaVuSans-52" x="1430.371094"/>
      <use xlink:href="#DejaVuSans-45" x="1499.853516"/>
      <use xlink:href="#DejaVuSans-50" x="1563.037109"/>
      <use xlink:href="#DejaVuSans-31" x="1623.339844"/>
     </g>
    </g>
    <g id="line2d_22">
     <path d="M 434.341875 315.455394 
L 442.341875 315.455394 
L 450.341875 315.455394 
" style="fill: none; stroke: #f15c80; stroke-linecap: square"/>
    </g>
    <g id="text_23">
     <!-- OSMOTIC_STRESS_T100_SE_REP2 -->
     <g transform="translate(456.741875 318.255394)scale(0.08 -0.08)">
      <use xlink:href="#DejaVuSans-4f"/>
      <use xlink:href="#DejaVuSans-53" x="78.710938"/>
      <use xlink:href="#DejaVuSans-4d" x="142.1875"/>
      <use xlink:href="#DejaVuSans-4f" x="228.466797"/>
      <use xlink:href="#DejaVuSans-54" x="307.177734"/>
      <use xlink:href="#DejaVuSans-49" x="368.261719"/>
      <use xlink:href="#DejaVuSans-43" x="397.753906"/>
      <use xlink:href="#DejaVuSans-5f" x="467.578125"/>
      <use xlink:href="#DejaVuSans-53" x="517.578125"/>
      <use xlink:href="#DejaVuSans-54" x="581.054688"/>
      <use xlink:href="#DejaVuSans-52" x="642.138672"/>
      <use xlink:href="#DejaVuSans-45" x="711.621094"/>
      <use xlink:href="#DejaVuSans-53" x="774.804688"/>
      <use xlink:href="#DejaVuSans-53" x="838.28125"/>
      <use xlink:href="#DejaVuSans-5f" x="901.757812"/>
      <use xlink:href="#DejaVuSans-54" x="951.757812"/>
      <use xlink:href="#DejaVuSans-31" x="1012.841797"/>
      <use xlink:href="#DejaVuSans-30" x="1076.464844"/>
      <use xlink:href="#DejaVuSans-30" x="1140.087891"/>
      <use xlink:href="#DejaVuSans-5f" x="1203.710938"/>
      <use xlink:href="#DejaVuSans-53" x="1253.710938"/>
      <use xlink:href="#DejaVuSans-45" x="1317.1875"/>
      <use xlink:href="#DejaVuSans-5f" x="1380.371094"/>
      <use xlink:href="#DejaVuSans-52" x="1430.371094"/>
      <use xlink:href="#DejaVuSans-45" x="1499.853516"/>
      <use xlink:href="#DejaVuSans-50" x="1563.037109"/>
      <use xlink:href="#DejaVuSans-32" x="1623.339844"/>
     </g>
    </g>
    <g id="line2d_23">
     <path d="M 622.125 303.490394 
L 630.125 303.490394 
L 638.125 303.490394 
" style="fill: none; stroke: #e4d354; stroke-linecap: square"/>
    </g>
    <g id="text_24">
     <!-- OSMOTIC_STRESS_T150_SE_REP1 -->
     <g transform="translate(644.525 306.290394)scale(0.08 -0.08)">
      <use xlink:href="#DejaVuSans-4f"/>
      <use xlink:href="#DejaVuSans-53" x="78.710938"/>
      <use xlink:href="#DejaVuSans-4d" x="142.1875"/>
      <use xlink:href="#DejaVuSans-4f" x="228.466797"/>
      <use xlink:href="#DejaVuSans-54" x="307.177734"/>
      <use xlink:href="#DejaVuSans-49" x="368.261719"/>
      <use xlink:href="#DejaVuSans-43" x="397.753906"/>
      <use xlink:href="#DejaVuSans-5f" x="467.578125"/>
      <use xlink:href="#DejaVuSans-53" x="517.578125"/>
      <use xlink:href="#DejaVuSans-54" x="581.054688"/>
      <use xlink:href="#DejaVuSans-52" x="642.138672"/>
      <use xlink:href="#DejaVuSans-45" x="711.621094"/>
      <use xlink:href="#DejaVuSans-53" x="774.804688"/>
      <use xlink:href="#DejaVuSans-53" x="838.28125"/>
      <use xlink:href="#DejaVuSans-5f" x="901.757812"/>
      <use xlink:href="#DejaVuSans-54" x="951.757812"/>
      <use xlink:href="#DejaVuSans-31" x="1012.841797"/>
      <use xlink:href="#DejaVuSans-35" x="1076.464844"/>
      <use xlink:href="#DejaVuSans-30" x="1140.087891"/>
      <use xlink:href="#DejaVuSans-5f" x="1203.710938"/>
      <use xlink:href="#DejaVuSans-53" x="1253.710938"/>
      <use xlink:href="#DejaVuSans-45" x="1317.1875"/>
      <use xlink:href="#DejaVuSans-5f" x="1380.371094"/>
      <use xlink:href="#DejaVuSans-52" x="1430.371094"/>
      <use xlink:href="#DejaVuSans-45" x="1499.853516"/>
      <use xlink:href="#DejaVuSans-50" x="1563.037109"/>
      <use xlink:href="#DejaVuSans-31" x="1623.339844"/>
     </g>
    </g>
    <g id="line2d_24">
     <path d="M 622.125 315.455394 
L 630.125 315.455394 
L 638.125 315.455394 
" style="fill: none; stroke: #2b908f; stroke-linecap: square"/>
    </g>
    <g id="text_25">
     <!-- OSMOTIC_STRESS_T15_PE_REP1_R1 -->
     <g transform="translate(644.525 318.255394)scale(0.08 -0.08)">
      <use xlink:href="#DejaVuSans-4f"/>
      <use xlink:href="#DejaVuSans-53" x="78.710938"/>
      <use xlink:href="#DejaVuSans-4d" x="142.1875"/>
      <use xlink:href="#DejaVuSans-4f" x="228.466797"/>
      <use xlink:href="#DejaVuSans-54" x="307.177734"/>
      <use xlink:href="#DejaVuSans-49" x="368.261719"/>
      <use xlink:href="#DejaVuSans-43" x="397.753906"/>
      <use xlink:href="#DejaVuSans-5f" x="467.578125"/>
      <use xlink:href="#DejaVuSans-53" x="517.578125"/>
      <use xlink:href="#DejaVuSans-54" x="581.054688"/>
      <use xlink:href="#DejaVuSans-52" x="642.138672"/>
      <use xlink:href="#DejaVuSans-45" x="711.621094"/>
      <use xlink:href="#DejaVuSans-53" x="774.804688"/>
      <use xlink:href="#DejaVuSans-53" x="838.28125"/>
      <use xlink:href="#DejaVuSans-5f" x="901.757812"/>
      <use xlink:href="#DejaVuSans-54" x="951.757812"/>
      <use xlink:href="#DejaVuSans-31" x="1012.841797"/>
      <use xlink:href="#DejaVuSans-35" x="1076.464844"/>
      <use xlink:href="#DejaVuSans-5f" x="1140.087891"/>
      <use xlink:href="#DejaVuSans-50" x="1190.087891"/>
      <use xlink:href="#DejaVuSans-45" x="1250.390625"/>
      <use xlink:href="#DejaVuSans-5f" x="1313.574219"/>
      <use xlink:href="#DejaVuSans-52" x="1363.574219"/>
      <use xlink:href="#DejaVuSans-45" x="1433.056641"/>
      <use xlink:href="#DejaVuSans-50" x="1496.240234"/>
      <use xlink:href="#DejaVuSans-31" x="1556.542969"/>
      <use xlink:href="#DejaVuSans-5f" x="1620.166016"/>
      <use xlink:href="#DejaVuSans-52" x="1670.166016"/>
      <use xlink:href="#DejaVuSans-31" x="1739.648438"/>
     </g>
    </g>
    <g id="line2d_25">
     <path d="M 819.211875 303.490394 
L 827.211875 303.490394 
L 835.211875 303.490394 
" style="fill: none; stroke: #f45b5b; stroke-linecap: square"/>
    </g>
    <g id="text_26">
     <!-- OSMOTIC_STRESS_T15_PE_REP1_R2 -->
     <g transform="translate(841.611875 306.290394)scale(0.08 -0.08)">
      <use xlink:href="#DejaVuSans-4f"/>
      <use xlink:href="#DejaVuSans-53" x="78.710938"/>
      <use xlink:href="#DejaVuSans-4d" x="142.1875"/>
      <use xlink:href="#DejaVuSans-4f" x="228.466797"/>
      <use xlink:href="#DejaVuSans-54" x="307.177734"/>
      <use xlink:href="#DejaVuSans-49" x="368.261719"/>
      <use xlink:href="#DejaVuSans-43" x="397.753906"/>
      <use xlink:href="#DejaVuSans-5f" x="467.578125"/>
      <use xlink:href="#DejaVuSans-53" x="517.578125"/>
      <use xlink:href="#DejaVuSans-54" x="581.054688"/>
      <use xlink:href="#DejaVuSans-52" x="642.138672"/>
      <use xlink:href="#DejaVuSans-45" x="711.621094"/>
      <use xlink:href="#DejaVuSans-53" x="774.804688"/>
      <use xlink:href="#DejaVuSans-53" x="838.28125"/>
      <use xlink:href="#DejaVuSans-5f" x="901.757812"/>
      <use xlink:href="#DejaVuSans-54" x="951.757812"/>
      <use xlink:href="#DejaVuSans-31" x="1012.841797"/>
      <use xlink:href="#DejaVuSans-35" x="1076.464844"/>
      <use xlink:href="#DejaVuSans-5f" x="1140.087891"/>
      <use xlink:href="#DejaVuSans-50" x="1190.087891"/>
      <use xlink:href="#DejaVuSans-45" x="1250.390625"/>
      <use xlink:href="#DejaVuSans-5f" x="1313.574219"/>
      <use xlink:href="#DejaVuSans-52" x="1363.574219"/>
      <use xlink:href="#DejaVuSans-45" x="1433.056641"/>
      <use xlink:href="#DejaVuSans-50" x="1496.240234"/>
      <use xlink:href="#DejaVuSans-31" x="1556.542969"/>
      <use xlink:href="#DejaVuSans-5f" x="1620.166016"/>
      <use xlink:href="#DejaVuSans-52" x="1670.166016"/>
      <use xlink:href="#DejaVuSans-32" x="1739.648438"/>
     </g>
    </g>
   </g>
  </g>
 </g>
 <defs>
  <clipPath id="pf8ab21b663">
   <rect x="43.148125" y="31.48286" width="949.93" height="242.5072"/>
  </clipPath>
 </defs>
</svg>
