<?xml version="1.0" encoding="utf-8" standalone="no"?>
<!DOCTYPE svg PUBLIC "-//W3C//DTD SVG 1.1//EN"
  "http://www.w3.org/Graphics/SVG/1.1/DTD/svg11.dtd">
<svg xmlns:xlink="http://www.w3.org/1999/xlink" width="1000.278125pt" height="330.541644pt" viewBox="0 0 1000.278125 330.541644" xmlns="http://www.w3.org/2000/svg" version="1.1">
 <metadata>
  <rdf:RDF xmlns:dc="http://purl.org/dc/elements/1.1/" xmlns:cc="http://creativecommons.org/ns#" xmlns:rdf="http://www.w3.org/1999/02/22-rdf-syntax-ns#">
   <cc:Work>
    <dc:type rdf:resource="http://purl.org/dc/dcmitype/StillImage"/>
    <dc:date>2024-10-25T13:23:53.874210</dc:date>
    <dc:format>image/svg+xml</dc:format>
    <dc:creator>
     <cc:Agent>
      <dc:title>Matplotlib v3.5.3, https://matplotlib.org/</dc:title>
     </cc:Agent>
    </dc:creator>
   </cc:Work>
  </rdf:RDF>
 </metadata>
 <defs>
  <style type="text/css">*{stroke-linejoin: round; stroke-linecap: butt}</style>
 </defs>
 <g id="figure_1">
  <g id="axes_1">
   <g id="patch_1">
    <path d="M 43.148125 273.99006 
L 993.078125 273.99006 
L 993.078125 31.48286 
L 43.148125 31.48286 
z
" style="fill: #ffffff"/>
   </g>
   <g id="matplotlib.axis_1">
    <g id="xtick_1">
     <g id="text_1">
      <!-- 0 -->
      <g transform="translate(72.267458 287.06881)scale(0.08 -0.08)">
       <defs>
        <path id="DejaVuSans-30" d="M 2034 4250 
Q 1547 4250 1301 3770 
Q 1056 3291 1056 2328 
Q 1056 1369 1301 889 
Q 1547 409 2034 409 
Q 2525 409 2770 889 
Q 3016 1369 3016 2328 
Q 3016 3291 2770 3770 
Q 2525 4250 2034 4250 
z
M 2034 4750 
Q 2819 4750 3233 4129 
Q 3647 3509 3647 2328 
Q 3647 1150 3233 529 
Q 2819 -91 2034 -91 
Q 1250 -91 836 529 
Q 422 1150 422 2328 
Q 422 3509 836 4129 
Q 1250 4750 2034 4750 
z
" transform="scale(0.015625)"/>
       </defs>
       <use xlink:href="#DejaVuSans-30"/>
      </g>
     </g>
    </g>
    <g id="xtick_2">
     <g id="text_2">
      <!-- 10 -->
      <g transform="translate(184.865489 287.06881)scale(0.08 -0.08)">
       <defs>
        <path id="DejaVuSans-31" d="M 794 531 
L 1825 531 
L 1825 4091 
L 703 3866 
L 703 4441 
L 1819 4666 
L 2450 4666 
L 2450 531 
L 3481 531 
L 3481 0 
L 794 0 
L 794 531 
z
" transform="scale(0.015625)"/>
       </defs>
       <use xlink:href="#DejaVuSans-31"/>
       <use xlink:href="#DejaVuSans-30" x="63.623047"/>
      </g>
     </g>
    </g>
    <g id="xtick_3">
     <g id="text_3">
      <!-- 20 -->
      <g transform="translate(300.008519 287.06881)scale(0.08 -0.08)">
       <defs>
        <path id="DejaVuSans-32" d="M 1228 531 
L 3431 531 
L 3431 0 
L 469 0 
L 469 531 
Q 828 903 1448 1529 
Q 2069 2156 2228 2338 
Q 2531 2678 2651 2914 
Q 2772 3150 2772 3378 
Q 2772 3750 2511 3984 
Q 2250 4219 1831 4219 
Q 1534 4219 1204 4116 
Q 875 4013 500 3803 
L 500 4441 
Q 881 4594 1212 4672 
Q 1544 4750 1819 4750 
Q 2544 4750 2975 4387 
Q 3406 4025 3406 3419 
Q 3406 3131 3298 2873 
Q 3191 2616 2906 2266 
Q 2828 2175 2409 1742 
Q 1991 1309 1228 531 
z
" transform="scale(0.015625)"/>
       </defs>
       <use xlink:href="#DejaVuSans-32"/>
       <use xlink:href="#DejaVuSans-30" x="63.623047"/>
      </g>
     </g>
    </g>
    <g id="xtick_4">
     <g id="text_4">
      <!-- 30 -->
      <g transform="translate(415.151549 287.06881)scale(0.08 -0.08)">
       <defs>
        <path id="DejaVuSans-33" d="M 2597 2516 
Q 3050 2419 3304 2112 
Q 3559 1806 3559 1356 
Q 3559 666 3084 287 
Q 2609 -91 1734 -91 
Q 1441 -91 1130 -33 
Q 819 25 488 141 
L 488 750 
Q 750 597 1062 519 
Q 1375 441 1716 441 
Q 2309 441 2620 675 
Q 2931 909 2931 1356 
Q 2931 1769 2642 2001 
Q 2353 2234 1838 2234 
L 1294 2234 
L 1294 2753 
L 1863 2753 
Q 2328 2753 2575 2939 
Q 2822 3125 2822 3475 
Q 2822 3834 2567 4026 
Q 2313 4219 1838 4219 
Q 1578 4219 1281 4162 
Q 984 4106 628 3988 
L 628 4550 
Q 988 4650 1302 4700 
Q 1616 4750 1894 4750 
Q 2613 4750 3031 4423 
Q 3450 4097 3450 3541 
Q 3450 3153 3228 2886 
Q 3006 2619 2597 2516 
z
" transform="scale(0.015625)"/>
       </defs>
       <use xlink:href="#DejaVuSans-33"/>
       <use xlink:href="#DejaVuSans-30" x="63.623047"/>
      </g>
     </g>
    </g>
    <g id="xtick_5">
     <g id="text_5">
      <!-- 40 -->
      <g transform="translate(530.29458 287.06881)scale(0.08 -0.08)">
       <defs>
        <path id="DejaVuSans-34" d="M 2419 4116 
L 825 1625 
L 2419 1625 
L 2419 4116 
z
M 2253 4666 
L 3047 4666 
L 3047 1625 
L 3713 1625 
L 3713 1100 
L 3047 1100 
L 3047 0 
L 2419 0 
L 2419 1100 
L 313 1100 
L 313 1709 
L 2253 4666 
z
" transform="scale(0.015625)"/>
       </defs>
       <use xlink:href="#DejaVuSans-34"/>
       <use xlink:href="#DejaVuSans-30" x="63.623047"/>
      </g>
     </g>
    </g>
    <g id="xtick_6">
     <g id="text_6">
      <!-- 50 -->
      <g transform="translate(645.43761 287.06881)scale(0.08 -0.08)">
       <defs>
        <path id="DejaVuSans-35" d="M 691 4666 
L 3169 4666 
L 3169 4134 
L 1269 4134 
L 1269 2991 
Q 1406 3038 1543 3061 
Q 1681 3084 1819 3084 
Q 2600 3084 3056 2656 
Q 3513 2228 3513 1497 
Q 3513 744 3044 326 
Q 2575 -91 1722 -91 
Q 1428 -91 1123 -41 
Q 819 9 494 109 
L 494 744 
Q 775 591 1075 516 
Q 1375 441 1709 441 
Q 2250 441 2565 725 
Q 2881 1009 2881 1497 
Q 2881 1984 2565 2268 
Q 2250 2553 1709 2553 
Q 1456 2553 1204 2497 
Q 953 2441 691 2322 
L 691 4666 
z
" transform="scale(0.015625)"/>
       </defs>
       <use xlink:href="#DejaVuSans-35"/>
       <use xlink:href="#DejaVuSans-30" x="63.623047"/>
      </g>
     </g>
    </g>
    <g id="xtick_7">
     <g id="text_7">
      <!-- 60 -->
      <g transform="translate(760.58064 287.06881)scale(0.08 -0.08)">
       <defs>
        <path id="DejaVuSans-36" d="M 2113 2584 
Q 1688 2584 1439 2293 
Q 1191 2003 1191 1497 
Q 1191 994 1439 701 
Q 1688 409 2113 409 
Q 2538 409 2786 701 
Q 3034 994 3034 1497 
Q 3034 2003 2786 2293 
Q 2538 2584 2113 2584 
z
M 3366 4563 
L 3366 3988 
Q 3128 4100 2886 4159 
Q 2644 4219 2406 4219 
Q 1781 4219 1451 3797 
Q 1122 3375 1075 2522 
Q 1259 2794 1537 2939 
Q 1816 3084 2150 3084 
Q 2853 3084 3261 2657 
Q 3669 2231 3669 1497 
Q 3669 778 3244 343 
Q 2819 -91 2113 -91 
Q 1303 -91 875 529 
Q 447 1150 447 2328 
Q 447 3434 972 4092 
Q 1497 4750 2381 4750 
Q 2619 4750 2861 4703 
Q 3103 4656 3366 4563 
z
" transform="scale(0.015625)"/>
       </defs>
       <use xlink:href="#DejaVuSans-36"/>
       <use xlink:href="#DejaVuSans-30" x="63.623047"/>
      </g>
     </g>
    </g>
    <g id="xtick_8">
     <g id="text_8">
      <!-- 70 -->
      <g transform="translate(875.72367 287.06881)scale(0.08 -0.08)">
       <defs>
        <path id="DejaVuSans-37" d="M 525 4666 
L 3525 4666 
L 3525 4397 
L 1831 0 
L 1172 0 
L 2766 4134 
L 525 4134 
L 525 4666 
z
" transform="scale(0.015625)"/>
       </defs>
       <use xlink:href="#DejaVuSans-37"/>
       <use xlink:href="#DejaVuSans-30" x="63.623047"/>
      </g>
     </g>
    </g>
    <g id="text_9">
     <!-- Cycle # -->
     <g transform="translate(498.668594 300.330997)scale(0.1 -0.1)">
      <defs>
       <path id="DejaVuSans-43" d="M 4122 4306 
L 4122 3641 
Q 3803 3938 3442 4084 
Q 3081 4231 2675 4231 
Q 1875 4231 1450 3742 
Q 1025 3253 1025 2328 
Q 1025 1406 1450 917 
Q 1875 428 2675 428 
Q 3081 428 3442 575 
Q 3803 722 4122 1019 
L 4122 359 
Q 3791 134 3420 21 
Q 3050 -91 2638 -91 
Q 1578 -91 968 557 
Q 359 1206 359 2328 
Q 359 3453 968 4101 
Q 1578 4750 2638 4750 
Q 3056 4750 3426 4639 
Q 3797 4528 4122 4306 
z
" transform="scale(0.015625)"/>
       <path id="DejaVuSans-79" d="M 2059 -325 
Q 1816 -950 1584 -1140 
Q 1353 -1331 966 -1331 
L 506 -1331 
L 506 -850 
L 844 -850 
Q 1081 -850 1212 -737 
Q 1344 -625 1503 -206 
L 1606 56 
L 191 3500 
L 800 3500 
L 1894 763 
L 2988 3500 
L 3597 3500 
L 2059 -325 
z
" transform="scale(0.015625)"/>
       <path id="DejaVuSans-63" d="M 3122 3366 
L 3122 2828 
Q 2878 2963 2633 3030 
Q 2388 3097 2138 3097 
Q 1578 3097 1268 2742 
Q 959 2388 959 1747 
Q 959 1106 1268 751 
Q 1578 397 2138 397 
Q 2388 397 2633 464 
Q 2878 531 3122 666 
L 3122 134 
Q 2881 22 2623 -34 
Q 2366 -91 2075 -91 
Q 1284 -91 818 406 
Q 353 903 353 1747 
Q 353 2603 823 3093 
Q 1294 3584 2113 3584 
Q 2378 3584 2631 3529 
Q 2884 3475 3122 3366 
z
" transform="scale(0.015625)"/>
       <path id="DejaVuSans-6c" d="M 603 4863 
L 1178 4863 
L 1178 0 
L 603 0 
L 603 4863 
z
" transform="scale(0.015625)"/>
       <path id="DejaVuSans-65" d="M 3597 1894 
L 3597 1613 
L 953 1613 
Q 991 1019 1311 708 
Q 1631 397 2203 397 
Q 2534 397 2845 478 
Q 3156 559 3463 722 
L 3463 178 
Q 3153 47 2828 -22 
Q 2503 -91 2169 -91 
Q 1331 -91 842 396 
Q 353 884 353 1716 
Q 353 2575 817 3079 
Q 1281 3584 2069 3584 
Q 2775 3584 3186 3129 
Q 3597 2675 3597 1894 
z
M 3022 2063 
Q 3016 2534 2758 2815 
Q 2500 3097 2075 3097 
Q 1594 3097 1305 2825 
Q 1016 2553 972 2059 
L 3022 2063 
z
" transform="scale(0.015625)"/>
       <path id="DejaVuSans-20" transform="scale(0.015625)"/>
       <path id="DejaVuSans-23" d="M 3272 2816 
L 2363 2816 
L 2100 1772 
L 3016 1772 
L 3272 2816 
z
M 2803 4594 
L 2478 3297 
L 3391 3297 
L 3719 4594 
L 4219 4594 
L 3897 3297 
L 4872 3297 
L 4872 2816 
L 3775 2816 
L 3519 1772 
L 4513 1772 
L 4513 1294 
L 3397 1294 
L 3072 0 
L 2572 0 
L 2894 1294 
L 1978 1294 
L 1656 0 
L 1153 0 
L 1478 1294 
L 494 1294 
L 494 1772 
L 1594 1772 
L 1856 2816 
L 850 2816 
L 850 3297 
L 1978 3297 
L 2297 4594 
L 2803 4594 
z
" transform="scale(0.015625)"/>
      </defs>
      <use xlink:href="#DejaVuSans-43"/>
      <use xlink:href="#DejaVuSans-79" x="69.824219"/>
      <use xlink:href="#DejaVuSans-63" x="129.003906"/>
      <use xlink:href="#DejaVuSans-6c" x="183.984375"/>
      <use xlink:href="#DejaVuSans-65" x="211.767578"/>
      <use xlink:href="#DejaVuSans-20" x="273.291016"/>
      <use xlink:href="#DejaVuSans-23" x="305.078125"/>
     </g>
    </g>
   </g>
   <g id="matplotlib.axis_2">
    <g id="ytick_1">
     <g id="line2d_1">
      <path d="M 43.148125 273.99006 
L 993.078125 273.99006 
" clip-path="url(#p207ac858da)" style="fill: none; stroke: #dedede; stroke-linecap: square"/>
     </g>
     <g id="text_10">
      <!-- 0 -->
      <g transform="translate(31.058125 277.029435)scale(0.08 -0.08)">
       <use xlink:href="#DejaVuSans-30"/>
      </g>
     </g>
    </g>
    <g id="ytick_2">
     <g id="line2d_2">
      <path d="M 43.148125 225.48862 
L 993.078125 225.48862 
" clip-path="url(#p207ac858da)" style="fill: none; stroke: #dedede; stroke-linecap: square"/>
     </g>
     <g id="text_11">
      <!-- 20 -->
      <g transform="translate(25.968125 228.527995)scale(0.08 -0.08)">
       <use xlink:href="#DejaVuSans-32"/>
       <use xlink:href="#DejaVuSans-30" x="63.623047"/>
      </g>
     </g>
    </g>
    <g id="ytick_3">
     <g id="line2d_3">
      <path d="M 43.148125 176.98718 
L 993.078125 176.98718 
" clip-path="url(#p207ac858da)" style="fill: none; stroke: #dedede; stroke-linecap: square"/>
     </g>
     <g id="text_12">
      <!-- 40 -->
      <g transform="translate(25.968125 180.026555)scale(0.08 -0.08)">
       <use xlink:href="#DejaVuSans-34"/>
       <use xlink:href="#DejaVuSans-30" x="63.623047"/>
      </g>
     </g>
    </g>
    <g id="ytick_4">
     <g id="line2d_4">
      <path d="M 43.148125 128.48574 
L 993.078125 128.48574 
" clip-path="url(#p207ac858da)" style="fill: none; stroke: #dedede; stroke-linecap: square"/>
     </g>
     <g id="text_13">
      <!-- 60 -->
      <g transform="translate(25.968125 131.525115)scale(0.08 -0.08)">
       <use xlink:href="#DejaVuSans-36"/>
       <use xlink:href="#DejaVuSans-30" x="63.623047"/>
      </g>
     </g>
    </g>
    <g id="ytick_5">
     <g id="line2d_5">
      <path d="M 43.148125 79.9843 
L 993.078125 79.9843 
" clip-path="url(#p207ac858da)" style="fill: none; stroke: #dedede; stroke-linecap: square"/>
     </g>
     <g id="text_14">
      <!-- 80 -->
      <g transform="translate(25.968125 83.023675)scale(0.08 -0.08)">
       <defs>
        <path id="DejaVuSans-38" d="M 2034 2216 
Q 1584 2216 1326 1975 
Q 1069 1734 1069 1313 
Q 1069 891 1326 650 
Q 1584 409 2034 409 
Q 2484 409 2743 651 
Q 3003 894 3003 1313 
Q 3003 1734 2745 1975 
Q 2488 2216 2034 2216 
z
M 1403 2484 
Q 997 2584 770 2862 
Q 544 3141 544 3541 
Q 544 4100 942 4425 
Q 1341 4750 2034 4750 
Q 2731 4750 3128 4425 
Q 3525 4100 3525 3541 
Q 3525 3141 3298 2862 
Q 3072 2584 2669 2484 
Q 3125 2378 3379 2068 
Q 3634 1759 3634 1313 
Q 3634 634 3220 271 
Q 2806 -91 2034 -91 
Q 1263 -91 848 271 
Q 434 634 434 1313 
Q 434 1759 690 2068 
Q 947 2378 1403 2484 
z
M 1172 3481 
Q 1172 3119 1398 2916 
Q 1625 2713 2034 2713 
Q 2441 2713 2670 2916 
Q 2900 3119 2900 3481 
Q 2900 3844 2670 4047 
Q 2441 4250 2034 4250 
Q 1625 4250 1398 4047 
Q 1172 3844 1172 3481 
z
" transform="scale(0.015625)"/>
       </defs>
       <use xlink:href="#DejaVuSans-38"/>
       <use xlink:href="#DejaVuSans-30" x="63.623047"/>
      </g>
     </g>
    </g>
    <g id="ytick_6">
     <g id="line2d_6">
      <path d="M 43.148125 31.48286 
L 993.078125 31.48286 
" clip-path="url(#p207ac858da)" style="fill: none; stroke: #dedede; stroke-linecap: square"/>
     </g>
     <g id="text_15">
      <!-- 100 -->
      <g transform="translate(20.878125 34.522235)scale(0.08 -0.08)">
       <use xlink:href="#DejaVuSans-31"/>
       <use xlink:href="#DejaVuSans-30" x="63.623047"/>
       <use xlink:href="#DejaVuSans-30" x="127.246094"/>
      </g>
     </g>
    </g>
    <g id="text_16">
     <!-- % Cytosine -->
     <g transform="translate(14.798437 180.785679)rotate(-90)scale(0.1 -0.1)">
      <defs>
       <path id="DejaVuSans-25" d="M 4653 2053 
Q 4381 2053 4226 1822 
Q 4072 1591 4072 1178 
Q 4072 772 4226 539 
Q 4381 306 4653 306 
Q 4919 306 5073 539 
Q 5228 772 5228 1178 
Q 5228 1588 5073 1820 
Q 4919 2053 4653 2053 
z
M 4653 2450 
Q 5147 2450 5437 2106 
Q 5728 1763 5728 1178 
Q 5728 594 5436 251 
Q 5144 -91 4653 -91 
Q 4153 -91 3862 251 
Q 3572 594 3572 1178 
Q 3572 1766 3864 2108 
Q 4156 2450 4653 2450 
z
M 1428 4353 
Q 1159 4353 1004 4120 
Q 850 3888 850 3481 
Q 850 3069 1003 2837 
Q 1156 2606 1428 2606 
Q 1700 2606 1854 2837 
Q 2009 3069 2009 3481 
Q 2009 3884 1853 4118 
Q 1697 4353 1428 4353 
z
M 4250 4750 
L 4750 4750 
L 1831 -91 
L 1331 -91 
L 4250 4750 
z
M 1428 4750 
Q 1922 4750 2215 4408 
Q 2509 4066 2509 3481 
Q 2509 2891 2217 2550 
Q 1925 2209 1428 2209 
Q 931 2209 642 2551 
Q 353 2894 353 3481 
Q 353 4063 643 4406 
Q 934 4750 1428 4750 
z
" transform="scale(0.015625)"/>
       <path id="DejaVuSans-74" d="M 1172 4494 
L 1172 3500 
L 2356 3500 
L 2356 3053 
L 1172 3053 
L 1172 1153 
Q 1172 725 1289 603 
Q 1406 481 1766 481 
L 2356 481 
L 2356 0 
L 1766 0 
Q 1100 0 847 248 
Q 594 497 594 1153 
L 594 3053 
L 172 3053 
L 172 3500 
L 594 3500 
L 594 4494 
L 1172 4494 
z
" transform="scale(0.015625)"/>
       <path id="DejaVuSans-6f" d="M 1959 3097 
Q 1497 3097 1228 2736 
Q 959 2375 959 1747 
Q 959 1119 1226 758 
Q 1494 397 1959 397 
Q 2419 397 2687 759 
Q 2956 1122 2956 1747 
Q 2956 2369 2687 2733 
Q 2419 3097 1959 3097 
z
M 1959 3584 
Q 2709 3584 3137 3096 
Q 3566 2609 3566 1747 
Q 3566 888 3137 398 
Q 2709 -91 1959 -91 
Q 1206 -91 779 398 
Q 353 888 353 1747 
Q 353 2609 779 3096 
Q 1206 3584 1959 3584 
z
" transform="scale(0.015625)"/>
       <path id="DejaVuSans-73" d="M 2834 3397 
L 2834 2853 
Q 2591 2978 2328 3040 
Q 2066 3103 1784 3103 
Q 1356 3103 1142 2972 
Q 928 2841 928 2578 
Q 928 2378 1081 2264 
Q 1234 2150 1697 2047 
L 1894 2003 
Q 2506 1872 2764 1633 
Q 3022 1394 3022 966 
Q 3022 478 2636 193 
Q 2250 -91 1575 -91 
Q 1294 -91 989 -36 
Q 684 19 347 128 
L 347 722 
Q 666 556 975 473 
Q 1284 391 1588 391 
Q 1994 391 2212 530 
Q 2431 669 2431 922 
Q 2431 1156 2273 1281 
Q 2116 1406 1581 1522 
L 1381 1569 
Q 847 1681 609 1914 
Q 372 2147 372 2553 
Q 372 3047 722 3315 
Q 1072 3584 1716 3584 
Q 2034 3584 2315 3537 
Q 2597 3491 2834 3397 
z
" transform="scale(0.015625)"/>
       <path id="DejaVuSans-69" d="M 603 3500 
L 1178 3500 
L 1178 0 
L 603 0 
L 603 3500 
z
M 603 4863 
L 1178 4863 
L 1178 4134 
L 603 4134 
L 603 4863 
z
" transform="scale(0.015625)"/>
       <path id="DejaVuSans-6e" d="M 3513 2113 
L 3513 0 
L 2938 0 
L 2938 2094 
Q 2938 2591 2744 2837 
Q 2550 3084 2163 3084 
Q 1697 3084 1428 2787 
Q 1159 2491 1159 1978 
L 1159 0 
L 581 0 
L 581 3500 
L 1159 3500 
L 1159 2956 
Q 1366 3272 1645 3428 
Q 1925 3584 2291 3584 
Q 2894 3584 3203 3211 
Q 3513 2838 3513 2113 
z
" transform="scale(0.015625)"/>
      </defs>
      <use xlink:href="#DejaVuSans-25"/>
      <use xlink:href="#DejaVuSans-20" x="95.019531"/>
      <use xlink:href="#DejaVuSans-43" x="126.806641"/>
      <use xlink:href="#DejaVuSans-79" x="196.630859"/>
      <use xlink:href="#DejaVuSans-74" x="255.810547"/>
      <use xlink:href="#DejaVuSans-6f" x="295.019531"/>
      <use xlink:href="#DejaVuSans-73" x="356.201172"/>
      <use xlink:href="#DejaVuSans-69" x="408.300781"/>
      <use xlink:href="#DejaVuSans-6e" x="436.083984"/>
      <use xlink:href="#DejaVuSans-65" x="499.462891"/>
     </g>
    </g>
   </g>
   <g id="line2d_7">
    <path d="M 86.326761 198.576808 
L 97.841064 226.716967 
L 109.355367 223.222955 
L 120.86967 223.534744 
L 132.383973 243.434776 
L 143.898277 222.683513 
L 155.41258 221.609574 
L 166.926883 225.435171 
L 178.441186 202.907206 
L 189.955489 227.597894 
L 201.469792 210.870189 
L 212.984095 223.61393 
L 224.498398 212.443978 
L 236.012701 214.255323 
L 247.527004 218.585718 
L 259.041307 223.46051 
L 270.55561 225.831094 
L 282.069913 224.331538 
L 293.584216 224.697765 
L 305.098519 224.504754 
L 316.612822 223.287292 
L 328.127125 223.251615 
L 339.641428 222.430061 
L 351.155731 223.164368 
L 362.670034 222.653529 
L 374.184337 222.51569 
L 385.69864 223.297109 
L 397.212943 223.897792 
L 408.727246 224.107423 
L 420.241549 223.74994 
L 431.755852 223.896078 
L 443.270155 223.74185 
L 454.784458 222.806486 
L 466.298761 221.821858 
L 477.813064 222.794816 
L 489.327367 223.679662 
L 500.84167 223.502144 
L 512.355973 224.29522 
L 523.870277 223.989824 
L 535.38458 223.660106 
L 546.898883 224.21352 
L 558.413186 223.371998 
L 569.927489 223.217569 
L 581.441792 222.228108 
L 592.956095 224.056234 
L 604.470398 223.567825 
L 615.984701 224.143833 
L 627.499004 224.700248 
L 639.013307 224.06293 
L 650.52761 224.436578 
L 662.041913 224.741278 
L 673.556216 224.627814 
L 685.070519 223.704463 
L 696.584822 223.510916 
L 708.099125 224.241447 
L 719.613428 224.113553 
L 731.127731 223.941589 
L 742.642034 224.430658 
L 754.156337 224.926394 
L 765.67064 224.532269 
L 777.184943 224.377336 
L 788.699246 224.69081 
L 800.213549 224.441658 
L 811.727852 224.352741 
L 823.242155 224.450214 
L 834.756458 224.520919 
L 846.270761 223.554725 
L 857.785064 223.022375 
L 869.299367 224.007449 
L 880.81367 223.707909 
L 892.327973 225.08299 
L 903.842277 225.967919 
L 915.35658 224.64768 
L 926.870883 225.679946 
L 938.385186 227.949935 
L 949.899489 240.799974 
" clip-path="url(#p207ac858da)" style="fill: none; stroke: #7cb5ec; stroke-linecap: square"/>
   </g>
   <g id="line2d_8">
    <path d="M 86.326761 197.819608 
L 97.841064 226.30125 
L 109.355367 223.084384 
L 120.86967 222.866627 
L 132.383973 243.603042 
L 143.898277 223.76735 
L 155.41258 221.852077 
L 166.926883 224.776951 
L 178.441186 204.41666 
L 189.955489 226.212167 
L 201.469792 212.295508 
L 212.984095 223.995004 
L 224.498398 212.107444 
L 236.012701 212.869595 
L 247.527004 219.283532 
L 259.041307 223.10913 
L 270.55561 225.108536 
L 282.069913 225.593538 
L 293.584216 224.668073 
L 305.098519 222.831983 
L 316.612822 223.376375 
L 328.127125 223.291209 
L 339.641428 222.285481 
L 351.155731 223.372245 
L 362.670034 222.450599 
L 374.184337 223.160219 
L 385.69864 222.443663 
L 397.212943 223.479901 
L 408.727246 224.945663 
L 420.241549 223.683375 
L 431.755852 222.857376 
L 443.270155 223.324639 
L 454.784458 223.263418 
L 466.298761 222.37848 
L 477.813064 222.836508 
L 489.327367 223.738346 
L 500.84167 223.403679 
L 512.355973 224.401613 
L 523.870277 224.431849 
L 535.38458 223.344269 
L 546.898883 224.061194 
L 558.413186 223.180781 
L 569.927489 223.54241 
L 581.441792 223.287799 
L 592.956095 223.581502 
L 604.470398 223.767321 
L 615.984701 223.977798 
L 627.499004 225.247711 
L 639.013307 223.900906 
L 650.52761 224.111007 
L 662.041913 223.972305 
L 673.556216 223.74518 
L 685.070519 223.306261 
L 696.584822 223.644894 
L 708.099125 223.388069 
L 719.613428 223.566147 
L 731.127731 224.710948 
L 742.642034 224.432196 
L 754.156337 224.185738 
L 765.67064 225.101346 
L 777.184943 224.230944 
L 788.699246 224.957704 
L 800.213549 223.574346 
L 811.727852 223.834042 
L 823.242155 224.480661 
L 834.756458 223.667975 
L 846.270761 224.13963 
L 857.785064 223.973675 
L 869.299367 223.854143 
L 880.81367 224.307692 
L 892.327973 225.186803 
L 903.842277 223.775319 
L 915.35658 224.438239 
L 926.870883 225.245451 
L 938.385186 228.57538 
L 949.899489 239.736658 
" clip-path="url(#p207ac858da)" style="fill: none; stroke: #434348; stroke-linecap: square"/>
   </g>
   <g id="line2d_9">
    <path d="M 86.326761 197.536721 
L 97.841064 226.471351 
L 109.355367 221.810295 
L 120.86967 223.15749 
L 132.383973 243.654107 
L 143.898277 222.532006 
L 155.41258 220.884099 
L 166.926883 225.599283 
L 178.441186 203.671271 
L 189.955489 226.687864 
L 201.469792 211.66423 
L 212.984095 224.029558 
L 224.498398 210.689919 
L 236.012701 214.521006 
L 247.527004 218.953519 
L 259.041307 222.730479 
L 270.55561 225.563196 
L 282.069913 224.600915 
L 293.584216 224.408459 
L 305.098519 223.307847 
L 316.612822 223.404077 
L 328.127125 223.15749 
L 339.641428 222.219266 
L 351.155731 223.476247 
L 362.670034 223.589267 
L 374.184337 223.157202 
L 385.69864 223.205732 
L 397.212943 224.347182 
L 408.727246 224.127303 
L 420.241549 224.309598 
L 431.755852 224.520087 
L 443.270155 224.115518 
L 454.784458 223.892748 
L 466.298761 222.101456 
L 477.813064 222.771989 
L 489.327367 223.150676 
L 500.84167 222.871856 
L 512.355973 223.563775 
L 523.870277 224.267538 
L 535.38458 223.546928 
L 546.898883 224.517893 
L 558.413186 224.113852 
L 569.927489 223.615543 
L 581.441792 222.480888 
L 592.956095 223.933065 
L 604.470398 223.228511 
L 615.984701 223.541481 
L 627.499004 225.040683 
L 639.013307 224.474731 
L 650.52761 224.273399 
L 662.041913 225.073462 
L 673.556216 224.018216 
L 685.070519 224.402003 
L 696.584822 223.335942 
L 708.099125 224.856084 
L 719.613428 223.419837 
L 731.127731 223.620977 
L 742.642034 224.766227 
L 754.156337 225.022681 
L 765.67064 224.873656 
L 777.184943 223.897875 
L 788.699246 224.378846 
L 800.213549 224.907097 
L 811.727852 223.676291 
L 823.242155 223.682228 
L 834.756458 224.887874 
L 846.270761 224.166958 
L 857.785064 223.716091 
L 869.299367 224.022613 
L 880.81367 224.508537 
L 892.327973 224.800348 
L 903.842277 225.219743 
L 915.35658 225.475498 
L 926.870883 225.805819 
L 938.385186 229.557998 
L 949.899489 241.634044 
" clip-path="url(#p207ac858da)" style="fill: none; stroke: #90ed7d; stroke-linecap: square"/>
   </g>
   <g id="line2d_10">
    <path d="M 86.326761 196.381982 
L 97.841064 226.477366 
L 109.355367 222.279408 
L 120.86967 223.109377 
L 132.383973 242.571538 
L 143.898277 223.12742 
L 155.41258 221.635881 
L 166.926883 224.745258 
L 178.441186 202.522548 
L 189.955489 226.663807 
L 201.469792 211.471774 
L 212.984095 225.057998 
L 224.498398 211.002661 
L 236.012701 214.27442 
L 247.527004 218.863306 
L 259.041307 223.909275 
L 270.55561 225.118142 
L 282.069913 225.250456 
L 293.584216 224.43853 
L 305.098519 223.367989 
L 316.612822 223.938104 
L 328.127125 223.42437 
L 339.641428 221.82187 
L 351.155731 223.825906 
L 362.670034 222.568283 
L 374.184337 223.581294 
L 385.69864 223.513122 
L 397.212943 223.088356 
L 408.727246 224.860798 
L 420.241549 223.723221 
L 431.755852 225.153186 
L 443.270155 223.722496 
L 454.784458 223.39929 
L 466.298761 223.215171 
L 477.813064 223.703476 
L 489.327367 223.357755 
L 500.84167 222.531424 
L 512.355973 223.838945 
L 523.870277 224.885582 
L 535.38458 224.043517 
L 546.898883 224.771948 
L 558.413186 224.376882 
L 569.927489 224.491173 
L 581.441792 222.845178 
L 592.956095 223.395034 
L 604.470398 224.589122 
L 615.984701 224.337853 
L 627.499004 224.503517 
L 639.013307 224.54872 
L 650.52761 224.581738 
L 662.041913 223.792983 
L 673.556216 223.307918 
L 685.070519 223.87522 
L 696.584822 223.665216 
L 708.099125 223.919203 
L 719.613428 224.706384 
L 731.127731 224.97158 
L 742.642034 225.170482 
L 754.156337 224.614064 
L 765.67064 224.698306 
L 777.184943 224.900104 
L 788.699246 224.01308 
L 800.213549 224.134615 
L 811.727852 224.244992 
L 823.242155 225.046959 
L 834.756458 223.585603 
L 846.270761 225.429409 
L 857.785064 225.03177 
L 869.299367 225.158172 
L 880.81367 224.781779 
L 892.327973 225.042179 
L 903.842277 224.716981 
L 915.35658 225.179651 
L 926.870883 225.113949 
L 938.385186 228.590222 
L 949.899489 241.37783 
" clip-path="url(#p207ac858da)" style="fill: none; stroke: #f7a35c; stroke-linecap: square"/>
   </g>
   <g id="line2d_11">
    <path d="M 86.326761 199.752633 
L 97.841064 226.92976 
L 109.355367 223.752606 
L 120.86967 223.830477 
L 132.383973 243.298334 
L 143.898277 223.129636 
L 155.41258 222.53262 
L 166.926883 225.642287 
L 178.441186 203.786372 
L 189.955489 228.108214 
L 201.469792 211.864236 
L 212.984095 223.94988 
L 224.498398 213.271112 
L 236.012701 214.844116 
L 247.527004 219.29317 
L 259.041307 224.038136 
L 270.55561 226.239301 
L 282.069913 225.102379 
L 293.584216 224.998549 
L 305.098519 225.102379 
L 316.612822 223.866817 
L 328.127125 223.742224 
L 339.641428 223.11406 
L 351.155731 223.295761 
L 362.670034 223.010233 
L 374.184337 223.129636 
L 385.69864 223.799329 
L 397.212943 224.588426 
L 408.727246 224.38077 
L 420.241549 224.064091 
L 431.755852 224.159741 
L 443.270155 224.19547 
L 454.784458 223.151602 
L 466.298761 222.791722 
L 477.813064 223.565242 
L 489.327367 223.884576 
L 500.84167 224.480202 
L 512.355973 224.681961 
L 523.870277 224.151792 
L 535.38458 224.411709 
L 546.898883 224.235559 
L 558.413186 224.061945 
L 569.927489 223.662975 
L 581.441792 222.863361 
L 592.956095 224.427161 
L 604.470398 223.950246 
L 615.984701 224.884707 
L 627.499004 225.019698 
L 639.013307 224.598985 
L 650.52761 225.126712 
L 662.041913 225.168045 
L 673.556216 225.308813 
L 685.070519 224.252711 
L 696.584822 223.820646 
L 708.099125 224.663698 
L 719.613428 224.577457 
L 731.127731 224.25072 
L 742.642034 224.929474 
L 754.156337 225.502911 
L 765.67064 225.105677 
L 777.184943 224.952216 
L 788.699246 225.469864 
L 800.213549 224.925797 
L 811.727852 224.783426 
L 823.242155 224.802766 
L 834.756458 224.824369 
L 846.270761 223.817607 
L 857.785064 223.762238 
L 869.299367 224.441508 
L 880.81367 224.190503 
L 892.327973 225.581769 
L 903.842277 226.11935 
L 915.35658 224.952034 
L 926.870883 226.09588 
L 938.385186 228.684067 
L 949.899489 241.152934 
" clip-path="url(#p207ac858da)" style="fill: none; stroke: #8085e9; stroke-linecap: square"/>
   </g>
   <g id="line2d_12">
    <path d="M 86.326761 199.357611 
L 97.841064 226.924898 
L 109.355367 222.619922 
L 120.86967 223.990566 
L 132.383973 243.610703 
L 143.898277 223.379246 
L 155.41258 221.693293 
L 166.926883 226.056181 
L 178.441186 205.490109 
L 189.955489 227.182298 
L 201.469792 213.816923 
L 212.984095 224.029175 
L 224.498398 212.426976 
L 236.012701 215.084608 
L 247.527004 219.68559 
L 259.041307 223.302027 
L 270.55561 225.933919 
L 282.069913 225.367643 
L 293.584216 224.511796 
L 305.098519 224.241529 
L 316.612822 224.47962 
L 328.127125 223.823258 
L 339.641428 223.462902 
L 351.155731 224.376661 
L 362.670034 224.157874 
L 374.184337 224.093525 
L 385.69864 224.447447 
L 397.212943 226.030442 
L 408.727246 224.788499 
L 420.241549 225.277554 
L 431.755852 224.793352 
L 443.270155 224.625629 
L 454.784458 224.428049 
L 466.298761 223.510443 
L 477.813064 223.997361 
L 489.327367 223.732249 
L 500.84167 224.169066 
L 512.355973 224.190639 
L 523.870277 224.520611 
L 535.38458 224.808477 
L 546.898883 225.088255 
L 558.413186 225.334584 
L 569.927489 224.069441 
L 581.441792 223.743514 
L 592.956095 224.376196 
L 604.470398 223.647808 
L 615.984701 224.434696 
L 627.499004 225.751612 
L 639.013307 225.292895 
L 650.52761 225.170012 
L 662.041913 225.644479 
L 673.556216 225.066236 
L 685.070519 225.152313 
L 696.584822 224.528284 
L 708.099125 225.046122 
L 719.613428 224.008409 
L 731.127731 224.193685 
L 742.642034 225.324275 
L 754.156337 226.147871 
L 765.67064 225.226509 
L 777.184943 224.435336 
L 788.699246 225.464806 
L 800.213549 225.744776 
L 811.727852 223.716833 
L 823.242155 224.611687 
L 834.756458 225.285307 
L 846.270761 224.761511 
L 857.785064 224.706204 
L 869.299367 225.126605 
L 880.81367 224.88963 
L 892.327973 225.650263 
L 903.842277 225.052476 
L 915.35658 225.82231 
L 926.870883 226.343295 
L 938.385186 230.44286 
L 949.899489 241.673643 
" clip-path="url(#p207ac858da)" style="fill: none; stroke: #f15c80; stroke-linecap: square"/>
   </g>
   <g id="line2d_13">
    <path d="M 86.326761 197.795826 
L 97.841064 227.602727 
L 109.355367 224.106171 
L 120.86967 224.310474 
L 132.383973 244.374693 
L 143.898277 223.929536 
L 155.41258 223.065505 
L 166.926883 226.210916 
L 178.441186 201.730779 
L 189.955489 229.630856 
L 201.469792 212.599253 
L 212.984095 223.603929 
L 224.498398 213.135548 
L 236.012701 214.208136 
L 247.527004 219.243344 
L 259.041307 223.378344 
L 270.55561 225.493727 
L 282.069913 225.585237 
L 293.584216 226.266246 
L 305.098519 225.00638 
L 316.612822 223.952946 
L 328.127125 223.29109 
L 339.641428 223.118709 
L 351.155731 223.065505 
L 362.670034 223.478366 
L 374.184337 223.852921 
L 385.69864 224.210452 
L 397.212943 224.938279 
L 408.727246 224.919126 
L 420.241549 224.427522 
L 431.755852 224.332273 
L 443.270155 223.898973 
L 454.784458 223.906195 
L 466.298761 223.879704 
L 477.813064 223.537186 
L 489.327367 223.547418 
L 500.84167 224.353771 
L 512.355973 224.098629 
L 523.870277 225.025101 
L 535.38458 224.689311 
L 546.898883 224.821117 
L 558.413186 224.120901 
L 569.927489 223.200788 
L 581.441792 223.653391 
L 592.956095 223.584463 
L 604.470398 223.597229 
L 615.984701 223.679143 
L 627.499004 224.871696 
L 639.013307 224.285935 
L 650.52761 224.230289 
L 662.041913 224.342383 
L 673.556216 223.373858 
L 685.070519 224.624957 
L 696.584822 223.497619 
L 708.099125 223.185175 
L 719.613428 223.720985 
L 731.127731 223.790679 
L 742.642034 224.483292 
L 754.156337 224.892457 
L 765.67064 224.300829 
L 777.184943 224.228679 
L 788.699246 225.086689 
L 800.213549 224.224362 
L 811.727852 223.696802 
L 823.242155 224.58019 
L 834.756458 224.111245 
L 846.270761 223.847455 
L 857.785064 224.527016 
L 869.299367 224.136504 
L 880.81367 224.51897 
L 892.327973 225.39055 
L 903.842277 224.673876 
L 915.35658 224.978382 
L 926.870883 225.43748 
L 938.385186 229.087361 
L 949.899489 240.55623 
" clip-path="url(#p207ac858da)" style="fill: none; stroke: #e4d354; stroke-linecap: square"/>
   </g>
   <g id="line2d_14">
    <path d="M 86.326761 196.946987 
L 97.841064 227.346058 
L 109.355367 223.782536 
L 120.86967 224.021192 
L 132.383973 244.557851 
L 143.898277 223.792733 
L 155.41258 222.672886 
L 166.926883 225.844768 
L 178.441186 200.80016 
L 189.955489 229.21451 
L 201.469792 211.837492 
L 212.984095 223.364378 
L 224.498398 212.37192 
L 236.012701 213.830373 
L 247.527004 218.623894 
L 259.041307 223.042089 
L 270.55561 225.240989 
L 282.069913 225.024772 
L 293.584216 225.989594 
L 305.098519 224.512781 
L 316.612822 223.250148 
L 328.127125 222.895976 
L 339.641428 222.577758 
L 351.155731 222.845296 
L 362.670034 223.134537 
L 374.184337 223.156123 
L 385.69864 223.686134 
L 397.212943 224.432191 
L 408.727246 224.593848 
L 420.241549 223.981057 
L 431.755852 224.054474 
L 443.270155 223.653478 
L 454.784458 223.628747 
L 466.298761 223.060153 
L 477.813064 223.115825 
L 489.327367 223.074432 
L 500.84167 223.561604 
L 512.355973 223.490169 
L 523.870277 224.586838 
L 535.38458 223.936654 
L 546.898883 224.488064 
L 558.413186 223.612907 
L 569.927489 223.095241 
L 581.441792 223.047133 
L 592.956095 222.998389 
L 604.470398 223.321571 
L 615.984701 223.186431 
L 627.499004 224.483704 
L 639.013307 223.794436 
L 650.52761 223.717558 
L 662.041913 223.803566 
L 673.556216 222.883217 
L 685.070519 224.241534 
L 696.584822 222.780423 
L 708.099125 222.930414 
L 719.613428 223.279542 
L 731.127731 223.480311 
L 742.642034 224.195147 
L 754.156337 224.23503 
L 765.67064 223.855104 
L 777.184943 223.709063 
L 788.699246 224.340981 
L 800.213549 223.564046 
L 811.727852 223.349893 
L 823.242155 224.017981 
L 834.756458 223.911841 
L 846.270761 223.659628 
L 857.785064 223.990617 
L 869.299367 223.77074 
L 880.81367 223.915119 
L 892.327973 224.845309 
L 903.842277 224.316575 
L 915.35658 224.429807 
L 926.870883 225.052691 
L 938.385186 228.346662 
L 949.899489 240.168277 
" clip-path="url(#p207ac858da)" style="fill: none; stroke: #2b908f; stroke-linecap: square"/>
   </g>
   <g id="line2d_15">
    <path d="M 86.326761 195.190723 
L 97.841064 226.887103 
L 109.355367 223.23995 
L 120.86967 223.623432 
L 132.383973 244.27228 
L 143.898277 223.382736 
L 155.41258 222.889105 
L 166.926883 225.679546 
L 178.441186 201.279512 
L 189.955489 229.455206 
L 201.469792 211.604957 
L 212.984095 223.678505 
L 224.498398 212.184258 
L 236.012701 213.732463 
L 247.527004 218.776877 
L 259.041307 223.441888 
L 270.55561 225.773374 
L 282.069913 225.859047 
L 293.584216 225.23487 
L 305.098519 224.547459 
L 316.612822 223.354515 
L 328.127125 223.139472 
L 339.641428 222.55841 
L 351.155731 223.225812 
L 362.670034 222.74103 
L 374.184337 223.649639 
L 385.69864 223.181535 
L 397.212943 223.608656 
L 408.727246 224.270283 
L 420.241549 223.844829 
L 431.755852 223.922356 
L 443.270155 223.306569 
L 454.784458 223.111235 
L 466.298761 222.577593 
L 477.813064 222.792731 
L 489.327367 222.855431 
L 500.84167 223.319798 
L 512.355973 223.835584 
L 523.870277 224.029183 
L 535.38458 223.458697 
L 546.898883 224.825836 
L 558.413186 223.536362 
L 569.927489 224.062855 
L 581.441792 222.870418 
L 592.956095 223.087008 
L 604.470398 223.250979 
L 615.984701 222.778255 
L 627.499004 224.061654 
L 639.013307 224.215593 
L 650.52761 224.236395 
L 662.041913 223.949892 
L 673.556216 224.013638 
L 685.070519 223.2496 
L 696.584822 222.750985 
L 708.099125 223.850176 
L 719.613428 223.083177 
L 731.127731 223.658467 
L 742.642034 223.386066 
L 754.156337 223.367834 
L 765.67064 224.161999 
L 777.184943 223.456662 
L 788.699246 224.074092 
L 800.213549 223.526063 
L 811.727852 224.1283 
L 823.242155 223.827936 
L 834.756458 223.503257 
L 846.270761 223.808945 
L 857.785064 224.997565 
L 869.299367 224.271573 
L 880.81367 223.908955 
L 892.327973 224.235804 
L 903.842277 223.944669 
L 915.35658 223.908368 
L 926.870883 225.587946 
L 938.385186 228.695327 
L 949.899489 239.320455 
" clip-path="url(#p207ac858da)" style="fill: none; stroke: #f45b5b; stroke-linecap: square"/>
   </g>
   <g id="line2d_16">
    <path d="M 43.148125 273.99006 
L 993.078125 273.99006 
" clip-path="url(#p207ac858da)" style="fill: none; stroke: #dedede; stroke-width: 2; stroke-linecap: square"/>
   </g>
   <g id="text_17">
    <!-- Picard: Base Distribution -->
    <g transform="translate(419.786875 19.3575)scale(0.16 -0.16)">
     <defs>
      <path id="DejaVuSans-50" d="M 1259 4147 
L 1259 2394 
L 2053 2394 
Q 2494 2394 2734 2622 
Q 2975 2850 2975 3272 
Q 2975 3691 2734 3919 
Q 2494 4147 2053 4147 
L 1259 4147 
z
M 628 4666 
L 2053 4666 
Q 2838 4666 3239 4311 
Q 3641 3956 3641 3272 
Q 3641 2581 3239 2228 
Q 2838 1875 2053 1875 
L 1259 1875 
L 1259 0 
L 628 0 
L 628 4666 
z
" transform="scale(0.015625)"/>
      <path id="DejaVuSans-61" d="M 2194 1759 
Q 1497 1759 1228 1600 
Q 959 1441 959 1056 
Q 959 750 1161 570 
Q 1363 391 1709 391 
Q 2188 391 2477 730 
Q 2766 1069 2766 1631 
L 2766 1759 
L 2194 1759 
z
M 3341 1997 
L 3341 0 
L 2766 0 
L 2766 531 
Q 2569 213 2275 61 
Q 1981 -91 1556 -91 
Q 1019 -91 701 211 
Q 384 513 384 1019 
Q 384 1609 779 1909 
Q 1175 2209 1959 2209 
L 2766 2209 
L 2766 2266 
Q 2766 2663 2505 2880 
Q 2244 3097 1772 3097 
Q 1472 3097 1187 3025 
Q 903 2953 641 2809 
L 641 3341 
Q 956 3463 1253 3523 
Q 1550 3584 1831 3584 
Q 2591 3584 2966 3190 
Q 3341 2797 3341 1997 
z
" transform="scale(0.015625)"/>
      <path id="DejaVuSans-72" d="M 2631 2963 
Q 2534 3019 2420 3045 
Q 2306 3072 2169 3072 
Q 1681 3072 1420 2755 
Q 1159 2438 1159 1844 
L 1159 0 
L 581 0 
L 581 3500 
L 1159 3500 
L 1159 2956 
Q 1341 3275 1631 3429 
Q 1922 3584 2338 3584 
Q 2397 3584 2469 3576 
Q 2541 3569 2628 3553 
L 2631 2963 
z
" transform="scale(0.015625)"/>
      <path id="DejaVuSans-64" d="M 2906 2969 
L 2906 4863 
L 3481 4863 
L 3481 0 
L 2906 0 
L 2906 525 
Q 2725 213 2448 61 
Q 2172 -91 1784 -91 
Q 1150 -91 751 415 
Q 353 922 353 1747 
Q 353 2572 751 3078 
Q 1150 3584 1784 3584 
Q 2172 3584 2448 3432 
Q 2725 3281 2906 2969 
z
M 947 1747 
Q 947 1113 1208 752 
Q 1469 391 1925 391 
Q 2381 391 2643 752 
Q 2906 1113 2906 1747 
Q 2906 2381 2643 2742 
Q 2381 3103 1925 3103 
Q 1469 3103 1208 2742 
Q 947 2381 947 1747 
z
" transform="scale(0.015625)"/>
      <path id="DejaVuSans-3a" d="M 750 794 
L 1409 794 
L 1409 0 
L 750 0 
L 750 794 
z
M 750 3309 
L 1409 3309 
L 1409 2516 
L 750 2516 
L 750 3309 
z
" transform="scale(0.015625)"/>
      <path id="DejaVuSans-42" d="M 1259 2228 
L 1259 519 
L 2272 519 
Q 2781 519 3026 730 
Q 3272 941 3272 1375 
Q 3272 1813 3026 2020 
Q 2781 2228 2272 2228 
L 1259 2228 
z
M 1259 4147 
L 1259 2741 
L 2194 2741 
Q 2656 2741 2882 2914 
Q 3109 3088 3109 3444 
Q 3109 3797 2882 3972 
Q 2656 4147 2194 4147 
L 1259 4147 
z
M 628 4666 
L 2241 4666 
Q 2963 4666 3353 4366 
Q 3744 4066 3744 3513 
Q 3744 3084 3544 2831 
Q 3344 2578 2956 2516 
Q 3422 2416 3680 2098 
Q 3938 1781 3938 1306 
Q 3938 681 3513 340 
Q 3088 0 2303 0 
L 628 0 
L 628 4666 
z
" transform="scale(0.015625)"/>
      <path id="DejaVuSans-44" d="M 1259 4147 
L 1259 519 
L 2022 519 
Q 2988 519 3436 956 
Q 3884 1394 3884 2338 
Q 3884 3275 3436 3711 
Q 2988 4147 2022 4147 
L 1259 4147 
z
M 628 4666 
L 1925 4666 
Q 3281 4666 3915 4102 
Q 4550 3538 4550 2338 
Q 4550 1131 3912 565 
Q 3275 0 1925 0 
L 628 0 
L 628 4666 
z
" transform="scale(0.015625)"/>
      <path id="DejaVuSans-62" d="M 3116 1747 
Q 3116 2381 2855 2742 
Q 2594 3103 2138 3103 
Q 1681 3103 1420 2742 
Q 1159 2381 1159 1747 
Q 1159 1113 1420 752 
Q 1681 391 2138 391 
Q 2594 391 2855 752 
Q 3116 1113 3116 1747 
z
M 1159 2969 
Q 1341 3281 1617 3432 
Q 1894 3584 2278 3584 
Q 2916 3584 3314 3078 
Q 3713 2572 3713 1747 
Q 3713 922 3314 415 
Q 2916 -91 2278 -91 
Q 1894 -91 1617 61 
Q 1341 213 1159 525 
L 1159 0 
L 581 0 
L 581 4863 
L 1159 4863 
L 1159 2969 
z
" transform="scale(0.015625)"/>
      <path id="DejaVuSans-75" d="M 544 1381 
L 544 3500 
L 1119 3500 
L 1119 1403 
Q 1119 906 1312 657 
Q 1506 409 1894 409 
Q 2359 409 2629 706 
Q 2900 1003 2900 1516 
L 2900 3500 
L 3475 3500 
L 3475 0 
L 2900 0 
L 2900 538 
Q 2691 219 2414 64 
Q 2138 -91 1772 -91 
Q 1169 -91 856 284 
Q 544 659 544 1381 
z
M 1991 3584 
L 1991 3584 
z
" transform="scale(0.015625)"/>
     </defs>
     <use xlink:href="#DejaVuSans-50"/>
     <use xlink:href="#DejaVuSans-69" x="58.052734"/>
     <use xlink:href="#DejaVuSans-63" x="85.835938"/>
     <use xlink:href="#DejaVuSans-61" x="140.816406"/>
     <use xlink:href="#DejaVuSans-72" x="202.095703"/>
     <use xlink:href="#DejaVuSans-64" x="241.458984"/>
     <use xlink:href="#DejaVuSans-3a" x="304.935547"/>
     <use xlink:href="#DejaVuSans-20" x="338.626953"/>
     <use xlink:href="#DejaVuSans-42" x="370.414062"/>
     <use xlink:href="#DejaVuSans-61" x="439.017578"/>
     <use xlink:href="#DejaVuSans-73" x="500.296875"/>
     <use xlink:href="#DejaVuSans-65" x="552.396484"/>
     <use xlink:href="#DejaVuSans-20" x="613.919922"/>
     <use xlink:href="#DejaVuSans-44" x="645.707031"/>
     <use xlink:href="#DejaVuSans-69" x="722.708984"/>
     <use xlink:href="#DejaVuSans-73" x="750.492188"/>
     <use xlink:href="#DejaVuSans-74" x="802.591797"/>
     <use xlink:href="#DejaVuSans-72" x="841.800781"/>
     <use xlink:href="#DejaVuSans-69" x="882.914062"/>
     <use xlink:href="#DejaVuSans-62" x="910.697266"/>
     <use xlink:href="#DejaVuSans-75" x="974.173828"/>
     <use xlink:href="#DejaVuSans-74" x="1037.552734"/>
     <use xlink:href="#DejaVuSans-69" x="1076.761719"/>
     <use xlink:href="#DejaVuSans-6f" x="1104.544922"/>
     <use xlink:href="#DejaVuSans-6e" x="1165.726562"/>
    </g>
   </g>
   <g id="legend_1">
    <g id="line2d_17">
     <path d="M 50.348125 303.490394 
L 58.348125 303.490394 
L 66.348125 303.490394 
" style="fill: none; stroke: #7cb5ec; stroke-linecap: square"/>
    </g>
    <g id="text_18">
     <!-- OSMOTIC_STRESS_T0_PE_REP1_R1 -->
     <g transform="translate(72.748125 306.290394)scale(0.08 -0.08)">
      <defs>
       <path id="DejaVuSans-4f" d="M 2522 4238 
Q 1834 4238 1429 3725 
Q 1025 3213 1025 2328 
Q 1025 1447 1429 934 
Q 1834 422 2522 422 
Q 3209 422 3611 934 
Q 4013 1447 4013 2328 
Q 4013 3213 3611 3725 
Q 3209 4238 2522 4238 
z
M 2522 4750 
Q 3503 4750 4090 4092 
Q 4678 3434 4678 2328 
Q 4678 1225 4090 567 
Q 3503 -91 2522 -91 
Q 1538 -91 948 565 
Q 359 1222 359 2328 
Q 359 3434 948 4092 
Q 1538 4750 2522 4750 
z
" transform="scale(0.015625)"/>
       <path id="DejaVuSans-53" d="M 3425 4513 
L 3425 3897 
Q 3066 4069 2747 4153 
Q 2428 4238 2131 4238 
Q 1616 4238 1336 4038 
Q 1056 3838 1056 3469 
Q 1056 3159 1242 3001 
Q 1428 2844 1947 2747 
L 2328 2669 
Q 3034 2534 3370 2195 
Q 3706 1856 3706 1288 
Q 3706 609 3251 259 
Q 2797 -91 1919 -91 
Q 1588 -91 1214 -16 
Q 841 59 441 206 
L 441 856 
Q 825 641 1194 531 
Q 1563 422 1919 422 
Q 2459 422 2753 634 
Q 3047 847 3047 1241 
Q 3047 1584 2836 1778 
Q 2625 1972 2144 2069 
L 1759 2144 
Q 1053 2284 737 2584 
Q 422 2884 422 3419 
Q 422 4038 858 4394 
Q 1294 4750 2059 4750 
Q 2388 4750 2728 4690 
Q 3069 4631 3425 4513 
z
" transform="scale(0.015625)"/>
       <path id="DejaVuSans-4d" d="M 628 4666 
L 1569 4666 
L 2759 1491 
L 3956 4666 
L 4897 4666 
L 4897 0 
L 4281 0 
L 4281 4097 
L 3078 897 
L 2444 897 
L 1241 4097 
L 1241 0 
L 628 0 
L 628 4666 
z
" transform="scale(0.015625)"/>
       <path id="DejaVuSans-54" d="M -19 4666 
L 3928 4666 
L 3928 4134 
L 2272 4134 
L 2272 0 
L 1638 0 
L 1638 4134 
L -19 4134 
L -19 4666 
z
" transform="scale(0.015625)"/>
       <path id="DejaVuSans-49" d="M 628 4666 
L 1259 4666 
L 1259 0 
L 628 0 
L 628 4666 
z
" transform="scale(0.015625)"/>
       <path id="DejaVuSans-5f" d="M 3263 -1063 
L 3263 -1509 
L -63 -1509 
L -63 -1063 
L 3263 -1063 
z
" transform="scale(0.015625)"/>
       <path id="DejaVuSans-52" d="M 2841 2188 
Q 3044 2119 3236 1894 
Q 3428 1669 3622 1275 
L 4263 0 
L 3584 0 
L 2988 1197 
Q 2756 1666 2539 1819 
Q 2322 1972 1947 1972 
L 1259 1972 
L 1259 0 
L 628 0 
L 628 4666 
L 2053 4666 
Q 2853 4666 3247 4331 
Q 3641 3997 3641 3322 
Q 3641 2881 3436 2590 
Q 3231 2300 2841 2188 
z
M 1259 4147 
L 1259 2491 
L 2053 2491 
Q 2509 2491 2742 2702 
Q 2975 2913 2975 3322 
Q 2975 3731 2742 3939 
Q 2509 4147 2053 4147 
L 1259 4147 
z
" transform="scale(0.015625)"/>
       <path id="DejaVuSans-45" d="M 628 4666 
L 3578 4666 
L 3578 4134 
L 1259 4134 
L 1259 2753 
L 3481 2753 
L 3481 2222 
L 1259 2222 
L 1259 531 
L 3634 531 
L 3634 0 
L 628 0 
L 628 4666 
z
" transform="scale(0.015625)"/>
      </defs>
      <use xlink:href="#DejaVuSans-4f"/>
      <use xlink:href="#DejaVuSans-53" x="78.710938"/>
      <use xlink:href="#DejaVuSans-4d" x="142.1875"/>
      <use xlink:href="#DejaVuSans-4f" x="228.466797"/>
      <use xlink:href="#DejaVuSans-54" x="307.177734"/>
      <use xlink:href="#DejaVuSans-49" x="368.261719"/>
      <use xlink:href="#DejaVuSans-43" x="397.753906"/>
      <use xlink:href="#DejaVuSans-5f" x="467.578125"/>
      <use xlink:href="#DejaVuSans-53" x="517.578125"/>
      <use xlink:href="#DejaVuSans-54" x="581.054688"/>
      <use xlink:href="#DejaVuSans-52" x="642.138672"/>
      <use xlink:href="#DejaVuSans-45" x="711.621094"/>
      <use xlink:href="#DejaVuSans-53" x="774.804688"/>
      <use xlink:href="#DejaVuSans-53" x="838.28125"/>
      <use xlink:href="#DejaVuSans-5f" x="901.757812"/>
      <use xlink:href="#DejaVuSans-54" x="951.757812"/>
      <use xlink:href="#DejaVuSans-30" x="1012.841797"/>
      <use xlink:href="#DejaVuSans-5f" x="1076.464844"/>
      <use xlink:href="#DejaVuSans-50" x="1126.464844"/>
      <use xlink:href="#DejaVuSans-45" x="1186.767578"/>
      <use xlink:href="#DejaVuSans-5f" x="1249.951172"/>
      <use xlink:href="#DejaVuSans-52" x="1299.951172"/>
      <use xlink:href="#DejaVuSans-45" x="1369.433594"/>
      <use xlink:href="#DejaVuSans-50" x="1432.617188"/>
      <use xlink:href="#DejaVuSans-31" x="1492.919922"/>
      <use xlink:href="#DejaVuSans-5f" x="1556.542969"/>
      <use xlink:href="#DejaVuSans-52" x="1606.542969"/>
      <use xlink:href="#DejaVuSans-31" x="1676.025391"/>
     </g>
    </g>
    <g id="line2d_18">
     <path d="M 50.348125 315.455394 
L 58.348125 315.455394 
L 66.348125 315.455394 
" style="fill: none; stroke: #434348; stroke-linecap: square"/>
    </g>
    <g id="text_19">
     <!-- OSMOTIC_STRESS_T0_PE_REP1_R2 -->
     <g transform="translate(72.748125 318.255394)scale(0.08 -0.08)">
      <use xlink:href="#DejaVuSans-4f"/>
      <use xlink:href="#DejaVuSans-53" x="78.710938"/>
      <use xlink:href="#DejaVuSans-4d" x="142.1875"/>
      <use xlink:href="#DejaVuSans-4f" x="228.466797"/>
      <use xlink:href="#DejaVuSans-54" x="307.177734"/>
      <use xlink:href="#DejaVuSans-49" x="368.261719"/>
      <use xlink:href="#DejaVuSans-43" x="397.753906"/>
      <use xlink:href="#DejaVuSans-5f" x="467.578125"/>
      <use xlink:href="#DejaVuSans-53" x="517.578125"/>
      <use xlink:href="#DejaVuSans-54" x="581.054688"/>
      <use xlink:href="#DejaVuSans-52" x="642.138672"/>
      <use xlink:href="#DejaVuSans-45" x="711.621094"/>
      <use xlink:href="#DejaVuSans-53" x="774.804688"/>
      <use xlink:href="#DejaVuSans-53" x="838.28125"/>
      <use xlink:href="#DejaVuSans-5f" x="901.757812"/>
      <use xlink:href="#DejaVuSans-54" x="951.757812"/>
      <use xlink:href="#DejaVuSans-30" x="1012.841797"/>
      <use xlink:href="#DejaVuSans-5f" x="1076.464844"/>
      <use xlink:href="#DejaVuSans-50" x="1126.464844"/>
      <use xlink:href="#DejaVuSans-45" x="1186.767578"/>
      <use xlink:href="#DejaVuSans-5f" x="1249.951172"/>
      <use xlink:href="#DejaVuSans-52" x="1299.951172"/>
      <use xlink:href="#DejaVuSans-45" x="1369.433594"/>
      <use xlink:href="#DejaVuSans-50" x="1432.617188"/>
      <use xlink:href="#DejaVuSans-31" x="1492.919922"/>
      <use xlink:href="#DejaVuSans-5f" x="1556.542969"/>
      <use xlink:href="#DejaVuSans-52" x="1606.542969"/>
      <use xlink:href="#DejaVuSans-32" x="1676.025391"/>
     </g>
    </g>
    <g id="line2d_19">
     <path d="M 242.345 303.490394 
L 250.345 303.490394 
L 258.345 303.490394 
" style="fill: none; stroke: #90ed7d; stroke-linecap: square"/>
    </g>
    <g id="text_20">
     <!-- OSMOTIC_STRESS_T0_PE_REP2_R1 -->
     <g transform="translate(264.745 306.290394)scale(0.08 -0.08)">
      <use xlink:href="#DejaVuSans-4f"/>
      <use xlink:href="#DejaVuSans-53" x="78.710938"/>
      <use xlink:href="#DejaVuSans-4d" x="142.1875"/>
      <use xlink:href="#DejaVuSans-4f" x="228.466797"/>
      <use xlink:href="#DejaVuSans-54" x="307.177734"/>
      <use xlink:href="#DejaVuSans-49" x="368.261719"/>
      <use xlink:href="#DejaVuSans-43" x="397.753906"/>
      <use xlink:href="#DejaVuSans-5f" x="467.578125"/>
      <use xlink:href="#DejaVuSans-53" x="517.578125"/>
      <use xlink:href="#DejaVuSans-54" x="581.054688"/>
      <use xlink:href="#DejaVuSans-52" x="642.138672"/>
      <use xlink:href="#DejaVuSans-45" x="711.621094"/>
      <use xlink:href="#DejaVuSans-53" x="774.804688"/>
      <use xlink:href="#DejaVuSans-53" x="838.28125"/>
      <use xlink:href="#DejaVuSans-5f" x="901.757812"/>
      <use xlink:href="#DejaVuSans-54" x="951.757812"/>
      <use xlink:href="#DejaVuSans-30" x="1012.841797"/>
      <use xlink:href="#DejaVuSans-5f" x="1076.464844"/>
      <use xlink:href="#DejaVuSans-50" x="1126.464844"/>
      <use xlink:href="#DejaVuSans-45" x="1186.767578"/>
      <use xlink:href="#DejaVuSans-5f" x="1249.951172"/>
      <use xlink:href="#DejaVuSans-52" x="1299.951172"/>
      <use xlink:href="#DejaVuSans-45" x="1369.433594"/>
      <use xlink:href="#DejaVuSans-50" x="1432.617188"/>
      <use xlink:href="#DejaVuSans-32" x="1492.919922"/>
      <use xlink:href="#DejaVuSans-5f" x="1556.542969"/>
      <use xlink:href="#DejaVuSans-52" x="1606.542969"/>
      <use xlink:href="#DejaVuSans-31" x="1676.025391"/>
     </g>
    </g>
    <g id="line2d_20">
     <path d="M 242.345 315.455394 
L 250.345 315.455394 
L 258.345 315.455394 
" style="fill: none; stroke: #f7a35c; stroke-linecap: square"/>
    </g>
    <g id="text_21">
     <!-- OSMOTIC_STRESS_T0_PE_REP2_R2 -->
     <g transform="translate(264.745 318.255394)scale(0.08 -0.08)">
      <use xlink:href="#DejaVuSans-4f"/>
      <use xlink:href="#DejaVuSans-53" x="78.710938"/>
      <use xlink:href="#DejaVuSans-4d" x="142.1875"/>
      <use xlink:href="#DejaVuSans-4f" x="228.466797"/>
      <use xlink:href="#DejaVuSans-54" x="307.177734"/>
      <use xlink:href="#DejaVuSans-49" x="368.261719"/>
      <use xlink:href="#DejaVuSans-43" x="397.753906"/>
      <use xlink:href="#DejaVuSans-5f" x="467.578125"/>
      <use xlink:href="#DejaVuSans-53" x="517.578125"/>
      <use xlink:href="#DejaVuSans-54" x="581.054688"/>
      <use xlink:href="#DejaVuSans-52" x="642.138672"/>
      <use xlink:href="#DejaVuSans-45" x="711.621094"/>
      <use xlink:href="#DejaVuSans-53" x="774.804688"/>
      <use xlink:href="#DejaVuSans-53" x="838.28125"/>
      <use xlink:href="#DejaVuSans-5f" x="901.757812"/>
      <use xlink:href="#DejaVuSans-54" x="951.757812"/>
      <use xlink:href="#DejaVuSans-30" x="1012.841797"/>
      <use xlink:href="#DejaVuSans-5f" x="1076.464844"/>
      <use xlink:href="#DejaVuSans-50" x="1126.464844"/>
      <use xlink:href="#DejaVuSans-45" x="1186.767578"/>
      <use xlink:href="#DejaVuSans-5f" x="1249.951172"/>
      <use xlink:href="#DejaVuSans-52" x="1299.951172"/>
      <use xlink:href="#DejaVuSans-45" x="1369.433594"/>
      <use xlink:href="#DejaVuSans-50" x="1432.617188"/>
      <use xlink:href="#DejaVuSans-32" x="1492.919922"/>
      <use xlink:href="#DejaVuSans-5f" x="1556.542969"/>
      <use xlink:href="#DejaVuSans-52" x="1606.542969"/>
      <use xlink:href="#DejaVuSans-32" x="1676.025391"/>
     </g>
    </g>
    <g id="line2d_21">
     <path d="M 434.341875 303.490394 
L 442.341875 303.490394 
L 450.341875 303.490394 
" style="fill: none; stroke: #8085e9; stroke-linecap: square"/>
    </g>
    <g id="text_22">
     <!-- OSMOTIC_STRESS_T100_SE_REP1 -->
     <g transform="translate(456.741875 306.290394)scale(0.08 -0.08)">
      <use xlink:href="#DejaVuSans-4f"/>
      <use xlink:href="#DejaVuSans-53" x="78.710938"/>
      <use xlink:href="#DejaVuSans-4d" x="142.1875"/>
      <use xlink:href="#DejaVuSans-4f" x="228.466797"/>
      <use xlink:href="#DejaVuSans-54" x="307.177734"/>
      <use xlink:href="#DejaVuSans-49" x="368.261719"/>
      <use xlink:href="#DejaVuSans-43" x="397.753906"/>
      <use xlink:href="#DejaVuSans-5f" x="467.578125"/>
      <use xlink:href="#DejaVuSans-53" x="517.578125"/>
      <use xlink:href="#DejaVuSans-54" x="581.054688"/>
      <use xlink:href="#DejaVuSans-52" x="642.138672"/>
      <use xlink:href="#DejaVuSans-45" x="711.621094"/>
      <use xlink:href="#DejaVuSans-53" x="774.804688"/>
      <use xlink:href="#DejaVuSans-53" x="838.28125"/>
      <use xlink:href="#DejaVuSans-5f" x="901.757812"/>
      <use xlink:href="#DejaVuSans-54" x="951.757812"/>
      <use xlink:href="#DejaVuSans-31" x="1012.841797"/>
      <use xlink:href="#DejaVuSans-30" x="1076.464844"/>
      <use xlink:href="#DejaVuSans-30" x="1140.087891"/>
      <use xlink:href="#DejaVuSans-5f" x="1203.710938"/>
      <use xlink:href="#DejaVuSans-53" x="1253.710938"/>
      <use xlink:href="#DejaVuSans-45" x="1317.1875"/>
      <use xlink:href="#DejaVuSans-5f" x="1380.371094"/>
      <use xlink:href="#DejaVuSans-52" x="1430.371094"/>
      <use xlink:href="#DejaVuSans-45" x="1499.853516"/>
      <use xlink:href="#DejaVuSans-50" x="1563.037109"/>
      <use xlink:href="#DejaVuSans-31" x="1623.339844"/>
     </g>
    </g>
    <g id="line2d_22">
     <path d="M 434.341875 315.455394 
L 442.341875 315.455394 
L 450.341875 315.455394 
" style="fill: none; stroke: #f15c80; stroke-linecap: square"/>
    </g>
    <g id="text_23">
     <!-- OSMOTIC_STRESS_T100_SE_REP2 -->
     <g transform="translate(456.741875 318.255394)scale(0.08 -0.08)">
      <use xlink:href="#DejaVuSans-4f"/>
      <use xlink:href="#DejaVuSans-53" x="78.710938"/>
      <use xlink:href="#DejaVuSans-4d" x="142.1875"/>
      <use xlink:href="#DejaVuSans-4f" x="228.466797"/>
      <use xlink:href="#DejaVuSans-54" x="307.177734"/>
      <use xlink:href="#DejaVuSans-49" x="368.261719"/>
      <use xlink:href="#DejaVuSans-43" x="397.753906"/>
      <use xlink:href="#DejaVuSans-5f" x="467.578125"/>
      <use xlink:href="#DejaVuSans-53" x="517.578125"/>
      <use xlink:href="#DejaVuSans-54" x="581.054688"/>
      <use xlink:href="#DejaVuSans-52" x="642.138672"/>
      <use xlink:href="#DejaVuSans-45" x="711.621094"/>
      <use xlink:href="#DejaVuSans-53" x="774.804688"/>
      <use xlink:href="#DejaVuSans-53" x="838.28125"/>
      <use xlink:href="#DejaVuSans-5f" x="901.757812"/>
      <use xlink:href="#DejaVuSans-54" x="951.757812"/>
      <use xlink:href="#DejaVuSans-31" x="1012.841797"/>
      <use xlink:href="#DejaVuSans-30" x="1076.464844"/>
      <use xlink:href="#DejaVuSans-30" x="1140.087891"/>
      <use xlink:href="#DejaVuSans-5f" x="1203.710938"/>
      <use xlink:href="#DejaVuSans-53" x="1253.710938"/>
      <use xlink:href="#DejaVuSans-45" x="1317.1875"/>
      <use xlink:href="#DejaVuSans-5f" x="1380.371094"/>
      <use xlink:href="#DejaVuSans-52" x="1430.371094"/>
      <use xlink:href="#DejaVuSans-45" x="1499.853516"/>
      <use xlink:href="#DejaVuSans-50" x="1563.037109"/>
      <use xlink:href="#DejaVuSans-32" x="1623.339844"/>
     </g>
    </g>
    <g id="line2d_23">
     <path d="M 622.125 303.490394 
L 630.125 303.490394 
L 638.125 303.490394 
" style="fill: none; stroke: #e4d354; stroke-linecap: square"/>
    </g>
    <g id="text_24">
     <!-- OSMOTIC_STRESS_T150_SE_REP1 -->
     <g transform="translate(644.525 306.290394)scale(0.08 -0.08)">
      <use xlink:href="#DejaVuSans-4f"/>
      <use xlink:href="#DejaVuSans-53" x="78.710938"/>
      <use xlink:href="#DejaVuSans-4d" x="142.1875"/>
      <use xlink:href="#DejaVuSans-4f" x="228.466797"/>
      <use xlink:href="#DejaVuSans-54" x="307.177734"/>
      <use xlink:href="#DejaVuSans-49" x="368.261719"/>
      <use xlink:href="#DejaVuSans-43" x="397.753906"/>
      <use xlink:href="#DejaVuSans-5f" x="467.578125"/>
      <use xlink:href="#DejaVuSans-53" x="517.578125"/>
      <use xlink:href="#DejaVuSans-54" x="581.054688"/>
      <use xlink:href="#DejaVuSans-52" x="642.138672"/>
      <use xlink:href="#DejaVuSans-45" x="711.621094"/>
      <use xlink:href="#DejaVuSans-53" x="774.804688"/>
      <use xlink:href="#DejaVuSans-53" x="838.28125"/>
      <use xlink:href="#DejaVuSans-5f" x="901.757812"/>
      <use xlink:href="#DejaVuSans-54" x="951.757812"/>
      <use xlink:href="#DejaVuSans-31" x="1012.841797"/>
      <use xlink:href="#DejaVuSans-35" x="1076.464844"/>
      <use xlink:href="#DejaVuSans-30" x="1140.087891"/>
      <use xlink:href="#DejaVuSans-5f" x="1203.710938"/>
      <use xlink:href="#DejaVuSans-53" x="1253.710938"/>
      <use xlink:href="#DejaVuSans-45" x="1317.1875"/>
      <use xlink:href="#DejaVuSans-5f" x="1380.371094"/>
      <use xlink:href="#DejaVuSans-52" x="1430.371094"/>
      <use xlink:href="#DejaVuSans-45" x="1499.853516"/>
      <use xlink:href="#DejaVuSans-50" x="1563.037109"/>
      <use xlink:href="#DejaVuSans-31" x="1623.339844"/>
     </g>
    </g>
    <g id="line2d_24">
     <path d="M 622.125 315.455394 
L 630.125 315.455394 
L 638.125 315.455394 
" style="fill: none; stroke: #2b908f; stroke-linecap: square"/>
    </g>
    <g id="text_25">
     <!-- OSMOTIC_STRESS_T15_PE_REP1_R1 -->
     <g transform="translate(644.525 318.255394)scale(0.08 -0.08)">
      <use xlink:href="#DejaVuSans-4f"/>
      <use xlink:href="#DejaVuSans-53" x="78.710938"/>
      <use xlink:href="#DejaVuSans-4d" x="142.1875"/>
      <use xlink:href="#DejaVuSans-4f" x="228.466797"/>
      <use xlink:href="#DejaVuSans-54" x="307.177734"/>
      <use xlink:href="#DejaVuSans-49" x="368.261719"/>
      <use xlink:href="#DejaVuSans-43" x="397.753906"/>
      <use xlink:href="#DejaVuSans-5f" x="467.578125"/>
      <use xlink:href="#DejaVuSans-53" x="517.578125"/>
      <use xlink:href="#DejaVuSans-54" x="581.054688"/>
      <use xlink:href="#DejaVuSans-52" x="642.138672"/>
      <use xlink:href="#DejaVuSans-45" x="711.621094"/>
      <use xlink:href="#DejaVuSans-53" x="774.804688"/>
      <use xlink:href="#DejaVuSans-53" x="838.28125"/>
      <use xlink:href="#DejaVuSans-5f" x="901.757812"/>
      <use xlink:href="#DejaVuSans-54" x="951.757812"/>
      <use xlink:href="#DejaVuSans-31" x="1012.841797"/>
      <use xlink:href="#DejaVuSans-35" x="1076.464844"/>
      <use xlink:href="#DejaVuSans-5f" x="1140.087891"/>
      <use xlink:href="#DejaVuSans-50" x="1190.087891"/>
      <use xlink:href="#DejaVuSans-45" x="1250.390625"/>
      <use xlink:href="#DejaVuSans-5f" x="1313.574219"/>
      <use xlink:href="#DejaVuSans-52" x="1363.574219"/>
      <use xlink:href="#DejaVuSans-45" x="1433.056641"/>
      <use xlink:href="#DejaVuSans-50" x="1496.240234"/>
      <use xlink:href="#DejaVuSans-31" x="1556.542969"/>
      <use xlink:href="#DejaVuSans-5f" x="1620.166016"/>
      <use xlink:href="#DejaVuSans-52" x="1670.166016"/>
      <use xlink:href="#DejaVuSans-31" x="1739.648438"/>
     </g>
    </g>
    <g id="line2d_25">
     <path d="M 819.211875 303.490394 
L 827.211875 303.490394 
L 835.211875 303.490394 
" style="fill: none; stroke: #f45b5b; stroke-linecap: square"/>
    </g>
    <g id="text_26">
     <!-- OSMOTIC_STRESS_T15_PE_REP1_R2 -->
     <g transform="translate(841.611875 306.290394)scale(0.08 -0.08)">
      <use xlink:href="#DejaVuSans-4f"/>
      <use xlink:href="#DejaVuSans-53" x="78.710938"/>
      <use xlink:href="#DejaVuSans-4d" x="142.1875"/>
      <use xlink:href="#DejaVuSans-4f" x="228.466797"/>
      <use xlink:href="#DejaVuSans-54" x="307.177734"/>
      <use xlink:href="#DejaVuSans-49" x="368.261719"/>
      <use xlink:href="#DejaVuSans-43" x="397.753906"/>
      <use xlink:href="#DejaVuSans-5f" x="467.578125"/>
      <use xlink:href="#DejaVuSans-53" x="517.578125"/>
      <use xlink:href="#DejaVuSans-54" x="581.054688"/>
      <use xlink:href="#DejaVuSans-52" x="642.138672"/>
      <use xlink:href="#DejaVuSans-45" x="711.621094"/>
      <use xlink:href="#DejaVuSans-53" x="774.804688"/>
      <use xlink:href="#DejaVuSans-53" x="838.28125"/>
      <use xlink:href="#DejaVuSans-5f" x="901.757812"/>
      <use xlink:href="#DejaVuSans-54" x="951.757812"/>
      <use xlink:href="#DejaVuSans-31" x="1012.841797"/>
      <use xlink:href="#DejaVuSans-35" x="1076.464844"/>
      <use xlink:href="#DejaVuSans-5f" x="1140.087891"/>
      <use xlink:href="#DejaVuSans-50" x="1190.087891"/>
      <use xlink:href="#DejaVuSans-45" x="1250.390625"/>
      <use xlink:href="#DejaVuSans-5f" x="1313.574219"/>
      <use xlink:href="#DejaVuSans-52" x="1363.574219"/>
      <use xlink:href="#DejaVuSans-45" x="1433.056641"/>
      <use xlink:href="#DejaVuSans-50" x="1496.240234"/>
      <use xlink:href="#DejaVuSans-31" x="1556.542969"/>
      <use xlink:href="#DejaVuSans-5f" x="1620.166016"/>
      <use xlink:href="#DejaVuSans-52" x="1670.166016"/>
      <use xlink:href="#DejaVuSans-32" x="1739.648438"/>
     </g>
    </g>
   </g>
  </g>
 </g>
 <defs>
  <clipPath id="p207ac858da">
   <rect x="43.148125" y="31.48286" width="949.93" height="242.5072"/>
  </clipPath>
 </defs>
</svg>
