<?xml version="1.0" encoding="utf-8" standalone="no"?>
<!DOCTYPE svg PUBLIC "-//W3C//DTD SVG 1.1//EN"
  "http://www.w3.org/Graphics/SVG/1.1/DTD/svg11.dtd">
<svg xmlns:xlink="http://www.w3.org/1999/xlink" width="1000.278125pt" height="330.541644pt" viewBox="0 0 1000.278125 330.541644" xmlns="http://www.w3.org/2000/svg" version="1.1">
 <metadata>
  <rdf:RDF xmlns:dc="http://purl.org/dc/elements/1.1/" xmlns:cc="http://creativecommons.org/ns#" xmlns:rdf="http://www.w3.org/1999/02/22-rdf-syntax-ns#">
   <cc:Work>
    <dc:type rdf:resource="http://purl.org/dc/dcmitype/StillImage"/>
    <dc:date>2024-10-25T13:23:53.273710</dc:date>
    <dc:format>image/svg+xml</dc:format>
    <dc:creator>
     <cc:Agent>
      <dc:title>Matplotlib v3.5.3, https://matplotlib.org/</dc:title>
     </cc:Agent>
    </dc:creator>
   </cc:Work>
  </rdf:RDF>
 </metadata>
 <defs>
  <style type="text/css">*{stroke-linejoin: round; stroke-linecap: butt}</style>
 </defs>
 <g id="figure_1">
  <g id="axes_1">
   <g id="patch_1">
    <path d="M 43.148125 273.99006 
L 993.078125 273.99006 
L 993.078125 31.48286 
L 43.148125 31.48286 
z
" style="fill: #ffffff"/>
   </g>
   <g id="matplotlib.axis_1">
    <g id="xtick_1">
     <g id="text_1">
      <!-- 0 -->
      <g transform="translate(72.267458 287.06881)scale(0.08 -0.08)">
       <defs>
        <path id="DejaVuSans-30" d="M 2034 4250 
Q 1547 4250 1301 3770 
Q 1056 3291 1056 2328 
Q 1056 1369 1301 889 
Q 1547 409 2034 409 
Q 2525 409 2770 889 
Q 3016 1369 3016 2328 
Q 3016 3291 2770 3770 
Q 2525 4250 2034 4250 
z
M 2034 4750 
Q 2819 4750 3233 4129 
Q 3647 3509 3647 2328 
Q 3647 1150 3233 529 
Q 2819 -91 2034 -91 
Q 1250 -91 836 529 
Q 422 1150 422 2328 
Q 422 3509 836 4129 
Q 1250 4750 2034 4750 
z
" transform="scale(0.015625)"/>
       </defs>
       <use xlink:href="#DejaVuSans-30"/>
      </g>
     </g>
    </g>
    <g id="xtick_2">
     <g id="text_2">
      <!-- 10 -->
      <g transform="translate(184.865489 287.06881)scale(0.08 -0.08)">
       <defs>
        <path id="DejaVuSans-31" d="M 794 531 
L 1825 531 
L 1825 4091 
L 703 3866 
L 703 4441 
L 1819 4666 
L 2450 4666 
L 2450 531 
L 3481 531 
L 3481 0 
L 794 0 
L 794 531 
z
" transform="scale(0.015625)"/>
       </defs>
       <use xlink:href="#DejaVuSans-31"/>
       <use xlink:href="#DejaVuSans-30" x="63.623047"/>
      </g>
     </g>
    </g>
    <g id="xtick_3">
     <g id="text_3">
      <!-- 20 -->
      <g transform="translate(300.008519 287.06881)scale(0.08 -0.08)">
       <defs>
        <path id="DejaVuSans-32" d="M 1228 531 
L 3431 531 
L 3431 0 
L 469 0 
L 469 531 
Q 828 903 1448 1529 
Q 2069 2156 2228 2338 
Q 2531 2678 2651 2914 
Q 2772 3150 2772 3378 
Q 2772 3750 2511 3984 
Q 2250 4219 1831 4219 
Q 1534 4219 1204 4116 
Q 875 4013 500 3803 
L 500 4441 
Q 881 4594 1212 4672 
Q 1544 4750 1819 4750 
Q 2544 4750 2975 4387 
Q 3406 4025 3406 3419 
Q 3406 3131 3298 2873 
Q 3191 2616 2906 2266 
Q 2828 2175 2409 1742 
Q 1991 1309 1228 531 
z
" transform="scale(0.015625)"/>
       </defs>
       <use xlink:href="#DejaVuSans-32"/>
       <use xlink:href="#DejaVuSans-30" x="63.623047"/>
      </g>
     </g>
    </g>
    <g id="xtick_4">
     <g id="text_4">
      <!-- 30 -->
      <g transform="translate(415.151549 287.06881)scale(0.08 -0.08)">
       <defs>
        <path id="DejaVuSans-33" d="M 2597 2516 
Q 3050 2419 3304 2112 
Q 3559 1806 3559 1356 
Q 3559 666 3084 287 
Q 2609 -91 1734 -91 
Q 1441 -91 1130 -33 
Q 819 25 488 141 
L 488 750 
Q 750 597 1062 519 
Q 1375 441 1716 441 
Q 2309 441 2620 675 
Q 2931 909 2931 1356 
Q 2931 1769 2642 2001 
Q 2353 2234 1838 2234 
L 1294 2234 
L 1294 2753 
L 1863 2753 
Q 2328 2753 2575 2939 
Q 2822 3125 2822 3475 
Q 2822 3834 2567 4026 
Q 2313 4219 1838 4219 
Q 1578 4219 1281 4162 
Q 984 4106 628 3988 
L 628 4550 
Q 988 4650 1302 4700 
Q 1616 4750 1894 4750 
Q 2613 4750 3031 4423 
Q 3450 4097 3450 3541 
Q 3450 3153 3228 2886 
Q 3006 2619 2597 2516 
z
" transform="scale(0.015625)"/>
       </defs>
       <use xlink:href="#DejaVuSans-33"/>
       <use xlink:href="#DejaVuSans-30" x="63.623047"/>
      </g>
     </g>
    </g>
    <g id="xtick_5">
     <g id="text_5">
      <!-- 40 -->
      <g transform="translate(530.29458 287.06881)scale(0.08 -0.08)">
       <defs>
        <path id="DejaVuSans-34" d="M 2419 4116 
L 825 1625 
L 2419 1625 
L 2419 4116 
z
M 2253 4666 
L 3047 4666 
L 3047 1625 
L 3713 1625 
L 3713 1100 
L 3047 1100 
L 3047 0 
L 2419 0 
L 2419 1100 
L 313 1100 
L 313 1709 
L 2253 4666 
z
" transform="scale(0.015625)"/>
       </defs>
       <use xlink:href="#DejaVuSans-34"/>
       <use xlink:href="#DejaVuSans-30" x="63.623047"/>
      </g>
     </g>
    </g>
    <g id="xtick_6">
     <g id="text_6">
      <!-- 50 -->
      <g transform="translate(645.43761 287.06881)scale(0.08 -0.08)">
       <defs>
        <path id="DejaVuSans-35" d="M 691 4666 
L 3169 4666 
L 3169 4134 
L 1269 4134 
L 1269 2991 
Q 1406 3038 1543 3061 
Q 1681 3084 1819 3084 
Q 2600 3084 3056 2656 
Q 3513 2228 3513 1497 
Q 3513 744 3044 326 
Q 2575 -91 1722 -91 
Q 1428 -91 1123 -41 
Q 819 9 494 109 
L 494 744 
Q 775 591 1075 516 
Q 1375 441 1709 441 
Q 2250 441 2565 725 
Q 2881 1009 2881 1497 
Q 2881 1984 2565 2268 
Q 2250 2553 1709 2553 
Q 1456 2553 1204 2497 
Q 953 2441 691 2322 
L 691 4666 
z
" transform="scale(0.015625)"/>
       </defs>
       <use xlink:href="#DejaVuSans-35"/>
       <use xlink:href="#DejaVuSans-30" x="63.623047"/>
      </g>
     </g>
    </g>
    <g id="xtick_7">
     <g id="text_7">
      <!-- 60 -->
      <g transform="translate(760.58064 287.06881)scale(0.08 -0.08)">
       <defs>
        <path id="DejaVuSans-36" d="M 2113 2584 
Q 1688 2584 1439 2293 
Q 1191 2003 1191 1497 
Q 1191 994 1439 701 
Q 1688 409 2113 409 
Q 2538 409 2786 701 
Q 3034 994 3034 1497 
Q 3034 2003 2786 2293 
Q 2538 2584 2113 2584 
z
M 3366 4563 
L 3366 3988 
Q 3128 4100 2886 4159 
Q 2644 4219 2406 4219 
Q 1781 4219 1451 3797 
Q 1122 3375 1075 2522 
Q 1259 2794 1537 2939 
Q 1816 3084 2150 3084 
Q 2853 3084 3261 2657 
Q 3669 2231 3669 1497 
Q 3669 778 3244 343 
Q 2819 -91 2113 -91 
Q 1303 -91 875 529 
Q 447 1150 447 2328 
Q 447 3434 972 4092 
Q 1497 4750 2381 4750 
Q 2619 4750 2861 4703 
Q 3103 4656 3366 4563 
z
" transform="scale(0.015625)"/>
       </defs>
       <use xlink:href="#DejaVuSans-36"/>
       <use xlink:href="#DejaVuSans-30" x="63.623047"/>
      </g>
     </g>
    </g>
    <g id="xtick_8">
     <g id="text_8">
      <!-- 70 -->
      <g transform="translate(875.72367 287.06881)scale(0.08 -0.08)">
       <defs>
        <path id="DejaVuSans-37" d="M 525 4666 
L 3525 4666 
L 3525 4397 
L 1831 0 
L 1172 0 
L 2766 4134 
L 525 4134 
L 525 4666 
z
" transform="scale(0.015625)"/>
       </defs>
       <use xlink:href="#DejaVuSans-37"/>
       <use xlink:href="#DejaVuSans-30" x="63.623047"/>
      </g>
     </g>
    </g>
    <g id="text_9">
     <!-- Cycle # -->
     <g transform="translate(498.668594 300.330997)scale(0.1 -0.1)">
      <defs>
       <path id="DejaVuSans-43" d="M 4122 4306 
L 4122 3641 
Q 3803 3938 3442 4084 
Q 3081 4231 2675 4231 
Q 1875 4231 1450 3742 
Q 1025 3253 1025 2328 
Q 1025 1406 1450 917 
Q 1875 428 2675 428 
Q 3081 428 3442 575 
Q 3803 722 4122 1019 
L 4122 359 
Q 3791 134 3420 21 
Q 3050 -91 2638 -91 
Q 1578 -91 968 557 
Q 359 1206 359 2328 
Q 359 3453 968 4101 
Q 1578 4750 2638 4750 
Q 3056 4750 3426 4639 
Q 3797 4528 4122 4306 
z
" transform="scale(0.015625)"/>
       <path id="DejaVuSans-79" d="M 2059 -325 
Q 1816 -950 1584 -1140 
Q 1353 -1331 966 -1331 
L 506 -1331 
L 506 -850 
L 844 -850 
Q 1081 -850 1212 -737 
Q 1344 -625 1503 -206 
L 1606 56 
L 191 3500 
L 800 3500 
L 1894 763 
L 2988 3500 
L 3597 3500 
L 2059 -325 
z
" transform="scale(0.015625)"/>
       <path id="DejaVuSans-63" d="M 3122 3366 
L 3122 2828 
Q 2878 2963 2633 3030 
Q 2388 3097 2138 3097 
Q 1578 3097 1268 2742 
Q 959 2388 959 1747 
Q 959 1106 1268 751 
Q 1578 397 2138 397 
Q 2388 397 2633 464 
Q 2878 531 3122 666 
L 3122 134 
Q 2881 22 2623 -34 
Q 2366 -91 2075 -91 
Q 1284 -91 818 406 
Q 353 903 353 1747 
Q 353 2603 823 3093 
Q 1294 3584 2113 3584 
Q 2378 3584 2631 3529 
Q 2884 3475 3122 3366 
z
" transform="scale(0.015625)"/>
       <path id="DejaVuSans-6c" d="M 603 4863 
L 1178 4863 
L 1178 0 
L 603 0 
L 603 4863 
z
" transform="scale(0.015625)"/>
       <path id="DejaVuSans-65" d="M 3597 1894 
L 3597 1613 
L 953 1613 
Q 991 1019 1311 708 
Q 1631 397 2203 397 
Q 2534 397 2845 478 
Q 3156 559 3463 722 
L 3463 178 
Q 3153 47 2828 -22 
Q 2503 -91 2169 -91 
Q 1331 -91 842 396 
Q 353 884 353 1716 
Q 353 2575 817 3079 
Q 1281 3584 2069 3584 
Q 2775 3584 3186 3129 
Q 3597 2675 3597 1894 
z
M 3022 2063 
Q 3016 2534 2758 2815 
Q 2500 3097 2075 3097 
Q 1594 3097 1305 2825 
Q 1016 2553 972 2059 
L 3022 2063 
z
" transform="scale(0.015625)"/>
       <path id="DejaVuSans-20" transform="scale(0.015625)"/>
       <path id="DejaVuSans-23" d="M 3272 2816 
L 2363 2816 
L 2100 1772 
L 3016 1772 
L 3272 2816 
z
M 2803 4594 
L 2478 3297 
L 3391 3297 
L 3719 4594 
L 4219 4594 
L 3897 3297 
L 4872 3297 
L 4872 2816 
L 3775 2816 
L 3519 1772 
L 4513 1772 
L 4513 1294 
L 3397 1294 
L 3072 0 
L 2572 0 
L 2894 1294 
L 1978 1294 
L 1656 0 
L 1153 0 
L 1478 1294 
L 494 1294 
L 494 1772 
L 1594 1772 
L 1856 2816 
L 850 2816 
L 850 3297 
L 1978 3297 
L 2297 4594 
L 2803 4594 
z
" transform="scale(0.015625)"/>
      </defs>
      <use xlink:href="#DejaVuSans-43"/>
      <use xlink:href="#DejaVuSans-79" x="69.824219"/>
      <use xlink:href="#DejaVuSans-63" x="129.003906"/>
      <use xlink:href="#DejaVuSans-6c" x="183.984375"/>
      <use xlink:href="#DejaVuSans-65" x="211.767578"/>
      <use xlink:href="#DejaVuSans-20" x="273.291016"/>
      <use xlink:href="#DejaVuSans-23" x="305.078125"/>
     </g>
    </g>
   </g>
   <g id="matplotlib.axis_2">
    <g id="ytick_1">
     <g id="line2d_1">
      <path d="M 43.148125 273.99006 
L 993.078125 273.99006 
" clip-path="url(#p36f2440281)" style="fill: none; stroke: #dedede; stroke-linecap: square"/>
     </g>
     <g id="text_10">
      <!-- 0 -->
      <g transform="translate(31.058125 277.029435)scale(0.08 -0.08)">
       <use xlink:href="#DejaVuSans-30"/>
      </g>
     </g>
    </g>
    <g id="ytick_2">
     <g id="line2d_2">
      <path d="M 43.148125 225.48862 
L 993.078125 225.48862 
" clip-path="url(#p36f2440281)" style="fill: none; stroke: #dedede; stroke-linecap: square"/>
     </g>
     <g id="text_11">
      <!-- 20 -->
      <g transform="translate(25.968125 228.527995)scale(0.08 -0.08)">
       <use xlink:href="#DejaVuSans-32"/>
       <use xlink:href="#DejaVuSans-30" x="63.623047"/>
      </g>
     </g>
    </g>
    <g id="ytick_3">
     <g id="line2d_3">
      <path d="M 43.148125 176.98718 
L 993.078125 176.98718 
" clip-path="url(#p36f2440281)" style="fill: none; stroke: #dedede; stroke-linecap: square"/>
     </g>
     <g id="text_12">
      <!-- 40 -->
      <g transform="translate(25.968125 180.026555)scale(0.08 -0.08)">
       <use xlink:href="#DejaVuSans-34"/>
       <use xlink:href="#DejaVuSans-30" x="63.623047"/>
      </g>
     </g>
    </g>
    <g id="ytick_4">
     <g id="line2d_4">
      <path d="M 43.148125 128.48574 
L 993.078125 128.48574 
" clip-path="url(#p36f2440281)" style="fill: none; stroke: #dedede; stroke-linecap: square"/>
     </g>
     <g id="text_13">
      <!-- 60 -->
      <g transform="translate(25.968125 131.525115)scale(0.08 -0.08)">
       <use xlink:href="#DejaVuSans-36"/>
       <use xlink:href="#DejaVuSans-30" x="63.623047"/>
      </g>
     </g>
    </g>
    <g id="ytick_5">
     <g id="line2d_5">
      <path d="M 43.148125 79.9843 
L 993.078125 79.9843 
" clip-path="url(#p36f2440281)" style="fill: none; stroke: #dedede; stroke-linecap: square"/>
     </g>
     <g id="text_14">
      <!-- 80 -->
      <g transform="translate(25.968125 83.023675)scale(0.08 -0.08)">
       <defs>
        <path id="DejaVuSans-38" d="M 2034 2216 
Q 1584 2216 1326 1975 
Q 1069 1734 1069 1313 
Q 1069 891 1326 650 
Q 1584 409 2034 409 
Q 2484 409 2743 651 
Q 3003 894 3003 1313 
Q 3003 1734 2745 1975 
Q 2488 2216 2034 2216 
z
M 1403 2484 
Q 997 2584 770 2862 
Q 544 3141 544 3541 
Q 544 4100 942 4425 
Q 1341 4750 2034 4750 
Q 2731 4750 3128 4425 
Q 3525 4100 3525 3541 
Q 3525 3141 3298 2862 
Q 3072 2584 2669 2484 
Q 3125 2378 3379 2068 
Q 3634 1759 3634 1313 
Q 3634 634 3220 271 
Q 2806 -91 2034 -91 
Q 1263 -91 848 271 
Q 434 634 434 1313 
Q 434 1759 690 2068 
Q 947 2378 1403 2484 
z
M 1172 3481 
Q 1172 3119 1398 2916 
Q 1625 2713 2034 2713 
Q 2441 2713 2670 2916 
Q 2900 3119 2900 3481 
Q 2900 3844 2670 4047 
Q 2441 4250 2034 4250 
Q 1625 4250 1398 4047 
Q 1172 3844 1172 3481 
z
" transform="scale(0.015625)"/>
       </defs>
       <use xlink:href="#DejaVuSans-38"/>
       <use xlink:href="#DejaVuSans-30" x="63.623047"/>
      </g>
     </g>
    </g>
    <g id="ytick_6">
     <g id="line2d_6">
      <path d="M 43.148125 31.48286 
L 993.078125 31.48286 
" clip-path="url(#p36f2440281)" style="fill: none; stroke: #dedede; stroke-linecap: square"/>
     </g>
     <g id="text_15">
      <!-- 100 -->
      <g transform="translate(20.878125 34.522235)scale(0.08 -0.08)">
       <use xlink:href="#DejaVuSans-31"/>
       <use xlink:href="#DejaVuSans-30" x="63.623047"/>
       <use xlink:href="#DejaVuSans-30" x="127.246094"/>
      </g>
     </g>
    </g>
    <g id="text_16">
     <!-- % Adenine -->
     <g transform="translate(14.798437 179.463022)rotate(-90)scale(0.1 -0.1)">
      <defs>
       <path id="DejaVuSans-25" d="M 4653 2053 
Q 4381 2053 4226 1822 
Q 4072 1591 4072 1178 
Q 4072 772 4226 539 
Q 4381 306 4653 306 
Q 4919 306 5073 539 
Q 5228 772 5228 1178 
Q 5228 1588 5073 1820 
Q 4919 2053 4653 2053 
z
M 4653 2450 
Q 5147 2450 5437 2106 
Q 5728 1763 5728 1178 
Q 5728 594 5436 251 
Q 5144 -91 4653 -91 
Q 4153 -91 3862 251 
Q 3572 594 3572 1178 
Q 3572 1766 3864 2108 
Q 4156 2450 4653 2450 
z
M 1428 4353 
Q 1159 4353 1004 4120 
Q 850 3888 850 3481 
Q 850 3069 1003 2837 
Q 1156 2606 1428 2606 
Q 1700 2606 1854 2837 
Q 2009 3069 2009 3481 
Q 2009 3884 1853 4118 
Q 1697 4353 1428 4353 
z
M 4250 4750 
L 4750 4750 
L 1831 -91 
L 1331 -91 
L 4250 4750 
z
M 1428 4750 
Q 1922 4750 2215 4408 
Q 2509 4066 2509 3481 
Q 2509 2891 2217 2550 
Q 1925 2209 1428 2209 
Q 931 2209 642 2551 
Q 353 2894 353 3481 
Q 353 4063 643 4406 
Q 934 4750 1428 4750 
z
" transform="scale(0.015625)"/>
       <path id="DejaVuSans-41" d="M 2188 4044 
L 1331 1722 
L 3047 1722 
L 2188 4044 
z
M 1831 4666 
L 2547 4666 
L 4325 0 
L 3669 0 
L 3244 1197 
L 1141 1197 
L 716 0 
L 50 0 
L 1831 4666 
z
" transform="scale(0.015625)"/>
       <path id="DejaVuSans-64" d="M 2906 2969 
L 2906 4863 
L 3481 4863 
L 3481 0 
L 2906 0 
L 2906 525 
Q 2725 213 2448 61 
Q 2172 -91 1784 -91 
Q 1150 -91 751 415 
Q 353 922 353 1747 
Q 353 2572 751 3078 
Q 1150 3584 1784 3584 
Q 2172 3584 2448 3432 
Q 2725 3281 2906 2969 
z
M 947 1747 
Q 947 1113 1208 752 
Q 1469 391 1925 391 
Q 2381 391 2643 752 
Q 2906 1113 2906 1747 
Q 2906 2381 2643 2742 
Q 2381 3103 1925 3103 
Q 1469 3103 1208 2742 
Q 947 2381 947 1747 
z
" transform="scale(0.015625)"/>
       <path id="DejaVuSans-6e" d="M 3513 2113 
L 3513 0 
L 2938 0 
L 2938 2094 
Q 2938 2591 2744 2837 
Q 2550 3084 2163 3084 
Q 1697 3084 1428 2787 
Q 1159 2491 1159 1978 
L 1159 0 
L 581 0 
L 581 3500 
L 1159 3500 
L 1159 2956 
Q 1366 3272 1645 3428 
Q 1925 3584 2291 3584 
Q 2894 3584 3203 3211 
Q 3513 2838 3513 2113 
z
" transform="scale(0.015625)"/>
       <path id="DejaVuSans-69" d="M 603 3500 
L 1178 3500 
L 1178 0 
L 603 0 
L 603 3500 
z
M 603 4863 
L 1178 4863 
L 1178 4134 
L 603 4134 
L 603 4863 
z
" transform="scale(0.015625)"/>
      </defs>
      <use xlink:href="#DejaVuSans-25"/>
      <use xlink:href="#DejaVuSans-20" x="95.019531"/>
      <use xlink:href="#DejaVuSans-41" x="126.806641"/>
      <use xlink:href="#DejaVuSans-64" x="193.464844"/>
      <use xlink:href="#DejaVuSans-65" x="256.941406"/>
      <use xlink:href="#DejaVuSans-6e" x="318.464844"/>
      <use xlink:href="#DejaVuSans-69" x="381.84375"/>
      <use xlink:href="#DejaVuSans-6e" x="409.626953"/>
      <use xlink:href="#DejaVuSans-65" x="473.005859"/>
     </g>
    </g>
   </g>
   <g id="line2d_7">
    <path d="M 86.326761 228.077949 
L 97.841064 200.051618 
L 109.355367 203.228894 
L 120.86967 202.867614 
L 132.383973 183.323913 
L 143.898277 203.867318 
L 155.41258 205.099623 
L 166.926883 201.575919 
L 178.441186 223.505052 
L 189.955489 198.477829 
L 201.469792 215.28472 
L 212.984095 203.60502 
L 224.498398 214.47308 
L 236.012701 213.458529 
L 247.527004 207.683016 
L 259.041307 203.837623 
L 270.55561 201.679848 
L 282.069913 202.100515 
L 293.584216 202.323222 
L 305.098519 201.640256 
L 316.612822 202.27868 
L 328.127125 203.568937 
L 339.641428 204.083647 
L 351.155731 204.391182 
L 362.670034 204.454106 
L 374.184337 203.151544 
L 385.69864 204.134993 
L 397.212943 203.44287 
L 408.727246 202.576988 
L 420.241549 203.053491 
L 431.755852 202.405201 
L 443.270155 203.158848 
L 454.784458 203.103646 
L 466.298761 204.110463 
L 477.813064 202.912684 
L 489.327367 202.984464 
L 500.84167 203.767553 
L 512.355973 202.707549 
L 523.870277 202.148784 
L 535.38458 203.338757 
L 546.898883 201.772386 
L 558.413186 201.711589 
L 569.927489 203.853694 
L 581.441792 203.333179 
L 592.956095 201.841833 
L 604.470398 202.393318 
L 615.984701 202.288308 
L 627.499004 201.981856 
L 639.013307 201.809633 
L 650.52761 202.264491 
L 662.041913 202.464528 
L 673.556216 201.865426 
L 685.070519 202.393709 
L 696.584822 203.09051 
L 708.099125 202.286632 
L 719.613428 203.177812 
L 731.127731 202.993492 
L 742.642034 202.76352 
L 754.156337 201.475285 
L 765.67064 202.131168 
L 777.184943 201.884024 
L 788.699246 201.806936 
L 800.213549 201.614232 
L 811.727852 202.534642 
L 823.242155 203.217903 
L 834.756458 201.787334 
L 846.270761 202.235931 
L 857.785064 201.781865 
L 869.299367 201.776133 
L 880.81367 201.525424 
L 892.327973 202.380397 
L 903.842277 201.286823 
L 915.35658 202.100404 
L 926.870883 199.762474 
L 938.385186 196.924626 
L 949.899489 185.145353 
" clip-path="url(#p36f2440281)" style="fill: none; stroke: #7cb5ec; stroke-linecap: square"/>
   </g>
   <g id="line2d_8">
    <path d="M 86.326761 229.681434 
L 97.841064 200.061517 
L 109.355367 203.357568 
L 120.86967 204.41666 
L 132.383973 184.511679 
L 143.898277 204.065279 
L 155.41258 203.85247 
L 166.926883 201.254233 
L 178.441186 222.322233 
L 189.955489 199.685391 
L 201.469792 214.482976 
L 212.984095 203.03588 
L 224.498398 214.092004 
L 236.012701 214.131596 
L 247.527004 207.509801 
L 259.041307 203.654508 
L 270.55561 202.159903 
L 282.069913 200.917698 
L 293.584216 202.011432 
L 305.098519 202.709245 
L 316.612822 203.510988 
L 328.127125 203.989615 
L 339.641428 203.849608 
L 351.155731 204.262496 
L 362.670034 204.206629 
L 374.184337 203.499478 
L 385.69864 202.648977 
L 397.212943 203.848342 
L 408.727246 202.519 
L 420.241549 202.331072 
L 431.755852 202.896727 
L 443.270155 203.511373 
L 454.784458 202.464996 
L 466.298761 203.889934 
L 477.813064 202.773751 
L 489.327367 203.360095 
L 500.84167 202.268854 
L 512.355973 203.264234 
L 523.870277 202.413267 
L 535.38458 203.631713 
L 546.898883 202.634252 
L 558.413186 203.125176 
L 569.927489 203.820471 
L 581.441792 202.348464 
L 592.956095 202.432682 
L 604.470398 202.861151 
L 615.984701 202.834 
L 627.499004 201.606479 
L 639.013307 202.688454 
L 650.52761 201.733299 
L 662.041913 201.658015 
L 673.556216 202.188337 
L 685.070519 203.104701 
L 696.584822 202.557571 
L 708.099125 204.138031 
L 719.613428 202.720136 
L 731.127731 202.129034 
L 742.642034 202.634909 
L 754.156337 202.556397 
L 765.67064 202.741585 
L 777.184943 202.772723 
L 788.699246 201.807474 
L 800.213549 203.005673 
L 811.727852 202.816971 
L 823.242155 202.385117 
L 834.756458 203.025076 
L 846.270761 202.891021 
L 857.785064 201.965373 
L 869.299367 202.304371 
L 880.81367 202.787 
L 892.327973 201.722214 
L 903.842277 202.451251 
L 915.35658 202.281096 
L 926.870883 200.051523 
L 938.385186 197.084673 
L 949.899489 186.252708 
" clip-path="url(#p36f2440281)" style="fill: none; stroke: #434348; stroke-linecap: square"/>
   </g>
   <g id="line2d_9">
    <path d="M 86.326761 227.998975 
L 97.841064 200.122854 
L 109.355367 205.794307 
L 120.86967 203.334472 
L 132.383973 183.367113 
L 143.898277 204.471168 
L 155.41258 205.818364 
L 166.926883 201.548236 
L 178.441186 223.265748 
L 189.955489 201.728664 
L 201.469792 213.991751 
L 212.984095 202.973616 
L 224.498398 215.579516 
L 236.012701 214.322536 
L 247.527004 207.6888 
L 259.041307 205.674021 
L 270.55561 202.354149 
L 282.069913 201.915106 
L 293.584216 202.955574 
L 305.098519 203.851701 
L 316.612822 203.83967 
L 328.127125 204.910211 
L 339.641428 204.026114 
L 351.155731 204.398998 
L 362.670034 203.134246 
L 374.184337 203.18135 
L 385.69864 202.428683 
L 397.212943 203.258291 
L 408.727246 201.996865 
L 420.241549 203.242719 
L 431.755852 203.18944 
L 443.270155 202.9217 
L 454.784458 202.127579 
L 466.298761 204.917998 
L 477.813064 203.691457 
L 489.327367 203.83959 
L 500.84167 204.414531 
L 512.355973 203.086314 
L 523.870277 202.520467 
L 535.38458 202.891683 
L 546.898883 202.576705 
L 558.413186 202.537271 
L 569.927489 202.620892 
L 581.441792 203.199242 
L 592.956095 202.92212 
L 604.470398 205.069696 
L 615.984701 202.155744 
L 627.499004 202.141703 
L 639.013307 202.245127 
L 650.52761 202.587399 
L 662.041913 201.866741 
L 673.556216 202.331804 
L 685.070519 202.787053 
L 696.584822 202.589419 
L 708.099125 201.740414 
L 719.613428 203.434385 
L 731.127731 202.819314 
L 742.642034 202.480415 
L 754.156337 201.689279 
L 765.67064 202.278496 
L 777.184943 201.991802 
L 788.699246 201.839837 
L 800.213549 201.887218 
L 811.727852 201.876695 
L 823.242155 202.561669 
L 834.756458 201.93903 
L 846.270761 201.703361 
L 857.785064 201.261428 
L 869.299367 201.084665 
L 880.81367 200.738311 
L 892.327973 200.718889 
L 903.842277 201.822626 
L 915.35658 200.689189 
L 926.870883 200.169656 
L 938.385186 195.731418 
L 949.899489 184.754555 
" clip-path="url(#p36f2440281)" style="fill: none; stroke: #90ed7d; stroke-linecap: square"/>
   </g>
   <g id="line2d_10">
    <path d="M 86.326761 229.021399 
L 97.841064 201.024996 
L 109.355367 205.415409 
L 120.86967 203.593086 
L 132.383973 183.974552 
L 143.898277 203.099916 
L 155.41258 205.198896 
L 166.926883 201.650477 
L 178.441186 223.337918 
L 189.955489 199.984528 
L 201.469792 214.220293 
L 212.984095 202.492475 
L 224.498398 214.44282 
L 236.012701 213.522638 
L 247.527004 208.530797 
L 259.041307 203.911843 
L 270.55561 201.782792 
L 282.069913 201.518166 
L 293.584216 203.286358 
L 305.098519 202.949559 
L 316.612822 202.598962 
L 328.127125 203.744231 
L 339.641428 203.66255 
L 351.155731 203.5894 
L 362.670034 203.556603 
L 374.184337 203.479159 
L 385.69864 202.223241 
L 397.212943 202.439838 
L 408.727246 202.465229 
L 420.241549 202.216467 
L 431.755852 201.401394 
L 443.270155 202.1439 
L 454.784458 202.662991 
L 466.298761 202.632064 
L 477.813064 202.862684 
L 489.327367 203.371798 
L 500.84167 202.904063 
L 512.355973 203.009956 
L 523.870277 201.373275 
L 535.38458 202.131486 
L 546.898883 201.611218 
L 558.413186 201.557335 
L 569.927489 202.352432 
L 581.441792 203.019351 
L 592.956095 203.811108 
L 604.470398 203.524993 
L 615.984701 202.42475 
L 627.499004 201.28418 
L 639.013307 201.564531 
L 650.52761 202.944183 
L 662.041913 202.275103 
L 673.556216 201.809101 
L 685.070519 201.953432 
L 696.584822 203.549219 
L 708.099125 202.691299 
L 719.613428 203.10618 
L 731.127731 202.628606 
L 742.642034 202.329689 
L 754.156337 200.724098 
L 765.67064 200.658385 
L 777.184943 201.581819 
L 788.699246 200.796134 
L 800.213549 202.49013 
L 811.727852 202.45112 
L 823.242155 201.668059 
L 834.756458 202.290665 
L 846.270761 201.503569 
L 857.785064 200.611497 
L 869.299367 200.920102 
L 880.81367 200.503996 
L 892.327973 200.744888 
L 903.842277 201.332735 
L 915.35658 200.519713 
L 926.870883 200.920611 
L 938.385186 198.246874 
L 949.899489 186.723977 
" clip-path="url(#p36f2440281)" style="fill: none; stroke: #f7a35c; stroke-linecap: square"/>
   </g>
   <g id="line2d_11">
    <path d="M 86.326761 227.184141 
L 97.841064 199.664377 
L 109.355367 202.888256 
L 120.86967 202.587152 
L 132.383973 183.389249 
L 143.898277 203.838288 
L 155.41258 204.492407 
L 166.926883 201.289295 
L 178.441186 222.82334 
L 189.955489 197.857762 
L 201.469792 214.71952 
L 212.984095 203.391825 
L 224.498398 214.044635 
L 236.012701 212.559887 
L 247.527004 207.30616 
L 259.041307 203.298377 
L 270.55561 201.09202 
L 282.069913 201.663078 
L 293.584216 201.652694 
L 305.098519 201.003767 
L 316.612822 202.093967 
L 328.127125 203.246463 
L 339.641428 203.724074 
L 351.155731 204.025178 
L 362.670034 203.978454 
L 374.184337 202.732513 
L 385.69864 203.537184 
L 397.212943 202.618302 
L 408.727246 202.026478 
L 420.241549 203.007657 
L 431.755852 202.192154 
L 443.270155 202.830389 
L 454.784458 202.812053 
L 466.298761 203.48948 
L 477.813064 202.637431 
L 489.327367 202.565205 
L 500.84167 203.484589 
L 512.355973 202.467319 
L 523.870277 202.231816 
L 535.38458 202.910729 
L 546.898883 201.511669 
L 558.413186 201.453714 
L 569.927489 203.401421 
L 581.441792 202.772093 
L 592.956095 201.699331 
L 604.470398 201.687588 
L 615.984701 201.859036 
L 627.499004 202.04259 
L 639.013307 201.529192 
L 650.52761 201.909255 
L 662.041913 202.087783 
L 673.556216 201.527049 
L 685.070519 201.991608 
L 696.584822 202.515234 
L 708.099125 201.812467 
L 719.613428 202.701955 
L 731.127731 202.421563 
L 742.642034 202.383249 
L 754.156337 201.519182 
L 765.67064 201.89297 
L 777.184943 201.191545 
L 788.699246 201.491085 
L 800.213549 200.95852 
L 811.727852 202.290915 
L 823.242155 203.194237 
L 834.756458 201.304604 
L 846.270761 201.726858 
L 857.785064 201.361719 
L 869.299367 201.913595 
L 880.81367 201.606732 
L 892.327973 201.908862 
L 903.842277 201.176885 
L 915.35658 201.722318 
L 926.870883 199.753317 
L 938.385186 196.432343 
L 949.899489 184.90132 
" clip-path="url(#p36f2440281)" style="fill: none; stroke: #8085e9; stroke-linecap: square"/>
   </g>
   <g id="line2d_12">
    <path d="M 86.326761 226.969944 
L 97.841064 199.717967 
L 109.355367 205.187668 
L 120.86967 203.070571 
L 132.383973 183.135123 
L 143.898277 203.881374 
L 155.41258 205.354976 
L 166.926883 201.069304 
L 178.441186 221.931384 
L 189.955489 201.288092 
L 201.469792 213.102645 
L 212.984095 203.289358 
L 224.498398 214.782165 
L 236.012701 213.192734 
L 247.527004 206.796403 
L 259.041307 204.685741 
L 270.55561 201.346007 
L 282.069913 201.66132 
L 293.584216 202.330553 
L 305.098519 203.282924 
L 316.612822 203.064137 
L 328.127125 204.177381 
L 339.641428 203.231445 
L 351.155731 203.321534 
L 362.670034 202.57508 
L 374.184337 202.665169 
L 385.69864 201.63558 
L 397.212943 202.504297 
L 408.727246 201.873671 
L 420.241549 202.729521 
L 431.755852 202.982509 
L 443.270155 202.471207 
L 454.784458 201.702464 
L 466.298761 204.2316 
L 477.813064 203.210107 
L 489.327367 203.068694 
L 500.84167 204.174429 
L 512.355973 202.222799 
L 523.870277 202.510871 
L 535.38458 202.093031 
L 546.898883 201.831133 
L 558.413186 202.255882 
L 569.927489 202.357207 
L 581.441792 203.295603 
L 592.956095 202.846943 
L 604.470398 204.043374 
L 615.984701 201.764861 
L 627.499004 202.434016 
L 639.013307 201.834293 
L 650.52761 202.124434 
L 662.041913 201.42118 
L 673.556216 202.235601 
L 685.070519 202.572842 
L 696.584822 201.994462 
L 708.099125 201.344041 
L 719.613428 202.770921 
L 731.127731 202.373059 
L 742.642034 202.331479 
L 754.156337 201.201534 
L 765.67064 202.112383 
L 777.184943 201.173349 
L 788.699246 201.055326 
L 800.213549 201.393995 
L 811.727852 201.989054 
L 823.242155 202.021283 
L 834.756458 201.445312 
L 846.270761 200.932183 
L 857.785064 200.884147 
L 869.299367 200.606891 
L 880.81367 200.423777 
L 892.327973 199.642739 
L 903.842277 201.66546 
L 915.35658 200.552272 
L 926.870883 200.294382 
L 938.385186 195.358354 
L 949.899489 184.829434 
" clip-path="url(#p36f2440281)" style="fill: none; stroke: #f15c80; stroke-linecap: square"/>
   </g>
   <g id="line2d_13">
    <path d="M 86.326761 228.964745 
L 97.841064 199.58986 
L 109.355367 202.590554 
L 120.86967 202.364969 
L 132.383973 182.464617 
L 143.898277 203.007671 
L 155.41258 203.380097 
L 166.926883 200.68373 
L 178.441186 224.625442 
L 189.955489 197.070128 
L 201.469792 214.071934 
L 212.984095 203.06726 
L 224.498398 213.714406 
L 236.012701 212.552435 
L 247.527004 207.268232 
L 259.041307 203.192821 
L 270.55561 200.217665 
L 282.069913 200.888032 
L 293.584216 201.030617 
L 305.098519 201.756317 
L 316.612822 202.707603 
L 328.127125 202.922544 
L 339.641428 203.592914 
L 351.155731 203.233257 
L 362.670034 203.533325 
L 374.184337 202.886367 
L 385.69864 202.19259 
L 397.212943 201.74142 
L 408.727246 201.886136 
L 420.241549 202.309636 
L 431.755852 203.016911 
L 443.270155 202.726409 
L 454.784458 202.54239 
L 466.298761 202.705141 
L 477.813064 202.935652 
L 489.327367 203.006199 
L 500.84167 202.324589 
L 512.355973 202.477505 
L 523.870277 201.959286 
L 535.38458 202.230203 
L 546.898883 202.463473 
L 558.413186 202.281224 
L 569.927489 203.321738 
L 581.441792 203.258516 
L 592.956095 202.687036 
L 604.470398 203.232893 
L 615.984701 202.734225 
L 627.499004 202.238972 
L 639.013307 202.646794 
L 650.52761 202.297729 
L 662.041913 202.30223 
L 673.556216 203.072234 
L 685.070519 202.314038 
L 696.584822 203.551729 
L 708.099125 202.716277 
L 719.613428 202.740948 
L 731.127731 202.705862 
L 742.642034 202.341887 
L 754.156337 202.231835 
L 765.67064 201.672672 
L 777.184943 201.797173 
L 788.699246 201.558427 
L 800.213549 201.729612 
L 811.727852 202.330232 
L 823.242155 201.996831 
L 834.756458 202.672885 
L 846.270761 202.533417 
L 857.785064 202.234076 
L 869.299367 201.920121 
L 880.81367 202.308838 
L 892.327973 201.039034 
L 903.842277 201.823118 
L 915.35658 201.256241 
L 926.870883 201.264891 
L 938.385186 197.314378 
L 949.899489 186.35549 
" clip-path="url(#p36f2440281)" style="fill: none; stroke: #e4d354; stroke-linecap: square"/>
   </g>
   <g id="line2d_14">
    <path d="M 86.326761 229.551076 
L 97.841064 199.702749 
L 109.355367 202.935826 
L 120.86967 202.50339 
L 132.383973 182.272697 
L 143.898277 203.18264 
L 155.41258 203.613037 
L 166.926883 201.040856 
L 178.441186 225.457208 
L 189.955489 197.440618 
L 201.469792 214.634054 
L 212.984095 203.080652 
L 224.498398 214.197536 
L 236.012701 213.340823 
L 247.527004 207.598798 
L 259.041307 203.645674 
L 270.55561 200.88583 
L 282.069913 201.028616 
L 293.584216 201.485531 
L 305.098519 202.066872 
L 316.612822 203.256074 
L 328.127125 203.272647 
L 339.641428 203.896841 
L 351.155731 203.47426 
L 362.670034 203.736818 
L 374.184337 203.276643 
L 385.69864 202.565993 
L 397.212943 201.907557 
L 408.727246 202.304194 
L 420.241549 202.648431 
L 431.755852 203.210514 
L 443.270155 202.904407 
L 454.784458 202.776751 
L 466.298761 203.216349 
L 477.813064 203.219732 
L 489.327367 203.431741 
L 500.84167 202.67977 
L 512.355973 202.99387 
L 523.870277 202.131391 
L 535.38458 202.684637 
L 546.898883 202.88685 
L 558.413186 202.454248 
L 569.927489 203.60266 
L 581.441792 203.652704 
L 592.956095 203.035683 
L 604.470398 203.828522 
L 615.984701 203.116509 
L 627.499004 202.483812 
L 639.013307 203.059626 
L 650.52761 202.662441 
L 662.041913 202.819272 
L 673.556216 203.297293 
L 685.070519 202.589063 
L 696.584822 203.830874 
L 708.099125 202.995071 
L 719.613428 203.276149 
L 731.127731 203.182507 
L 742.642034 202.834754 
L 754.156337 202.411133 
L 765.67064 202.068444 
L 777.184943 202.395831 
L 788.699246 201.884429 
L 800.213549 202.293742 
L 811.727852 202.606029 
L 823.242155 202.443413 
L 834.756458 202.827338 
L 846.270761 202.756871 
L 857.785064 202.726901 
L 869.299367 202.047062 
L 880.81367 202.578773 
L 892.327973 201.546374 
L 903.842277 202.246274 
L 915.35658 201.660187 
L 926.870883 201.285785 
L 938.385186 197.598711 
L 949.899489 186.449702 
" clip-path="url(#p36f2440281)" style="fill: none; stroke: #2b908f; stroke-linecap: square"/>
   </g>
   <g id="line2d_15">
    <path d="M 86.326761 231.050326 
L 97.841064 199.321307 
L 109.355367 202.835877 
L 120.86967 202.864432 
L 132.383973 182.603145 
L 143.898277 202.886871 
L 155.41258 203.763984 
L 166.926883 201.338667 
L 178.441186 225.950839 
L 189.955489 197.450815 
L 201.469792 214.889028 
L 212.984095 203.38866 
L 224.498398 214.179178 
L 236.012701 213.928282 
L 247.527004 207.837455 
L 259.041307 203.178561 
L 270.55561 201.481452 
L 282.069913 201.116329 
L 293.584216 202.070953 
L 305.098519 202.401399 
L 316.612822 202.972193 
L 328.127125 203.827756 
L 339.641428 203.668317 
L 351.155731 203.368105 
L 362.670034 203.403046 
L 374.184337 203.548152 
L 385.69864 202.714468 
L 397.212943 203.708799 
L 408.727246 202.930011 
L 420.241549 202.264707 
L 431.755852 202.202305 
L 443.270155 203.051982 
L 454.784458 202.766658 
L 466.298761 203.476916 
L 477.813064 203.262377 
L 489.327367 203.392458 
L 500.84167 202.447713 
L 512.355973 203.051905 
L 523.870277 202.94818 
L 535.38458 202.323915 
L 546.898883 202.041035 
L 558.413186 202.556116 
L 569.927489 202.809929 
L 581.441792 202.669311 
L 592.956095 203.565322 
L 604.470398 203.303297 
L 615.984701 202.717968 
L 627.499004 202.331452 
L 639.013307 201.922098 
L 650.52761 202.714774 
L 662.041913 202.108447 
L 673.556216 202.243012 
L 685.070519 203.452907 
L 696.584822 202.885734 
L 708.099125 202.349386 
L 719.613428 203.653871 
L 731.127731 203.290927 
L 742.642034 202.986064 
L 754.156337 202.591502 
L 765.67064 201.85504 
L 777.184943 202.888562 
L 788.699246 202.483036 
L 800.213549 202.391589 
L 811.727852 202.649311 
L 823.242155 202.376168 
L 834.756458 202.688081 
L 846.270761 201.952258 
L 857.785064 201.280322 
L 869.299367 202.825553 
L 880.81367 202.667332 
L 892.327973 201.8174 
L 903.842277 201.785624 
L 915.35658 202.442479 
L 926.870883 200.441911 
L 938.385186 197.325238 
L 949.899489 185.943827 
" clip-path="url(#p36f2440281)" style="fill: none; stroke: #f45b5b; stroke-linecap: square"/>
   </g>
   <g id="line2d_16">
    <path d="M 43.148125 273.99006 
L 993.078125 273.99006 
" clip-path="url(#p36f2440281)" style="fill: none; stroke: #dedede; stroke-width: 2; stroke-linecap: square"/>
   </g>
   <g id="text_17">
    <!-- Picard: Base Distribution -->
    <g transform="translate(419.786875 19.3575)scale(0.16 -0.16)">
     <defs>
      <path id="DejaVuSans-50" d="M 1259 4147 
L 1259 2394 
L 2053 2394 
Q 2494 2394 2734 2622 
Q 2975 2850 2975 3272 
Q 2975 3691 2734 3919 
Q 2494 4147 2053 4147 
L 1259 4147 
z
M 628 4666 
L 2053 4666 
Q 2838 4666 3239 4311 
Q 3641 3956 3641 3272 
Q 3641 2581 3239 2228 
Q 2838 1875 2053 1875 
L 1259 1875 
L 1259 0 
L 628 0 
L 628 4666 
z
" transform="scale(0.015625)"/>
      <path id="DejaVuSans-61" d="M 2194 1759 
Q 1497 1759 1228 1600 
Q 959 1441 959 1056 
Q 959 750 1161 570 
Q 1363 391 1709 391 
Q 2188 391 2477 730 
Q 2766 1069 2766 1631 
L 2766 1759 
L 2194 1759 
z
M 3341 1997 
L 3341 0 
L 2766 0 
L 2766 531 
Q 2569 213 2275 61 
Q 1981 -91 1556 -91 
Q 1019 -91 701 211 
Q 384 513 384 1019 
Q 384 1609 779 1909 
Q 1175 2209 1959 2209 
L 2766 2209 
L 2766 2266 
Q 2766 2663 2505 2880 
Q 2244 3097 1772 3097 
Q 1472 3097 1187 3025 
Q 903 2953 641 2809 
L 641 3341 
Q 956 3463 1253 3523 
Q 1550 3584 1831 3584 
Q 2591 3584 2966 3190 
Q 3341 2797 3341 1997 
z
" transform="scale(0.015625)"/>
      <path id="DejaVuSans-72" d="M 2631 2963 
Q 2534 3019 2420 3045 
Q 2306 3072 2169 3072 
Q 1681 3072 1420 2755 
Q 1159 2438 1159 1844 
L 1159 0 
L 581 0 
L 581 3500 
L 1159 3500 
L 1159 2956 
Q 1341 3275 1631 3429 
Q 1922 3584 2338 3584 
Q 2397 3584 2469 3576 
Q 2541 3569 2628 3553 
L 2631 2963 
z
" transform="scale(0.015625)"/>
      <path id="DejaVuSans-3a" d="M 750 794 
L 1409 794 
L 1409 0 
L 750 0 
L 750 794 
z
M 750 3309 
L 1409 3309 
L 1409 2516 
L 750 2516 
L 750 3309 
z
" transform="scale(0.015625)"/>
      <path id="DejaVuSans-42" d="M 1259 2228 
L 1259 519 
L 2272 519 
Q 2781 519 3026 730 
Q 3272 941 3272 1375 
Q 3272 1813 3026 2020 
Q 2781 2228 2272 2228 
L 1259 2228 
z
M 1259 4147 
L 1259 2741 
L 2194 2741 
Q 2656 2741 2882 2914 
Q 3109 3088 3109 3444 
Q 3109 3797 2882 3972 
Q 2656 4147 2194 4147 
L 1259 4147 
z
M 628 4666 
L 2241 4666 
Q 2963 4666 3353 4366 
Q 3744 4066 3744 3513 
Q 3744 3084 3544 2831 
Q 3344 2578 2956 2516 
Q 3422 2416 3680 2098 
Q 3938 1781 3938 1306 
Q 3938 681 3513 340 
Q 3088 0 2303 0 
L 628 0 
L 628 4666 
z
" transform="scale(0.015625)"/>
      <path id="DejaVuSans-73" d="M 2834 3397 
L 2834 2853 
Q 2591 2978 2328 3040 
Q 2066 3103 1784 3103 
Q 1356 3103 1142 2972 
Q 928 2841 928 2578 
Q 928 2378 1081 2264 
Q 1234 2150 1697 2047 
L 1894 2003 
Q 2506 1872 2764 1633 
Q 3022 1394 3022 966 
Q 3022 478 2636 193 
Q 2250 -91 1575 -91 
Q 1294 -91 989 -36 
Q 684 19 347 128 
L 347 722 
Q 666 556 975 473 
Q 1284 391 1588 391 
Q 1994 391 2212 530 
Q 2431 669 2431 922 
Q 2431 1156 2273 1281 
Q 2116 1406 1581 1522 
L 1381 1569 
Q 847 1681 609 1914 
Q 372 2147 372 2553 
Q 372 3047 722 3315 
Q 1072 3584 1716 3584 
Q 2034 3584 2315 3537 
Q 2597 3491 2834 3397 
z
" transform="scale(0.015625)"/>
      <path id="DejaVuSans-44" d="M 1259 4147 
L 1259 519 
L 2022 519 
Q 2988 519 3436 956 
Q 3884 1394 3884 2338 
Q 3884 3275 3436 3711 
Q 2988 4147 2022 4147 
L 1259 4147 
z
M 628 4666 
L 1925 4666 
Q 3281 4666 3915 4102 
Q 4550 3538 4550 2338 
Q 4550 1131 3912 565 
Q 3275 0 1925 0 
L 628 0 
L 628 4666 
z
" transform="scale(0.015625)"/>
      <path id="DejaVuSans-74" d="M 1172 4494 
L 1172 3500 
L 2356 3500 
L 2356 3053 
L 1172 3053 
L 1172 1153 
Q 1172 725 1289 603 
Q 1406 481 1766 481 
L 2356 481 
L 2356 0 
L 1766 0 
Q 1100 0 847 248 
Q 594 497 594 1153 
L 594 3053 
L 172 3053 
L 172 3500 
L 594 3500 
L 594 4494 
L 1172 4494 
z
" transform="scale(0.015625)"/>
      <path id="DejaVuSans-62" d="M 3116 1747 
Q 3116 2381 2855 2742 
Q 2594 3103 2138 3103 
Q 1681 3103 1420 2742 
Q 1159 2381 1159 1747 
Q 1159 1113 1420 752 
Q 1681 391 2138 391 
Q 2594 391 2855 752 
Q 3116 1113 3116 1747 
z
M 1159 2969 
Q 1341 3281 1617 3432 
Q 1894 3584 2278 3584 
Q 2916 3584 3314 3078 
Q 3713 2572 3713 1747 
Q 3713 922 3314 415 
Q 2916 -91 2278 -91 
Q 1894 -91 1617 61 
Q 1341 213 1159 525 
L 1159 0 
L 581 0 
L 581 4863 
L 1159 4863 
L 1159 2969 
z
" transform="scale(0.015625)"/>
      <path id="DejaVuSans-75" d="M 544 1381 
L 544 3500 
L 1119 3500 
L 1119 1403 
Q 1119 906 1312 657 
Q 1506 409 1894 409 
Q 2359 409 2629 706 
Q 2900 1003 2900 1516 
L 2900 3500 
L 3475 3500 
L 3475 0 
L 2900 0 
L 2900 538 
Q 2691 219 2414 64 
Q 2138 -91 1772 -91 
Q 1169 -91 856 284 
Q 544 659 544 1381 
z
M 1991 3584 
L 1991 3584 
z
" transform="scale(0.015625)"/>
      <path id="DejaVuSans-6f" d="M 1959 3097 
Q 1497 3097 1228 2736 
Q 959 2375 959 1747 
Q 959 1119 1226 758 
Q 1494 397 1959 397 
Q 2419 397 2687 759 
Q 2956 1122 2956 1747 
Q 2956 2369 2687 2733 
Q 2419 3097 1959 3097 
z
M 1959 3584 
Q 2709 3584 3137 3096 
Q 3566 2609 3566 1747 
Q 3566 888 3137 398 
Q 2709 -91 1959 -91 
Q 1206 -91 779 398 
Q 353 888 353 1747 
Q 353 2609 779 3096 
Q 1206 3584 1959 3584 
z
" transform="scale(0.015625)"/>
     </defs>
     <use xlink:href="#DejaVuSans-50"/>
     <use xlink:href="#DejaVuSans-69" x="58.052734"/>
     <use xlink:href="#DejaVuSans-63" x="85.835938"/>
     <use xlink:href="#DejaVuSans-61" x="140.816406"/>
     <use xlink:href="#DejaVuSans-72" x="202.095703"/>
     <use xlink:href="#DejaVuSans-64" x="241.458984"/>
     <use xlink:href="#DejaVuSans-3a" x="304.935547"/>
     <use xlink:href="#DejaVuSans-20" x="338.626953"/>
     <use xlink:href="#DejaVuSans-42" x="370.414062"/>
     <use xlink:href="#DejaVuSans-61" x="439.017578"/>
     <use xlink:href="#DejaVuSans-73" x="500.296875"/>
     <use xlink:href="#DejaVuSans-65" x="552.396484"/>
     <use xlink:href="#DejaVuSans-20" x="613.919922"/>
     <use xlink:href="#DejaVuSans-44" x="645.707031"/>
     <use xlink:href="#DejaVuSans-69" x="722.708984"/>
     <use xlink:href="#DejaVuSans-73" x="750.492188"/>
     <use xlink:href="#DejaVuSans-74" x="802.591797"/>
     <use xlink:href="#DejaVuSans-72" x="841.800781"/>
     <use xlink:href="#DejaVuSans-69" x="882.914062"/>
     <use xlink:href="#DejaVuSans-62" x="910.697266"/>
     <use xlink:href="#DejaVuSans-75" x="974.173828"/>
     <use xlink:href="#DejaVuSans-74" x="1037.552734"/>
     <use xlink:href="#DejaVuSans-69" x="1076.761719"/>
     <use xlink:href="#DejaVuSans-6f" x="1104.544922"/>
     <use xlink:href="#DejaVuSans-6e" x="1165.726562"/>
    </g>
   </g>
   <g id="legend_1">
    <g id="line2d_17">
     <path d="M 50.348125 303.490394 
L 58.348125 303.490394 
L 66.348125 303.490394 
" style="fill: none; stroke: #7cb5ec; stroke-linecap: square"/>
    </g>
    <g id="text_18">
     <!-- OSMOTIC_STRESS_T0_PE_REP1_R1 -->
     <g transform="translate(72.748125 306.290394)scale(0.08 -0.08)">
      <defs>
       <path id="DejaVuSans-4f" d="M 2522 4238 
Q 1834 4238 1429 3725 
Q 1025 3213 1025 2328 
Q 1025 1447 1429 934 
Q 1834 422 2522 422 
Q 3209 422 3611 934 
Q 4013 1447 4013 2328 
Q 4013 3213 3611 3725 
Q 3209 4238 2522 4238 
z
M 2522 4750 
Q 3503 4750 4090 4092 
Q 4678 3434 4678 2328 
Q 4678 1225 4090 567 
Q 3503 -91 2522 -91 
Q 1538 -91 948 565 
Q 359 1222 359 2328 
Q 359 3434 948 4092 
Q 1538 4750 2522 4750 
z
" transform="scale(0.015625)"/>
       <path id="DejaVuSans-53" d="M 3425 4513 
L 3425 3897 
Q 3066 4069 2747 4153 
Q 2428 4238 2131 4238 
Q 1616 4238 1336 4038 
Q 1056 3838 1056 3469 
Q 1056 3159 1242 3001 
Q 1428 2844 1947 2747 
L 2328 2669 
Q 3034 2534 3370 2195 
Q 3706 1856 3706 1288 
Q 3706 609 3251 259 
Q 2797 -91 1919 -91 
Q 1588 -91 1214 -16 
Q 841 59 441 206 
L 441 856 
Q 825 641 1194 531 
Q 1563 422 1919 422 
Q 2459 422 2753 634 
Q 3047 847 3047 1241 
Q 3047 1584 2836 1778 
Q 2625 1972 2144 2069 
L 1759 2144 
Q 1053 2284 737 2584 
Q 422 2884 422 3419 
Q 422 4038 858 4394 
Q 1294 4750 2059 4750 
Q 2388 4750 2728 4690 
Q 3069 4631 3425 4513 
z
" transform="scale(0.015625)"/>
       <path id="DejaVuSans-4d" d="M 628 4666 
L 1569 4666 
L 2759 1491 
L 3956 4666 
L 4897 4666 
L 4897 0 
L 4281 0 
L 4281 4097 
L 3078 897 
L 2444 897 
L 1241 4097 
L 1241 0 
L 628 0 
L 628 4666 
z
" transform="scale(0.015625)"/>
       <path id="DejaVuSans-54" d="M -19 4666 
L 3928 4666 
L 3928 4134 
L 2272 4134 
L 2272 0 
L 1638 0 
L 1638 4134 
L -19 4134 
L -19 4666 
z
" transform="scale(0.015625)"/>
       <path id="DejaVuSans-49" d="M 628 4666 
L 1259 4666 
L 1259 0 
L 628 0 
L 628 4666 
z
" transform="scale(0.015625)"/>
       <path id="DejaVuSans-5f" d="M 3263 -1063 
L 3263 -1509 
L -63 -1509 
L -63 -1063 
L 3263 -1063 
z
" transform="scale(0.015625)"/>
       <path id="DejaVuSans-52" d="M 2841 2188 
Q 3044 2119 3236 1894 
Q 3428 1669 3622 1275 
L 4263 0 
L 3584 0 
L 2988 1197 
Q 2756 1666 2539 1819 
Q 2322 1972 1947 1972 
L 1259 1972 
L 1259 0 
L 628 0 
L 628 4666 
L 2053 4666 
Q 2853 4666 3247 4331 
Q 3641 3997 3641 3322 
Q 3641 2881 3436 2590 
Q 3231 2300 2841 2188 
z
M 1259 4147 
L 1259 2491 
L 2053 2491 
Q 2509 2491 2742 2702 
Q 2975 2913 2975 3322 
Q 2975 3731 2742 3939 
Q 2509 4147 2053 4147 
L 1259 4147 
z
" transform="scale(0.015625)"/>
       <path id="DejaVuSans-45" d="M 628 4666 
L 3578 4666 
L 3578 4134 
L 1259 4134 
L 1259 2753 
L 3481 2753 
L 3481 2222 
L 1259 2222 
L 1259 531 
L 3634 531 
L 3634 0 
L 628 0 
L 628 4666 
z
" transform="scale(0.015625)"/>
      </defs>
      <use xlink:href="#DejaVuSans-4f"/>
      <use xlink:href="#DejaVuSans-53" x="78.710938"/>
      <use xlink:href="#DejaVuSans-4d" x="142.1875"/>
      <use xlink:href="#DejaVuSans-4f" x="228.466797"/>
      <use xlink:href="#DejaVuSans-54" x="307.177734"/>
      <use xlink:href="#DejaVuSans-49" x="368.261719"/>
      <use xlink:href="#DejaVuSans-43" x="397.753906"/>
      <use xlink:href="#DejaVuSans-5f" x="467.578125"/>
      <use xlink:href="#DejaVuSans-53" x="517.578125"/>
      <use xlink:href="#DejaVuSans-54" x="581.054688"/>
      <use xlink:href="#DejaVuSans-52" x="642.138672"/>
      <use xlink:href="#DejaVuSans-45" x="711.621094"/>
      <use xlink:href="#DejaVuSans-53" x="774.804688"/>
      <use xlink:href="#DejaVuSans-53" x="838.28125"/>
      <use xlink:href="#DejaVuSans-5f" x="901.757812"/>
      <use xlink:href="#DejaVuSans-54" x="951.757812"/>
      <use xlink:href="#DejaVuSans-30" x="1012.841797"/>
      <use xlink:href="#DejaVuSans-5f" x="1076.464844"/>
      <use xlink:href="#DejaVuSans-50" x="1126.464844"/>
      <use xlink:href="#DejaVuSans-45" x="1186.767578"/>
      <use xlink:href="#DejaVuSans-5f" x="1249.951172"/>
      <use xlink:href="#DejaVuSans-52" x="1299.951172"/>
      <use xlink:href="#DejaVuSans-45" x="1369.433594"/>
      <use xlink:href="#DejaVuSans-50" x="1432.617188"/>
      <use xlink:href="#DejaVuSans-31" x="1492.919922"/>
      <use xlink:href="#DejaVuSans-5f" x="1556.542969"/>
      <use xlink:href="#DejaVuSans-52" x="1606.542969"/>
      <use xlink:href="#DejaVuSans-31" x="1676.025391"/>
     </g>
    </g>
    <g id="line2d_18">
     <path d="M 50.348125 315.455394 
L 58.348125 315.455394 
L 66.348125 315.455394 
" style="fill: none; stroke: #434348; stroke-linecap: square"/>
    </g>
    <g id="text_19">
     <!-- OSMOTIC_STRESS_T0_PE_REP1_R2 -->
     <g transform="translate(72.748125 318.255394)scale(0.08 -0.08)">
      <use xlink:href="#DejaVuSans-4f"/>
      <use xlink:href="#DejaVuSans-53" x="78.710938"/>
      <use xlink:href="#DejaVuSans-4d" x="142.1875"/>
      <use xlink:href="#DejaVuSans-4f" x="228.466797"/>
      <use xlink:href="#DejaVuSans-54" x="307.177734"/>
      <use xlink:href="#DejaVuSans-49" x="368.261719"/>
      <use xlink:href="#DejaVuSans-43" x="397.753906"/>
      <use xlink:href="#DejaVuSans-5f" x="467.578125"/>
      <use xlink:href="#DejaVuSans-53" x="517.578125"/>
      <use xlink:href="#DejaVuSans-54" x="581.054688"/>
      <use xlink:href="#DejaVuSans-52" x="642.138672"/>
      <use xlink:href="#DejaVuSans-45" x="711.621094"/>
      <use xlink:href="#DejaVuSans-53" x="774.804688"/>
      <use xlink:href="#DejaVuSans-53" x="838.28125"/>
      <use xlink:href="#DejaVuSans-5f" x="901.757812"/>
      <use xlink:href="#DejaVuSans-54" x="951.757812"/>
      <use xlink:href="#DejaVuSans-30" x="1012.841797"/>
      <use xlink:href="#DejaVuSans-5f" x="1076.464844"/>
      <use xlink:href="#DejaVuSans-50" x="1126.464844"/>
      <use xlink:href="#DejaVuSans-45" x="1186.767578"/>
      <use xlink:href="#DejaVuSans-5f" x="1249.951172"/>
      <use xlink:href="#DejaVuSans-52" x="1299.951172"/>
      <use xlink:href="#DejaVuSans-45" x="1369.433594"/>
      <use xlink:href="#DejaVuSans-50" x="1432.617188"/>
      <use xlink:href="#DejaVuSans-31" x="1492.919922"/>
      <use xlink:href="#DejaVuSans-5f" x="1556.542969"/>
      <use xlink:href="#DejaVuSans-52" x="1606.542969"/>
      <use xlink:href="#DejaVuSans-32" x="1676.025391"/>
     </g>
    </g>
    <g id="line2d_19">
     <path d="M 242.345 303.490394 
L 250.345 303.490394 
L 258.345 303.490394 
" style="fill: none; stroke: #90ed7d; stroke-linecap: square"/>
    </g>
    <g id="text_20">
     <!-- OSMOTIC_STRESS_T0_PE_REP2_R1 -->
     <g transform="translate(264.745 306.290394)scale(0.08 -0.08)">
      <use xlink:href="#DejaVuSans-4f"/>
      <use xlink:href="#DejaVuSans-53" x="78.710938"/>
      <use xlink:href="#DejaVuSans-4d" x="142.1875"/>
      <use xlink:href="#DejaVuSans-4f" x="228.466797"/>
      <use xlink:href="#DejaVuSans-54" x="307.177734"/>
      <use xlink:href="#DejaVuSans-49" x="368.261719"/>
      <use xlink:href="#DejaVuSans-43" x="397.753906"/>
      <use xlink:href="#DejaVuSans-5f" x="467.578125"/>
      <use xlink:href="#DejaVuSans-53" x="517.578125"/>
      <use xlink:href="#DejaVuSans-54" x="581.054688"/>
      <use xlink:href="#DejaVuSans-52" x="642.138672"/>
      <use xlink:href="#DejaVuSans-45" x="711.621094"/>
      <use xlink:href="#DejaVuSans-53" x="774.804688"/>
      <use xlink:href="#DejaVuSans-53" x="838.28125"/>
      <use xlink:href="#DejaVuSans-5f" x="901.757812"/>
      <use xlink:href="#DejaVuSans-54" x="951.757812"/>
      <use xlink:href="#DejaVuSans-30" x="1012.841797"/>
      <use xlink:href="#DejaVuSans-5f" x="1076.464844"/>
      <use xlink:href="#DejaVuSans-50" x="1126.464844"/>
      <use xlink:href="#DejaVuSans-45" x="1186.767578"/>
      <use xlink:href="#DejaVuSans-5f" x="1249.951172"/>
      <use xlink:href="#DejaVuSans-52" x="1299.951172"/>
      <use xlink:href="#DejaVuSans-45" x="1369.433594"/>
      <use xlink:href="#DejaVuSans-50" x="1432.617188"/>
      <use xlink:href="#DejaVuSans-32" x="1492.919922"/>
      <use xlink:href="#DejaVuSans-5f" x="1556.542969"/>
      <use xlink:href="#DejaVuSans-52" x="1606.542969"/>
      <use xlink:href="#DejaVuSans-31" x="1676.025391"/>
     </g>
    </g>
    <g id="line2d_20">
     <path d="M 242.345 315.455394 
L 250.345 315.455394 
L 258.345 315.455394 
" style="fill: none; stroke: #f7a35c; stroke-linecap: square"/>
    </g>
    <g id="text_21">
     <!-- OSMOTIC_STRESS_T0_PE_REP2_R2 -->
     <g transform="translate(264.745 318.255394)scale(0.08 -0.08)">
      <use xlink:href="#DejaVuSans-4f"/>
      <use xlink:href="#DejaVuSans-53" x="78.710938"/>
      <use xlink:href="#DejaVuSans-4d" x="142.1875"/>
      <use xlink:href="#DejaVuSans-4f" x="228.466797"/>
      <use xlink:href="#DejaVuSans-54" x="307.177734"/>
      <use xlink:href="#DejaVuSans-49" x="368.261719"/>
      <use xlink:href="#DejaVuSans-43" x="397.753906"/>
      <use xlink:href="#DejaVuSans-5f" x="467.578125"/>
      <use xlink:href="#DejaVuSans-53" x="517.578125"/>
      <use xlink:href="#DejaVuSans-54" x="581.054688"/>
      <use xlink:href="#DejaVuSans-52" x="642.138672"/>
      <use xlink:href="#DejaVuSans-45" x="711.621094"/>
      <use xlink:href="#DejaVuSans-53" x="774.804688"/>
      <use xlink:href="#DejaVuSans-53" x="838.28125"/>
      <use xlink:href="#DejaVuSans-5f" x="901.757812"/>
      <use xlink:href="#DejaVuSans-54" x="951.757812"/>
      <use xlink:href="#DejaVuSans-30" x="1012.841797"/>
      <use xlink:href="#DejaVuSans-5f" x="1076.464844"/>
      <use xlink:href="#DejaVuSans-50" x="1126.464844"/>
      <use xlink:href="#DejaVuSans-45" x="1186.767578"/>
      <use xlink:href="#DejaVuSans-5f" x="1249.951172"/>
      <use xlink:href="#DejaVuSans-52" x="1299.951172"/>
      <use xlink:href="#DejaVuSans-45" x="1369.433594"/>
      <use xlink:href="#DejaVuSans-50" x="1432.617188"/>
      <use xlink:href="#DejaVuSans-32" x="1492.919922"/>
      <use xlink:href="#DejaVuSans-5f" x="1556.542969"/>
      <use xlink:href="#DejaVuSans-52" x="1606.542969"/>
      <use xlink:href="#DejaVuSans-32" x="1676.025391"/>
     </g>
    </g>
    <g id="line2d_21">
     <path d="M 434.341875 303.490394 
L 442.341875 303.490394 
L 450.341875 303.490394 
" style="fill: none; stroke: #8085e9; stroke-linecap: square"/>
    </g>
    <g id="text_22">
     <!-- OSMOTIC_STRESS_T100_SE_REP1 -->
     <g transform="translate(456.741875 306.290394)scale(0.08 -0.08)">
      <use xlink:href="#DejaVuSans-4f"/>
      <use xlink:href="#DejaVuSans-53" x="78.710938"/>
      <use xlink:href="#DejaVuSans-4d" x="142.1875"/>
      <use xlink:href="#DejaVuSans-4f" x="228.466797"/>
      <use xlink:href="#DejaVuSans-54" x="307.177734"/>
      <use xlink:href="#DejaVuSans-49" x="368.261719"/>
      <use xlink:href="#DejaVuSans-43" x="397.753906"/>
      <use xlink:href="#DejaVuSans-5f" x="467.578125"/>
      <use xlink:href="#DejaVuSans-53" x="517.578125"/>
      <use xlink:href="#DejaVuSans-54" x="581.054688"/>
      <use xlink:href="#DejaVuSans-52" x="642.138672"/>
      <use xlink:href="#DejaVuSans-45" x="711.621094"/>
      <use xlink:href="#DejaVuSans-53" x="774.804688"/>
      <use xlink:href="#DejaVuSans-53" x="838.28125"/>
      <use xlink:href="#DejaVuSans-5f" x="901.757812"/>
      <use xlink:href="#DejaVuSans-54" x="951.757812"/>
      <use xlink:href="#DejaVuSans-31" x="1012.841797"/>
      <use xlink:href="#DejaVuSans-30" x="1076.464844"/>
      <use xlink:href="#DejaVuSans-30" x="1140.087891"/>
      <use xlink:href="#DejaVuSans-5f" x="1203.710938"/>
      <use xlink:href="#DejaVuSans-53" x="1253.710938"/>
      <use xlink:href="#DejaVuSans-45" x="1317.1875"/>
      <use xlink:href="#DejaVuSans-5f" x="1380.371094"/>
      <use xlink:href="#DejaVuSans-52" x="1430.371094"/>
      <use xlink:href="#DejaVuSans-45" x="1499.853516"/>
      <use xlink:href="#DejaVuSans-50" x="1563.037109"/>
      <use xlink:href="#DejaVuSans-31" x="1623.339844"/>
     </g>
    </g>
    <g id="line2d_22">
     <path d="M 434.341875 315.455394 
L 442.341875 315.455394 
L 450.341875 315.455394 
" style="fill: none; stroke: #f15c80; stroke-linecap: square"/>
    </g>
    <g id="text_23">
     <!-- OSMOTIC_STRESS_T100_SE_REP2 -->
     <g transform="translate(456.741875 318.255394)scale(0.08 -0.08)">
      <use xlink:href="#DejaVuSans-4f"/>
      <use xlink:href="#DejaVuSans-53" x="78.710938"/>
      <use xlink:href="#DejaVuSans-4d" x="142.1875"/>
      <use xlink:href="#DejaVuSans-4f" x="228.466797"/>
      <use xlink:href="#DejaVuSans-54" x="307.177734"/>
      <use xlink:href="#DejaVuSans-49" x="368.261719"/>
      <use xlink:href="#DejaVuSans-43" x="397.753906"/>
      <use xlink:href="#DejaVuSans-5f" x="467.578125"/>
      <use xlink:href="#DejaVuSans-53" x="517.578125"/>
      <use xlink:href="#DejaVuSans-54" x="581.054688"/>
      <use xlink:href="#DejaVuSans-52" x="642.138672"/>
      <use xlink:href="#DejaVuSans-45" x="711.621094"/>
      <use xlink:href="#DejaVuSans-53" x="774.804688"/>
      <use xlink:href="#DejaVuSans-53" x="838.28125"/>
      <use xlink:href="#DejaVuSans-5f" x="901.757812"/>
      <use xlink:href="#DejaVuSans-54" x="951.757812"/>
      <use xlink:href="#DejaVuSans-31" x="1012.841797"/>
      <use xlink:href="#DejaVuSans-30" x="1076.464844"/>
      <use xlink:href="#DejaVuSans-30" x="1140.087891"/>
      <use xlink:href="#DejaVuSans-5f" x="1203.710938"/>
      <use xlink:href="#DejaVuSans-53" x="1253.710938"/>
      <use xlink:href="#DejaVuSans-45" x="1317.1875"/>
      <use xlink:href="#DejaVuSans-5f" x="1380.371094"/>
      <use xlink:href="#DejaVuSans-52" x="1430.371094"/>
      <use xlink:href="#DejaVuSans-45" x="1499.853516"/>
      <use xlink:href="#DejaVuSans-50" x="1563.037109"/>
      <use xlink:href="#DejaVuSans-32" x="1623.339844"/>
     </g>
    </g>
    <g id="line2d_23">
     <path d="M 622.125 303.490394 
L 630.125 303.490394 
L 638.125 303.490394 
" style="fill: none; stroke: #e4d354; stroke-linecap: square"/>
    </g>
    <g id="text_24">
     <!-- OSMOTIC_STRESS_T150_SE_REP1 -->
     <g transform="translate(644.525 306.290394)scale(0.08 -0.08)">
      <use xlink:href="#DejaVuSans-4f"/>
      <use xlink:href="#DejaVuSans-53" x="78.710938"/>
      <use xlink:href="#DejaVuSans-4d" x="142.1875"/>
      <use xlink:href="#DejaVuSans-4f" x="228.466797"/>
      <use xlink:href="#DejaVuSans-54" x="307.177734"/>
      <use xlink:href="#DejaVuSans-49" x="368.261719"/>
      <use xlink:href="#DejaVuSans-43" x="397.753906"/>
      <use xlink:href="#DejaVuSans-5f" x="467.578125"/>
      <use xlink:href="#DejaVuSans-53" x="517.578125"/>
      <use xlink:href="#DejaVuSans-54" x="581.054688"/>
      <use xlink:href="#DejaVuSans-52" x="642.138672"/>
      <use xlink:href="#DejaVuSans-45" x="711.621094"/>
      <use xlink:href="#DejaVuSans-53" x="774.804688"/>
      <use xlink:href="#DejaVuSans-53" x="838.28125"/>
      <use xlink:href="#DejaVuSans-5f" x="901.757812"/>
      <use xlink:href="#DejaVuSans-54" x="951.757812"/>
      <use xlink:href="#DejaVuSans-31" x="1012.841797"/>
      <use xlink:href="#DejaVuSans-35" x="1076.464844"/>
      <use xlink:href="#DejaVuSans-30" x="1140.087891"/>
      <use xlink:href="#DejaVuSans-5f" x="1203.710938"/>
      <use xlink:href="#DejaVuSans-53" x="1253.710938"/>
      <use xlink:href="#DejaVuSans-45" x="1317.1875"/>
      <use xlink:href="#DejaVuSans-5f" x="1380.371094"/>
      <use xlink:href="#DejaVuSans-52" x="1430.371094"/>
      <use xlink:href="#DejaVuSans-45" x="1499.853516"/>
      <use xlink:href="#DejaVuSans-50" x="1563.037109"/>
      <use xlink:href="#DejaVuSans-31" x="1623.339844"/>
     </g>
    </g>
    <g id="line2d_24">
     <path d="M 622.125 315.455394 
L 630.125 315.455394 
L 638.125 315.455394 
" style="fill: none; stroke: #2b908f; stroke-linecap: square"/>
    </g>
    <g id="text_25">
     <!-- OSMOTIC_STRESS_T15_PE_REP1_R1 -->
     <g transform="translate(644.525 318.255394)scale(0.08 -0.08)">
      <use xlink:href="#DejaVuSans-4f"/>
      <use xlink:href="#DejaVuSans-53" x="78.710938"/>
      <use xlink:href="#DejaVuSans-4d" x="142.1875"/>
      <use xlink:href="#DejaVuSans-4f" x="228.466797"/>
      <use xlink:href="#DejaVuSans-54" x="307.177734"/>
      <use xlink:href="#DejaVuSans-49" x="368.261719"/>
      <use xlink:href="#DejaVuSans-43" x="397.753906"/>
      <use xlink:href="#DejaVuSans-5f" x="467.578125"/>
      <use xlink:href="#DejaVuSans-53" x="517.578125"/>
      <use xlink:href="#DejaVuSans-54" x="581.054688"/>
      <use xlink:href="#DejaVuSans-52" x="642.138672"/>
      <use xlink:href="#DejaVuSans-45" x="711.621094"/>
      <use xlink:href="#DejaVuSans-53" x="774.804688"/>
      <use xlink:href="#DejaVuSans-53" x="838.28125"/>
      <use xlink:href="#DejaVuSans-5f" x="901.757812"/>
      <use xlink:href="#DejaVuSans-54" x="951.757812"/>
      <use xlink:href="#DejaVuSans-31" x="1012.841797"/>
      <use xlink:href="#DejaVuSans-35" x="1076.464844"/>
      <use xlink:href="#DejaVuSans-5f" x="1140.087891"/>
      <use xlink:href="#DejaVuSans-50" x="1190.087891"/>
      <use xlink:href="#DejaVuSans-45" x="1250.390625"/>
      <use xlink:href="#DejaVuSans-5f" x="1313.574219"/>
      <use xlink:href="#DejaVuSans-52" x="1363.574219"/>
      <use xlink:href="#DejaVuSans-45" x="1433.056641"/>
      <use xlink:href="#DejaVuSans-50" x="1496.240234"/>
      <use xlink:href="#DejaVuSans-31" x="1556.542969"/>
      <use xlink:href="#DejaVuSans-5f" x="1620.166016"/>
      <use xlink:href="#DejaVuSans-52" x="1670.166016"/>
      <use xlink:href="#DejaVuSans-31" x="1739.648438"/>
     </g>
    </g>
    <g id="line2d_25">
     <path d="M 819.211875 303.490394 
L 827.211875 303.490394 
L 835.211875 303.490394 
" style="fill: none; stroke: #f45b5b; stroke-linecap: square"/>
    </g>
    <g id="text_26">
     <!-- OSMOTIC_STRESS_T15_PE_REP1_R2 -->
     <g transform="translate(841.611875 306.290394)scale(0.08 -0.08)">
      <use xlink:href="#DejaVuSans-4f"/>
      <use xlink:href="#DejaVuSans-53" x="78.710938"/>
      <use xlink:href="#DejaVuSans-4d" x="142.1875"/>
      <use xlink:href="#DejaVuSans-4f" x="228.466797"/>
      <use xlink:href="#DejaVuSans-54" x="307.177734"/>
      <use xlink:href="#DejaVuSans-49" x="368.261719"/>
      <use xlink:href="#DejaVuSans-43" x="397.753906"/>
      <use xlink:href="#DejaVuSans-5f" x="467.578125"/>
      <use xlink:href="#DejaVuSans-53" x="517.578125"/>
      <use xlink:href="#DejaVuSans-54" x="581.054688"/>
      <use xlink:href="#DejaVuSans-52" x="642.138672"/>
      <use xlink:href="#DejaVuSans-45" x="711.621094"/>
      <use xlink:href="#DejaVuSans-53" x="774.804688"/>
      <use xlink:href="#DejaVuSans-53" x="838.28125"/>
      <use xlink:href="#DejaVuSans-5f" x="901.757812"/>
      <use xlink:href="#DejaVuSans-54" x="951.757812"/>
      <use xlink:href="#DejaVuSans-31" x="1012.841797"/>
      <use xlink:href="#DejaVuSans-35" x="1076.464844"/>
      <use xlink:href="#DejaVuSans-5f" x="1140.087891"/>
      <use xlink:href="#DejaVuSans-50" x="1190.087891"/>
      <use xlink:href="#DejaVuSans-45" x="1250.390625"/>
      <use xlink:href="#DejaVuSans-5f" x="1313.574219"/>
      <use xlink:href="#DejaVuSans-52" x="1363.574219"/>
      <use xlink:href="#DejaVuSans-45" x="1433.056641"/>
      <use xlink:href="#DejaVuSans-50" x="1496.240234"/>
      <use xlink:href="#DejaVuSans-31" x="1556.542969"/>
      <use xlink:href="#DejaVuSans-5f" x="1620.166016"/>
      <use xlink:href="#DejaVuSans-52" x="1670.166016"/>
      <use xlink:href="#DejaVuSans-32" x="1739.648438"/>
     </g>
    </g>
   </g>
  </g>
 </g>
 <defs>
  <clipPath id="p36f2440281">
   <rect x="43.148125" y="31.48286" width="949.93" height="242.5072"/>
  </clipPath>
 </defs>
</svg>
