<?xml version="1.0" encoding="utf-8" standalone="no"?>
<!DOCTYPE svg PUBLIC "-//W3C//DTD SVG 1.1//EN"
  "http://www.w3.org/Graphics/SVG/1.1/DTD/svg11.dtd">
<svg xmlns:xlink="http://www.w3.org/1999/xlink" width="1000.278125pt" height="330.541644pt" viewBox="0 0 1000.278125 330.541644" xmlns="http://www.w3.org/2000/svg" version="1.1">
 <metadata>
  <rdf:RDF xmlns:dc="http://purl.org/dc/elements/1.1/" xmlns:cc="http://creativecommons.org/ns#" xmlns:rdf="http://www.w3.org/1999/02/22-rdf-syntax-ns#">
   <cc:Work>
    <dc:type rdf:resource="http://purl.org/dc/dcmitype/StillImage"/>
    <dc:date>2024-10-25T13:23:56.251876</dc:date>
    <dc:format>image/svg+xml</dc:format>
    <dc:creator>
     <cc:Agent>
      <dc:title>Matplotlib v3.5.3, https://matplotlib.org/</dc:title>
     </cc:Agent>
    </dc:creator>
   </cc:Work>
  </rdf:RDF>
 </metadata>
 <defs>
  <style type="text/css">*{stroke-linejoin: round; stroke-linecap: butt}</style>
 </defs>
 <g id="figure_1">
  <g id="axes_1">
   <g id="patch_1">
    <path d="M 43.148125 273.99006 
L 993.078125 273.99006 
L 993.078125 31.48286 
L 43.148125 31.48286 
z
" style="fill: #ffffff"/>
   </g>
   <g id="matplotlib.axis_1">
    <g id="xtick_1">
     <g id="text_1">
      <!-- 0 -->
      <g transform="translate(62.018336 287.06881)scale(0.08 -0.08)">
       <defs>
        <path id="DejaVuSans-30" d="M 2034 4250 
Q 1547 4250 1301 3770 
Q 1056 3291 1056 2328 
Q 1056 1369 1301 889 
Q 1547 409 2034 409 
Q 2525 409 2770 889 
Q 3016 1369 3016 2328 
Q 3016 3291 2770 3770 
Q 2525 4250 2034 4250 
z
M 2034 4750 
Q 2819 4750 3233 4129 
Q 3647 3509 3647 2328 
Q 3647 1150 3233 529 
Q 2819 -91 2034 -91 
Q 1250 -91 836 529 
Q 422 1150 422 2328 
Q 422 3509 836 4129 
Q 1250 4750 2034 4750 
z
" transform="scale(0.015625)"/>
       </defs>
       <use xlink:href="#DejaVuSans-30"/>
      </g>
     </g>
    </g>
    <g id="xtick_2">
     <g id="text_2">
      <!-- 200 -->
      <g transform="translate(231.03574 287.06881)scale(0.08 -0.08)">
       <defs>
        <path id="DejaVuSans-32" d="M 1228 531 
L 3431 531 
L 3431 0 
L 469 0 
L 469 531 
Q 828 903 1448 1529 
Q 2069 2156 2228 2338 
Q 2531 2678 2651 2914 
Q 2772 3150 2772 3378 
Q 2772 3750 2511 3984 
Q 2250 4219 1831 4219 
Q 1534 4219 1204 4116 
Q 875 4013 500 3803 
L 500 4441 
Q 881 4594 1212 4672 
Q 1544 4750 1819 4750 
Q 2544 4750 2975 4387 
Q 3406 4025 3406 3419 
Q 3406 3131 3298 2873 
Q 3191 2616 2906 2266 
Q 2828 2175 2409 1742 
Q 1991 1309 1228 531 
z
" transform="scale(0.015625)"/>
       </defs>
       <use xlink:href="#DejaVuSans-32"/>
       <use xlink:href="#DejaVuSans-30" x="63.623047"/>
       <use xlink:href="#DejaVuSans-30" x="127.246094"/>
      </g>
     </g>
    </g>
    <g id="xtick_3">
     <g id="text_3">
      <!-- 400 -->
      <g transform="translate(405.143145 287.06881)scale(0.08 -0.08)">
       <defs>
        <path id="DejaVuSans-34" d="M 2419 4116 
L 825 1625 
L 2419 1625 
L 2419 4116 
z
M 2253 4666 
L 3047 4666 
L 3047 1625 
L 3713 1625 
L 3713 1100 
L 3047 1100 
L 3047 0 
L 2419 0 
L 2419 1100 
L 313 1100 
L 313 1709 
L 2253 4666 
z
" transform="scale(0.015625)"/>
       </defs>
       <use xlink:href="#DejaVuSans-34"/>
       <use xlink:href="#DejaVuSans-30" x="63.623047"/>
       <use xlink:href="#DejaVuSans-30" x="127.246094"/>
      </g>
     </g>
    </g>
    <g id="xtick_4">
     <g id="text_4">
      <!-- 600 -->
      <g transform="translate(579.25055 287.06881)scale(0.08 -0.08)">
       <defs>
        <path id="DejaVuSans-36" d="M 2113 2584 
Q 1688 2584 1439 2293 
Q 1191 2003 1191 1497 
Q 1191 994 1439 701 
Q 1688 409 2113 409 
Q 2538 409 2786 701 
Q 3034 994 3034 1497 
Q 3034 2003 2786 2293 
Q 2538 2584 2113 2584 
z
M 3366 4563 
L 3366 3988 
Q 3128 4100 2886 4159 
Q 2644 4219 2406 4219 
Q 1781 4219 1451 3797 
Q 1122 3375 1075 2522 
Q 1259 2794 1537 2939 
Q 1816 3084 2150 3084 
Q 2853 3084 3261 2657 
Q 3669 2231 3669 1497 
Q 3669 778 3244 343 
Q 2819 -91 2113 -91 
Q 1303 -91 875 529 
Q 447 1150 447 2328 
Q 447 3434 972 4092 
Q 1497 4750 2381 4750 
Q 2619 4750 2861 4703 
Q 3103 4656 3366 4563 
z
" transform="scale(0.015625)"/>
       </defs>
       <use xlink:href="#DejaVuSans-36"/>
       <use xlink:href="#DejaVuSans-30" x="63.623047"/>
       <use xlink:href="#DejaVuSans-30" x="127.246094"/>
      </g>
     </g>
    </g>
    <g id="xtick_5">
     <g id="text_5">
      <!-- 800 -->
      <g transform="translate(753.357955 287.06881)scale(0.08 -0.08)">
       <defs>
        <path id="DejaVuSans-38" d="M 2034 2216 
Q 1584 2216 1326 1975 
Q 1069 1734 1069 1313 
Q 1069 891 1326 650 
Q 1584 409 2034 409 
Q 2484 409 2743 651 
Q 3003 894 3003 1313 
Q 3003 1734 2745 1975 
Q 2488 2216 2034 2216 
z
M 1403 2484 
Q 997 2584 770 2862 
Q 544 3141 544 3541 
Q 544 4100 942 4425 
Q 1341 4750 2034 4750 
Q 2731 4750 3128 4425 
Q 3525 4100 3525 3541 
Q 3525 3141 3298 2862 
Q 3072 2584 2669 2484 
Q 3125 2378 3379 2068 
Q 3634 1759 3634 1313 
Q 3634 634 3220 271 
Q 2806 -91 2034 -91 
Q 1263 -91 848 271 
Q 434 634 434 1313 
Q 434 1759 690 2068 
Q 947 2378 1403 2484 
z
M 1172 3481 
Q 1172 3119 1398 2916 
Q 1625 2713 2034 2713 
Q 2441 2713 2670 2916 
Q 2900 3119 2900 3481 
Q 2900 3844 2670 4047 
Q 2441 4250 2034 4250 
Q 1625 4250 1398 4047 
Q 1172 3844 1172 3481 
z
" transform="scale(0.015625)"/>
       </defs>
       <use xlink:href="#DejaVuSans-38"/>
       <use xlink:href="#DejaVuSans-30" x="63.623047"/>
       <use xlink:href="#DejaVuSans-30" x="127.246094"/>
      </g>
     </g>
    </g>
    <g id="xtick_6">
     <g id="text_6">
      <!-- 1000 -->
      <g transform="translate(924.920359 287.06881)scale(0.08 -0.08)">
       <defs>
        <path id="DejaVuSans-31" d="M 794 531 
L 1825 531 
L 1825 4091 
L 703 3866 
L 703 4441 
L 1819 4666 
L 2450 4666 
L 2450 531 
L 3481 531 
L 3481 0 
L 794 0 
L 794 531 
z
" transform="scale(0.015625)"/>
       </defs>
       <use xlink:href="#DejaVuSans-31"/>
       <use xlink:href="#DejaVuSans-30" x="63.623047"/>
       <use xlink:href="#DejaVuSans-30" x="127.246094"/>
       <use xlink:href="#DejaVuSans-30" x="190.869141"/>
      </g>
     </g>
    </g>
    <g id="text_7">
     <!-- Insert Size (bp) -->
     <g transform="translate(480.080312 300.330997)scale(0.1 -0.1)">
      <defs>
       <path id="DejaVuSans-49" d="M 628 4666 
L 1259 4666 
L 1259 0 
L 628 0 
L 628 4666 
z
" transform="scale(0.015625)"/>
       <path id="DejaVuSans-6e" d="M 3513 2113 
L 3513 0 
L 2938 0 
L 2938 2094 
Q 2938 2591 2744 2837 
Q 2550 3084 2163 3084 
Q 1697 3084 1428 2787 
Q 1159 2491 1159 1978 
L 1159 0 
L 581 0 
L 581 3500 
L 1159 3500 
L 1159 2956 
Q 1366 3272 1645 3428 
Q 1925 3584 2291 3584 
Q 2894 3584 3203 3211 
Q 3513 2838 3513 2113 
z
" transform="scale(0.015625)"/>
       <path id="DejaVuSans-73" d="M 2834 3397 
L 2834 2853 
Q 2591 2978 2328 3040 
Q 2066 3103 1784 3103 
Q 1356 3103 1142 2972 
Q 928 2841 928 2578 
Q 928 2378 1081 2264 
Q 1234 2150 1697 2047 
L 1894 2003 
Q 2506 1872 2764 1633 
Q 3022 1394 3022 966 
Q 3022 478 2636 193 
Q 2250 -91 1575 -91 
Q 1294 -91 989 -36 
Q 684 19 347 128 
L 347 722 
Q 666 556 975 473 
Q 1284 391 1588 391 
Q 1994 391 2212 530 
Q 2431 669 2431 922 
Q 2431 1156 2273 1281 
Q 2116 1406 1581 1522 
L 1381 1569 
Q 847 1681 609 1914 
Q 372 2147 372 2553 
Q 372 3047 722 3315 
Q 1072 3584 1716 3584 
Q 2034 3584 2315 3537 
Q 2597 3491 2834 3397 
z
" transform="scale(0.015625)"/>
       <path id="DejaVuSans-65" d="M 3597 1894 
L 3597 1613 
L 953 1613 
Q 991 1019 1311 708 
Q 1631 397 2203 397 
Q 2534 397 2845 478 
Q 3156 559 3463 722 
L 3463 178 
Q 3153 47 2828 -22 
Q 2503 -91 2169 -91 
Q 1331 -91 842 396 
Q 353 884 353 1716 
Q 353 2575 817 3079 
Q 1281 3584 2069 3584 
Q 2775 3584 3186 3129 
Q 3597 2675 3597 1894 
z
M 3022 2063 
Q 3016 2534 2758 2815 
Q 2500 3097 2075 3097 
Q 1594 3097 1305 2825 
Q 1016 2553 972 2059 
L 3022 2063 
z
" transform="scale(0.015625)"/>
       <path id="DejaVuSans-72" d="M 2631 2963 
Q 2534 3019 2420 3045 
Q 2306 3072 2169 3072 
Q 1681 3072 1420 2755 
Q 1159 2438 1159 1844 
L 1159 0 
L 581 0 
L 581 3500 
L 1159 3500 
L 1159 2956 
Q 1341 3275 1631 3429 
Q 1922 3584 2338 3584 
Q 2397 3584 2469 3576 
Q 2541 3569 2628 3553 
L 2631 2963 
z
" transform="scale(0.015625)"/>
       <path id="DejaVuSans-74" d="M 1172 4494 
L 1172 3500 
L 2356 3500 
L 2356 3053 
L 1172 3053 
L 1172 1153 
Q 1172 725 1289 603 
Q 1406 481 1766 481 
L 2356 481 
L 2356 0 
L 1766 0 
Q 1100 0 847 248 
Q 594 497 594 1153 
L 594 3053 
L 172 3053 
L 172 3500 
L 594 3500 
L 594 4494 
L 1172 4494 
z
" transform="scale(0.015625)"/>
       <path id="DejaVuSans-20" transform="scale(0.015625)"/>
       <path id="DejaVuSans-53" d="M 3425 4513 
L 3425 3897 
Q 3066 4069 2747 4153 
Q 2428 4238 2131 4238 
Q 1616 4238 1336 4038 
Q 1056 3838 1056 3469 
Q 1056 3159 1242 3001 
Q 1428 2844 1947 2747 
L 2328 2669 
Q 3034 2534 3370 2195 
Q 3706 1856 3706 1288 
Q 3706 609 3251 259 
Q 2797 -91 1919 -91 
Q 1588 -91 1214 -16 
Q 841 59 441 206 
L 441 856 
Q 825 641 1194 531 
Q 1563 422 1919 422 
Q 2459 422 2753 634 
Q 3047 847 3047 1241 
Q 3047 1584 2836 1778 
Q 2625 1972 2144 2069 
L 1759 2144 
Q 1053 2284 737 2584 
Q 422 2884 422 3419 
Q 422 4038 858 4394 
Q 1294 4750 2059 4750 
Q 2388 4750 2728 4690 
Q 3069 4631 3425 4513 
z
" transform="scale(0.015625)"/>
       <path id="DejaVuSans-69" d="M 603 3500 
L 1178 3500 
L 1178 0 
L 603 0 
L 603 3500 
z
M 603 4863 
L 1178 4863 
L 1178 4134 
L 603 4134 
L 603 4863 
z
" transform="scale(0.015625)"/>
       <path id="DejaVuSans-7a" d="M 353 3500 
L 3084 3500 
L 3084 2975 
L 922 459 
L 3084 459 
L 3084 0 
L 275 0 
L 275 525 
L 2438 3041 
L 353 3041 
L 353 3500 
z
" transform="scale(0.015625)"/>
       <path id="DejaVuSans-28" d="M 1984 4856 
Q 1566 4138 1362 3434 
Q 1159 2731 1159 2009 
Q 1159 1288 1364 580 
Q 1569 -128 1984 -844 
L 1484 -844 
Q 1016 -109 783 600 
Q 550 1309 550 2009 
Q 550 2706 781 3412 
Q 1013 4119 1484 4856 
L 1984 4856 
z
" transform="scale(0.015625)"/>
       <path id="DejaVuSans-62" d="M 3116 1747 
Q 3116 2381 2855 2742 
Q 2594 3103 2138 3103 
Q 1681 3103 1420 2742 
Q 1159 2381 1159 1747 
Q 1159 1113 1420 752 
Q 1681 391 2138 391 
Q 2594 391 2855 752 
Q 3116 1113 3116 1747 
z
M 1159 2969 
Q 1341 3281 1617 3432 
Q 1894 3584 2278 3584 
Q 2916 3584 3314 3078 
Q 3713 2572 3713 1747 
Q 3713 922 3314 415 
Q 2916 -91 2278 -91 
Q 1894 -91 1617 61 
Q 1341 213 1159 525 
L 1159 0 
L 581 0 
L 581 4863 
L 1159 4863 
L 1159 2969 
z
" transform="scale(0.015625)"/>
       <path id="DejaVuSans-70" d="M 1159 525 
L 1159 -1331 
L 581 -1331 
L 581 3500 
L 1159 3500 
L 1159 2969 
Q 1341 3281 1617 3432 
Q 1894 3584 2278 3584 
Q 2916 3584 3314 3078 
Q 3713 2572 3713 1747 
Q 3713 922 3314 415 
Q 2916 -91 2278 -91 
Q 1894 -91 1617 61 
Q 1341 213 1159 525 
z
M 3116 1747 
Q 3116 2381 2855 2742 
Q 2594 3103 2138 3103 
Q 1681 3103 1420 2742 
Q 1159 2381 1159 1747 
Q 1159 1113 1420 752 
Q 1681 391 2138 391 
Q 2594 391 2855 752 
Q 3116 1113 3116 1747 
z
" transform="scale(0.015625)"/>
       <path id="DejaVuSans-29" d="M 513 4856 
L 1013 4856 
Q 1481 4119 1714 3412 
Q 1947 2706 1947 2009 
Q 1947 1309 1714 600 
Q 1481 -109 1013 -844 
L 513 -844 
Q 928 -128 1133 580 
Q 1338 1288 1338 2009 
Q 1338 2731 1133 3434 
Q 928 4138 513 4856 
z
" transform="scale(0.015625)"/>
      </defs>
      <use xlink:href="#DejaVuSans-49"/>
      <use xlink:href="#DejaVuSans-6e" x="29.492188"/>
      <use xlink:href="#DejaVuSans-73" x="92.871094"/>
      <use xlink:href="#DejaVuSans-65" x="144.970703"/>
      <use xlink:href="#DejaVuSans-72" x="206.494141"/>
      <use xlink:href="#DejaVuSans-74" x="247.607422"/>
      <use xlink:href="#DejaVuSans-20" x="286.816406"/>
      <use xlink:href="#DejaVuSans-53" x="318.603516"/>
      <use xlink:href="#DejaVuSans-69" x="382.080078"/>
      <use xlink:href="#DejaVuSans-7a" x="409.863281"/>
      <use xlink:href="#DejaVuSans-65" x="462.353516"/>
      <use xlink:href="#DejaVuSans-20" x="523.876953"/>
      <use xlink:href="#DejaVuSans-28" x="555.664062"/>
      <use xlink:href="#DejaVuSans-62" x="594.677734"/>
      <use xlink:href="#DejaVuSans-70" x="658.154297"/>
      <use xlink:href="#DejaVuSans-29" x="721.630859"/>
     </g>
    </g>
   </g>
   <g id="matplotlib.axis_2">
    <g id="ytick_1">
     <g id="line2d_1">
      <path d="M 43.148125 273.99006 
L 993.078125 273.99006 
" clip-path="url(#pb0ed5b4630)" style="fill: none; stroke: #dedede; stroke-linecap: square"/>
     </g>
     <g id="text_8">
      <!-- 0 -->
      <g transform="translate(31.058125 277.029435)scale(0.08 -0.08)">
       <use xlink:href="#DejaVuSans-30"/>
      </g>
     </g>
    </g>
    <g id="ytick_2">
     <g id="line2d_2">
      <path d="M 43.148125 221.07555 
L 993.078125 221.07555 
" clip-path="url(#pb0ed5b4630)" style="fill: none; stroke: #dedede; stroke-linecap: square"/>
     </g>
     <g id="text_9">
      <!-- 200 -->
      <g transform="translate(20.878125 224.114925)scale(0.08 -0.08)">
       <use xlink:href="#DejaVuSans-32"/>
       <use xlink:href="#DejaVuSans-30" x="63.623047"/>
       <use xlink:href="#DejaVuSans-30" x="127.246094"/>
      </g>
     </g>
    </g>
    <g id="ytick_3">
     <g id="line2d_3">
      <path d="M 43.148125 168.16104 
L 993.078125 168.16104 
" clip-path="url(#pb0ed5b4630)" style="fill: none; stroke: #dedede; stroke-linecap: square"/>
     </g>
     <g id="text_10">
      <!-- 400 -->
      <g transform="translate(20.878125 171.200415)scale(0.08 -0.08)">
       <use xlink:href="#DejaVuSans-34"/>
       <use xlink:href="#DejaVuSans-30" x="63.623047"/>
       <use xlink:href="#DejaVuSans-30" x="127.246094"/>
      </g>
     </g>
    </g>
    <g id="ytick_4">
     <g id="line2d_4">
      <path d="M 43.148125 115.24653 
L 993.078125 115.24653 
" clip-path="url(#pb0ed5b4630)" style="fill: none; stroke: #dedede; stroke-linecap: square"/>
     </g>
     <g id="text_11">
      <!-- 600 -->
      <g transform="translate(20.878125 118.285905)scale(0.08 -0.08)">
       <use xlink:href="#DejaVuSans-36"/>
       <use xlink:href="#DejaVuSans-30" x="63.623047"/>
       <use xlink:href="#DejaVuSans-30" x="127.246094"/>
      </g>
     </g>
    </g>
    <g id="ytick_5">
     <g id="line2d_5">
      <path d="M 43.148125 62.332019 
L 993.078125 62.332019 
" clip-path="url(#pb0ed5b4630)" style="fill: none; stroke: #dedede; stroke-linecap: square"/>
     </g>
     <g id="text_12">
      <!-- 800 -->
      <g transform="translate(20.878125 65.371394)scale(0.08 -0.08)">
       <use xlink:href="#DejaVuSans-38"/>
       <use xlink:href="#DejaVuSans-30" x="63.623047"/>
       <use xlink:href="#DejaVuSans-30" x="127.246094"/>
      </g>
     </g>
    </g>
    <g id="text_13">
     <!-- Coverage -->
     <g transform="translate(14.798437 176.693491)rotate(-90)scale(0.1 -0.1)">
      <defs>
       <path id="DejaVuSans-43" d="M 4122 4306 
L 4122 3641 
Q 3803 3938 3442 4084 
Q 3081 4231 2675 4231 
Q 1875 4231 1450 3742 
Q 1025 3253 1025 2328 
Q 1025 1406 1450 917 
Q 1875 428 2675 428 
Q 3081 428 3442 575 
Q 3803 722 4122 1019 
L 4122 359 
Q 3791 134 3420 21 
Q 3050 -91 2638 -91 
Q 1578 -91 968 557 
Q 359 1206 359 2328 
Q 359 3453 968 4101 
Q 1578 4750 2638 4750 
Q 3056 4750 3426 4639 
Q 3797 4528 4122 4306 
z
" transform="scale(0.015625)"/>
       <path id="DejaVuSans-6f" d="M 1959 3097 
Q 1497 3097 1228 2736 
Q 959 2375 959 1747 
Q 959 1119 1226 758 
Q 1494 397 1959 397 
Q 2419 397 2687 759 
Q 2956 1122 2956 1747 
Q 2956 2369 2687 2733 
Q 2419 3097 1959 3097 
z
M 1959 3584 
Q 2709 3584 3137 3096 
Q 3566 2609 3566 1747 
Q 3566 888 3137 398 
Q 2709 -91 1959 -91 
Q 1206 -91 779 398 
Q 353 888 353 1747 
Q 353 2609 779 3096 
Q 1206 3584 1959 3584 
z
" transform="scale(0.015625)"/>
       <path id="DejaVuSans-76" d="M 191 3500 
L 800 3500 
L 1894 563 
L 2988 3500 
L 3597 3500 
L 2284 0 
L 1503 0 
L 191 3500 
z
" transform="scale(0.015625)"/>
       <path id="DejaVuSans-61" d="M 2194 1759 
Q 1497 1759 1228 1600 
Q 959 1441 959 1056 
Q 959 750 1161 570 
Q 1363 391 1709 391 
Q 2188 391 2477 730 
Q 2766 1069 2766 1631 
L 2766 1759 
L 2194 1759 
z
M 3341 1997 
L 3341 0 
L 2766 0 
L 2766 531 
Q 2569 213 2275 61 
Q 1981 -91 1556 -91 
Q 1019 -91 701 211 
Q 384 513 384 1019 
Q 384 1609 779 1909 
Q 1175 2209 1959 2209 
L 2766 2209 
L 2766 2266 
Q 2766 2663 2505 2880 
Q 2244 3097 1772 3097 
Q 1472 3097 1187 3025 
Q 903 2953 641 2809 
L 641 3341 
Q 956 3463 1253 3523 
Q 1550 3584 1831 3584 
Q 2591 3584 2966 3190 
Q 3341 2797 3341 1997 
z
" transform="scale(0.015625)"/>
       <path id="DejaVuSans-67" d="M 2906 1791 
Q 2906 2416 2648 2759 
Q 2391 3103 1925 3103 
Q 1463 3103 1205 2759 
Q 947 2416 947 1791 
Q 947 1169 1205 825 
Q 1463 481 1925 481 
Q 2391 481 2648 825 
Q 2906 1169 2906 1791 
z
M 3481 434 
Q 3481 -459 3084 -895 
Q 2688 -1331 1869 -1331 
Q 1566 -1331 1297 -1286 
Q 1028 -1241 775 -1147 
L 775 -588 
Q 1028 -725 1275 -790 
Q 1522 -856 1778 -856 
Q 2344 -856 2625 -561 
Q 2906 -266 2906 331 
L 2906 616 
Q 2728 306 2450 153 
Q 2172 0 1784 0 
Q 1141 0 747 490 
Q 353 981 353 1791 
Q 353 2603 747 3093 
Q 1141 3584 1784 3584 
Q 2172 3584 2450 3431 
Q 2728 3278 2906 2969 
L 2906 3500 
L 3481 3500 
L 3481 434 
z
" transform="scale(0.015625)"/>
      </defs>
      <use xlink:href="#DejaVuSans-43"/>
      <use xlink:href="#DejaVuSans-6f" x="69.824219"/>
      <use xlink:href="#DejaVuSans-76" x="131.005859"/>
      <use xlink:href="#DejaVuSans-65" x="190.185547"/>
      <use xlink:href="#DejaVuSans-72" x="251.708984"/>
      <use xlink:href="#DejaVuSans-61" x="292.822266"/>
      <use xlink:href="#DejaVuSans-67" x="354.101562"/>
      <use xlink:href="#DejaVuSans-65" x="417.578125"/>
     </g>
    </g>
   </g>
   <g id="line2d_6">
    <path d="M 87.197298 270.815189 
L 88.067835 270.550617 
L 88.938372 270.550617 
L 89.808909 253.617974 
L 90.679446 244.093362 
L 91.549984 267.111174 
L 92.420521 271.344334 
L 93.291058 271.608907 
L 94.161595 264.730021 
L 95.032132 252.030538 
L 95.902669 237.479048 
L 96.773206 233.51046 
L 97.643743 215.519526 
L 98.51428 164.986169 
L 99.384817 60.480012 
L 100.255354 90.112137 
L 101.125891 168.954757 
L 101.996428 181.65424 
L 102.866965 159.694718 
L 103.737502 164.721597 
L 104.608039 157.84271 
L 105.478576 171.600483 
L 106.349113 177.685652 
L 107.21965 160.753008 
L 108.090187 108.632216 
L 108.960724 98.313886 
L 109.831261 149.905534 
L 110.701798 170.542193 
L 111.572335 172.129628 
L 112.442872 169.748475 
L 113.313409 170.542193 
L 114.183946 175.304499 
L 115.054483 187.210263 
L 115.92502 174.510781 
L 116.795557 172.923346 
L 117.666094 162.340444 
L 118.536631 173.187918 
L 119.407168 193.030859 
L 120.277705 179.273087 
L 121.148242 186.416546 
L 122.018779 184.299965 
L 122.889316 193.560005 
L 123.759853 185.887401 
L 124.63039 192.501714 
L 125.500927 183.506248 
L 127.242001 200.438891 
L 128.112538 196.20573 
L 128.983076 190.120561 
L 129.853613 197.26402 
L 130.72415 198.32231 
L 131.594687 198.057738 
L 132.465224 204.407479 
L 133.335761 204.407479 
L 134.206298 213.402946 
L 135.076835 202.026326 
L 135.947372 207.58235 
L 136.817909 207.846922 
L 137.688446 205.730342 
L 138.558983 210.228075 
L 139.42952 216.313244 
L 140.300057 209.963503 
L 141.170594 214.990381 
L 142.041131 214.196664 
L 142.911668 217.371534 
L 143.782205 210.228075 
L 144.652742 224.514993 
L 145.523279 214.725809 
L 146.393816 216.577816 
L 147.264353 218.958969 
L 148.13489 218.694397 
L 149.005427 223.985848 
L 149.875964 224.514993 
L 150.746501 226.102428 
L 151.617038 228.748154 
L 152.487575 230.864734 
L 153.358112 224.25042 
L 154.228649 226.367001 
L 155.099186 224.25042 
L 155.969723 228.483581 
L 156.84026 238.008193 
L 157.710797 225.573283 
L 158.581334 225.044138 
L 159.451871 236.68533 
L 160.322408 238.272766 
L 161.192945 236.420758 
L 162.063482 236.68533 
L 162.934019 236.156185 
L 163.804556 240.124774 
L 164.675093 237.479048 
L 165.54563 231.393879 
L 166.416168 236.420758 
L 167.286705 236.949903 
L 168.157242 239.331056 
L 169.027779 235.62704 
L 169.898316 239.860201 
L 170.768853 236.156185 
L 171.63939 242.241354 
L 172.509927 242.241354 
L 173.380464 242.505926 
L 174.251001 243.564217 
L 175.121538 238.801911 
L 175.992075 233.245887 
L 176.862612 242.241354 
L 177.733149 242.505926 
L 178.603686 251.765966 
L 179.474223 245.416225 
L 180.34476 247.797377 
L 181.215297 242.770499 
L 182.956371 247.268232 
L 183.826908 240.389346 
L 184.697445 228.483581 
L 186.438519 243.564217 
L 187.309056 243.828789 
L 188.179593 248.06195 
L 189.05013 250.443103 
L 189.920667 250.443103 
L 190.791204 254.147119 
L 192.532278 245.151652 
L 193.402815 252.824256 
L 194.273352 245.416225 
L 195.143889 240.653919 
L 196.014426 238.801911 
L 196.884963 242.241354 
L 197.7555 242.241354 
L 198.626037 246.739087 
L 199.496574 252.824256 
L 200.367111 252.559683 
L 201.237648 248.326523 
L 202.108185 241.976781 
L 202.978723 241.712209 
L 203.84926 242.505926 
L 204.719797 240.124774 
L 205.590334 253.088828 
L 206.460871 246.739087 
L 207.331408 245.680797 
L 208.201945 248.326523 
L 209.072482 245.680797 
L 209.943019 247.797377 
L 210.813556 241.447636 
L 211.684093 241.183064 
L 212.55463 241.712209 
L 213.425167 240.124774 
L 214.295704 243.035072 
L 215.166241 248.855668 
L 216.036778 252.295111 
L 216.907315 249.913958 
L 217.777852 245.416225 
L 218.648389 237.214475 
L 219.518926 243.299644 
L 220.389463 239.595628 
L 221.26 239.595628 
L 222.130537 245.94537 
L 223.001074 245.151652 
L 223.871611 249.12024 
L 224.742148 248.855668 
L 225.612685 243.035072 
L 226.483222 241.976781 
L 227.353759 247.797377 
L 228.224296 241.447636 
L 229.094833 242.241354 
L 229.96537 244.093362 
L 230.835907 239.860201 
L 231.706444 240.653919 
L 232.576981 244.357934 
L 233.447518 248.591095 
L 234.318055 239.595628 
L 235.188592 241.976781 
L 236.059129 241.447636 
L 236.929666 242.505926 
L 237.800203 236.156185 
L 238.67074 242.505926 
L 239.541277 250.972248 
L 240.411815 243.564217 
L 241.282352 244.622507 
L 242.152889 241.976781 
L 243.023426 238.008193 
L 243.893963 239.860201 
L 245.635037 248.06195 
L 246.505574 244.622507 
L 247.376111 248.326523 
L 248.246648 238.537338 
L 249.117185 246.739087 
L 249.987722 243.299644 
L 250.858259 241.447636 
L 251.728796 239.331056 
L 252.599333 244.887079 
L 253.46987 245.94537 
L 254.340407 246.209942 
L 255.210944 247.797377 
L 256.081481 251.236821 
L 256.952018 247.268232 
L 257.822555 243.828789 
L 258.693092 248.591095 
L 259.563629 244.887079 
L 260.434166 246.209942 
L 261.304703 249.12024 
L 262.17524 250.972248 
L 263.045777 249.913958 
L 263.916314 252.295111 
L 264.786851 249.12024 
L 265.657388 248.855668 
L 266.527925 250.17853 
L 267.398462 246.474515 
L 268.268999 247.268232 
L 269.139536 252.030538 
L 270.010073 253.882546 
L 270.88061 253.088828 
L 271.751147 255.999127 
L 272.621684 248.855668 
L 273.492221 252.824256 
L 274.362758 252.030538 
L 275.233295 257.057417 
L 276.103832 249.913958 
L 276.97437 255.999127 
L 277.844907 254.940836 
L 278.715444 253.617974 
L 279.585981 250.443103 
L 280.456518 253.882546 
L 281.327055 254.147119 
L 282.197592 254.940836 
L 283.068129 254.411691 
L 283.938666 259.967715 
L 284.809203 254.940836 
L 285.67974 260.49686 
L 286.550277 255.999127 
L 287.420814 256.263699 
L 288.291351 258.38028 
L 289.161888 257.057417 
L 290.032425 257.851134 
L 290.902962 257.851134 
L 291.773499 257.057417 
L 292.644036 259.703142 
L 293.514573 257.586562 
L 294.38511 260.49686 
L 295.255647 259.703142 
L 296.126184 262.084295 
L 296.996721 258.38028 
L 297.867258 259.173997 
L 298.737795 257.851134 
L 299.608332 260.49686 
L 300.478869 259.967715 
L 301.349406 260.49686 
L 303.09048 261.026005 
L 303.961017 262.878013 
L 304.831554 261.026005 
L 305.702091 257.851134 
L 306.572628 261.026005 
L 307.443165 263.142585 
L 308.313702 255.734554 
L 309.184239 258.644852 
L 310.054776 260.761432 
L 310.925313 259.967715 
L 311.79585 262.61344 
L 312.666387 262.61344 
L 313.536924 262.348868 
L 314.407462 259.173997 
L 315.277999 262.61344 
L 316.148536 261.55515 
L 317.019073 261.290578 
L 317.88961 263.142585 
L 318.760147 261.55515 
L 320.501221 263.671731 
L 321.371758 261.55515 
L 322.242295 265.523738 
L 323.112832 262.878013 
L 323.983369 257.057417 
L 324.853906 265.259166 
L 325.724443 264.200876 
L 327.465517 259.967715 
L 328.336054 258.909425 
L 329.206591 261.55515 
L 330.077128 260.232287 
L 330.947665 262.878013 
L 331.818202 261.026005 
L 332.688739 261.55515 
L 333.559276 259.43857 
L 334.429813 260.761432 
L 335.30035 259.967715 
L 336.170887 261.290578 
L 337.041424 260.49686 
L 337.911961 262.348868 
L 338.782498 254.676264 
L 339.653035 263.407158 
L 340.523572 263.671731 
L 341.394109 259.967715 
L 342.264646 262.878013 
L 343.135183 258.909425 
L 344.00572 260.49686 
L 344.876257 259.967715 
L 345.746794 258.38028 
L 346.617331 258.909425 
L 347.487868 261.55515 
L 348.358405 262.084295 
L 349.228942 261.026005 
L 350.099479 259.703142 
L 350.970016 261.55515 
L 351.840554 262.61344 
L 352.711091 262.348868 
L 353.581628 257.321989 
L 354.452165 260.49686 
L 355.322702 261.819723 
L 356.193239 258.115707 
L 357.063776 260.232287 
L 358.80485 258.644852 
L 359.675387 262.61344 
L 360.545924 261.55515 
L 361.416461 262.084295 
L 362.286998 259.173997 
L 363.157535 259.703142 
L 364.028072 259.967715 
L 364.898609 259.43857 
L 365.769146 261.026005 
L 366.639683 258.909425 
L 367.51022 259.967715 
L 368.380757 261.819723 
L 369.251294 258.644852 
L 370.121831 259.703142 
L 370.992368 261.55515 
L 371.862905 261.55515 
L 372.733442 263.407158 
L 373.603979 261.55515 
L 374.474516 260.49686 
L 375.345053 262.348868 
L 376.21559 261.55515 
L 377.086127 264.200876 
L 377.956664 261.55515 
L 378.827201 262.61344 
L 379.697738 263.142585 
L 380.568275 261.290578 
L 381.438812 263.671731 
L 382.309349 262.878013 
L 383.179886 261.55515 
L 384.050423 263.936303 
L 384.92096 260.232287 
L 385.791497 265.523738 
L 386.662034 261.026005 
L 387.532571 262.084295 
L 388.403109 265.259166 
L 389.273646 262.61344 
L 390.144183 262.61344 
L 391.01472 262.084295 
L 391.885257 261.290578 
L 392.755794 263.407158 
L 393.626331 264.994593 
L 394.496868 262.878013 
L 395.367405 262.084295 
L 396.237942 263.142585 
L 398.849553 263.936303 
L 399.72009 265.259166 
L 400.590627 263.407158 
L 401.461164 258.909425 
L 402.331701 264.730021 
L 403.202238 265.523738 
L 404.072775 263.671731 
L 404.943312 259.173997 
L 405.813849 262.61344 
L 406.684386 263.671731 
L 407.554923 267.640319 
L 408.42546 264.200876 
L 409.295997 266.846601 
L 410.166534 267.111174 
L 411.037071 268.698609 
L 411.907608 264.200876 
L 412.778145 267.640319 
L 413.648682 267.111174 
L 414.519219 263.407158 
L 415.389756 266.846601 
L 416.260293 267.111174 
L 417.13083 266.317456 
L 418.001367 264.994593 
L 419.742441 267.111174 
L 420.612978 267.640319 
L 421.483515 266.582029 
L 422.354052 266.317456 
L 423.224589 267.640319 
L 424.095126 266.052883 
L 424.965663 266.052883 
L 425.836201 269.227754 
L 426.706738 265.523738 
L 427.577275 266.582029 
L 428.447812 264.994593 
L 429.318349 266.846601 
L 430.188886 269.492327 
L 431.059423 268.169464 
L 431.92996 266.582029 
L 432.800497 267.904891 
L 433.671034 266.582029 
L 434.541571 266.317456 
L 435.412108 268.434036 
L 436.282645 266.582029 
L 437.153182 266.582029 
L 438.023719 269.492327 
L 438.894256 268.169464 
L 439.764793 269.492327 
L 440.63533 267.904891 
L 441.505867 267.375746 
L 442.376404 266.582029 
L 443.246941 268.434036 
L 444.117478 267.904891 
L 444.988015 268.698609 
L 445.858552 268.434036 
L 446.729089 267.375746 
L 447.599626 268.434036 
L 448.470163 267.111174 
L 449.3407 266.317456 
L 450.211237 268.698609 
L 451.081774 270.550617 
L 451.952311 267.904891 
L 452.822848 268.963182 
L 453.693385 269.756899 
L 454.563922 270.286044 
L 455.434459 270.550617 
L 456.304996 270.550617 
L 457.175533 272.138052 
L 458.04607 270.021472 
L 458.916607 267.375746 
L 459.787144 269.227754 
L 460.657681 268.698609 
L 461.528218 268.434036 
L 462.398755 268.963182 
L 463.269293 268.169464 
L 464.13983 270.286044 
L 465.010367 266.317456 
L 465.880904 269.492327 
L 466.751441 267.111174 
L 467.621978 270.021472 
L 468.492515 268.963182 
L 469.363052 269.756899 
L 470.233589 268.434036 
L 471.104126 270.550617 
L 471.974663 270.286044 
L 472.8452 270.815189 
L 473.715737 270.550617 
L 474.586274 270.021472 
L 475.456811 268.963182 
L 476.327348 269.756899 
L 477.197885 268.963182 
L 478.068422 268.963182 
L 478.938959 268.698609 
L 479.809496 268.963182 
L 480.680033 269.492327 
L 481.55057 269.227754 
L 482.421107 269.227754 
L 483.291644 267.640319 
L 484.162181 268.963182 
L 485.032718 269.227754 
L 485.903255 269.227754 
L 486.773792 270.021472 
L 487.644329 268.963182 
L 488.514866 270.550617 
L 489.385403 267.904891 
L 490.25594 271.608907 
L 491.126477 271.079762 
L 491.997014 268.434036 
L 492.867551 270.815189 
L 493.738088 267.904891 
L 494.608625 270.021472 
L 495.479162 268.169464 
L 496.349699 268.963182 
L 498.090773 271.079762 
L 498.96131 267.640319 
L 499.831848 269.756899 
L 500.702385 270.550617 
L 501.572922 269.756899 
L 502.443459 270.815189 
L 503.313996 269.756899 
L 504.184533 270.550617 
L 505.05507 270.815189 
L 505.925607 270.550617 
L 506.796144 272.138052 
L 508.537218 270.021472 
L 509.407755 272.138052 
L 511.148829 269.492327 
L 512.889903 270.550617 
L 513.76044 269.756899 
L 514.630977 270.815189 
L 515.501514 269.492327 
L 516.372051 269.756899 
L 517.242588 271.079762 
L 518.113125 271.079762 
L 518.983662 271.608907 
L 519.854199 270.550617 
L 520.724736 270.550617 
L 521.595273 271.079762 
L 522.46581 268.963182 
L 523.336347 270.550617 
L 524.206884 270.815189 
L 525.077421 272.138052 
L 525.947958 270.021472 
L 526.818495 270.286044 
L 527.689032 268.698609 
L 528.559569 270.815189 
L 529.430106 271.608907 
L 530.300643 271.079762 
L 531.17118 271.344334 
L 532.041717 272.402625 
L 532.912254 271.87348 
L 533.782791 271.87348 
L 534.653328 271.344334 
L 535.523865 272.138052 
L 536.394402 270.815189 
L 537.26494 271.344334 
L 538.135477 272.402625 
L 539.006014 270.550617 
L 539.876551 270.815189 
L 540.747088 269.756899 
L 541.617625 272.667197 
L 542.488162 273.196342 
L 543.358699 272.402625 
L 544.229236 271.079762 
L 545.099773 272.402625 
L 545.97031 272.667197 
L 546.840847 271.87348 
L 547.711384 271.87348 
L 548.581921 272.93177 
L 549.452458 273.725487 
L 550.322995 271.344334 
L 551.193532 272.402625 
L 552.064069 270.021472 
L 552.934606 271.87348 
L 553.805143 271.87348 
L 554.67568 270.815189 
L 555.546217 271.608907 
L 556.416754 272.93177 
L 557.287291 272.402625 
L 558.157828 273.196342 
L 559.028365 271.87348 
L 559.898902 272.402625 
L 560.769439 272.667197 
L 561.639976 272.667197 
L 562.510513 272.402625 
L 563.38105 271.079762 
L 564.251587 272.667197 
L 565.122124 272.138052 
L 565.992661 272.667197 
L 567.733735 270.550617 
L 568.604272 272.667197 
L 569.474809 272.667197 
L 570.345346 272.402625 
L 571.215883 270.550617 
L 572.08642 271.608907 
L 572.956957 272.402625 
L 573.827495 272.402625 
L 574.698032 272.667197 
L 575.568569 273.725487 
L 576.439106 271.608907 
L 579.050717 273.196342 
L 579.921254 272.402625 
L 581.662328 272.93177 
L 582.532865 273.460915 
L 583.403402 273.460915 
L 584.273939 272.667197 
L 586.015013 273.725487 
L 586.88555 272.93177 
L 587.756087 272.402625 
L 588.626624 272.138052 
L 589.497161 272.93177 
L 590.367698 272.667197 
L 591.238235 273.196342 
L 592.108772 272.93177 
L 592.979309 272.138052 
L 593.849846 271.608907 
L 594.720383 273.196342 
L 595.59092 272.667197 
L 596.461457 273.196342 
L 597.331994 272.667197 
L 599.073068 272.138052 
L 599.943605 273.196342 
L 601.684679 273.725487 
L 602.555216 273.196342 
L 603.425753 272.138052 
L 604.29629 272.402625 
L 605.166827 273.725487 
L 606.037364 273.460915 
L 606.907901 272.93177 
L 607.778438 273.460915 
L 608.648975 273.460915 
L 609.519512 272.402625 
L 610.390049 273.460915 
L 611.260587 273.196342 
L 612.131124 271.87348 
L 613.001661 272.667197 
L 613.872198 272.402625 
L 614.742735 273.460915 
L 615.613272 273.460915 
L 616.483809 272.93177 
L 617.354346 273.725487 
L 618.224883 273.725487 
L 619.09542 273.196342 
L 620.836494 273.196342 
L 621.707031 272.93177 
L 622.577568 273.725487 
L 623.448105 273.460915 
L 624.318642 273.725487 
L 625.189179 272.402625 
L 626.059716 273.196342 
L 626.930253 273.460915 
L 627.80079 272.93177 
L 628.671327 272.93177 
L 629.541864 272.402625 
L 630.412401 273.725487 
L 631.282938 273.196342 
L 632.153475 273.460915 
L 633.024012 273.460915 
L 633.894549 273.725487 
L 634.765086 273.196342 
L 635.635623 273.725487 
L 636.50616 272.667197 
L 637.376697 273.725487 
L 639.117771 273.196342 
L 639.988308 272.667197 
L 640.858845 273.725487 
L 642.599919 273.460915 
L 643.470456 273.725487 
L 644.340993 273.725487 
L 645.21153 272.667197 
L 646.082067 273.460915 
L 646.952604 273.460915 
L 647.823141 272.93177 
L 648.693679 273.725487 
L 650.434753 273.725487 
L 653.046364 273.460915 
L 653.916901 273.725487 
L 654.787438 273.196342 
L 656.528512 273.196342 
L 657.399049 273.460915 
L 658.269586 273.196342 
L 659.140123 273.725487 
L 660.01066 273.460915 
L 660.881197 273.460915 
L 661.751734 273.196342 
L 663.492808 273.725487 
L 664.363345 273.460915 
L 665.233882 273.725487 
L 671.327641 273.196342 
L 672.198178 273.460915 
L 674.809789 273.460915 
L 675.680326 273.725487 
L 680.903548 273.725487 
L 681.774085 272.93177 
L 684.385696 273.196342 
L 685.256234 273.725487 
L 686.126771 273.196342 
L 687.867845 273.725487 
L 688.738382 273.460915 
L 690.479456 273.196342 
L 691.349993 273.725487 
L 692.22053 273.725487 
L 693.091067 273.460915 
L 693.961604 273.725487 
L 694.832141 273.725487 
L 699.184826 273.196342 
L 702.666974 273.725487 
L 705.278585 273.460915 
L 706.149122 273.725487 
L 711.372344 273.725487 
L 713.983955 273.460915 
L 714.854492 273.725487 
L 715.725029 273.460915 
L 718.33664 273.725487 
L 721.818788 273.460915 
L 735.747381 273.725487 
L 736.617918 273.196342 
L 740.100066 273.460915 
L 743.582214 273.460915 
L 754.028658 273.725487 
L 754.028658 273.725487 
" clip-path="url(#pb0ed5b4630)" style="fill: none; stroke: #7cb5ec; stroke-linecap: square"/>
   </g>
   <g id="line2d_7">
    <path d="M 86.326761 273.725487 
L 87.197298 270.550617 
L 88.067835 269.756899 
L 88.938372 268.434036 
L 89.808909 266.846601 
L 90.679446 268.698609 
L 91.549984 270.021472 
L 92.420521 269.756899 
L 93.291058 267.111174 
L 94.161595 260.761432 
L 95.902669 236.156185 
L 96.773206 225.044138 
L 97.643743 216.842389 
L 98.51428 203.349189 
L 99.384817 199.380601 
L 100.255354 201.497181 
L 101.125891 209.963503 
L 101.996428 186.945691 
L 102.866965 193.295432 
L 103.737502 181.125095 
L 104.608039 182.977103 
L 105.478576 200.703463 
L 106.349113 196.734875 
L 107.21965 200.968036 
L 108.090187 177.685652 
L 108.960724 191.178852 
L 109.831261 196.734875 
L 110.701798 191.707997 
L 111.572335 195.412012 
L 112.442872 188.797699 
L 113.313409 197.793165 
L 114.183946 190.914279 
L 115.054483 205.994914 
L 115.92502 205.994914 
L 116.795557 197.528593 
L 117.666094 202.555471 
L 118.536631 203.878334 
L 119.407168 205.465769 
L 120.277705 206.52406 
L 121.148242 207.846922 
L 122.018779 210.492648 
L 122.889316 213.667518 
L 123.759853 221.07555 
L 124.63039 221.07555 
L 125.500927 214.461236 
L 126.371464 212.344656 
L 127.242001 214.461236 
L 128.112538 217.900679 
L 128.983076 202.026326 
L 129.853613 223.456703 
L 130.72415 222.398413 
L 131.594687 217.371534 
L 132.465224 228.748154 
L 133.335761 219.752687 
L 134.206298 226.102428 
L 135.076835 219.488115 
L 135.947372 220.546405 
L 136.817909 219.223542 
L 137.688446 215.519526 
L 138.558983 226.631573 
L 139.42952 222.13384 
L 140.300057 223.985848 
L 141.170594 230.335589 
L 142.041131 234.039605 
L 142.911668 232.187597 
L 143.782205 233.245887 
L 144.652742 233.51046 
L 145.523279 236.949903 
L 146.393816 237.743621 
L 147.264353 232.716742 
L 148.13489 230.071017 
L 149.005427 235.362468 
L 149.875964 235.097895 
L 150.746501 232.716742 
L 151.617038 237.479048 
L 152.487575 234.833322 
L 154.228649 230.600162 
L 155.099186 233.775032 
L 155.969723 235.62704 
L 156.84026 241.447636 
L 157.710797 239.595628 
L 158.581334 248.326523 
L 159.451871 244.887079 
L 160.322408 246.739087 
L 161.192945 242.505926 
L 162.063482 242.241354 
L 162.934019 245.680797 
L 163.804556 241.712209 
L 164.675093 243.299644 
L 165.54563 243.035072 
L 166.416168 246.739087 
L 167.286705 243.035072 
L 168.157242 244.093362 
L 169.027779 245.680797 
L 169.898316 243.828789 
L 170.768853 245.151652 
L 171.63939 248.591095 
L 172.509927 244.357934 
L 173.380464 248.06195 
L 174.251001 243.828789 
L 175.121538 248.06195 
L 175.992075 245.680797 
L 176.862612 250.972248 
L 177.733149 247.00366 
L 178.603686 251.501393 
L 179.474223 251.501393 
L 180.34476 252.030538 
L 182.085834 253.617974 
L 182.956371 249.913958 
L 183.826908 249.649385 
L 184.697445 248.326523 
L 185.567982 249.913958 
L 186.438519 245.416225 
L 187.309056 250.972248 
L 188.179593 252.824256 
L 189.05013 252.824256 
L 189.920667 257.057417 
L 190.791204 250.972248 
L 191.661741 249.384813 
L 192.532278 253.882546 
L 193.402815 250.17853 
L 194.273352 255.205409 
L 196.014426 250.17853 
L 196.884963 246.739087 
L 197.7555 254.147119 
L 198.626037 254.147119 
L 199.496574 250.707676 
L 200.367111 255.205409 
L 201.237648 249.384813 
L 202.108185 252.559683 
L 202.978723 255.205409 
L 203.84926 250.443103 
L 204.719797 257.851134 
L 205.590334 256.792844 
L 206.460871 252.824256 
L 207.331408 258.909425 
L 208.201945 252.824256 
L 209.072482 253.882546 
L 209.943019 250.17853 
L 210.813556 250.972248 
L 212.55463 253.088828 
L 213.425167 252.824256 
L 214.295704 253.882546 
L 215.166241 255.205409 
L 216.036778 255.469981 
L 216.907315 253.353401 
L 217.777852 250.17853 
L 218.648389 250.707676 
L 219.518926 245.416225 
L 220.389463 251.236821 
L 221.26 246.474515 
L 222.130537 253.088828 
L 223.001074 255.999127 
L 223.871611 250.17853 
L 224.742148 255.999127 
L 225.612685 253.353401 
L 226.483222 253.353401 
L 227.353759 251.765966 
L 228.224296 252.559683 
L 229.094833 250.972248 
L 229.96537 253.617974 
L 230.835907 249.913958 
L 231.706444 252.030538 
L 232.576981 250.443103 
L 233.447518 249.12024 
L 234.318055 250.972248 
L 235.188592 247.532805 
L 236.059129 250.443103 
L 236.929666 252.030538 
L 237.800203 245.94537 
L 239.541277 252.295111 
L 240.411815 252.295111 
L 241.282352 251.501393 
L 242.152889 251.501393 
L 243.023426 253.088828 
L 243.893963 249.913958 
L 244.7645 251.236821 
L 245.635037 253.088828 
L 246.505574 250.443103 
L 247.376111 247.00366 
L 248.246648 254.940836 
L 249.117185 251.236821 
L 249.987722 248.06195 
L 250.858259 250.972248 
L 251.728796 248.591095 
L 252.599333 252.824256 
L 254.340407 250.17853 
L 255.210944 251.501393 
L 256.081481 259.703142 
L 256.952018 252.295111 
L 257.822555 256.528272 
L 258.693092 253.617974 
L 260.434166 255.734554 
L 261.304703 255.469981 
L 262.17524 249.12024 
L 263.045777 253.353401 
L 263.916314 255.469981 
L 264.786851 252.295111 
L 265.657388 253.353401 
L 266.527925 250.972248 
L 267.398462 260.232287 
L 268.268999 255.205409 
L 269.139536 252.295111 
L 270.010073 256.528272 
L 270.88061 254.940836 
L 271.751147 257.851134 
L 272.621684 255.205409 
L 273.492221 255.999127 
L 274.362758 254.411691 
L 275.233295 259.967715 
L 276.103832 254.676264 
L 276.97437 255.999127 
L 277.844907 256.528272 
L 278.715444 254.411691 
L 279.585981 257.057417 
L 280.456518 257.321989 
L 281.327055 253.882546 
L 282.197592 260.761432 
L 283.068129 259.967715 
L 283.938666 256.263699 
L 284.809203 257.586562 
L 285.67974 262.348868 
L 286.550277 258.38028 
L 287.420814 258.38028 
L 288.291351 255.999127 
L 289.161888 255.205409 
L 290.032425 260.49686 
L 290.902962 258.115707 
L 291.773499 259.967715 
L 292.644036 259.43857 
L 293.514573 261.819723 
L 294.38511 260.49686 
L 295.255647 261.290578 
L 296.996721 258.644852 
L 297.867258 262.348868 
L 299.608332 257.851134 
L 300.478869 260.232287 
L 301.349406 258.909425 
L 302.219943 259.173997 
L 303.09048 261.290578 
L 303.961017 262.61344 
L 304.831554 263.407158 
L 305.702091 262.61344 
L 306.572628 261.55515 
L 307.443165 261.026005 
L 308.313702 258.644852 
L 309.184239 258.909425 
L 310.054776 261.819723 
L 310.925313 261.55515 
L 311.79585 261.55515 
L 312.666387 261.819723 
L 313.536924 261.819723 
L 314.407462 261.290578 
L 315.277999 262.084295 
L 316.148536 260.232287 
L 317.019073 260.761432 
L 317.88961 263.671731 
L 318.760147 264.200876 
L 319.630684 264.465448 
L 320.501221 262.61344 
L 321.371758 262.878013 
L 322.242295 265.788311 
L 323.112832 264.465448 
L 323.983369 260.49686 
L 324.853906 262.348868 
L 325.724443 265.788311 
L 326.59498 261.290578 
L 327.465517 263.671731 
L 328.336054 261.55515 
L 329.206591 262.348868 
L 330.077128 261.819723 
L 330.947665 263.142585 
L 331.818202 263.936303 
L 332.688739 262.348868 
L 333.559276 259.703142 
L 334.429813 266.052883 
L 335.30035 262.878013 
L 336.170887 263.671731 
L 337.041424 262.084295 
L 337.911961 264.200876 
L 338.782498 263.407158 
L 339.653035 261.55515 
L 340.523572 259.967715 
L 341.394109 266.846601 
L 342.264646 262.348868 
L 343.135183 261.55515 
L 344.00572 256.792844 
L 344.876257 264.465448 
L 345.746794 262.348868 
L 346.617331 263.671731 
L 347.487868 259.43857 
L 348.358405 263.407158 
L 349.228942 263.142585 
L 350.099479 260.232287 
L 351.840554 265.259166 
L 352.711091 261.55515 
L 353.581628 261.290578 
L 354.452165 263.936303 
L 355.322702 262.878013 
L 356.193239 262.348868 
L 357.063776 262.61344 
L 357.934313 259.703142 
L 358.80485 262.878013 
L 359.675387 261.55515 
L 360.545924 258.38028 
L 361.416461 264.200876 
L 362.286998 262.878013 
L 363.157535 260.761432 
L 364.028072 263.671731 
L 364.898609 262.348868 
L 365.769146 260.232287 
L 366.639683 261.026005 
L 367.51022 264.994593 
L 368.380757 262.61344 
L 369.251294 263.407158 
L 370.121831 264.730021 
L 370.992368 264.730021 
L 372.733442 263.142585 
L 374.474516 259.967715 
L 375.345053 259.967715 
L 376.21559 262.084295 
L 377.086127 264.730021 
L 377.956664 258.644852 
L 378.827201 261.819723 
L 379.697738 263.407158 
L 380.568275 260.761432 
L 381.438812 262.348868 
L 382.309349 262.348868 
L 383.179886 264.465448 
L 384.050423 262.878013 
L 384.92096 264.200876 
L 385.791497 262.61344 
L 386.662034 264.465448 
L 387.532571 264.994593 
L 388.403109 265.788311 
L 389.273646 263.407158 
L 390.144183 263.407158 
L 391.01472 264.994593 
L 391.885257 265.523738 
L 392.755794 262.084295 
L 393.626331 264.730021 
L 394.496868 263.936303 
L 395.367405 261.026005 
L 396.237942 266.052883 
L 397.108479 262.084295 
L 397.979016 263.142585 
L 398.849553 262.61344 
L 399.72009 264.730021 
L 400.590627 263.936303 
L 401.461164 265.259166 
L 402.331701 264.730021 
L 403.202238 266.317456 
L 404.072775 260.49686 
L 404.943312 260.761432 
L 405.813849 265.788311 
L 406.684386 265.259166 
L 407.554923 264.465448 
L 408.42546 262.084295 
L 409.295997 266.052883 
L 410.166534 262.878013 
L 411.037071 264.730021 
L 411.907608 265.523738 
L 412.778145 264.200876 
L 413.648682 261.55515 
L 414.519219 263.407158 
L 415.389756 266.052883 
L 416.260293 266.052883 
L 417.13083 261.55515 
L 418.001367 266.317456 
L 418.871904 264.994593 
L 419.742441 269.227754 
L 420.612978 264.730021 
L 421.483515 266.317456 
L 422.354052 267.111174 
L 423.224589 262.878013 
L 424.095126 263.142585 
L 424.965663 267.111174 
L 425.836201 265.523738 
L 426.706738 266.846601 
L 427.577275 266.052883 
L 428.447812 267.640319 
L 429.318349 265.259166 
L 430.188886 263.936303 
L 431.059423 264.730021 
L 431.92996 267.375746 
L 432.800497 265.788311 
L 433.671034 265.788311 
L 434.541571 266.052883 
L 435.412108 265.788311 
L 436.282645 267.375746 
L 437.153182 267.640319 
L 438.023719 264.730021 
L 438.894256 265.788311 
L 439.764793 265.259166 
L 440.63533 267.111174 
L 441.505867 264.994593 
L 442.376404 266.846601 
L 443.246941 264.465448 
L 444.117478 266.317456 
L 444.988015 266.582029 
L 445.858552 266.317456 
L 446.729089 267.640319 
L 447.599626 266.052883 
L 448.470163 268.434036 
L 449.3407 266.317456 
L 450.211237 266.052883 
L 451.081774 267.904891 
L 451.952311 265.523738 
L 452.822848 266.582029 
L 453.693385 268.169464 
L 454.563922 268.169464 
L 455.434459 267.111174 
L 456.304996 269.756899 
L 457.175533 268.169464 
L 458.04607 263.671731 
L 458.916607 266.846601 
L 459.787144 267.111174 
L 460.657681 269.492327 
L 461.528218 267.111174 
L 462.398755 267.904891 
L 463.269293 267.640319 
L 464.13983 268.963182 
L 465.010367 269.227754 
L 465.880904 270.286044 
L 466.751441 265.523738 
L 467.621978 268.698609 
L 468.492515 269.492327 
L 469.363052 265.788311 
L 470.233589 267.904891 
L 471.104126 267.640319 
L 471.974663 267.904891 
L 472.8452 267.904891 
L 473.715737 266.052883 
L 474.586274 269.227754 
L 475.456811 266.846601 
L 478.068422 269.227754 
L 478.938959 266.317456 
L 479.809496 267.375746 
L 480.680033 266.317456 
L 481.55057 269.227754 
L 482.421107 270.550617 
L 483.291644 267.640319 
L 484.162181 268.434036 
L 485.903255 267.904891 
L 486.773792 269.227754 
L 487.644329 268.698609 
L 488.514866 267.904891 
L 489.385403 268.698609 
L 490.25594 269.227754 
L 491.126477 268.434036 
L 491.997014 269.756899 
L 492.867551 268.434036 
L 493.738088 268.169464 
L 494.608625 266.052883 
L 495.479162 267.640319 
L 496.349699 265.259166 
L 497.220236 267.904891 
L 498.090773 266.582029 
L 498.96131 267.904891 
L 499.831848 268.698609 
L 500.702385 270.021472 
L 501.572922 267.904891 
L 502.443459 269.492327 
L 503.313996 268.434036 
L 504.184533 267.640319 
L 505.05507 269.492327 
L 505.925607 266.582029 
L 506.796144 268.698609 
L 507.666681 269.227754 
L 508.537218 268.698609 
L 509.407755 268.434036 
L 510.278292 269.492327 
L 511.148829 267.640319 
L 512.019366 266.846601 
L 512.889903 268.169464 
L 513.76044 267.375746 
L 514.630977 267.904891 
L 515.501514 268.698609 
L 516.372051 268.963182 
L 517.242588 268.963182 
L 518.983662 271.079762 
L 519.854199 269.492327 
L 520.724736 270.286044 
L 521.595273 270.021472 
L 522.46581 268.434036 
L 523.336347 270.815189 
L 524.206884 269.227754 
L 525.077421 268.434036 
L 525.947958 268.434036 
L 526.818495 269.227754 
L 527.689032 270.550617 
L 528.559569 270.021472 
L 529.430106 271.079762 
L 530.300643 269.227754 
L 531.17118 269.227754 
L 532.041717 270.815189 
L 532.912254 269.492327 
L 533.782791 268.963182 
L 534.653328 270.550617 
L 535.523865 268.434036 
L 537.26494 270.550617 
L 538.135477 271.079762 
L 539.006014 269.227754 
L 539.876551 266.317456 
L 540.747088 269.227754 
L 541.617625 268.169464 
L 542.488162 269.492327 
L 543.358699 269.492327 
L 544.229236 268.698609 
L 545.099773 270.286044 
L 545.97031 269.492327 
L 546.840847 269.492327 
L 547.711384 270.815189 
L 548.581921 271.608907 
L 549.452458 270.286044 
L 550.322995 269.492327 
L 551.193532 271.87348 
L 552.934606 269.227754 
L 553.805143 271.079762 
L 554.67568 268.434036 
L 555.546217 270.286044 
L 556.416754 271.608907 
L 557.287291 268.698609 
L 558.157828 269.227754 
L 559.028365 269.227754 
L 561.639976 271.608907 
L 562.510513 270.286044 
L 564.251587 270.286044 
L 565.992661 269.756899 
L 566.863198 270.815189 
L 567.733735 269.492327 
L 568.604272 270.550617 
L 569.474809 271.344334 
L 570.345346 270.286044 
L 571.215883 271.079762 
L 572.08642 270.550617 
L 573.827495 271.608907 
L 574.698032 270.815189 
L 575.568569 270.815189 
L 576.439106 270.550617 
L 577.309643 270.815189 
L 578.18018 269.227754 
L 579.050717 271.87348 
L 579.921254 271.87348 
L 580.791791 270.550617 
L 581.662328 270.286044 
L 582.532865 269.756899 
L 583.403402 270.286044 
L 584.273939 272.667197 
L 585.144476 272.667197 
L 586.015013 269.756899 
L 586.88555 272.138052 
L 588.626624 272.667197 
L 589.497161 271.079762 
L 590.367698 271.344334 
L 591.238235 271.079762 
L 592.108772 271.079762 
L 592.979309 271.344334 
L 593.849846 272.667197 
L 594.720383 271.079762 
L 595.59092 271.079762 
L 596.461457 270.286044 
L 597.331994 271.079762 
L 598.202531 272.138052 
L 599.073068 271.87348 
L 600.814142 270.815189 
L 601.684679 272.667197 
L 602.555216 271.344334 
L 603.425753 272.138052 
L 605.166827 272.138052 
L 606.037364 271.608907 
L 606.907901 271.344334 
L 607.778438 273.196342 
L 608.648975 271.344334 
L 609.519512 271.608907 
L 610.390049 272.93177 
L 611.260587 272.667197 
L 612.131124 271.079762 
L 613.001661 270.815189 
L 613.872198 272.402625 
L 614.742735 272.138052 
L 615.613272 272.138052 
L 616.483809 271.344334 
L 617.354346 271.344334 
L 618.224883 272.402625 
L 619.09542 271.344334 
L 619.965957 272.93177 
L 620.836494 272.667197 
L 621.707031 271.079762 
L 622.577568 271.608907 
L 623.448105 273.460915 
L 624.318642 271.87348 
L 625.189179 272.138052 
L 626.059716 272.667197 
L 626.930253 271.608907 
L 628.671327 272.667197 
L 629.541864 272.667197 
L 630.412401 271.608907 
L 631.282938 271.87348 
L 632.153475 272.667197 
L 633.024012 271.87348 
L 633.894549 272.138052 
L 634.765086 271.87348 
L 635.635623 271.87348 
L 636.50616 273.725487 
L 637.376697 272.138052 
L 639.117771 271.608907 
L 639.988308 271.608907 
L 640.858845 273.460915 
L 641.729382 271.87348 
L 642.599919 271.344334 
L 643.470456 270.021472 
L 644.340993 272.667197 
L 645.21153 271.344334 
L 646.082067 273.196342 
L 646.952604 273.460915 
L 647.823141 272.402625 
L 648.693679 272.93177 
L 649.564216 272.138052 
L 650.434753 271.608907 
L 651.30529 273.196342 
L 652.175827 272.402625 
L 653.046364 271.87348 
L 654.787438 272.402625 
L 655.657975 272.93177 
L 656.528512 272.138052 
L 657.399049 272.667197 
L 659.140123 272.138052 
L 660.01066 272.667197 
L 660.881197 273.725487 
L 661.751734 272.402625 
L 663.492808 273.460915 
L 664.363345 272.402625 
L 666.104419 273.460915 
L 666.974956 273.196342 
L 667.845493 272.138052 
L 668.71603 273.196342 
L 669.586567 273.725487 
L 670.457104 273.460915 
L 671.327641 273.460915 
L 672.198178 272.402625 
L 673.068715 272.402625 
L 673.939252 273.196342 
L 674.809789 273.196342 
L 675.680326 272.138052 
L 676.550863 273.196342 
L 677.4214 272.667197 
L 678.291937 272.93177 
L 679.162474 273.725487 
L 680.033011 273.196342 
L 680.903548 273.196342 
L 681.774085 273.725487 
L 682.644622 273.196342 
L 683.515159 273.460915 
L 684.385696 273.460915 
L 685.256234 272.93177 
L 686.126771 272.93177 
L 686.997308 272.667197 
L 687.867845 273.725487 
L 688.738382 273.196342 
L 689.608919 273.196342 
L 690.479456 273.460915 
L 691.349993 273.196342 
L 692.22053 272.667197 
L 693.961604 272.667197 
L 694.832141 273.196342 
L 695.702678 273.196342 
L 696.573215 272.402625 
L 697.443752 273.196342 
L 698.314289 272.138052 
L 699.184826 273.196342 
L 700.055363 273.196342 
L 700.9259 272.93177 
L 701.796437 273.460915 
L 702.666974 273.196342 
L 704.408048 273.460915 
L 705.278585 273.196342 
L 706.149122 273.196342 
L 707.019659 272.667197 
L 707.890196 273.196342 
L 708.760733 272.667197 
L 709.63127 273.460915 
L 710.501807 273.196342 
L 711.372344 273.725487 
L 712.242881 273.725487 
L 713.113418 273.460915 
L 714.854492 273.460915 
L 715.725029 272.402625 
L 716.595566 273.725487 
L 717.466103 273.196342 
L 718.33664 272.93177 
L 719.207177 273.725487 
L 720.077714 273.460915 
L 722.689326 273.460915 
L 723.559863 273.196342 
L 724.4304 273.196342 
L 725.300937 273.725487 
L 726.171474 273.725487 
L 727.912548 272.667197 
L 728.783085 272.93177 
L 729.653622 273.725487 
L 730.524159 273.460915 
L 731.394696 272.93177 
L 734.006307 273.725487 
L 734.876844 273.196342 
L 735.747381 273.725487 
L 737.488455 273.725487 
L 738.358992 273.196342 
L 739.229529 273.460915 
L 740.100066 273.196342 
L 740.970603 273.460915 
L 741.84114 273.460915 
L 743.582214 273.725487 
L 744.452751 273.725487 
L 746.193825 273.196342 
L 747.064362 273.725487 
L 747.934899 273.196342 
L 749.675973 273.196342 
L 750.54651 273.725487 
L 751.417047 273.725487 
L 752.287584 273.460915 
L 754.028658 273.196342 
L 754.899195 273.725487 
L 758.381343 273.725487 
L 759.25188 273.460915 
L 760.992955 273.725487 
L 761.863492 273.460915 
L 762.734029 273.725487 
L 763.604566 273.196342 
L 765.34564 273.460915 
L 766.216177 273.196342 
L 767.086714 273.460915 
L 768.827788 272.93177 
L 772.309936 273.725487 
L 778.403695 273.725487 
L 779.274232 273.460915 
L 781.015306 273.725487 
L 795.814435 273.725487 
L 798.426047 273.460915 
L 801.037658 273.460915 
L 801.908195 273.196342 
L 805.390343 273.725487 
L 811.484102 273.725487 
L 814.095713 273.460915 
L 816.707324 273.725487 
L 821.930546 273.725487 
L 822.801083 273.460915 
L 823.67162 273.725487 
L 829.765379 273.725487 
L 832.37699 273.460915 
L 835.859139 273.725487 
L 949.899489 273.725487 
L 949.899489 273.725487 
" clip-path="url(#pb0ed5b4630)" style="fill: none; stroke: #434348; stroke-linecap: square"/>
   </g>
   <g id="line2d_8">
    <path d="M 87.197298 268.963182 
L 88.067835 265.788311 
L 88.938372 261.290578 
L 89.808909 262.084295 
L 91.549984 266.846601 
L 92.420521 265.788311 
L 93.291058 262.61344 
L 94.161595 255.205409 
L 95.032132 232.187597 
L 95.902669 185.093683 
L 96.773206 155.72613 
L 97.643743 135.089471 
L 98.51428 120.273408 
L 99.384817 111.807086 
L 100.255354 107.309353 
L 101.125891 85.614404 
L 101.996428 67.888043 
L 102.866965 53.865698 
L 103.737502 55.453133 
L 105.478576 43.018223 
L 106.349113 51.749117 
L 107.21965 51.749117 
L 108.090187 45.134804 
L 108.960724 72.385776 
L 109.831261 64.4486 
L 110.701798 69.210906 
L 111.572335 67.358898 
L 112.442872 63.39031 
L 113.313409 53.865698 
L 114.183946 47.515957 
L 115.054483 62.067447 
L 115.92502 58.628004 
L 116.795557 69.210906 
L 117.666094 75.82522 
L 118.536631 80.322953 
L 119.407168 82.704106 
L 120.277705 80.852098 
L 121.148242 86.672694 
L 122.018779 82.439533 
L 122.889316 77.148082 
L 123.759853 81.116671 
L 124.63039 83.762396 
L 125.500927 77.677227 
L 126.371464 81.645816 
L 127.242001 106.251063 
L 128.112538 100.430467 
L 128.983076 99.372177 
L 129.853613 111.013369 
L 130.72415 106.515635 
L 131.594687 92.49329 
L 132.465224 96.197306 
L 133.335761 102.81162 
L 134.206298 93.55158 
L 135.076835 111.013369 
L 135.947372 108.103071 
L 136.817909 113.923667 
L 137.688446 110.748796 
L 138.558983 135.618616 
L 139.42952 122.125416 
L 140.300057 129.004302 
L 141.170594 125.300286 
L 142.041131 125.564859 
L 142.911668 131.385455 
L 143.782205 131.650028 
L 144.652742 136.676906 
L 145.523279 138.528914 
L 146.393816 147.788953 
L 147.264353 146.995236 
L 148.13489 139.587204 
L 149.005427 144.084938 
L 149.875964 140.645494 
L 150.746501 152.815832 
L 151.617038 140.910067 
L 153.358112 153.874122 
L 154.228649 155.461557 
L 155.099186 157.313565 
L 155.969723 164.721597 
L 156.84026 166.573604 
L 157.710797 161.282153 
L 158.581334 161.282153 
L 159.451871 152.551259 
L 160.322408 162.340444 
L 161.192945 168.16104 
L 162.063482 170.542193 
L 162.934019 173.717063 
L 163.804556 173.452491 
L 164.675093 175.304499 
L 165.54563 171.865055 
L 166.416168 188.533126 
L 167.286705 179.537659 
L 168.157242 182.183385 
L 169.027779 189.591416 
L 169.898316 189.326844 
L 170.768853 182.183385 
L 171.63939 192.237142 
L 172.509927 188.533126 
L 173.380464 183.77082 
L 174.251001 185.622828 
L 175.121538 194.882867 
L 175.992075 192.766287 
L 176.862612 193.560005 
L 177.733149 191.972569 
L 178.603686 202.026326 
L 179.474223 196.734875 
L 180.34476 193.560005 
L 181.215297 202.555471 
L 182.085834 202.555471 
L 182.956371 199.645173 
L 183.826908 191.443424 
L 184.697445 180.066804 
L 185.567982 187.474836 
L 186.438519 199.645173 
L 187.309056 195.14744 
L 188.179593 205.730342 
L 189.05013 212.080083 
L 189.920667 212.609228 
L 190.791204 209.434358 
L 191.661741 218.694397 
L 192.532278 203.878334 
L 193.402815 205.994914 
L 194.273352 201.232609 
L 195.143889 186.945691 
L 196.014426 157.578138 
L 196.884963 173.452491 
L 197.7555 183.506248 
L 198.626037 205.730342 
L 199.496574 207.58235 
L 200.367111 203.613762 
L 201.237648 213.667518 
L 202.108185 207.317777 
L 202.978723 199.380601 
L 203.84926 194.882867 
L 204.719797 196.734875 
L 205.590334 199.645173 
L 206.460871 198.851456 
L 208.201945 203.349189 
L 209.072482 193.560005 
L 209.943019 200.438891 
L 210.813556 195.676585 
L 211.684093 196.734875 
L 212.55463 190.649707 
L 213.425167 191.707997 
L 214.295704 207.317777 
L 215.166241 194.882867 
L 216.036778 208.376067 
L 216.907315 186.416546 
L 217.777852 191.178852 
L 218.648389 183.77082 
L 219.518926 191.707997 
L 220.389463 185.093683 
L 221.26 199.116028 
L 222.130537 190.385134 
L 223.001074 198.057738 
L 223.871611 198.586883 
L 224.742148 190.385134 
L 225.612685 195.412012 
L 226.483222 190.649707 
L 227.353759 187.474836 
L 228.224296 191.443424 
L 229.094833 183.506248 
L 229.96537 186.151973 
L 230.835907 189.855989 
L 231.706444 189.855989 
L 232.576981 185.887401 
L 233.447518 188.268554 
L 234.318055 189.326844 
L 235.188592 190.120561 
L 236.059129 180.331377 
L 236.929666 183.77082 
L 237.800203 184.564538 
L 238.67074 190.649707 
L 239.541277 189.326844 
L 240.411815 181.918812 
L 241.282352 186.151973 
L 242.152889 182.71253 
L 243.023426 192.501714 
L 243.893963 185.887401 
L 244.7645 186.416546 
L 245.635037 191.707997 
L 246.505574 188.268554 
L 247.376111 176.627361 
L 248.246648 185.887401 
L 249.117185 188.797699 
L 249.987722 196.734875 
L 250.858259 191.443424 
L 251.728796 199.645173 
L 252.599333 193.295432 
L 253.46987 197.793165 
L 254.340407 199.116028 
L 255.210944 193.560005 
L 256.081481 196.20573 
L 256.952018 190.649707 
L 257.822555 209.169785 
L 259.563629 196.20573 
L 260.434166 207.053205 
L 261.304703 195.941158 
L 262.17524 199.116028 
L 263.916314 211.815511 
L 264.786851 206.788632 
L 265.657388 203.084616 
L 266.527925 206.788632 
L 267.398462 199.116028 
L 268.268999 205.465769 
L 269.139536 209.434358 
L 270.010073 209.69893 
L 271.751147 220.281832 
L 272.621684 216.048671 
L 273.492221 216.577816 
L 274.362758 221.869268 
L 275.233295 210.228075 
L 276.103832 219.752687 
L 276.97437 212.609228 
L 277.844907 216.577816 
L 278.715444 221.340122 
L 279.585981 221.869268 
L 280.456518 221.07555 
L 281.327055 223.19213 
L 282.197592 230.335589 
L 283.068129 221.340122 
L 283.938666 225.573283 
L 284.809203 232.981315 
L 285.67974 228.748154 
L 286.550277 226.896146 
L 287.420814 227.689864 
L 288.291351 228.219009 
L 289.161888 233.51046 
L 290.032425 228.748154 
L 290.902962 232.981315 
L 291.773499 228.748154 
L 292.644036 232.187597 
L 293.514573 236.420758 
L 294.38511 230.600162 
L 295.255647 235.097895 
L 296.126184 238.008193 
L 296.996721 233.245887 
L 297.867258 232.45217 
L 298.737795 236.156185 
L 299.608332 241.447636 
L 300.478869 240.124774 
L 301.349406 232.187597 
L 302.219943 233.51046 
L 303.961017 242.770499 
L 304.831554 239.860201 
L 305.702091 236.156185 
L 306.572628 240.389346 
L 307.443165 242.505926 
L 308.313702 235.362468 
L 310.054776 244.622507 
L 310.925313 243.564217 
L 311.79585 242.241354 
L 312.666387 239.331056 
L 313.536924 245.94537 
L 314.407462 239.331056 
L 315.277999 242.241354 
L 316.148536 246.474515 
L 317.019073 236.68533 
L 317.88961 239.066483 
L 318.760147 238.008193 
L 319.630684 240.389346 
L 320.501221 243.564217 
L 321.371758 237.743621 
L 322.242295 242.241354 
L 323.112832 241.183064 
L 323.983369 239.066483 
L 324.853906 236.156185 
L 325.724443 241.712209 
L 326.59498 231.923024 
L 327.465517 235.362468 
L 328.336054 241.712209 
L 329.206591 240.389346 
L 330.077128 241.183064 
L 330.947665 246.474515 
L 331.818202 242.770499 
L 332.688739 236.420758 
L 333.559276 242.770499 
L 334.429813 239.066483 
L 335.30035 240.918491 
L 336.170887 238.008193 
L 337.041424 237.479048 
L 337.911961 235.891613 
L 338.782498 239.860201 
L 339.653035 241.183064 
L 340.523572 242.241354 
L 341.394109 244.622507 
L 342.264646 240.653919 
L 343.135183 238.008193 
L 344.00572 236.156185 
L 344.876257 232.45217 
L 345.746794 237.479048 
L 346.617331 241.183064 
L 347.487868 238.008193 
L 348.358405 236.420758 
L 349.228942 238.537338 
L 350.099479 237.479048 
L 350.970016 234.039605 
L 351.840554 234.833322 
L 352.711091 239.066483 
L 354.452165 233.245887 
L 355.322702 236.420758 
L 356.193239 242.770499 
L 357.063776 238.801911 
L 357.934313 238.801911 
L 358.80485 236.156185 
L 359.675387 235.362468 
L 360.545924 238.801911 
L 361.416461 236.949903 
L 362.286998 242.505926 
L 363.157535 241.976781 
L 364.028072 240.389346 
L 364.898609 240.124774 
L 365.769146 234.304177 
L 366.639683 232.981315 
L 367.51022 235.097895 
L 368.380757 239.066483 
L 369.251294 237.214475 
L 370.121831 237.479048 
L 371.862905 241.976781 
L 372.733442 234.56875 
L 373.603979 237.214475 
L 374.474516 237.479048 
L 375.345053 239.331056 
L 376.21559 239.331056 
L 377.086127 236.949903 
L 377.956664 236.420758 
L 378.827201 243.299644 
L 379.697738 238.272766 
L 380.568275 238.008193 
L 381.438812 241.447636 
L 382.309349 242.505926 
L 383.179886 242.770499 
L 384.050423 238.537338 
L 384.92096 239.595628 
L 385.791497 244.622507 
L 386.662034 241.976781 
L 387.532571 242.770499 
L 389.273646 236.949903 
L 390.144183 240.124774 
L 391.01472 237.479048 
L 391.885257 238.008193 
L 392.755794 247.532805 
L 393.626331 241.712209 
L 394.496868 242.505926 
L 395.367405 242.505926 
L 396.237942 245.94537 
L 397.108479 241.183064 
L 397.979016 240.389346 
L 398.849553 241.976781 
L 399.72009 240.653919 
L 400.590627 251.765966 
L 401.461164 247.532805 
L 402.331701 245.416225 
L 403.202238 244.622507 
L 404.072775 249.12024 
L 404.943312 242.241354 
L 405.813849 239.331056 
L 406.684386 249.12024 
L 407.554923 249.12024 
L 408.42546 245.94537 
L 409.295997 248.591095 
L 410.166534 247.00366 
L 411.037071 248.591095 
L 411.907608 246.474515 
L 412.778145 249.12024 
L 413.648682 248.326523 
L 414.519219 249.649385 
L 415.389756 251.236821 
L 416.260293 251.236821 
L 417.13083 253.088828 
L 418.001367 250.443103 
L 418.871904 254.147119 
L 419.742441 251.501393 
L 420.612978 251.765966 
L 421.483515 253.617974 
L 422.354052 251.236821 
L 423.224589 256.528272 
L 424.095126 253.882546 
L 424.965663 252.030538 
L 425.836201 253.617974 
L 426.706738 260.49686 
L 427.577275 254.147119 
L 428.447812 251.501393 
L 429.318349 256.263699 
L 430.188886 254.676264 
L 431.059423 256.263699 
L 432.800497 255.734554 
L 434.541571 255.734554 
L 435.412108 258.115707 
L 436.282645 259.173997 
L 437.153182 252.295111 
L 438.023719 255.999127 
L 438.894256 261.290578 
L 440.63533 255.734554 
L 441.505867 255.999127 
L 442.376404 261.819723 
L 443.246941 261.290578 
L 444.117478 261.55515 
L 445.858552 257.851134 
L 446.729089 256.263699 
L 447.599626 261.55515 
L 448.470163 257.057417 
L 449.3407 259.43857 
L 450.211237 264.465448 
L 451.081774 258.644852 
L 451.952311 261.290578 
L 452.822848 259.43857 
L 453.693385 258.644852 
L 454.563922 260.232287 
L 455.434459 260.49686 
L 456.304996 259.173997 
L 457.175533 262.084295 
L 458.04607 258.909425 
L 458.916607 262.084295 
L 459.787144 261.026005 
L 460.657681 258.115707 
L 461.528218 254.147119 
L 462.398755 264.465448 
L 463.269293 259.173997 
L 464.13983 259.703142 
L 465.010367 264.200876 
L 465.880904 257.057417 
L 466.751441 261.290578 
L 467.621978 261.026005 
L 468.492515 259.967715 
L 469.363052 260.761432 
L 470.233589 262.084295 
L 471.104126 261.290578 
L 471.974663 261.819723 
L 472.8452 263.407158 
L 473.715737 263.142585 
L 474.586274 259.173997 
L 475.456811 258.115707 
L 476.327348 260.761432 
L 477.197885 258.909425 
L 478.068422 259.967715 
L 478.938959 260.232287 
L 479.809496 259.173997 
L 480.680033 261.290578 
L 481.55057 260.761432 
L 482.421107 261.55515 
L 483.291644 263.671731 
L 484.162181 263.671731 
L 485.032718 260.232287 
L 485.903255 263.671731 
L 486.773792 259.967715 
L 487.644329 262.61344 
L 488.514866 263.142585 
L 489.385403 259.173997 
L 490.25594 262.084295 
L 491.126477 263.671731 
L 491.997014 258.38028 
L 492.867551 260.232287 
L 493.738088 261.819723 
L 494.608625 262.61344 
L 495.479162 260.232287 
L 496.349699 259.173997 
L 497.220236 261.290578 
L 498.090773 261.55515 
L 498.96131 261.55515 
L 499.831848 263.407158 
L 500.702385 263.671731 
L 501.572922 262.348868 
L 502.443459 264.200876 
L 503.313996 260.49686 
L 504.184533 265.259166 
L 505.05507 264.994593 
L 505.925607 265.523738 
L 506.796144 262.61344 
L 507.666681 262.084295 
L 508.537218 264.465448 
L 509.407755 263.142585 
L 511.148829 265.259166 
L 512.889903 261.290578 
L 513.76044 266.846601 
L 514.630977 266.317456 
L 515.501514 261.819723 
L 516.372051 264.994593 
L 517.242588 261.819723 
L 518.113125 265.259166 
L 518.983662 264.730021 
L 519.854199 264.465448 
L 520.724736 260.232287 
L 521.595273 264.730021 
L 522.46581 266.582029 
L 524.206884 263.407158 
L 525.077421 263.407158 
L 525.947958 262.348868 
L 526.818495 265.259166 
L 527.689032 263.142585 
L 528.559569 266.317456 
L 529.430106 264.200876 
L 530.300643 266.052883 
L 531.17118 263.407158 
L 532.041717 264.200876 
L 532.912254 266.317456 
L 533.782791 265.259166 
L 534.653328 264.730021 
L 535.523865 264.730021 
L 536.394402 261.819723 
L 537.26494 268.698609 
L 538.135477 267.111174 
L 539.006014 267.904891 
L 539.876551 264.730021 
L 540.747088 263.407158 
L 541.617625 267.904891 
L 542.488162 265.788311 
L 543.358699 267.111174 
L 544.229236 267.640319 
L 545.099773 266.317456 
L 545.97031 268.434036 
L 546.840847 265.259166 
L 547.711384 269.756899 
L 548.581921 266.582029 
L 549.452458 264.730021 
L 550.322995 265.523738 
L 551.193532 268.434036 
L 552.064069 268.698609 
L 552.934606 268.434036 
L 553.805143 266.846601 
L 554.67568 266.846601 
L 555.546217 266.582029 
L 556.416754 267.375746 
L 557.287291 267.640319 
L 558.157828 267.375746 
L 559.028365 268.963182 
L 559.898902 268.434036 
L 560.769439 268.434036 
L 561.639976 267.640319 
L 562.510513 267.904891 
L 563.38105 266.317456 
L 564.251587 268.963182 
L 565.122124 267.640319 
L 565.992661 268.963182 
L 566.863198 269.492327 
L 567.733735 269.756899 
L 568.604272 268.169464 
L 569.474809 269.227754 
L 570.345346 269.756899 
L 571.215883 270.021472 
L 572.08642 268.963182 
L 572.956957 268.169464 
L 573.827495 268.963182 
L 574.698032 270.815189 
L 575.568569 268.698609 
L 576.439106 270.815189 
L 577.309643 270.021472 
L 578.18018 270.021472 
L 579.050717 271.079762 
L 579.921254 269.756899 
L 581.662328 269.756899 
L 582.532865 269.492327 
L 583.403402 270.550617 
L 584.273939 271.344334 
L 585.144476 270.550617 
L 586.015013 270.550617 
L 586.88555 270.021472 
L 587.756087 270.286044 
L 589.497161 271.344334 
L 590.367698 272.138052 
L 591.238235 271.608907 
L 592.108772 272.667197 
L 592.979309 271.079762 
L 593.849846 270.815189 
L 594.720383 271.344334 
L 595.59092 271.608907 
L 596.461457 270.021472 
L 597.331994 270.021472 
L 598.202531 270.550617 
L 599.073068 271.608907 
L 599.943605 271.079762 
L 600.814142 270.815189 
L 601.684679 271.608907 
L 602.555216 270.021472 
L 603.425753 268.698609 
L 604.29629 270.550617 
L 605.166827 269.756899 
L 606.037364 272.138052 
L 606.907901 270.550617 
L 607.778438 271.344334 
L 608.648975 269.227754 
L 609.519512 270.550617 
L 610.390049 268.169464 
L 611.260587 272.138052 
L 612.131124 270.021472 
L 613.001661 270.286044 
L 613.872198 271.079762 
L 614.742735 271.608907 
L 615.613272 271.87348 
L 616.483809 272.402625 
L 617.354346 272.402625 
L 618.224883 271.344334 
L 619.09542 271.608907 
L 619.965957 271.344334 
L 620.836494 271.344334 
L 621.707031 271.079762 
L 622.577568 271.344334 
L 623.448105 271.079762 
L 624.318642 271.344334 
L 625.189179 270.286044 
L 626.059716 271.87348 
L 627.80079 272.402625 
L 628.671327 272.402625 
L 629.541864 270.021472 
L 630.412401 272.402625 
L 631.282938 271.608907 
L 632.153475 272.402625 
L 633.024012 272.402625 
L 633.894549 270.550617 
L 634.765086 270.815189 
L 635.635623 271.87348 
L 636.50616 270.815189 
L 637.376697 272.138052 
L 638.247234 273.196342 
L 639.117771 271.079762 
L 639.988308 271.87348 
L 640.858845 272.402625 
L 641.729382 271.608907 
L 642.599919 270.550617 
L 643.470456 273.460915 
L 644.340993 271.608907 
L 645.21153 272.667197 
L 646.082067 273.460915 
L 646.952604 271.87348 
L 647.823141 271.079762 
L 648.693679 272.402625 
L 649.564216 272.667197 
L 650.434753 273.196342 
L 651.30529 272.93177 
L 652.175827 272.138052 
L 654.787438 272.93177 
L 655.657975 272.667197 
L 656.528512 272.667197 
L 657.399049 272.402625 
L 658.269586 271.87348 
L 659.140123 271.608907 
L 660.01066 272.138052 
L 660.881197 272.402625 
L 661.751734 272.93177 
L 662.622271 271.344334 
L 663.492808 272.402625 
L 664.363345 271.87348 
L 665.233882 272.93177 
L 666.104419 272.667197 
L 666.974956 273.460915 
L 667.845493 272.402625 
L 668.71603 273.196342 
L 669.586567 271.079762 
L 670.457104 272.138052 
L 671.327641 271.87348 
L 672.198178 272.667197 
L 673.068715 273.196342 
L 673.939252 272.667197 
L 674.809789 272.93177 
L 675.680326 272.667197 
L 676.550863 272.667197 
L 677.4214 273.460915 
L 678.291937 271.87348 
L 680.033011 273.460915 
L 680.903548 273.196342 
L 681.774085 273.725487 
L 682.644622 272.667197 
L 683.515159 273.460915 
L 684.385696 272.402625 
L 685.256234 273.196342 
L 686.126771 272.93177 
L 686.997308 272.402625 
L 687.867845 273.196342 
L 689.608919 272.667197 
L 690.479456 272.93177 
L 691.349993 272.93177 
L 692.22053 272.667197 
L 693.091067 272.667197 
L 693.961604 273.460915 
L 694.832141 272.93177 
L 696.573215 272.93177 
L 697.443752 273.460915 
L 699.184826 273.460915 
L 700.055363 272.93177 
L 700.9259 272.667197 
L 701.796437 273.196342 
L 702.666974 273.196342 
L 703.537511 273.725487 
L 704.408048 272.667197 
L 705.278585 273.725487 
L 706.149122 272.93177 
L 707.890196 273.460915 
L 711.372344 273.196342 
L 712.242881 273.196342 
L 713.113418 273.460915 
L 714.854492 273.460915 
L 715.725029 273.196342 
L 716.595566 273.460915 
L 717.466103 273.460915 
L 718.33664 273.196342 
L 719.207177 273.460915 
L 720.077714 272.667197 
L 720.948251 273.725487 
L 721.818788 273.725487 
L 722.689326 273.196342 
L 723.559863 273.725487 
L 725.300937 273.460915 
L 726.171474 273.460915 
L 727.042011 273.725487 
L 727.912548 273.460915 
L 728.783085 272.667197 
L 729.653622 273.725487 
L 730.524159 273.460915 
L 731.394696 273.460915 
L 732.265233 273.196342 
L 734.006307 273.196342 
L 734.876844 273.725487 
L 736.617918 272.93177 
L 737.488455 272.93177 
L 738.358992 273.725487 
L 739.229529 273.725487 
L 740.100066 273.460915 
L 740.970603 273.725487 
L 746.193825 273.460915 
L 747.064362 273.725487 
L 748.805436 273.725487 
L 749.675973 273.460915 
L 750.54651 273.725487 
L 752.287584 273.460915 
L 753.158121 273.725487 
L 754.899195 273.725487 
L 755.769732 273.196342 
L 756.640269 273.725487 
L 757.510806 273.725487 
L 758.381343 273.460915 
L 759.25188 273.460915 
L 760.122418 273.725487 
L 764.475103 273.725487 
L 766.216177 273.460915 
L 767.086714 273.196342 
L 767.957251 273.725487 
L 768.827788 273.460915 
L 769.698325 273.460915 
L 770.568862 273.725487 
L 772.309936 273.725487 
L 774.921547 273.460915 
L 775.792084 273.725487 
L 776.662621 273.460915 
L 778.403695 273.725487 
L 784.497454 273.725487 
L 787.109065 273.460915 
L 789.720676 273.725487 
L 802.778732 273.725487 
L 808.872491 273.460915 
L 810.613565 273.725487 
L 814.96625 273.725487 
L 815.836787 273.460915 
L 817.577861 273.725487 
L 819.318935 273.460915 
L 822.801083 273.725487 
L 838.47075 273.725487 
L 842.823435 273.460915 
L 859.363638 273.460915 
L 867.198471 273.725487 
L 880.256527 273.725487 
L 880.256527 273.725487 
" clip-path="url(#pb0ed5b4630)" style="fill: none; stroke: #90ed7d; stroke-linecap: square"/>
   </g>
   <g id="line2d_9">
    <path d="M 43.148125 273.99006 
L 993.078125 273.99006 
" clip-path="url(#pb0ed5b4630)" style="fill: none; stroke: #dedede; stroke-width: 2; stroke-linecap: square"/>
   </g>
   <g id="text_14">
    <!-- Picard: Insert Size -->
    <g transform="translate(446.570625 19.3575)scale(0.16 -0.16)">
     <defs>
      <path id="DejaVuSans-50" d="M 1259 4147 
L 1259 2394 
L 2053 2394 
Q 2494 2394 2734 2622 
Q 2975 2850 2975 3272 
Q 2975 3691 2734 3919 
Q 2494 4147 2053 4147 
L 1259 4147 
z
M 628 4666 
L 2053 4666 
Q 2838 4666 3239 4311 
Q 3641 3956 3641 3272 
Q 3641 2581 3239 2228 
Q 2838 1875 2053 1875 
L 1259 1875 
L 1259 0 
L 628 0 
L 628 4666 
z
" transform="scale(0.015625)"/>
      <path id="DejaVuSans-63" d="M 3122 3366 
L 3122 2828 
Q 2878 2963 2633 3030 
Q 2388 3097 2138 3097 
Q 1578 3097 1268 2742 
Q 959 2388 959 1747 
Q 959 1106 1268 751 
Q 1578 397 2138 397 
Q 2388 397 2633 464 
Q 2878 531 3122 666 
L 3122 134 
Q 2881 22 2623 -34 
Q 2366 -91 2075 -91 
Q 1284 -91 818 406 
Q 353 903 353 1747 
Q 353 2603 823 3093 
Q 1294 3584 2113 3584 
Q 2378 3584 2631 3529 
Q 2884 3475 3122 3366 
z
" transform="scale(0.015625)"/>
      <path id="DejaVuSans-64" d="M 2906 2969 
L 2906 4863 
L 3481 4863 
L 3481 0 
L 2906 0 
L 2906 525 
Q 2725 213 2448 61 
Q 2172 -91 1784 -91 
Q 1150 -91 751 415 
Q 353 922 353 1747 
Q 353 2572 751 3078 
Q 1150 3584 1784 3584 
Q 2172 3584 2448 3432 
Q 2725 3281 2906 2969 
z
M 947 1747 
Q 947 1113 1208 752 
Q 1469 391 1925 391 
Q 2381 391 2643 752 
Q 2906 1113 2906 1747 
Q 2906 2381 2643 2742 
Q 2381 3103 1925 3103 
Q 1469 3103 1208 2742 
Q 947 2381 947 1747 
z
" transform="scale(0.015625)"/>
      <path id="DejaVuSans-3a" d="M 750 794 
L 1409 794 
L 1409 0 
L 750 0 
L 750 794 
z
M 750 3309 
L 1409 3309 
L 1409 2516 
L 750 2516 
L 750 3309 
z
" transform="scale(0.015625)"/>
     </defs>
     <use xlink:href="#DejaVuSans-50"/>
     <use xlink:href="#DejaVuSans-69" x="58.052734"/>
     <use xlink:href="#DejaVuSans-63" x="85.835938"/>
     <use xlink:href="#DejaVuSans-61" x="140.816406"/>
     <use xlink:href="#DejaVuSans-72" x="202.095703"/>
     <use xlink:href="#DejaVuSans-64" x="241.458984"/>
     <use xlink:href="#DejaVuSans-3a" x="304.935547"/>
     <use xlink:href="#DejaVuSans-20" x="338.626953"/>
     <use xlink:href="#DejaVuSans-49" x="370.414062"/>
     <use xlink:href="#DejaVuSans-6e" x="399.90625"/>
     <use xlink:href="#DejaVuSans-73" x="463.285156"/>
     <use xlink:href="#DejaVuSans-65" x="515.384766"/>
     <use xlink:href="#DejaVuSans-72" x="576.908203"/>
     <use xlink:href="#DejaVuSans-74" x="618.021484"/>
     <use xlink:href="#DejaVuSans-20" x="657.230469"/>
     <use xlink:href="#DejaVuSans-53" x="689.017578"/>
     <use xlink:href="#DejaVuSans-69" x="752.494141"/>
     <use xlink:href="#DejaVuSans-7a" x="780.277344"/>
     <use xlink:href="#DejaVuSans-65" x="832.767578"/>
    </g>
   </g>
   <g id="legend_1">
    <g id="line2d_10">
     <path d="M 50.348125 315.455394 
L 58.348125 315.455394 
L 66.348125 315.455394 
" style="fill: none; stroke: #7cb5ec; stroke-linecap: square"/>
    </g>
    <g id="text_15">
     <!-- OSMOTIC_STRESS_T0_PE_REP1 -->
     <g transform="translate(72.748125 318.255394)scale(0.08 -0.08)">
      <defs>
       <path id="DejaVuSans-4f" d="M 2522 4238 
Q 1834 4238 1429 3725 
Q 1025 3213 1025 2328 
Q 1025 1447 1429 934 
Q 1834 422 2522 422 
Q 3209 422 3611 934 
Q 4013 1447 4013 2328 
Q 4013 3213 3611 3725 
Q 3209 4238 2522 4238 
z
M 2522 4750 
Q 3503 4750 4090 4092 
Q 4678 3434 4678 2328 
Q 4678 1225 4090 567 
Q 3503 -91 2522 -91 
Q 1538 -91 948 565 
Q 359 1222 359 2328 
Q 359 3434 948 4092 
Q 1538 4750 2522 4750 
z
" transform="scale(0.015625)"/>
       <path id="DejaVuSans-4d" d="M 628 4666 
L 1569 4666 
L 2759 1491 
L 3956 4666 
L 4897 4666 
L 4897 0 
L 4281 0 
L 4281 4097 
L 3078 897 
L 2444 897 
L 1241 4097 
L 1241 0 
L 628 0 
L 628 4666 
z
" transform="scale(0.015625)"/>
       <path id="DejaVuSans-54" d="M -19 4666 
L 3928 4666 
L 3928 4134 
L 2272 4134 
L 2272 0 
L 1638 0 
L 1638 4134 
L -19 4134 
L -19 4666 
z
" transform="scale(0.015625)"/>
       <path id="DejaVuSans-5f" d="M 3263 -1063 
L 3263 -1509 
L -63 -1509 
L -63 -1063 
L 3263 -1063 
z
" transform="scale(0.015625)"/>
       <path id="DejaVuSans-52" d="M 2841 2188 
Q 3044 2119 3236 1894 
Q 3428 1669 3622 1275 
L 4263 0 
L 3584 0 
L 2988 1197 
Q 2756 1666 2539 1819 
Q 2322 1972 1947 1972 
L 1259 1972 
L 1259 0 
L 628 0 
L 628 4666 
L 2053 4666 
Q 2853 4666 3247 4331 
Q 3641 3997 3641 3322 
Q 3641 2881 3436 2590 
Q 3231 2300 2841 2188 
z
M 1259 4147 
L 1259 2491 
L 2053 2491 
Q 2509 2491 2742 2702 
Q 2975 2913 2975 3322 
Q 2975 3731 2742 3939 
Q 2509 4147 2053 4147 
L 1259 4147 
z
" transform="scale(0.015625)"/>
       <path id="DejaVuSans-45" d="M 628 4666 
L 3578 4666 
L 3578 4134 
L 1259 4134 
L 1259 2753 
L 3481 2753 
L 3481 2222 
L 1259 2222 
L 1259 531 
L 3634 531 
L 3634 0 
L 628 0 
L 628 4666 
z
" transform="scale(0.015625)"/>
      </defs>
      <use xlink:href="#DejaVuSans-4f"/>
      <use xlink:href="#DejaVuSans-53" x="78.710938"/>
      <use xlink:href="#DejaVuSans-4d" x="142.1875"/>
      <use xlink:href="#DejaVuSans-4f" x="228.466797"/>
      <use xlink:href="#DejaVuSans-54" x="307.177734"/>
      <use xlink:href="#DejaVuSans-49" x="368.261719"/>
      <use xlink:href="#DejaVuSans-43" x="397.753906"/>
      <use xlink:href="#DejaVuSans-5f" x="467.578125"/>
      <use xlink:href="#DejaVuSans-53" x="517.578125"/>
      <use xlink:href="#DejaVuSans-54" x="581.054688"/>
      <use xlink:href="#DejaVuSans-52" x="642.138672"/>
      <use xlink:href="#DejaVuSans-45" x="711.621094"/>
      <use xlink:href="#DejaVuSans-53" x="774.804688"/>
      <use xlink:href="#DejaVuSans-53" x="838.28125"/>
      <use xlink:href="#DejaVuSans-5f" x="901.757812"/>
      <use xlink:href="#DejaVuSans-54" x="951.757812"/>
      <use xlink:href="#DejaVuSans-30" x="1012.841797"/>
      <use xlink:href="#DejaVuSans-5f" x="1076.464844"/>
      <use xlink:href="#DejaVuSans-50" x="1126.464844"/>
      <use xlink:href="#DejaVuSans-45" x="1186.767578"/>
      <use xlink:href="#DejaVuSans-5f" x="1249.951172"/>
      <use xlink:href="#DejaVuSans-52" x="1299.951172"/>
      <use xlink:href="#DejaVuSans-45" x="1369.433594"/>
      <use xlink:href="#DejaVuSans-50" x="1432.617188"/>
      <use xlink:href="#DejaVuSans-31" x="1492.919922"/>
     </g>
    </g>
    <g id="line2d_11">
     <path d="M 442.104375 315.455394 
L 450.104375 315.455394 
L 458.104375 315.455394 
" style="fill: none; stroke: #434348; stroke-linecap: square"/>
    </g>
    <g id="text_16">
     <!-- OSMOTIC_STRESS_T0_PE_REP2 -->
     <g transform="translate(464.504375 318.255394)scale(0.08 -0.08)">
      <use xlink:href="#DejaVuSans-4f"/>
      <use xlink:href="#DejaVuSans-53" x="78.710938"/>
      <use xlink:href="#DejaVuSans-4d" x="142.1875"/>
      <use xlink:href="#DejaVuSans-4f" x="228.466797"/>
      <use xlink:href="#DejaVuSans-54" x="307.177734"/>
      <use xlink:href="#DejaVuSans-49" x="368.261719"/>
      <use xlink:href="#DejaVuSans-43" x="397.753906"/>
      <use xlink:href="#DejaVuSans-5f" x="467.578125"/>
      <use xlink:href="#DejaVuSans-53" x="517.578125"/>
      <use xlink:href="#DejaVuSans-54" x="581.054688"/>
      <use xlink:href="#DejaVuSans-52" x="642.138672"/>
      <use xlink:href="#DejaVuSans-45" x="711.621094"/>
      <use xlink:href="#DejaVuSans-53" x="774.804688"/>
      <use xlink:href="#DejaVuSans-53" x="838.28125"/>
      <use xlink:href="#DejaVuSans-5f" x="901.757812"/>
      <use xlink:href="#DejaVuSans-54" x="951.757812"/>
      <use xlink:href="#DejaVuSans-30" x="1012.841797"/>
      <use xlink:href="#DejaVuSans-5f" x="1076.464844"/>
      <use xlink:href="#DejaVuSans-50" x="1126.464844"/>
      <use xlink:href="#DejaVuSans-45" x="1186.767578"/>
      <use xlink:href="#DejaVuSans-5f" x="1249.951172"/>
      <use xlink:href="#DejaVuSans-52" x="1299.951172"/>
      <use xlink:href="#DejaVuSans-45" x="1369.433594"/>
      <use xlink:href="#DejaVuSans-50" x="1432.617188"/>
      <use xlink:href="#DejaVuSans-32" x="1492.919922"/>
     </g>
    </g>
    <g id="line2d_12">
     <path d="M 833.860625 315.455394 
L 841.860625 315.455394 
L 849.860625 315.455394 
" style="fill: none; stroke: #90ed7d; stroke-linecap: square"/>
    </g>
    <g id="text_17">
     <!-- OSMOTIC_STRESS_T15_PE_REP1 -->
     <g transform="translate(856.260625 318.255394)scale(0.08 -0.08)">
      <defs>
       <path id="DejaVuSans-35" d="M 691 4666 
L 3169 4666 
L 3169 4134 
L 1269 4134 
L 1269 2991 
Q 1406 3038 1543 3061 
Q 1681 3084 1819 3084 
Q 2600 3084 3056 2656 
Q 3513 2228 3513 1497 
Q 3513 744 3044 326 
Q 2575 -91 1722 -91 
Q 1428 -91 1123 -41 
Q 819 9 494 109 
L 494 744 
Q 775 591 1075 516 
Q 1375 441 1709 441 
Q 2250 441 2565 725 
Q 2881 1009 2881 1497 
Q 2881 1984 2565 2268 
Q 2250 2553 1709 2553 
Q 1456 2553 1204 2497 
Q 953 2441 691 2322 
L 691 4666 
z
" transform="scale(0.015625)"/>
      </defs>
      <use xlink:href="#DejaVuSans-4f"/>
      <use xlink:href="#DejaVuSans-53" x="78.710938"/>
      <use xlink:href="#DejaVuSans-4d" x="142.1875"/>
      <use xlink:href="#DejaVuSans-4f" x="228.466797"/>
      <use xlink:href="#DejaVuSans-54" x="307.177734"/>
      <use xlink:href="#DejaVuSans-49" x="368.261719"/>
      <use xlink:href="#DejaVuSans-43" x="397.753906"/>
      <use xlink:href="#DejaVuSans-5f" x="467.578125"/>
      <use xlink:href="#DejaVuSans-53" x="517.578125"/>
      <use xlink:href="#DejaVuSans-54" x="581.054688"/>
      <use xlink:href="#DejaVuSans-52" x="642.138672"/>
      <use xlink:href="#DejaVuSans-45" x="711.621094"/>
      <use xlink:href="#DejaVuSans-53" x="774.804688"/>
      <use xlink:href="#DejaVuSans-53" x="838.28125"/>
      <use xlink:href="#DejaVuSans-5f" x="901.757812"/>
      <use xlink:href="#DejaVuSans-54" x="951.757812"/>
      <use xlink:href="#DejaVuSans-31" x="1012.841797"/>
      <use xlink:href="#DejaVuSans-35" x="1076.464844"/>
      <use xlink:href="#DejaVuSans-5f" x="1140.087891"/>
      <use xlink:href="#DejaVuSans-50" x="1190.087891"/>
      <use xlink:href="#DejaVuSans-45" x="1250.390625"/>
      <use xlink:href="#DejaVuSans-5f" x="1313.574219"/>
      <use xlink:href="#DejaVuSans-52" x="1363.574219"/>
      <use xlink:href="#DejaVuSans-45" x="1433.056641"/>
      <use xlink:href="#DejaVuSans-50" x="1496.240234"/>
      <use xlink:href="#DejaVuSans-31" x="1556.542969"/>
     </g>
    </g>
   </g>
  </g>
 </g>
 <defs>
  <clipPath id="pb0ed5b4630">
   <rect x="43.148125" y="31.48286" width="949.93" height="242.5072"/>
  </clipPath>
 </defs>
</svg>
