<?xml version="1.0" encoding="utf-8" standalone="no"?>
<!DOCTYPE svg PUBLIC "-//W3C//DTD SVG 1.1//EN"
  "http://www.w3.org/Graphics/SVG/1.1/DTD/svg11.dtd">
<svg xmlns:xlink="http://www.w3.org/1999/xlink" width="1000.318125pt" height="330.541644pt" viewBox="0 0 1000.318125 330.541644" xmlns="http://www.w3.org/2000/svg" version="1.1">
 <metadata>
  <rdf:RDF xmlns:dc="http://purl.org/dc/elements/1.1/" xmlns:cc="http://creativecommons.org/ns#" xmlns:rdf="http://www.w3.org/1999/02/22-rdf-syntax-ns#">
   <cc:Work>
    <dc:type rdf:resource="http://purl.org/dc/dcmitype/StillImage"/>
    <dc:date>2024-10-25T13:23:59.235189</dc:date>
    <dc:format>image/svg+xml</dc:format>
    <dc:creator>
     <cc:Agent>
      <dc:title>Matplotlib v3.5.3, https://matplotlib.org/</dc:title>
     </cc:Agent>
    </dc:creator>
   </cc:Work>
  </rdf:RDF>
 </metadata>
 <defs>
  <style type="text/css">*{stroke-linejoin: round; stroke-linecap: butt}</style>
 </defs>
 <g id="figure_1">
  <g id="axes_1">
   <g id="patch_1">
    <path d="M 38.058125 273.99006 
L 993.118125 273.99006 
L 993.118125 31.48286 
L 38.058125 31.48286 
z
" style="fill: #ffffff"/>
   </g>
   <g id="patch_2">
    <path d="M 577.072674 273.99006 
L 950.948419 273.99006 
L 950.948419 1.964279 
L 577.072674 1.964279 
z
" clip-path="url(#p25dd6962e1)" style="fill: #f7cfcf"/>
   </g>
   <g id="patch_3">
    <path d="M 452.861464 273.99006 
L 577.072674 273.99006 
L 577.072674 1.964279 
L 452.861464 1.964279 
z
" clip-path="url(#p25dd6962e1)" style="fill: #ffffe2"/>
   </g>
   <g id="patch_4">
    <path d="M 81.469943 273.99006 
L 452.861464 273.99006 
L 452.861464 1.964279 
L 81.469943 1.964279 
z
" clip-path="url(#p25dd6962e1)" style="fill: #e5fce0"/>
   </g>
   <g id="matplotlib.axis_1">
    <g id="xtick_1">
     <g id="text_1">
      <!-- −3000 -->
      <g transform="translate(66.695956 287.06881)scale(0.08 -0.08)">
       <defs>
        <path id="DejaVuSans-2212" d="M 678 2272 
L 4684 2272 
L 4684 1741 
L 678 1741 
L 678 2272 
z
" transform="scale(0.015625)"/>
        <path id="DejaVuSans-33" d="M 2597 2516 
Q 3050 2419 3304 2112 
Q 3559 1806 3559 1356 
Q 3559 666 3084 287 
Q 2609 -91 1734 -91 
Q 1441 -91 1130 -33 
Q 819 25 488 141 
L 488 750 
Q 750 597 1062 519 
Q 1375 441 1716 441 
Q 2309 441 2620 675 
Q 2931 909 2931 1356 
Q 2931 1769 2642 2001 
Q 2353 2234 1838 2234 
L 1294 2234 
L 1294 2753 
L 1863 2753 
Q 2328 2753 2575 2939 
Q 2822 3125 2822 3475 
Q 2822 3834 2567 4026 
Q 2313 4219 1838 4219 
Q 1578 4219 1281 4162 
Q 984 4106 628 3988 
L 628 4550 
Q 988 4650 1302 4700 
Q 1616 4750 1894 4750 
Q 2613 4750 3031 4423 
Q 3450 4097 3450 3541 
Q 3450 3153 3228 2886 
Q 3006 2619 2597 2516 
z
" transform="scale(0.015625)"/>
        <path id="DejaVuSans-30" d="M 2034 4250 
Q 1547 4250 1301 3770 
Q 1056 3291 1056 2328 
Q 1056 1369 1301 889 
Q 1547 409 2034 409 
Q 2525 409 2770 889 
Q 3016 1369 3016 2328 
Q 3016 3291 2770 3770 
Q 2525 4250 2034 4250 
z
M 2034 4750 
Q 2819 4750 3233 4129 
Q 3647 3509 3647 2328 
Q 3647 1150 3233 529 
Q 2819 -91 2034 -91 
Q 1250 -91 836 529 
Q 422 1150 422 2328 
Q 422 3509 836 4129 
Q 1250 4750 2034 4750 
z
" transform="scale(0.015625)"/>
       </defs>
       <use xlink:href="#DejaVuSans-2212"/>
       <use xlink:href="#DejaVuSans-33" x="83.789062"/>
       <use xlink:href="#DejaVuSans-30" x="147.412109"/>
       <use xlink:href="#DejaVuSans-30" x="211.035156"/>
       <use xlink:href="#DejaVuSans-30" x="274.658203"/>
      </g>
     </g>
    </g>
    <g id="xtick_2">
     <g id="text_2">
      <!-- −2000 -->
      <g transform="translate(190.907167 287.06881)scale(0.08 -0.08)">
       <defs>
        <path id="DejaVuSans-32" d="M 1228 531 
L 3431 531 
L 3431 0 
L 469 0 
L 469 531 
Q 828 903 1448 1529 
Q 2069 2156 2228 2338 
Q 2531 2678 2651 2914 
Q 2772 3150 2772 3378 
Q 2772 3750 2511 3984 
Q 2250 4219 1831 4219 
Q 1534 4219 1204 4116 
Q 875 4013 500 3803 
L 500 4441 
Q 881 4594 1212 4672 
Q 1544 4750 1819 4750 
Q 2544 4750 2975 4387 
Q 3406 4025 3406 3419 
Q 3406 3131 3298 2873 
Q 3191 2616 2906 2266 
Q 2828 2175 2409 1742 
Q 1991 1309 1228 531 
z
" transform="scale(0.015625)"/>
       </defs>
       <use xlink:href="#DejaVuSans-2212"/>
       <use xlink:href="#DejaVuSans-32" x="83.789062"/>
       <use xlink:href="#DejaVuSans-30" x="147.412109"/>
       <use xlink:href="#DejaVuSans-30" x="211.035156"/>
       <use xlink:href="#DejaVuSans-30" x="274.658203"/>
      </g>
     </g>
    </g>
    <g id="xtick_3">
     <g id="text_3">
      <!-- −1000 -->
      <g transform="translate(315.118378 287.06881)scale(0.08 -0.08)">
       <defs>
        <path id="DejaVuSans-31" d="M 794 531 
L 1825 531 
L 1825 4091 
L 703 3866 
L 703 4441 
L 1819 4666 
L 2450 4666 
L 2450 531 
L 3481 531 
L 3481 0 
L 794 0 
L 794 531 
z
" transform="scale(0.015625)"/>
       </defs>
       <use xlink:href="#DejaVuSans-2212"/>
       <use xlink:href="#DejaVuSans-31" x="83.789062"/>
       <use xlink:href="#DejaVuSans-30" x="147.412109"/>
       <use xlink:href="#DejaVuSans-30" x="211.035156"/>
       <use xlink:href="#DejaVuSans-30" x="274.658203"/>
      </g>
     </g>
    </g>
    <g id="xtick_4">
     <g id="text_4">
      <!-- 0 -->
      <g transform="translate(450.316464 287.06881)scale(0.08 -0.08)">
       <use xlink:href="#DejaVuSans-30"/>
      </g>
     </g>
    </g>
    <g id="xtick_5">
     <g id="text_5">
      <!-- 1000 -->
      <g transform="translate(566.892674 287.06881)scale(0.08 -0.08)">
       <use xlink:href="#DejaVuSans-31"/>
       <use xlink:href="#DejaVuSans-30" x="63.623047"/>
       <use xlink:href="#DejaVuSans-30" x="127.246094"/>
       <use xlink:href="#DejaVuSans-30" x="190.869141"/>
      </g>
     </g>
    </g>
    <g id="xtick_6">
     <g id="text_6">
      <!-- 2000 -->
      <g transform="translate(691.103885 287.06881)scale(0.08 -0.08)">
       <use xlink:href="#DejaVuSans-32"/>
       <use xlink:href="#DejaVuSans-30" x="63.623047"/>
       <use xlink:href="#DejaVuSans-30" x="127.246094"/>
       <use xlink:href="#DejaVuSans-30" x="190.869141"/>
      </g>
     </g>
    </g>
    <g id="xtick_7">
     <g id="text_7">
      <!-- 3000 -->
      <g transform="translate(815.315096 287.06881)scale(0.08 -0.08)">
       <use xlink:href="#DejaVuSans-33"/>
       <use xlink:href="#DejaVuSans-30" x="63.623047"/>
       <use xlink:href="#DejaVuSans-30" x="127.246094"/>
       <use xlink:href="#DejaVuSans-30" x="190.869141"/>
      </g>
     </g>
    </g>
    <g id="xtick_8">
     <g id="text_8">
      <!-- 4000 -->
      <g transform="translate(939.526307 287.06881)scale(0.08 -0.08)">
       <defs>
        <path id="DejaVuSans-34" d="M 2419 4116 
L 825 1625 
L 2419 1625 
L 2419 4116 
z
M 2253 4666 
L 3047 4666 
L 3047 1625 
L 3713 1625 
L 3713 1100 
L 3047 1100 
L 3047 0 
L 2419 0 
L 2419 1100 
L 313 1100 
L 313 1709 
L 2253 4666 
z
" transform="scale(0.015625)"/>
       </defs>
       <use xlink:href="#DejaVuSans-34"/>
       <use xlink:href="#DejaVuSans-30" x="63.623047"/>
       <use xlink:href="#DejaVuSans-30" x="127.246094"/>
       <use xlink:href="#DejaVuSans-30" x="190.869141"/>
      </g>
     </g>
    </g>
   </g>
   <g id="matplotlib.axis_2">
    <g id="ytick_1">
     <g id="line2d_1">
      <path d="M 38.058125 272.115118 
L 993.118125 272.115118 
" clip-path="url(#p25dd6962e1)" style="fill: none; stroke: #dedede; stroke-linecap: square"/>
     </g>
     <g id="text_9">
      <!-- 5 -->
      <g transform="translate(25.968125 275.154493)scale(0.08 -0.08)">
       <defs>
        <path id="DejaVuSans-35" d="M 691 4666 
L 3169 4666 
L 3169 4134 
L 1269 4134 
L 1269 2991 
Q 1406 3038 1543 3061 
Q 1681 3084 1819 3084 
Q 2600 3084 3056 2656 
Q 3513 2228 3513 1497 
Q 3513 744 3044 326 
Q 2575 -91 1722 -91 
Q 1428 -91 1123 -41 
Q 819 9 494 109 
L 494 744 
Q 775 591 1075 516 
Q 1375 441 1709 441 
Q 2250 441 2565 725 
Q 2881 1009 2881 1497 
Q 2881 1984 2565 2268 
Q 2250 2553 1709 2553 
Q 1456 2553 1204 2497 
Q 953 2441 691 2322 
L 691 4666 
z
" transform="scale(0.015625)"/>
       </defs>
       <use xlink:href="#DejaVuSans-35"/>
      </g>
     </g>
    </g>
    <g id="ytick_2">
     <g id="line2d_2">
      <path d="M 38.058125 240.721594 
L 993.118125 240.721594 
" clip-path="url(#p25dd6962e1)" style="fill: none; stroke: #dedede; stroke-linecap: square"/>
     </g>
     <g id="text_10">
      <!-- 10 -->
      <g transform="translate(20.878125 243.760969)scale(0.08 -0.08)">
       <use xlink:href="#DejaVuSans-31"/>
       <use xlink:href="#DejaVuSans-30" x="63.623047"/>
      </g>
     </g>
    </g>
    <g id="ytick_3">
     <g id="line2d_3">
      <path d="M 38.058125 209.328071 
L 993.118125 209.328071 
" clip-path="url(#p25dd6962e1)" style="fill: none; stroke: #dedede; stroke-linecap: square"/>
     </g>
     <g id="text_11">
      <!-- 15 -->
      <g transform="translate(20.878125 212.367446)scale(0.08 -0.08)">
       <use xlink:href="#DejaVuSans-31"/>
       <use xlink:href="#DejaVuSans-35" x="63.623047"/>
      </g>
     </g>
    </g>
    <g id="ytick_4">
     <g id="line2d_4">
      <path d="M 38.058125 177.934548 
L 993.118125 177.934548 
" clip-path="url(#p25dd6962e1)" style="fill: none; stroke: #dedede; stroke-linecap: square"/>
     </g>
     <g id="text_12">
      <!-- 20 -->
      <g transform="translate(20.878125 180.973923)scale(0.08 -0.08)">
       <use xlink:href="#DejaVuSans-32"/>
       <use xlink:href="#DejaVuSans-30" x="63.623047"/>
      </g>
     </g>
    </g>
    <g id="ytick_5">
     <g id="line2d_5">
      <path d="M 38.058125 146.541024 
L 993.118125 146.541024 
" clip-path="url(#p25dd6962e1)" style="fill: none; stroke: #dedede; stroke-linecap: square"/>
     </g>
     <g id="text_13">
      <!-- 25 -->
      <g transform="translate(20.878125 149.580399)scale(0.08 -0.08)">
       <use xlink:href="#DejaVuSans-32"/>
       <use xlink:href="#DejaVuSans-35" x="63.623047"/>
      </g>
     </g>
    </g>
    <g id="ytick_6">
     <g id="line2d_6">
      <path d="M 38.058125 115.147501 
L 993.118125 115.147501 
" clip-path="url(#p25dd6962e1)" style="fill: none; stroke: #dedede; stroke-linecap: square"/>
     </g>
     <g id="text_14">
      <!-- 30 -->
      <g transform="translate(20.878125 118.186876)scale(0.08 -0.08)">
       <use xlink:href="#DejaVuSans-33"/>
       <use xlink:href="#DejaVuSans-30" x="63.623047"/>
      </g>
     </g>
    </g>
    <g id="ytick_7">
     <g id="line2d_7">
      <path d="M 38.058125 83.753978 
L 993.118125 83.753978 
" clip-path="url(#p25dd6962e1)" style="fill: none; stroke: #dedede; stroke-linecap: square"/>
     </g>
     <g id="text_15">
      <!-- 35 -->
      <g transform="translate(20.878125 86.793353)scale(0.08 -0.08)">
       <use xlink:href="#DejaVuSans-33"/>
       <use xlink:href="#DejaVuSans-35" x="63.623047"/>
      </g>
     </g>
    </g>
    <g id="ytick_8">
     <g id="line2d_8">
      <path d="M 38.058125 52.360454 
L 993.118125 52.360454 
" clip-path="url(#p25dd6962e1)" style="fill: none; stroke: #dedede; stroke-linecap: square"/>
     </g>
     <g id="text_16">
      <!-- 40 -->
      <g transform="translate(20.878125 55.399829)scale(0.08 -0.08)">
       <use xlink:href="#DejaVuSans-34"/>
       <use xlink:href="#DejaVuSans-30" x="63.623047"/>
      </g>
     </g>
    </g>
    <g id="text_17">
     <!-- Occurrence -->
     <g transform="translate(14.798438 181.321616)rotate(-90)scale(0.1 -0.1)">
      <defs>
       <path id="DejaVuSans-4f" d="M 2522 4238 
Q 1834 4238 1429 3725 
Q 1025 3213 1025 2328 
Q 1025 1447 1429 934 
Q 1834 422 2522 422 
Q 3209 422 3611 934 
Q 4013 1447 4013 2328 
Q 4013 3213 3611 3725 
Q 3209 4238 2522 4238 
z
M 2522 4750 
Q 3503 4750 4090 4092 
Q 4678 3434 4678 2328 
Q 4678 1225 4090 567 
Q 3503 -91 2522 -91 
Q 1538 -91 948 565 
Q 359 1222 359 2328 
Q 359 3434 948 4092 
Q 1538 4750 2522 4750 
z
" transform="scale(0.015625)"/>
       <path id="DejaVuSans-63" d="M 3122 3366 
L 3122 2828 
Q 2878 2963 2633 3030 
Q 2388 3097 2138 3097 
Q 1578 3097 1268 2742 
Q 959 2388 959 1747 
Q 959 1106 1268 751 
Q 1578 397 2138 397 
Q 2388 397 2633 464 
Q 2878 531 3122 666 
L 3122 134 
Q 2881 22 2623 -34 
Q 2366 -91 2075 -91 
Q 1284 -91 818 406 
Q 353 903 353 1747 
Q 353 2603 823 3093 
Q 1294 3584 2113 3584 
Q 2378 3584 2631 3529 
Q 2884 3475 3122 3366 
z
" transform="scale(0.015625)"/>
       <path id="DejaVuSans-75" d="M 544 1381 
L 544 3500 
L 1119 3500 
L 1119 1403 
Q 1119 906 1312 657 
Q 1506 409 1894 409 
Q 2359 409 2629 706 
Q 2900 1003 2900 1516 
L 2900 3500 
L 3475 3500 
L 3475 0 
L 2900 0 
L 2900 538 
Q 2691 219 2414 64 
Q 2138 -91 1772 -91 
Q 1169 -91 856 284 
Q 544 659 544 1381 
z
M 1991 3584 
L 1991 3584 
z
" transform="scale(0.015625)"/>
       <path id="DejaVuSans-72" d="M 2631 2963 
Q 2534 3019 2420 3045 
Q 2306 3072 2169 3072 
Q 1681 3072 1420 2755 
Q 1159 2438 1159 1844 
L 1159 0 
L 581 0 
L 581 3500 
L 1159 3500 
L 1159 2956 
Q 1341 3275 1631 3429 
Q 1922 3584 2338 3584 
Q 2397 3584 2469 3576 
Q 2541 3569 2628 3553 
L 2631 2963 
z
" transform="scale(0.015625)"/>
       <path id="DejaVuSans-65" d="M 3597 1894 
L 3597 1613 
L 953 1613 
Q 991 1019 1311 708 
Q 1631 397 2203 397 
Q 2534 397 2845 478 
Q 3156 559 3463 722 
L 3463 178 
Q 3153 47 2828 -22 
Q 2503 -91 2169 -91 
Q 1331 -91 842 396 
Q 353 884 353 1716 
Q 353 2575 817 3079 
Q 1281 3584 2069 3584 
Q 2775 3584 3186 3129 
Q 3597 2675 3597 1894 
z
M 3022 2063 
Q 3016 2534 2758 2815 
Q 2500 3097 2075 3097 
Q 1594 3097 1305 2825 
Q 1016 2553 972 2059 
L 3022 2063 
z
" transform="scale(0.015625)"/>
       <path id="DejaVuSans-6e" d="M 3513 2113 
L 3513 0 
L 2938 0 
L 2938 2094 
Q 2938 2591 2744 2837 
Q 2550 3084 2163 3084 
Q 1697 3084 1428 2787 
Q 1159 2491 1159 1978 
L 1159 0 
L 581 0 
L 581 3500 
L 1159 3500 
L 1159 2956 
Q 1366 3272 1645 3428 
Q 1925 3584 2291 3584 
Q 2894 3584 3203 3211 
Q 3513 2838 3513 2113 
z
" transform="scale(0.015625)"/>
      </defs>
      <use xlink:href="#DejaVuSans-4f"/>
      <use xlink:href="#DejaVuSans-63" x="78.710938"/>
      <use xlink:href="#DejaVuSans-63" x="133.691406"/>
      <use xlink:href="#DejaVuSans-75" x="188.671875"/>
      <use xlink:href="#DejaVuSans-72" x="252.050781"/>
      <use xlink:href="#DejaVuSans-72" x="291.414062"/>
      <use xlink:href="#DejaVuSans-65" x="330.277344"/>
      <use xlink:href="#DejaVuSans-6e" x="391.800781"/>
      <use xlink:href="#DejaVuSans-63" x="455.179688"/>
      <use xlink:href="#DejaVuSans-65" x="510.160156"/>
     </g>
    </g>
   </g>
   <g id="line2d_9">
    <path d="M 81.469943 257.089465 
L 90.164728 256.851741 
L 98.859513 253.877901 
L 107.554297 252.334057 
L 116.249082 253.511754 
L 124.943867 255.990099 
L 133.638652 254.5847 
L 142.333436 253.675702 
L 151.028221 255.328847 
L 160.965118 254.892557 
L 169.659903 257.448333 
L 178.354688 257.625029 
L 187.049472 258.311787 
L 195.744257 259.610623 
L 204.439042 259.600603 
L 213.133827 260.406682 
L 221.828611 260.372071 
L 230.523396 259.409329 
L 239.218181 259.060484 
L 247.912966 259.025875 
L 256.60775 258.927505 
L 265.302535 258.702531 
L 273.99732 258.850995 
L 282.692105 258.85646 
L 291.386889 258.288106 
L 301.323786 257.022063 
L 310.018571 255.503721 
L 318.713356 255.280572 
L 327.408141 253.876082 
L 336.102925 252.2703 
L 344.79771 248.100553 
L 353.492495 245.156772 
L 362.18728 239.329328 
L 370.882064 233.656722 
L 379.576849 227.258189 
L 388.271634 221.088277 
L 396.966419 217.085211 
L 405.661203 211.325162 
L 414.355988 206.862136 
L 423.050773 208.386851 
L 431.745558 212.548405 
L 440.440342 226.90662 
L 450.377239 239.148989 
L 459.072024 243.021559 
L 467.766809 248.584184 
L 476.461594 251.631715 
L 485.156378 253.01197 
L 493.851163 253.77928 
L 502.545948 254.183211 
L 511.240733 254.374902 
L 519.935517 253.853605 
L 528.630302 253.750827 
L 537.325087 253.361574 
L 546.019872 252.589947 
L 554.714656 252.179739 
L 563.409441 250.427061 
L 572.104226 249.825695 
L 580.799011 250.657233 
L 590.735908 250.684556 
L 599.430692 246.930146 
L 608.125477 245.269718 
L 616.820262 243.02454 
L 625.515047 242.737628 
L 634.209831 244.454528 
L 642.904616 249.515976 
L 651.599401 251.058914 
L 660.294186 251.606311 
L 668.98897 252.005254 
L 677.683755 255.216815 
L 686.37854 258.661547 
L 695.073325 260.650779 
L 703.768109 260.425807 
L 712.462894 262.511594 
L 721.157679 261.115303 
L 729.852464 260.947709 
L 739.789361 260.64805 
L 748.484145 260.785584 
L 757.17893 260.431273 
L 765.873715 260.486834 
L 774.5685 259.478553 
L 783.263284 259.714456 
L 791.958069 260.651694 
L 800.652854 261.245551 
L 809.347639 261.757433 
L 818.042423 259.759087 
L 826.737208 259.380184 
L 835.431993 259.373808 
L 844.126778 259.822842 
L 852.821562 257.408251 
L 861.516347 257.915582 
L 870.211132 258.765382 
L 880.148029 259.698062 
L 888.842814 261.255569 
L 897.537598 260.401216 
L 906.232383 259.696239 
L 914.927168 260.858449 
L 923.621953 261.846693 
L 932.316737 261.922293 
L 941.011522 262.967005 
L 949.706307 261.912272 
" clip-path="url(#p25dd6962e1)" style="fill: none; stroke: #7cb5ec; stroke-linecap: square"/>
   </g>
   <g id="line2d_10">
    <path d="M 81.469943 246.386431 
L 90.164728 244.54792 
L 98.859513 238.533198 
L 107.554297 236.370369 
L 116.249082 237.437391 
L 124.943867 241.815059 
L 133.638652 239.338991 
L 142.333436 239.439717 
L 151.028221 240.529989 
L 160.965118 241.666741 
L 169.659903 246.38422 
L 178.354688 244.363075 
L 187.049472 245.713447 
L 195.744257 247.88181 
L 204.439042 249.577529 
L 213.133827 250.728684 
L 221.828611 253.333145 
L 230.523396 252.893717 
L 239.218181 252.95681 
L 247.912966 252.974517 
L 256.60775 254.132303 
L 265.302535 253.276692 
L 273.99732 253.494746 
L 282.692105 253.459328 
L 291.386889 253.374097 
L 301.323786 252.359097 
L 310.018571 251.254445 
L 318.713356 250.01807 
L 327.408141 248.731889 
L 336.102925 245.48876 
L 344.79771 241.58151 
L 353.492495 236.419067 
L 362.18728 230.054572 
L 370.882064 223.143282 
L 379.576849 216.918247 
L 388.271634 211.367295 
L 396.966419 206.487109 
L 405.661203 200.463522 
L 414.355988 196.987958 
L 423.050773 198.658222 
L 431.745558 203.504095 
L 440.440342 217.015651 
L 450.377239 230.832704 
L 459.072024 235.991156 
L 467.766809 240.481391 
L 476.461594 243.495348 
L 485.156378 245.577787 
L 493.851163 247.053496 
L 502.545948 247.456436 
L 511.240733 247.433981 
L 519.935517 247.414334 
L 528.630302 247.262418 
L 537.325087 246.084869 
L 546.019872 244.637837 
L 554.714656 244.180355 
L 563.409441 241.958339 
L 572.104226 239.13636 
L 580.799011 235.791475 
L 590.735908 231.035261 
L 599.430692 226.942055 
L 608.125477 224.969612 
L 616.820262 220.777901 
L 625.515047 217.851344 
L 634.209831 220.772368 
L 642.904616 228.205003 
L 651.599401 229.890763 
L 660.294186 230.247168 
L 668.98897 233.367434 
L 677.683755 237.628877 
L 686.37854 243.2883 
L 695.073325 245.175511 
L 703.768109 247.211055 
L 712.462894 250.684408 
L 721.157679 249.456881 
L 729.852464 252.006005 
L 739.789361 251.744786 
L 748.484145 251.438184 
L 757.17893 251.908603 
L 765.873715 251.861007 
L 774.5685 252.599289 
L 783.263284 252.402265 
L 791.958069 252.883755 
L 800.652854 250.745283 
L 809.347639 250.454176 
L 818.042423 248.119792 
L 826.737208 246.815897 
L 835.431993 247.336125 
L 844.126778 248.612344 
L 852.821562 247.709141 
L 861.516347 248.716392 
L 870.211132 249.709255 
L 880.148029 250.309178 
L 888.842814 252.800742 
L 897.537598 252.672345 
L 906.232383 252.446537 
L 914.927168 253.629785 
L 923.621953 253.837874 
L 932.316737 254.324902 
L 941.011522 255.868982 
L 949.706307 257.056653 
" clip-path="url(#p25dd6962e1)" style="fill: none; stroke: #434348; stroke-linecap: square"/>
   </g>
   <g id="line2d_11">
    <path d="M 81.469943 192.410155 
L 90.164728 191.625254 
L 98.859513 190.049695 
L 107.554297 188.621558 
L 116.249082 189.676384 
L 124.943867 192.408238 
L 133.638652 192.144053 
L 142.333436 191.994729 
L 151.028221 192.392924 
L 160.965118 190.503413 
L 169.659903 191.495068 
L 178.354688 193.537732 
L 187.049472 195.733554 
L 195.744257 196.665875 
L 204.439042 197.99446 
L 213.133827 199.617879 
L 221.828611 198.584099 
L 230.523396 196.160474 
L 239.218181 195.519143 
L 247.912966 193.352042 
L 256.60775 193.41904 
L 265.302535 193.553048 
L 273.99732 196.110698 
L 282.692105 195.639749 
L 291.386889 193.419046 
L 301.323786 190.488095 
L 310.018571 187.82899 
L 318.713356 186.986659 
L 327.408141 183.385664 
L 336.102925 180.799302 
L 344.79771 172.115567 
L 353.492495 162.55889 
L 362.18728 148.131948 
L 370.882064 132.072029 
L 379.576849 118.401287 
L 388.271634 101.424368 
L 396.966419 84.690572 
L 405.661203 65.169413 
L 414.355988 47.223821 
L 423.050773 44.54937 
L 431.745558 69.011603 
L 440.440342 100.955316 
L 450.377239 133.932814 
L 459.072024 163.79787 
L 467.766809 179.169196 
L 476.461594 188.37562 
L 485.156378 190.469716 
L 493.851163 191.169009 
L 502.545948 191.47281 
L 511.240733 191.284504 
L 519.935517 190.878785 
L 528.630302 188.609256 
L 537.325087 186.097192 
L 546.019872 183.788096 
L 554.714656 181.122176 
L 563.409441 176.004265 
L 572.104226 171.440336 
L 580.799011 165.648728 
L 590.735908 160.678934 
L 599.430692 156.233695 
L 608.125477 153.191722 
L 616.820262 158.504187 
L 625.515047 168.987449 
L 634.209831 176.187521 
L 642.904616 184.758289 
L 651.599401 189.381575 
L 660.294186 193.126137 
L 668.98897 195.978605 
L 677.683755 198.185914 
L 686.37854 199.734662 
L 695.073325 202.278897 
L 703.768109 202.832166 
L 712.462894 203.90423 
L 721.157679 200.538708 
L 729.852464 199.21777 
L 739.789361 199.166083 
L 748.484145 199.030154 
L 757.17893 196.910919 
L 765.873715 196.171956 
L 774.5685 196.281073 
L 783.263284 197.362714 
L 791.958069 196.631417 
L 800.652854 199.503018 
L 809.347639 199.744238 
L 818.042423 198.180164 
L 826.737208 197.32634 
L 835.431993 196.365313 
L 844.126778 196.886035 
L 852.821562 196.087728 
L 861.516347 195.993916 
L 870.211132 196.315533 
L 880.148029 198.733426 
L 888.842814 197.714961 
L 897.537598 196.979832 
L 906.232383 195.957544 
L 914.927168 199.470478 
L 923.621953 202.755582 
L 932.316737 202.491398 
L 941.011522 203.109748 
L 949.706307 202.803443 
" clip-path="url(#p25dd6962e1)" style="fill: none; stroke: #90ed7d; stroke-linecap: square"/>
   </g>
   <g id="line2d_12">
    <path d="M 81.469943 195.58358 
L 90.164728 192.838842 
L 98.859513 190.293379 
L 107.554297 188.027831 
L 116.249082 188.110867 
L 124.943867 188.563962 
L 133.638652 188.813064 
L 142.333436 187.299541 
L 151.028221 187.373088 
L 160.965118 186.533286 
L 169.659903 189.413245 
L 178.354688 189.714535 
L 187.049472 191.097592 
L 195.744257 193.047604 
L 204.439042 197.068637 
L 213.133827 198.548948 
L 221.828611 199.756452 
L 230.523396 197.543095 
L 239.218181 198.015184 
L 247.912966 196.340346 
L 256.60775 197.097103 
L 265.302535 195.623916 
L 273.99732 196.031942 
L 282.692105 196.316617 
L 291.386889 196.686699 
L 301.323786 196.240709 
L 310.018571 194.269328 
L 318.713356 191.085721 
L 327.408141 187.403907 
L 336.102925 182.483789 
L 344.79771 175.293369 
L 353.492495 164.819694 
L 362.18728 151.807668 
L 370.882064 135.901433 
L 379.576849 121.266769 
L 388.271634 107.3248 
L 396.966419 94.113501 
L 405.661203 75.208719 
L 414.355988 59.297763 
L 423.050773 57.641918 
L 431.745558 82.045685 
L 440.440342 112.45848 
L 450.377239 146.470032 
L 459.072024 174.60558 
L 467.766809 187.167916 
L 476.461594 193.757625 
L 485.156378 196.510498 
L 493.851163 197.55921 
L 502.545948 197.539355 
L 511.240733 196.447266 
L 519.935517 195.522679 
L 528.630302 194.15069 
L 537.325087 191.361567 
L 546.019872 188.032091 
L 554.714656 185.957542 
L 563.409441 181.607467 
L 572.104226 174.505571 
L 580.799011 162.758185 
L 590.735908 150.870638 
L 599.430692 150.004726 
L 608.125477 147.468748 
L 616.820262 153.475403 
L 625.515047 160.490262 
L 634.209831 169.137275 
L 642.904616 178.94433 
L 651.599401 185.342403 
L 660.294186 189.320739 
L 668.98897 194.670253 
L 677.683755 197.773206 
L 686.37854 198.926153 
L 695.073325 199.144393 
L 703.768109 199.875067 
L 712.462894 203.55923 
L 721.157679 201.386219 
L 729.852464 200.797877 
L 739.789361 196.729403 
L 748.484145 194.093775 
L 757.17893 193.975173 
L 765.873715 194.902739 
L 774.5685 198.610627 
L 783.263284 197.93453 
L 791.958069 198.273757 
L 800.652854 196.900203 
L 809.347639 197.939273 
L 818.042423 196.850392 
L 826.737208 195.571726 
L 835.431993 194.435387 
L 844.126778 195.13048 
L 852.821562 195.602571 
L 861.516347 195.562235 
L 870.211132 197.581051 
L 880.148029 199.761186 
L 888.842814 200.147869 
L 897.537598 200.70773 
L 906.232383 201.319791 
L 914.927168 203.784602 
L 923.621953 202.75976 
L 932.316737 204.036062 
L 941.011522 205.082243 
L 949.706307 205.362177 
" clip-path="url(#p25dd6962e1)" style="fill: none; stroke: #f7a35c; stroke-linecap: square"/>
   </g>
   <g id="line2d_13">
    <path d="M 81.469943 193.031323 
L 90.164728 193.570643 
L 98.859513 192.035004 
L 107.554297 192.047542 
L 116.249082 192.166692 
L 124.943867 193.525178 
L 133.638652 193.80894 
L 142.333436 192.938044 
L 151.028221 192.394816 
L 160.965118 191.317745 
L 169.659903 191.146849 
L 178.354688 192.930205 
L 187.049472 195.063167 
L 195.744257 198.241834 
L 204.439042 198.185388 
L 213.133827 199.150356 
L 221.828611 200.648369 
L 230.523396 200.699326 
L 239.218181 200.751065 
L 247.912966 199.83156 
L 256.60775 199.562684 
L 265.302535 199.362796 
L 273.99732 199.123705 
L 282.692105 197.827947 
L 291.386889 197.147528 
L 301.323786 196.892763 
L 310.018571 196.136302 
L 318.713356 194.793504 
L 327.408141 189.950641 
L 336.102925 186.664586 
L 344.79771 179.684841 
L 353.492495 171.121652 
L 362.18728 159.495786 
L 370.882064 145.031481 
L 379.576849 128.45694 
L 388.271634 111.460666 
L 396.966419 92.343977 
L 405.661203 71.438444 
L 414.355988 47.032073 
L 423.050773 42.505915 
L 431.745558 67.291681 
L 440.440342 102.750879 
L 450.377239 137.339957 
L 459.072024 170.589603 
L 467.766809 189.196228 
L 476.461594 196.741694 
L 485.156378 199.04535 
L 493.851163 201.451003 
L 502.545948 201.111299 
L 511.240733 200.836438 
L 519.935517 200.591409 
L 528.630302 199.036808 
L 537.325087 196.263743 
L 546.019872 193.732506 
L 554.714656 190.288588 
L 563.409441 185.083798 
L 572.104226 178.688848 
L 580.799011 169.97089 
L 590.735908 162.560795 
L 599.430692 155.0096 
L 608.125477 149.995841 
L 616.820262 155.274545 
L 625.515047 166.342272 
L 634.209831 176.451295 
L 642.904616 186.006903 
L 651.599401 193.320578 
L 660.294186 198.250456 
L 668.98897 201.260587 
L 677.683755 203.668699 
L 686.37854 204.208792 
L 695.073325 203.887401 
L 703.768109 203.751786 
L 712.462894 204.71989 
L 721.157679 204.237797 
L 729.852464 203.610687 
L 739.789361 203.145058 
L 748.484145 202.879321 
L 757.17893 202.317274 
L 765.873715 201.427555 
L 774.5685 200.703247 
L 783.263284 200.143545 
L 791.958069 201.26764 
L 800.652854 201.509866 
L 809.347639 198.846992 
L 818.042423 197.491654 
L 826.737208 197.108334 
L 835.431993 197.816966 
L 844.126778 196.945283 
L 852.821562 197.279214 
L 861.516347 196.788505 
L 870.211132 197.349773 
L 880.148029 198.368038 
L 888.842814 197.475972 
L 897.537598 197.494003 
L 906.232383 197.661751 
L 914.927168 200.080836 
L 923.621953 200.782411 
L 932.316737 201.397765 
L 941.011522 202.133059 
L 949.706307 202.171464 
" clip-path="url(#p25dd6962e1)" style="fill: none; stroke: #8085e9; stroke-linecap: square"/>
   </g>
   <g id="line2d_14">
    <path d="M 81.469943 253.17144 
L 90.164728 252.816837 
L 98.859513 250.071166 
L 107.554297 249.846021 
L 116.249082 250.235145 
L 124.943867 251.531626 
L 133.638652 250.017133 
L 142.333436 248.655746 
L 151.028221 250.122951 
L 160.965118 250.423895 
L 169.659903 252.483239 
L 178.354688 251.865966 
L 187.049472 253.040858 
L 195.744257 255.231535 
L 204.439042 255.430036 
L 213.133827 256.167018 
L 221.828611 256.891241 
L 230.523396 256.900248 
L 239.218181 256.457457 
L 247.912966 256.53701 
L 256.60775 256.840959 
L 265.302535 256.68936 
L 273.99732 256.063076 
L 282.692105 255.283691 
L 291.386889 255.042784 
L 301.323786 254.490424 
L 310.018571 254.011988 
L 318.713356 253.317034 
L 327.408141 251.180389 
L 336.102925 249.771722 
L 344.79771 246.68721 
L 353.492495 242.642822 
L 362.18728 237.438932 
L 370.882064 231.576854 
L 379.576849 224.527505 
L 388.271634 217.826766 
L 396.966419 211.216454 
L 405.661203 204.020759 
L 414.355988 200.13923 
L 423.050773 201.96892 
L 431.745558 204.30069 
L 440.440342 219.749886 
L 450.377239 234.87263 
L 459.072024 238.701209 
L 467.766809 245.705538 
L 476.461594 249.402377 
L 485.156378 251.351201 
L 493.851163 252.772546 
L 502.545948 253.775978 
L 511.240733 253.973786 
L 519.935517 253.811996 
L 528.630302 253.681767 
L 537.325087 252.670293 
L 546.019872 251.492879 
L 554.714656 250.267906 
L 563.409441 248.419109 
L 572.104226 247.372345 
L 580.799011 248.906033 
L 590.735908 246.423412 
L 599.430692 241.174864 
L 608.125477 239.342921 
L 616.820262 236.890322 
L 625.515047 236.780002 
L 634.209831 239.120027 
L 642.904616 243.910767 
L 651.599401 246.53486 
L 660.294186 247.740896 
L 668.98897 248.782578 
L 677.683755 251.523367 
L 686.37854 254.370349 
L 695.073325 254.918956 
L 703.768109 255.860064 
L 712.462894 257.842487 
L 721.157679 257.785072 
L 729.852464 258.412485 
L 739.789361 257.771941 
L 748.484145 258.053748 
L 757.17893 258.008344 
L 765.873715 257.765934 
L 774.5685 257.270612 
L 783.263284 257.273992 
L 791.958069 257.376806 
L 800.652854 256.816567 
L 809.347639 256.307734 
L 818.042423 255.249544 
L 826.737208 254.028875 
L 835.431993 253.971085 
L 844.126778 254.419131 
L 852.821562 253.53205 
L 861.516347 253.292644 
L 870.211132 253.82249 
L 880.148029 255.027398 
L 888.842814 255.202263 
L 897.537598 254.858539 
L 906.232383 255.151982 
L 914.927168 255.723104 
L 923.621953 256.520124 
L 932.316737 257.407577 
L 941.011522 257.809464 
L 949.706307 257.850366 
" clip-path="url(#p25dd6962e1)" style="fill: none; stroke: #f15c80; stroke-linecap: square"/>
   </g>
   <g id="line2d_15">
    <path d="M 38.058125 303.508641 
L 993.118125 303.508641 
" clip-path="url(#p25dd6962e1)" style="fill: none; stroke: #dedede; stroke-width: 2; stroke-linecap: square"/>
   </g>
   <g id="text_18">
    <!-- deeptools: Read Distribution Profile after Annotation -->
    <g transform="translate(306.421875 19.3575)scale(0.16 -0.16)">
     <defs>
      <path id="DejaVuSans-64" d="M 2906 2969 
L 2906 4863 
L 3481 4863 
L 3481 0 
L 2906 0 
L 2906 525 
Q 2725 213 2448 61 
Q 2172 -91 1784 -91 
Q 1150 -91 751 415 
Q 353 922 353 1747 
Q 353 2572 751 3078 
Q 1150 3584 1784 3584 
Q 2172 3584 2448 3432 
Q 2725 3281 2906 2969 
z
M 947 1747 
Q 947 1113 1208 752 
Q 1469 391 1925 391 
Q 2381 391 2643 752 
Q 2906 1113 2906 1747 
Q 2906 2381 2643 2742 
Q 2381 3103 1925 3103 
Q 1469 3103 1208 2742 
Q 947 2381 947 1747 
z
" transform="scale(0.015625)"/>
      <path id="DejaVuSans-70" d="M 1159 525 
L 1159 -1331 
L 581 -1331 
L 581 3500 
L 1159 3500 
L 1159 2969 
Q 1341 3281 1617 3432 
Q 1894 3584 2278 3584 
Q 2916 3584 3314 3078 
Q 3713 2572 3713 1747 
Q 3713 922 3314 415 
Q 2916 -91 2278 -91 
Q 1894 -91 1617 61 
Q 1341 213 1159 525 
z
M 3116 1747 
Q 3116 2381 2855 2742 
Q 2594 3103 2138 3103 
Q 1681 3103 1420 2742 
Q 1159 2381 1159 1747 
Q 1159 1113 1420 752 
Q 1681 391 2138 391 
Q 2594 391 2855 752 
Q 3116 1113 3116 1747 
z
" transform="scale(0.015625)"/>
      <path id="DejaVuSans-74" d="M 1172 4494 
L 1172 3500 
L 2356 3500 
L 2356 3053 
L 1172 3053 
L 1172 1153 
Q 1172 725 1289 603 
Q 1406 481 1766 481 
L 2356 481 
L 2356 0 
L 1766 0 
Q 1100 0 847 248 
Q 594 497 594 1153 
L 594 3053 
L 172 3053 
L 172 3500 
L 594 3500 
L 594 4494 
L 1172 4494 
z
" transform="scale(0.015625)"/>
      <path id="DejaVuSans-6f" d="M 1959 3097 
Q 1497 3097 1228 2736 
Q 959 2375 959 1747 
Q 959 1119 1226 758 
Q 1494 397 1959 397 
Q 2419 397 2687 759 
Q 2956 1122 2956 1747 
Q 2956 2369 2687 2733 
Q 2419 3097 1959 3097 
z
M 1959 3584 
Q 2709 3584 3137 3096 
Q 3566 2609 3566 1747 
Q 3566 888 3137 398 
Q 2709 -91 1959 -91 
Q 1206 -91 779 398 
Q 353 888 353 1747 
Q 353 2609 779 3096 
Q 1206 3584 1959 3584 
z
" transform="scale(0.015625)"/>
      <path id="DejaVuSans-6c" d="M 603 4863 
L 1178 4863 
L 1178 0 
L 603 0 
L 603 4863 
z
" transform="scale(0.015625)"/>
      <path id="DejaVuSans-73" d="M 2834 3397 
L 2834 2853 
Q 2591 2978 2328 3040 
Q 2066 3103 1784 3103 
Q 1356 3103 1142 2972 
Q 928 2841 928 2578 
Q 928 2378 1081 2264 
Q 1234 2150 1697 2047 
L 1894 2003 
Q 2506 1872 2764 1633 
Q 3022 1394 3022 966 
Q 3022 478 2636 193 
Q 2250 -91 1575 -91 
Q 1294 -91 989 -36 
Q 684 19 347 128 
L 347 722 
Q 666 556 975 473 
Q 1284 391 1588 391 
Q 1994 391 2212 530 
Q 2431 669 2431 922 
Q 2431 1156 2273 1281 
Q 2116 1406 1581 1522 
L 1381 1569 
Q 847 1681 609 1914 
Q 372 2147 372 2553 
Q 372 3047 722 3315 
Q 1072 3584 1716 3584 
Q 2034 3584 2315 3537 
Q 2597 3491 2834 3397 
z
" transform="scale(0.015625)"/>
      <path id="DejaVuSans-3a" d="M 750 794 
L 1409 794 
L 1409 0 
L 750 0 
L 750 794 
z
M 750 3309 
L 1409 3309 
L 1409 2516 
L 750 2516 
L 750 3309 
z
" transform="scale(0.015625)"/>
      <path id="DejaVuSans-20" transform="scale(0.015625)"/>
      <path id="DejaVuSans-52" d="M 2841 2188 
Q 3044 2119 3236 1894 
Q 3428 1669 3622 1275 
L 4263 0 
L 3584 0 
L 2988 1197 
Q 2756 1666 2539 1819 
Q 2322 1972 1947 1972 
L 1259 1972 
L 1259 0 
L 628 0 
L 628 4666 
L 2053 4666 
Q 2853 4666 3247 4331 
Q 3641 3997 3641 3322 
Q 3641 2881 3436 2590 
Q 3231 2300 2841 2188 
z
M 1259 4147 
L 1259 2491 
L 2053 2491 
Q 2509 2491 2742 2702 
Q 2975 2913 2975 3322 
Q 2975 3731 2742 3939 
Q 2509 4147 2053 4147 
L 1259 4147 
z
" transform="scale(0.015625)"/>
      <path id="DejaVuSans-61" d="M 2194 1759 
Q 1497 1759 1228 1600 
Q 959 1441 959 1056 
Q 959 750 1161 570 
Q 1363 391 1709 391 
Q 2188 391 2477 730 
Q 2766 1069 2766 1631 
L 2766 1759 
L 2194 1759 
z
M 3341 1997 
L 3341 0 
L 2766 0 
L 2766 531 
Q 2569 213 2275 61 
Q 1981 -91 1556 -91 
Q 1019 -91 701 211 
Q 384 513 384 1019 
Q 384 1609 779 1909 
Q 1175 2209 1959 2209 
L 2766 2209 
L 2766 2266 
Q 2766 2663 2505 2880 
Q 2244 3097 1772 3097 
Q 1472 3097 1187 3025 
Q 903 2953 641 2809 
L 641 3341 
Q 956 3463 1253 3523 
Q 1550 3584 1831 3584 
Q 2591 3584 2966 3190 
Q 3341 2797 3341 1997 
z
" transform="scale(0.015625)"/>
      <path id="DejaVuSans-44" d="M 1259 4147 
L 1259 519 
L 2022 519 
Q 2988 519 3436 956 
Q 3884 1394 3884 2338 
Q 3884 3275 3436 3711 
Q 2988 4147 2022 4147 
L 1259 4147 
z
M 628 4666 
L 1925 4666 
Q 3281 4666 3915 4102 
Q 4550 3538 4550 2338 
Q 4550 1131 3912 565 
Q 3275 0 1925 0 
L 628 0 
L 628 4666 
z
" transform="scale(0.015625)"/>
      <path id="DejaVuSans-69" d="M 603 3500 
L 1178 3500 
L 1178 0 
L 603 0 
L 603 3500 
z
M 603 4863 
L 1178 4863 
L 1178 4134 
L 603 4134 
L 603 4863 
z
" transform="scale(0.015625)"/>
      <path id="DejaVuSans-62" d="M 3116 1747 
Q 3116 2381 2855 2742 
Q 2594 3103 2138 3103 
Q 1681 3103 1420 2742 
Q 1159 2381 1159 1747 
Q 1159 1113 1420 752 
Q 1681 391 2138 391 
Q 2594 391 2855 752 
Q 3116 1113 3116 1747 
z
M 1159 2969 
Q 1341 3281 1617 3432 
Q 1894 3584 2278 3584 
Q 2916 3584 3314 3078 
Q 3713 2572 3713 1747 
Q 3713 922 3314 415 
Q 2916 -91 2278 -91 
Q 1894 -91 1617 61 
Q 1341 213 1159 525 
L 1159 0 
L 581 0 
L 581 4863 
L 1159 4863 
L 1159 2969 
z
" transform="scale(0.015625)"/>
      <path id="DejaVuSans-50" d="M 1259 4147 
L 1259 2394 
L 2053 2394 
Q 2494 2394 2734 2622 
Q 2975 2850 2975 3272 
Q 2975 3691 2734 3919 
Q 2494 4147 2053 4147 
L 1259 4147 
z
M 628 4666 
L 2053 4666 
Q 2838 4666 3239 4311 
Q 3641 3956 3641 3272 
Q 3641 2581 3239 2228 
Q 2838 1875 2053 1875 
L 1259 1875 
L 1259 0 
L 628 0 
L 628 4666 
z
" transform="scale(0.015625)"/>
      <path id="DejaVuSans-66" d="M 2375 4863 
L 2375 4384 
L 1825 4384 
Q 1516 4384 1395 4259 
Q 1275 4134 1275 3809 
L 1275 3500 
L 2222 3500 
L 2222 3053 
L 1275 3053 
L 1275 0 
L 697 0 
L 697 3053 
L 147 3053 
L 147 3500 
L 697 3500 
L 697 3744 
Q 697 4328 969 4595 
Q 1241 4863 1831 4863 
L 2375 4863 
z
" transform="scale(0.015625)"/>
      <path id="DejaVuSans-41" d="M 2188 4044 
L 1331 1722 
L 3047 1722 
L 2188 4044 
z
M 1831 4666 
L 2547 4666 
L 4325 0 
L 3669 0 
L 3244 1197 
L 1141 1197 
L 716 0 
L 50 0 
L 1831 4666 
z
" transform="scale(0.015625)"/>
     </defs>
     <use xlink:href="#DejaVuSans-64"/>
     <use xlink:href="#DejaVuSans-65" x="63.476562"/>
     <use xlink:href="#DejaVuSans-65" x="125"/>
     <use xlink:href="#DejaVuSans-70" x="186.523438"/>
     <use xlink:href="#DejaVuSans-74" x="250"/>
     <use xlink:href="#DejaVuSans-6f" x="289.208984"/>
     <use xlink:href="#DejaVuSans-6f" x="350.390625"/>
     <use xlink:href="#DejaVuSans-6c" x="411.572266"/>
     <use xlink:href="#DejaVuSans-73" x="439.355469"/>
     <use xlink:href="#DejaVuSans-3a" x="491.455078"/>
     <use xlink:href="#DejaVuSans-20" x="525.146484"/>
     <use xlink:href="#DejaVuSans-52" x="556.933594"/>
     <use xlink:href="#DejaVuSans-65" x="621.916016"/>
     <use xlink:href="#DejaVuSans-61" x="683.439453"/>
     <use xlink:href="#DejaVuSans-64" x="744.71875"/>
     <use xlink:href="#DejaVuSans-20" x="808.195312"/>
     <use xlink:href="#DejaVuSans-44" x="839.982422"/>
     <use xlink:href="#DejaVuSans-69" x="916.984375"/>
     <use xlink:href="#DejaVuSans-73" x="944.767578"/>
     <use xlink:href="#DejaVuSans-74" x="996.867188"/>
     <use xlink:href="#DejaVuSans-72" x="1036.076172"/>
     <use xlink:href="#DejaVuSans-69" x="1077.189453"/>
     <use xlink:href="#DejaVuSans-62" x="1104.972656"/>
     <use xlink:href="#DejaVuSans-75" x="1168.449219"/>
     <use xlink:href="#DejaVuSans-74" x="1231.828125"/>
     <use xlink:href="#DejaVuSans-69" x="1271.037109"/>
     <use xlink:href="#DejaVuSans-6f" x="1298.820312"/>
     <use xlink:href="#DejaVuSans-6e" x="1360.001953"/>
     <use xlink:href="#DejaVuSans-20" x="1423.380859"/>
     <use xlink:href="#DejaVuSans-50" x="1455.167969"/>
     <use xlink:href="#DejaVuSans-72" x="1513.720703"/>
     <use xlink:href="#DejaVuSans-6f" x="1552.583984"/>
     <use xlink:href="#DejaVuSans-66" x="1613.765625"/>
     <use xlink:href="#DejaVuSans-69" x="1648.970703"/>
     <use xlink:href="#DejaVuSans-6c" x="1676.753906"/>
     <use xlink:href="#DejaVuSans-65" x="1704.537109"/>
     <use xlink:href="#DejaVuSans-20" x="1766.060547"/>
     <use xlink:href="#DejaVuSans-61" x="1797.847656"/>
     <use xlink:href="#DejaVuSans-66" x="1859.126953"/>
     <use xlink:href="#DejaVuSans-74" x="1892.582031"/>
     <use xlink:href="#DejaVuSans-65" x="1931.791016"/>
     <use xlink:href="#DejaVuSans-72" x="1993.314453"/>
     <use xlink:href="#DejaVuSans-20" x="2034.427734"/>
     <use xlink:href="#DejaVuSans-41" x="2066.214844"/>
     <use xlink:href="#DejaVuSans-6e" x="2134.623047"/>
     <use xlink:href="#DejaVuSans-6e" x="2198.001953"/>
     <use xlink:href="#DejaVuSans-6f" x="2261.380859"/>
     <use xlink:href="#DejaVuSans-74" x="2322.5625"/>
     <use xlink:href="#DejaVuSans-61" x="2361.771484"/>
     <use xlink:href="#DejaVuSans-74" x="2423.050781"/>
     <use xlink:href="#DejaVuSans-69" x="2462.259766"/>
     <use xlink:href="#DejaVuSans-6f" x="2490.042969"/>
     <use xlink:href="#DejaVuSans-6e" x="2551.224609"/>
    </g>
   </g>
   <g id="legend_1">
    <g id="line2d_16">
     <path d="M 45.258125 303.490394 
L 53.258125 303.490394 
L 61.258125 303.490394 
" style="fill: none; stroke: #7cb5ec; stroke-linecap: square"/>
    </g>
    <g id="text_19">
     <!-- OSMOTIC_STRESS_T0_PE_REP1 -->
     <g transform="translate(67.658125 306.290394)scale(0.08 -0.08)">
      <defs>
       <path id="DejaVuSans-53" d="M 3425 4513 
L 3425 3897 
Q 3066 4069 2747 4153 
Q 2428 4238 2131 4238 
Q 1616 4238 1336 4038 
Q 1056 3838 1056 3469 
Q 1056 3159 1242 3001 
Q 1428 2844 1947 2747 
L 2328 2669 
Q 3034 2534 3370 2195 
Q 3706 1856 3706 1288 
Q 3706 609 3251 259 
Q 2797 -91 1919 -91 
Q 1588 -91 1214 -16 
Q 841 59 441 206 
L 441 856 
Q 825 641 1194 531 
Q 1563 422 1919 422 
Q 2459 422 2753 634 
Q 3047 847 3047 1241 
Q 3047 1584 2836 1778 
Q 2625 1972 2144 2069 
L 1759 2144 
Q 1053 2284 737 2584 
Q 422 2884 422 3419 
Q 422 4038 858 4394 
Q 1294 4750 2059 4750 
Q 2388 4750 2728 4690 
Q 3069 4631 3425 4513 
z
" transform="scale(0.015625)"/>
       <path id="DejaVuSans-4d" d="M 628 4666 
L 1569 4666 
L 2759 1491 
L 3956 4666 
L 4897 4666 
L 4897 0 
L 4281 0 
L 4281 4097 
L 3078 897 
L 2444 897 
L 1241 4097 
L 1241 0 
L 628 0 
L 628 4666 
z
" transform="scale(0.015625)"/>
       <path id="DejaVuSans-54" d="M -19 4666 
L 3928 4666 
L 3928 4134 
L 2272 4134 
L 2272 0 
L 1638 0 
L 1638 4134 
L -19 4134 
L -19 4666 
z
" transform="scale(0.015625)"/>
       <path id="DejaVuSans-49" d="M 628 4666 
L 1259 4666 
L 1259 0 
L 628 0 
L 628 4666 
z
" transform="scale(0.015625)"/>
       <path id="DejaVuSans-43" d="M 4122 4306 
L 4122 3641 
Q 3803 3938 3442 4084 
Q 3081 4231 2675 4231 
Q 1875 4231 1450 3742 
Q 1025 3253 1025 2328 
Q 1025 1406 1450 917 
Q 1875 428 2675 428 
Q 3081 428 3442 575 
Q 3803 722 4122 1019 
L 4122 359 
Q 3791 134 3420 21 
Q 3050 -91 2638 -91 
Q 1578 -91 968 557 
Q 359 1206 359 2328 
Q 359 3453 968 4101 
Q 1578 4750 2638 4750 
Q 3056 4750 3426 4639 
Q 3797 4528 4122 4306 
z
" transform="scale(0.015625)"/>
       <path id="DejaVuSans-5f" d="M 3263 -1063 
L 3263 -1509 
L -63 -1509 
L -63 -1063 
L 3263 -1063 
z
" transform="scale(0.015625)"/>
       <path id="DejaVuSans-45" d="M 628 4666 
L 3578 4666 
L 3578 4134 
L 1259 4134 
L 1259 2753 
L 3481 2753 
L 3481 2222 
L 1259 2222 
L 1259 531 
L 3634 531 
L 3634 0 
L 628 0 
L 628 4666 
z
" transform="scale(0.015625)"/>
      </defs>
      <use xlink:href="#DejaVuSans-4f"/>
      <use xlink:href="#DejaVuSans-53" x="78.710938"/>
      <use xlink:href="#DejaVuSans-4d" x="142.1875"/>
      <use xlink:href="#DejaVuSans-4f" x="228.466797"/>
      <use xlink:href="#DejaVuSans-54" x="307.177734"/>
      <use xlink:href="#DejaVuSans-49" x="368.261719"/>
      <use xlink:href="#DejaVuSans-43" x="397.753906"/>
      <use xlink:href="#DejaVuSans-5f" x="467.578125"/>
      <use xlink:href="#DejaVuSans-53" x="517.578125"/>
      <use xlink:href="#DejaVuSans-54" x="581.054688"/>
      <use xlink:href="#DejaVuSans-52" x="642.138672"/>
      <use xlink:href="#DejaVuSans-45" x="711.621094"/>
      <use xlink:href="#DejaVuSans-53" x="774.804688"/>
      <use xlink:href="#DejaVuSans-53" x="838.28125"/>
      <use xlink:href="#DejaVuSans-5f" x="901.757812"/>
      <use xlink:href="#DejaVuSans-54" x="951.757812"/>
      <use xlink:href="#DejaVuSans-30" x="1012.841797"/>
      <use xlink:href="#DejaVuSans-5f" x="1076.464844"/>
      <use xlink:href="#DejaVuSans-50" x="1126.464844"/>
      <use xlink:href="#DejaVuSans-45" x="1186.767578"/>
      <use xlink:href="#DejaVuSans-5f" x="1249.951172"/>
      <use xlink:href="#DejaVuSans-52" x="1299.951172"/>
      <use xlink:href="#DejaVuSans-45" x="1369.433594"/>
      <use xlink:href="#DejaVuSans-50" x="1432.617188"/>
      <use xlink:href="#DejaVuSans-31" x="1492.919922"/>
     </g>
    </g>
    <g id="line2d_17">
     <path d="M 45.258125 315.455394 
L 53.258125 315.455394 
L 61.258125 315.455394 
" style="fill: none; stroke: #434348; stroke-linecap: square"/>
    </g>
    <g id="text_20">
     <!-- OSMOTIC_STRESS_T0_PE_REP2 -->
     <g transform="translate(67.658125 318.255394)scale(0.08 -0.08)">
      <use xlink:href="#DejaVuSans-4f"/>
      <use xlink:href="#DejaVuSans-53" x="78.710938"/>
      <use xlink:href="#DejaVuSans-4d" x="142.1875"/>
      <use xlink:href="#DejaVuSans-4f" x="228.466797"/>
      <use xlink:href="#DejaVuSans-54" x="307.177734"/>
      <use xlink:href="#DejaVuSans-49" x="368.261719"/>
      <use xlink:href="#DejaVuSans-43" x="397.753906"/>
      <use xlink:href="#DejaVuSans-5f" x="467.578125"/>
      <use xlink:href="#DejaVuSans-53" x="517.578125"/>
      <use xlink:href="#DejaVuSans-54" x="581.054688"/>
      <use xlink:href="#DejaVuSans-52" x="642.138672"/>
      <use xlink:href="#DejaVuSans-45" x="711.621094"/>
      <use xlink:href="#DejaVuSans-53" x="774.804688"/>
      <use xlink:href="#DejaVuSans-53" x="838.28125"/>
      <use xlink:href="#DejaVuSans-5f" x="901.757812"/>
      <use xlink:href="#DejaVuSans-54" x="951.757812"/>
      <use xlink:href="#DejaVuSans-30" x="1012.841797"/>
      <use xlink:href="#DejaVuSans-5f" x="1076.464844"/>
      <use xlink:href="#DejaVuSans-50" x="1126.464844"/>
      <use xlink:href="#DejaVuSans-45" x="1186.767578"/>
      <use xlink:href="#DejaVuSans-5f" x="1249.951172"/>
      <use xlink:href="#DejaVuSans-52" x="1299.951172"/>
      <use xlink:href="#DejaVuSans-45" x="1369.433594"/>
      <use xlink:href="#DejaVuSans-50" x="1432.617188"/>
      <use xlink:href="#DejaVuSans-32" x="1492.919922"/>
     </g>
    </g>
    <g id="line2d_18">
     <path d="M 234.5925 303.490394 
L 242.5925 303.490394 
L 250.5925 303.490394 
" style="fill: none; stroke: #90ed7d; stroke-linecap: square"/>
    </g>
    <g id="text_21">
     <!-- OSMOTIC_STRESS_T100_SE_REP1 -->
     <g transform="translate(256.9925 306.290394)scale(0.08 -0.08)">
      <use xlink:href="#DejaVuSans-4f"/>
      <use xlink:href="#DejaVuSans-53" x="78.710938"/>
      <use xlink:href="#DejaVuSans-4d" x="142.1875"/>
      <use xlink:href="#DejaVuSans-4f" x="228.466797"/>
      <use xlink:href="#DejaVuSans-54" x="307.177734"/>
      <use xlink:href="#DejaVuSans-49" x="368.261719"/>
      <use xlink:href="#DejaVuSans-43" x="397.753906"/>
      <use xlink:href="#DejaVuSans-5f" x="467.578125"/>
      <use xlink:href="#DejaVuSans-53" x="517.578125"/>
      <use xlink:href="#DejaVuSans-54" x="581.054688"/>
      <use xlink:href="#DejaVuSans-52" x="642.138672"/>
      <use xlink:href="#DejaVuSans-45" x="711.621094"/>
      <use xlink:href="#DejaVuSans-53" x="774.804688"/>
      <use xlink:href="#DejaVuSans-53" x="838.28125"/>
      <use xlink:href="#DejaVuSans-5f" x="901.757812"/>
      <use xlink:href="#DejaVuSans-54" x="951.757812"/>
      <use xlink:href="#DejaVuSans-31" x="1012.841797"/>
      <use xlink:href="#DejaVuSans-30" x="1076.464844"/>
      <use xlink:href="#DejaVuSans-30" x="1140.087891"/>
      <use xlink:href="#DejaVuSans-5f" x="1203.710938"/>
      <use xlink:href="#DejaVuSans-53" x="1253.710938"/>
      <use xlink:href="#DejaVuSans-45" x="1317.1875"/>
      <use xlink:href="#DejaVuSans-5f" x="1380.371094"/>
      <use xlink:href="#DejaVuSans-52" x="1430.371094"/>
      <use xlink:href="#DejaVuSans-45" x="1499.853516"/>
      <use xlink:href="#DejaVuSans-50" x="1563.037109"/>
      <use xlink:href="#DejaVuSans-31" x="1623.339844"/>
     </g>
    </g>
    <g id="line2d_19">
     <path d="M 434.361875 303.490394 
L 442.361875 303.490394 
L 450.361875 303.490394 
" style="fill: none; stroke: #f7a35c; stroke-linecap: square"/>
    </g>
    <g id="text_22">
     <!-- OSMOTIC_STRESS_T100_SE_REP2 -->
     <g transform="translate(456.761875 306.290394)scale(0.08 -0.08)">
      <use xlink:href="#DejaVuSans-4f"/>
      <use xlink:href="#DejaVuSans-53" x="78.710938"/>
      <use xlink:href="#DejaVuSans-4d" x="142.1875"/>
      <use xlink:href="#DejaVuSans-4f" x="228.466797"/>
      <use xlink:href="#DejaVuSans-54" x="307.177734"/>
      <use xlink:href="#DejaVuSans-49" x="368.261719"/>
      <use xlink:href="#DejaVuSans-43" x="397.753906"/>
      <use xlink:href="#DejaVuSans-5f" x="467.578125"/>
      <use xlink:href="#DejaVuSans-53" x="517.578125"/>
      <use xlink:href="#DejaVuSans-54" x="581.054688"/>
      <use xlink:href="#DejaVuSans-52" x="642.138672"/>
      <use xlink:href="#DejaVuSans-45" x="711.621094"/>
      <use xlink:href="#DejaVuSans-53" x="774.804688"/>
      <use xlink:href="#DejaVuSans-53" x="838.28125"/>
      <use xlink:href="#DejaVuSans-5f" x="901.757812"/>
      <use xlink:href="#DejaVuSans-54" x="951.757812"/>
      <use xlink:href="#DejaVuSans-31" x="1012.841797"/>
      <use xlink:href="#DejaVuSans-30" x="1076.464844"/>
      <use xlink:href="#DejaVuSans-30" x="1140.087891"/>
      <use xlink:href="#DejaVuSans-5f" x="1203.710938"/>
      <use xlink:href="#DejaVuSans-53" x="1253.710938"/>
      <use xlink:href="#DejaVuSans-45" x="1317.1875"/>
      <use xlink:href="#DejaVuSans-5f" x="1380.371094"/>
      <use xlink:href="#DejaVuSans-52" x="1430.371094"/>
      <use xlink:href="#DejaVuSans-45" x="1499.853516"/>
      <use xlink:href="#DejaVuSans-50" x="1563.037109"/>
      <use xlink:href="#DejaVuSans-32" x="1623.339844"/>
     </g>
    </g>
    <g id="line2d_20">
     <path d="M 634.13125 303.490394 
L 642.13125 303.490394 
L 650.13125 303.490394 
" style="fill: none; stroke: #8085e9; stroke-linecap: square"/>
    </g>
    <g id="text_23">
     <!-- OSMOTIC_STRESS_T150_SE_REP1 -->
     <g transform="translate(656.53125 306.290394)scale(0.08 -0.08)">
      <use xlink:href="#DejaVuSans-4f"/>
      <use xlink:href="#DejaVuSans-53" x="78.710938"/>
      <use xlink:href="#DejaVuSans-4d" x="142.1875"/>
      <use xlink:href="#DejaVuSans-4f" x="228.466797"/>
      <use xlink:href="#DejaVuSans-54" x="307.177734"/>
      <use xlink:href="#DejaVuSans-49" x="368.261719"/>
      <use xlink:href="#DejaVuSans-43" x="397.753906"/>
      <use xlink:href="#DejaVuSans-5f" x="467.578125"/>
      <use xlink:href="#DejaVuSans-53" x="517.578125"/>
      <use xlink:href="#DejaVuSans-54" x="581.054688"/>
      <use xlink:href="#DejaVuSans-52" x="642.138672"/>
      <use xlink:href="#DejaVuSans-45" x="711.621094"/>
      <use xlink:href="#DejaVuSans-53" x="774.804688"/>
      <use xlink:href="#DejaVuSans-53" x="838.28125"/>
      <use xlink:href="#DejaVuSans-5f" x="901.757812"/>
      <use xlink:href="#DejaVuSans-54" x="951.757812"/>
      <use xlink:href="#DejaVuSans-31" x="1012.841797"/>
      <use xlink:href="#DejaVuSans-35" x="1076.464844"/>
      <use xlink:href="#DejaVuSans-30" x="1140.087891"/>
      <use xlink:href="#DejaVuSans-5f" x="1203.710938"/>
      <use xlink:href="#DejaVuSans-53" x="1253.710938"/>
      <use xlink:href="#DejaVuSans-45" x="1317.1875"/>
      <use xlink:href="#DejaVuSans-5f" x="1380.371094"/>
      <use xlink:href="#DejaVuSans-52" x="1430.371094"/>
      <use xlink:href="#DejaVuSans-45" x="1499.853516"/>
      <use xlink:href="#DejaVuSans-50" x="1563.037109"/>
      <use xlink:href="#DejaVuSans-31" x="1623.339844"/>
     </g>
    </g>
    <g id="line2d_21">
     <path d="M 833.900625 303.490394 
L 841.900625 303.490394 
L 849.900625 303.490394 
" style="fill: none; stroke: #f15c80; stroke-linecap: square"/>
    </g>
    <g id="text_24">
     <!-- OSMOTIC_STRESS_T15_PE_REP1 -->
     <g transform="translate(856.300625 306.290394)scale(0.08 -0.08)">
      <use xlink:href="#DejaVuSans-4f"/>
      <use xlink:href="#DejaVuSans-53" x="78.710938"/>
      <use xlink:href="#DejaVuSans-4d" x="142.1875"/>
      <use xlink:href="#DejaVuSans-4f" x="228.466797"/>
      <use xlink:href="#DejaVuSans-54" x="307.177734"/>
      <use xlink:href="#DejaVuSans-49" x="368.261719"/>
      <use xlink:href="#DejaVuSans-43" x="397.753906"/>
      <use xlink:href="#DejaVuSans-5f" x="467.578125"/>
      <use xlink:href="#DejaVuSans-53" x="517.578125"/>
      <use xlink:href="#DejaVuSans-54" x="581.054688"/>
      <use xlink:href="#DejaVuSans-52" x="642.138672"/>
      <use xlink:href="#DejaVuSans-45" x="711.621094"/>
      <use xlink:href="#DejaVuSans-53" x="774.804688"/>
      <use xlink:href="#DejaVuSans-53" x="838.28125"/>
      <use xlink:href="#DejaVuSans-5f" x="901.757812"/>
      <use xlink:href="#DejaVuSans-54" x="951.757812"/>
      <use xlink:href="#DejaVuSans-31" x="1012.841797"/>
      <use xlink:href="#DejaVuSans-35" x="1076.464844"/>
      <use xlink:href="#DejaVuSans-5f" x="1140.087891"/>
      <use xlink:href="#DejaVuSans-50" x="1190.087891"/>
      <use xlink:href="#DejaVuSans-45" x="1250.390625"/>
      <use xlink:href="#DejaVuSans-5f" x="1313.574219"/>
      <use xlink:href="#DejaVuSans-52" x="1363.574219"/>
      <use xlink:href="#DejaVuSans-45" x="1433.056641"/>
      <use xlink:href="#DejaVuSans-50" x="1496.240234"/>
      <use xlink:href="#DejaVuSans-31" x="1556.542969"/>
     </g>
    </g>
   </g>
  </g>
 </g>
 <defs>
  <clipPath id="p25dd6962e1">
   <rect x="38.058125" y="31.48286" width="955.06" height="242.5072"/>
  </clipPath>
 </defs>
</svg>
