<?xml version="1.0" encoding="utf-8" standalone="no"?>
<!DOCTYPE svg PUBLIC "-//W3C//DTD SVG 1.1//EN"
  "http://www.w3.org/Graphics/SVG/1.1/DTD/svg11.dtd">
<svg xmlns:xlink="http://www.w3.org/1999/xlink" width="1000.278125pt" height="330.541644pt" viewBox="0 0 1000.278125 330.541644" xmlns="http://www.w3.org/2000/svg" version="1.1">
 <metadata>
  <rdf:RDF xmlns:dc="http://purl.org/dc/elements/1.1/" xmlns:cc="http://creativecommons.org/ns#" xmlns:rdf="http://www.w3.org/1999/02/22-rdf-syntax-ns#">
   <cc:Work>
    <dc:type rdf:resource="http://purl.org/dc/dcmitype/StillImage"/>
    <dc:date>2024-10-25T13:23:54.471728</dc:date>
    <dc:format>image/svg+xml</dc:format>
    <dc:creator>
     <cc:Agent>
      <dc:title>Matplotlib v3.5.3, https://matplotlib.org/</dc:title>
     </cc:Agent>
    </dc:creator>
   </cc:Work>
  </rdf:RDF>
 </metadata>
 <defs>
  <style type="text/css">*{stroke-linejoin: round; stroke-linecap: butt}</style>
 </defs>
 <g id="figure_1">
  <g id="axes_1">
   <g id="patch_1">
    <path d="M 43.148125 273.99006 
L 993.078125 273.99006 
L 993.078125 31.48286 
L 43.148125 31.48286 
z
" style="fill: #ffffff"/>
   </g>
   <g id="matplotlib.axis_1">
    <g id="xtick_1">
     <g id="text_1">
      <!-- 0 -->
      <g transform="translate(72.267458 287.06881)scale(0.08 -0.08)">
       <defs>
        <path id="DejaVuSans-30" d="M 2034 4250 
Q 1547 4250 1301 3770 
Q 1056 3291 1056 2328 
Q 1056 1369 1301 889 
Q 1547 409 2034 409 
Q 2525 409 2770 889 
Q 3016 1369 3016 2328 
Q 3016 3291 2770 3770 
Q 2525 4250 2034 4250 
z
M 2034 4750 
Q 2819 4750 3233 4129 
Q 3647 3509 3647 2328 
Q 3647 1150 3233 529 
Q 2819 -91 2034 -91 
Q 1250 -91 836 529 
Q 422 1150 422 2328 
Q 422 3509 836 4129 
Q 1250 4750 2034 4750 
z
" transform="scale(0.015625)"/>
       </defs>
       <use xlink:href="#DejaVuSans-30"/>
      </g>
     </g>
    </g>
    <g id="xtick_2">
     <g id="text_2">
      <!-- 10 -->
      <g transform="translate(184.865489 287.06881)scale(0.08 -0.08)">
       <defs>
        <path id="DejaVuSans-31" d="M 794 531 
L 1825 531 
L 1825 4091 
L 703 3866 
L 703 4441 
L 1819 4666 
L 2450 4666 
L 2450 531 
L 3481 531 
L 3481 0 
L 794 0 
L 794 531 
z
" transform="scale(0.015625)"/>
       </defs>
       <use xlink:href="#DejaVuSans-31"/>
       <use xlink:href="#DejaVuSans-30" x="63.623047"/>
      </g>
     </g>
    </g>
    <g id="xtick_3">
     <g id="text_3">
      <!-- 20 -->
      <g transform="translate(300.008519 287.06881)scale(0.08 -0.08)">
       <defs>
        <path id="DejaVuSans-32" d="M 1228 531 
L 3431 531 
L 3431 0 
L 469 0 
L 469 531 
Q 828 903 1448 1529 
Q 2069 2156 2228 2338 
Q 2531 2678 2651 2914 
Q 2772 3150 2772 3378 
Q 2772 3750 2511 3984 
Q 2250 4219 1831 4219 
Q 1534 4219 1204 4116 
Q 875 4013 500 3803 
L 500 4441 
Q 881 4594 1212 4672 
Q 1544 4750 1819 4750 
Q 2544 4750 2975 4387 
Q 3406 4025 3406 3419 
Q 3406 3131 3298 2873 
Q 3191 2616 2906 2266 
Q 2828 2175 2409 1742 
Q 1991 1309 1228 531 
z
" transform="scale(0.015625)"/>
       </defs>
       <use xlink:href="#DejaVuSans-32"/>
       <use xlink:href="#DejaVuSans-30" x="63.623047"/>
      </g>
     </g>
    </g>
    <g id="xtick_4">
     <g id="text_4">
      <!-- 30 -->
      <g transform="translate(415.151549 287.06881)scale(0.08 -0.08)">
       <defs>
        <path id="DejaVuSans-33" d="M 2597 2516 
Q 3050 2419 3304 2112 
Q 3559 1806 3559 1356 
Q 3559 666 3084 287 
Q 2609 -91 1734 -91 
Q 1441 -91 1130 -33 
Q 819 25 488 141 
L 488 750 
Q 750 597 1062 519 
Q 1375 441 1716 441 
Q 2309 441 2620 675 
Q 2931 909 2931 1356 
Q 2931 1769 2642 2001 
Q 2353 2234 1838 2234 
L 1294 2234 
L 1294 2753 
L 1863 2753 
Q 2328 2753 2575 2939 
Q 2822 3125 2822 3475 
Q 2822 3834 2567 4026 
Q 2313 4219 1838 4219 
Q 1578 4219 1281 4162 
Q 984 4106 628 3988 
L 628 4550 
Q 988 4650 1302 4700 
Q 1616 4750 1894 4750 
Q 2613 4750 3031 4423 
Q 3450 4097 3450 3541 
Q 3450 3153 3228 2886 
Q 3006 2619 2597 2516 
z
" transform="scale(0.015625)"/>
       </defs>
       <use xlink:href="#DejaVuSans-33"/>
       <use xlink:href="#DejaVuSans-30" x="63.623047"/>
      </g>
     </g>
    </g>
    <g id="xtick_5">
     <g id="text_5">
      <!-- 40 -->
      <g transform="translate(530.29458 287.06881)scale(0.08 -0.08)">
       <defs>
        <path id="DejaVuSans-34" d="M 2419 4116 
L 825 1625 
L 2419 1625 
L 2419 4116 
z
M 2253 4666 
L 3047 4666 
L 3047 1625 
L 3713 1625 
L 3713 1100 
L 3047 1100 
L 3047 0 
L 2419 0 
L 2419 1100 
L 313 1100 
L 313 1709 
L 2253 4666 
z
" transform="scale(0.015625)"/>
       </defs>
       <use xlink:href="#DejaVuSans-34"/>
       <use xlink:href="#DejaVuSans-30" x="63.623047"/>
      </g>
     </g>
    </g>
    <g id="xtick_6">
     <g id="text_6">
      <!-- 50 -->
      <g transform="translate(645.43761 287.06881)scale(0.08 -0.08)">
       <defs>
        <path id="DejaVuSans-35" d="M 691 4666 
L 3169 4666 
L 3169 4134 
L 1269 4134 
L 1269 2991 
Q 1406 3038 1543 3061 
Q 1681 3084 1819 3084 
Q 2600 3084 3056 2656 
Q 3513 2228 3513 1497 
Q 3513 744 3044 326 
Q 2575 -91 1722 -91 
Q 1428 -91 1123 -41 
Q 819 9 494 109 
L 494 744 
Q 775 591 1075 516 
Q 1375 441 1709 441 
Q 2250 441 2565 725 
Q 2881 1009 2881 1497 
Q 2881 1984 2565 2268 
Q 2250 2553 1709 2553 
Q 1456 2553 1204 2497 
Q 953 2441 691 2322 
L 691 4666 
z
" transform="scale(0.015625)"/>
       </defs>
       <use xlink:href="#DejaVuSans-35"/>
       <use xlink:href="#DejaVuSans-30" x="63.623047"/>
      </g>
     </g>
    </g>
    <g id="xtick_7">
     <g id="text_7">
      <!-- 60 -->
      <g transform="translate(760.58064 287.06881)scale(0.08 -0.08)">
       <defs>
        <path id="DejaVuSans-36" d="M 2113 2584 
Q 1688 2584 1439 2293 
Q 1191 2003 1191 1497 
Q 1191 994 1439 701 
Q 1688 409 2113 409 
Q 2538 409 2786 701 
Q 3034 994 3034 1497 
Q 3034 2003 2786 2293 
Q 2538 2584 2113 2584 
z
M 3366 4563 
L 3366 3988 
Q 3128 4100 2886 4159 
Q 2644 4219 2406 4219 
Q 1781 4219 1451 3797 
Q 1122 3375 1075 2522 
Q 1259 2794 1537 2939 
Q 1816 3084 2150 3084 
Q 2853 3084 3261 2657 
Q 3669 2231 3669 1497 
Q 3669 778 3244 343 
Q 2819 -91 2113 -91 
Q 1303 -91 875 529 
Q 447 1150 447 2328 
Q 447 3434 972 4092 
Q 1497 4750 2381 4750 
Q 2619 4750 2861 4703 
Q 3103 4656 3366 4563 
z
" transform="scale(0.015625)"/>
       </defs>
       <use xlink:href="#DejaVuSans-36"/>
       <use xlink:href="#DejaVuSans-30" x="63.623047"/>
      </g>
     </g>
    </g>
    <g id="xtick_8">
     <g id="text_8">
      <!-- 70 -->
      <g transform="translate(875.72367 287.06881)scale(0.08 -0.08)">
       <defs>
        <path id="DejaVuSans-37" d="M 525 4666 
L 3525 4666 
L 3525 4397 
L 1831 0 
L 1172 0 
L 2766 4134 
L 525 4134 
L 525 4666 
z
" transform="scale(0.015625)"/>
       </defs>
       <use xlink:href="#DejaVuSans-37"/>
       <use xlink:href="#DejaVuSans-30" x="63.623047"/>
      </g>
     </g>
    </g>
    <g id="text_9">
     <!-- Cycle # -->
     <g transform="translate(498.668594 300.330997)scale(0.1 -0.1)">
      <defs>
       <path id="DejaVuSans-43" d="M 4122 4306 
L 4122 3641 
Q 3803 3938 3442 4084 
Q 3081 4231 2675 4231 
Q 1875 4231 1450 3742 
Q 1025 3253 1025 2328 
Q 1025 1406 1450 917 
Q 1875 428 2675 428 
Q 3081 428 3442 575 
Q 3803 722 4122 1019 
L 4122 359 
Q 3791 134 3420 21 
Q 3050 -91 2638 -91 
Q 1578 -91 968 557 
Q 359 1206 359 2328 
Q 359 3453 968 4101 
Q 1578 4750 2638 4750 
Q 3056 4750 3426 4639 
Q 3797 4528 4122 4306 
z
" transform="scale(0.015625)"/>
       <path id="DejaVuSans-79" d="M 2059 -325 
Q 1816 -950 1584 -1140 
Q 1353 -1331 966 -1331 
L 506 -1331 
L 506 -850 
L 844 -850 
Q 1081 -850 1212 -737 
Q 1344 -625 1503 -206 
L 1606 56 
L 191 3500 
L 800 3500 
L 1894 763 
L 2988 3500 
L 3597 3500 
L 2059 -325 
z
" transform="scale(0.015625)"/>
       <path id="DejaVuSans-63" d="M 3122 3366 
L 3122 2828 
Q 2878 2963 2633 3030 
Q 2388 3097 2138 3097 
Q 1578 3097 1268 2742 
Q 959 2388 959 1747 
Q 959 1106 1268 751 
Q 1578 397 2138 397 
Q 2388 397 2633 464 
Q 2878 531 3122 666 
L 3122 134 
Q 2881 22 2623 -34 
Q 2366 -91 2075 -91 
Q 1284 -91 818 406 
Q 353 903 353 1747 
Q 353 2603 823 3093 
Q 1294 3584 2113 3584 
Q 2378 3584 2631 3529 
Q 2884 3475 3122 3366 
z
" transform="scale(0.015625)"/>
       <path id="DejaVuSans-6c" d="M 603 4863 
L 1178 4863 
L 1178 0 
L 603 0 
L 603 4863 
z
" transform="scale(0.015625)"/>
       <path id="DejaVuSans-65" d="M 3597 1894 
L 3597 1613 
L 953 1613 
Q 991 1019 1311 708 
Q 1631 397 2203 397 
Q 2534 397 2845 478 
Q 3156 559 3463 722 
L 3463 178 
Q 3153 47 2828 -22 
Q 2503 -91 2169 -91 
Q 1331 -91 842 396 
Q 353 884 353 1716 
Q 353 2575 817 3079 
Q 1281 3584 2069 3584 
Q 2775 3584 3186 3129 
Q 3597 2675 3597 1894 
z
M 3022 2063 
Q 3016 2534 2758 2815 
Q 2500 3097 2075 3097 
Q 1594 3097 1305 2825 
Q 1016 2553 972 2059 
L 3022 2063 
z
" transform="scale(0.015625)"/>
       <path id="DejaVuSans-20" transform="scale(0.015625)"/>
       <path id="DejaVuSans-23" d="M 3272 2816 
L 2363 2816 
L 2100 1772 
L 3016 1772 
L 3272 2816 
z
M 2803 4594 
L 2478 3297 
L 3391 3297 
L 3719 4594 
L 4219 4594 
L 3897 3297 
L 4872 3297 
L 4872 2816 
L 3775 2816 
L 3519 1772 
L 4513 1772 
L 4513 1294 
L 3397 1294 
L 3072 0 
L 2572 0 
L 2894 1294 
L 1978 1294 
L 1656 0 
L 1153 0 
L 1478 1294 
L 494 1294 
L 494 1772 
L 1594 1772 
L 1856 2816 
L 850 2816 
L 850 3297 
L 1978 3297 
L 2297 4594 
L 2803 4594 
z
" transform="scale(0.015625)"/>
      </defs>
      <use xlink:href="#DejaVuSans-43"/>
      <use xlink:href="#DejaVuSans-79" x="69.824219"/>
      <use xlink:href="#DejaVuSans-63" x="129.003906"/>
      <use xlink:href="#DejaVuSans-6c" x="183.984375"/>
      <use xlink:href="#DejaVuSans-65" x="211.767578"/>
      <use xlink:href="#DejaVuSans-20" x="273.291016"/>
      <use xlink:href="#DejaVuSans-23" x="305.078125"/>
     </g>
    </g>
   </g>
   <g id="matplotlib.axis_2">
    <g id="ytick_1">
     <g id="line2d_1">
      <path d="M 43.148125 273.99006 
L 993.078125 273.99006 
" clip-path="url(#p6440591710)" style="fill: none; stroke: #dedede; stroke-linecap: square"/>
     </g>
     <g id="text_10">
      <!-- 0 -->
      <g transform="translate(31.058125 277.029435)scale(0.08 -0.08)">
       <use xlink:href="#DejaVuSans-30"/>
      </g>
     </g>
    </g>
    <g id="ytick_2">
     <g id="line2d_2">
      <path d="M 43.148125 225.48862 
L 993.078125 225.48862 
" clip-path="url(#p6440591710)" style="fill: none; stroke: #dedede; stroke-linecap: square"/>
     </g>
     <g id="text_11">
      <!-- 20 -->
      <g transform="translate(25.968125 228.527995)scale(0.08 -0.08)">
       <use xlink:href="#DejaVuSans-32"/>
       <use xlink:href="#DejaVuSans-30" x="63.623047"/>
      </g>
     </g>
    </g>
    <g id="ytick_3">
     <g id="line2d_3">
      <path d="M 43.148125 176.98718 
L 993.078125 176.98718 
" clip-path="url(#p6440591710)" style="fill: none; stroke: #dedede; stroke-linecap: square"/>
     </g>
     <g id="text_12">
      <!-- 40 -->
      <g transform="translate(25.968125 180.026555)scale(0.08 -0.08)">
       <use xlink:href="#DejaVuSans-34"/>
       <use xlink:href="#DejaVuSans-30" x="63.623047"/>
      </g>
     </g>
    </g>
    <g id="ytick_4">
     <g id="line2d_4">
      <path d="M 43.148125 128.48574 
L 993.078125 128.48574 
" clip-path="url(#p6440591710)" style="fill: none; stroke: #dedede; stroke-linecap: square"/>
     </g>
     <g id="text_13">
      <!-- 60 -->
      <g transform="translate(25.968125 131.525115)scale(0.08 -0.08)">
       <use xlink:href="#DejaVuSans-36"/>
       <use xlink:href="#DejaVuSans-30" x="63.623047"/>
      </g>
     </g>
    </g>
    <g id="ytick_5">
     <g id="line2d_5">
      <path d="M 43.148125 79.9843 
L 993.078125 79.9843 
" clip-path="url(#p6440591710)" style="fill: none; stroke: #dedede; stroke-linecap: square"/>
     </g>
     <g id="text_14">
      <!-- 80 -->
      <g transform="translate(25.968125 83.023675)scale(0.08 -0.08)">
       <defs>
        <path id="DejaVuSans-38" d="M 2034 2216 
Q 1584 2216 1326 1975 
Q 1069 1734 1069 1313 
Q 1069 891 1326 650 
Q 1584 409 2034 409 
Q 2484 409 2743 651 
Q 3003 894 3003 1313 
Q 3003 1734 2745 1975 
Q 2488 2216 2034 2216 
z
M 1403 2484 
Q 997 2584 770 2862 
Q 544 3141 544 3541 
Q 544 4100 942 4425 
Q 1341 4750 2034 4750 
Q 2731 4750 3128 4425 
Q 3525 4100 3525 3541 
Q 3525 3141 3298 2862 
Q 3072 2584 2669 2484 
Q 3125 2378 3379 2068 
Q 3634 1759 3634 1313 
Q 3634 634 3220 271 
Q 2806 -91 2034 -91 
Q 1263 -91 848 271 
Q 434 634 434 1313 
Q 434 1759 690 2068 
Q 947 2378 1403 2484 
z
M 1172 3481 
Q 1172 3119 1398 2916 
Q 1625 2713 2034 2713 
Q 2441 2713 2670 2916 
Q 2900 3119 2900 3481 
Q 2900 3844 2670 4047 
Q 2441 4250 2034 4250 
Q 1625 4250 1398 4047 
Q 1172 3844 1172 3481 
z
" transform="scale(0.015625)"/>
       </defs>
       <use xlink:href="#DejaVuSans-38"/>
       <use xlink:href="#DejaVuSans-30" x="63.623047"/>
      </g>
     </g>
    </g>
    <g id="ytick_6">
     <g id="line2d_6">
      <path d="M 43.148125 31.48286 
L 993.078125 31.48286 
" clip-path="url(#p6440591710)" style="fill: none; stroke: #dedede; stroke-linecap: square"/>
     </g>
     <g id="text_15">
      <!-- 100 -->
      <g transform="translate(20.878125 34.522235)scale(0.08 -0.08)">
       <use xlink:href="#DejaVuSans-31"/>
       <use xlink:href="#DejaVuSans-30" x="63.623047"/>
       <use xlink:href="#DejaVuSans-30" x="127.246094"/>
      </g>
     </g>
    </g>
    <g id="text_16">
     <!-- % Guanine -->
     <g transform="translate(14.798437 179.98646)rotate(-90)scale(0.1 -0.1)">
      <defs>
       <path id="DejaVuSans-25" d="M 4653 2053 
Q 4381 2053 4226 1822 
Q 4072 1591 4072 1178 
Q 4072 772 4226 539 
Q 4381 306 4653 306 
Q 4919 306 5073 539 
Q 5228 772 5228 1178 
Q 5228 1588 5073 1820 
Q 4919 2053 4653 2053 
z
M 4653 2450 
Q 5147 2450 5437 2106 
Q 5728 1763 5728 1178 
Q 5728 594 5436 251 
Q 5144 -91 4653 -91 
Q 4153 -91 3862 251 
Q 3572 594 3572 1178 
Q 3572 1766 3864 2108 
Q 4156 2450 4653 2450 
z
M 1428 4353 
Q 1159 4353 1004 4120 
Q 850 3888 850 3481 
Q 850 3069 1003 2837 
Q 1156 2606 1428 2606 
Q 1700 2606 1854 2837 
Q 2009 3069 2009 3481 
Q 2009 3884 1853 4118 
Q 1697 4353 1428 4353 
z
M 4250 4750 
L 4750 4750 
L 1831 -91 
L 1331 -91 
L 4250 4750 
z
M 1428 4750 
Q 1922 4750 2215 4408 
Q 2509 4066 2509 3481 
Q 2509 2891 2217 2550 
Q 1925 2209 1428 2209 
Q 931 2209 642 2551 
Q 353 2894 353 3481 
Q 353 4063 643 4406 
Q 934 4750 1428 4750 
z
" transform="scale(0.015625)"/>
       <path id="DejaVuSans-47" d="M 3809 666 
L 3809 1919 
L 2778 1919 
L 2778 2438 
L 4434 2438 
L 4434 434 
Q 4069 175 3628 42 
Q 3188 -91 2688 -91 
Q 1594 -91 976 548 
Q 359 1188 359 2328 
Q 359 3472 976 4111 
Q 1594 4750 2688 4750 
Q 3144 4750 3555 4637 
Q 3966 4525 4313 4306 
L 4313 3634 
Q 3963 3931 3569 4081 
Q 3175 4231 2741 4231 
Q 1884 4231 1454 3753 
Q 1025 3275 1025 2328 
Q 1025 1384 1454 906 
Q 1884 428 2741 428 
Q 3075 428 3337 486 
Q 3600 544 3809 666 
z
" transform="scale(0.015625)"/>
       <path id="DejaVuSans-75" d="M 544 1381 
L 544 3500 
L 1119 3500 
L 1119 1403 
Q 1119 906 1312 657 
Q 1506 409 1894 409 
Q 2359 409 2629 706 
Q 2900 1003 2900 1516 
L 2900 3500 
L 3475 3500 
L 3475 0 
L 2900 0 
L 2900 538 
Q 2691 219 2414 64 
Q 2138 -91 1772 -91 
Q 1169 -91 856 284 
Q 544 659 544 1381 
z
M 1991 3584 
L 1991 3584 
z
" transform="scale(0.015625)"/>
       <path id="DejaVuSans-61" d="M 2194 1759 
Q 1497 1759 1228 1600 
Q 959 1441 959 1056 
Q 959 750 1161 570 
Q 1363 391 1709 391 
Q 2188 391 2477 730 
Q 2766 1069 2766 1631 
L 2766 1759 
L 2194 1759 
z
M 3341 1997 
L 3341 0 
L 2766 0 
L 2766 531 
Q 2569 213 2275 61 
Q 1981 -91 1556 -91 
Q 1019 -91 701 211 
Q 384 513 384 1019 
Q 384 1609 779 1909 
Q 1175 2209 1959 2209 
L 2766 2209 
L 2766 2266 
Q 2766 2663 2505 2880 
Q 2244 3097 1772 3097 
Q 1472 3097 1187 3025 
Q 903 2953 641 2809 
L 641 3341 
Q 956 3463 1253 3523 
Q 1550 3584 1831 3584 
Q 2591 3584 2966 3190 
Q 3341 2797 3341 1997 
z
" transform="scale(0.015625)"/>
       <path id="DejaVuSans-6e" d="M 3513 2113 
L 3513 0 
L 2938 0 
L 2938 2094 
Q 2938 2591 2744 2837 
Q 2550 3084 2163 3084 
Q 1697 3084 1428 2787 
Q 1159 2491 1159 1978 
L 1159 0 
L 581 0 
L 581 3500 
L 1159 3500 
L 1159 2956 
Q 1366 3272 1645 3428 
Q 1925 3584 2291 3584 
Q 2894 3584 3203 3211 
Q 3513 2838 3513 2113 
z
" transform="scale(0.015625)"/>
       <path id="DejaVuSans-69" d="M 603 3500 
L 1178 3500 
L 1178 0 
L 603 0 
L 603 3500 
z
M 603 4863 
L 1178 4863 
L 1178 4134 
L 603 4134 
L 603 4863 
z
" transform="scale(0.015625)"/>
      </defs>
      <use xlink:href="#DejaVuSans-25"/>
      <use xlink:href="#DejaVuSans-20" x="95.019531"/>
      <use xlink:href="#DejaVuSans-47" x="126.806641"/>
      <use xlink:href="#DejaVuSans-75" x="204.296875"/>
      <use xlink:href="#DejaVuSans-61" x="267.675781"/>
      <use xlink:href="#DejaVuSans-6e" x="328.955078"/>
      <use xlink:href="#DejaVuSans-69" x="392.333984"/>
      <use xlink:href="#DejaVuSans-6e" x="420.117188"/>
      <use xlink:href="#DejaVuSans-65" x="483.496094"/>
     </g>
    </g>
   </g>
   <g id="line2d_7">
    <path d="M 86.326761 199.447838 
L 97.841064 227.424679 
L 109.355367 224.484958 
L 120.86967 223.831687 
L 132.383973 243.771311 
L 143.898277 223.648572 
L 155.41258 222.703308 
L 166.926883 225.049146 
L 178.441186 203.966298 
L 189.955489 228.721323 
L 201.469792 212.676584 
L 212.984095 222.995302 
L 224.498398 212.523162 
L 236.012701 213.107148 
L 247.527004 219.991241 
L 259.041307 223.470407 
L 270.55561 225.583642 
L 282.069913 226.177525 
L 293.584216 225.558896 
L 305.098519 224.682919 
L 316.612822 225.108536 
L 328.127125 224.053373 
L 339.641428 223.023954 
L 351.155731 223.124771 
L 362.670034 222.351607 
L 374.184337 224.030368 
L 385.69864 223.41099 
L 397.212943 224.120666 
L 408.727246 225.286493 
L 420.241549 224.360263 
L 431.755852 224.473014 
L 443.270155 223.443258 
L 454.784458 224.394461 
L 466.298761 224.68994 
L 477.813064 224.563778 
L 489.327367 223.82941 
L 500.84167 223.32192 
L 512.355973 224.29522 
L 523.870277 224.837629 
L 535.38458 223.965537 
L 546.898883 225.259703 
L 558.413186 225.564326 
L 569.927489 223.49336 
L 581.441792 223.911816 
L 592.956095 225.335343 
L 604.470398 224.139814 
L 615.984701 224.573022 
L 627.499004 223.606524 
L 639.013307 224.919688 
L 650.52761 224.979566 
L 662.041913 224.5289 
L 673.556216 225.152697 
L 685.070519 224.648461 
L 696.584822 224.565293 
L 708.099125 224.04902 
L 719.613428 223.979934 
L 731.127731 224.205357 
L 742.642034 224.994327 
L 754.156337 225.269976 
L 765.67064 225.15049 
L 777.184943 225.129236 
L 788.699246 224.323482 
L 800.213549 225.170885 
L 811.727852 224.306778 
L 823.242155 223.621344 
L 834.756458 225.002762 
L 846.270761 224.946696 
L 857.785064 225.667214 
L 869.299367 224.496125 
L 880.81367 224.326019 
L 892.327973 224.79526 
L 903.842277 224.890204 
L 915.35658 224.863305 
L 926.870883 226.1877 
L 938.385186 230.554627 
L 949.899489 240.789418 
" clip-path="url(#p6440591710)" style="fill: none; stroke: #7cb5ec; stroke-linecap: square"/>
   </g>
   <g id="line2d_8">
    <path d="M 86.326761 197.676085 
L 97.841064 226.919878 
L 109.355367 223.688164 
L 120.86967 222.827033 
L 132.383973 243.241765 
L 143.898277 222.812187 
L 155.41258 222.985402 
L 166.926883 225.949869 
L 178.441186 204.916511 
L 189.955489 227.543456 
L 201.469792 212.721123 
L 212.984095 223.752501 
L 224.498398 213.428834 
L 236.012701 213.611949 
L 247.527004 219.174654 
L 259.041307 223.930666 
L 270.55561 225.647979 
L 282.069913 225.771704 
L 293.584216 224.895726 
L 305.098519 225.207515 
L 316.612822 224.361233 
L 328.127125 222.816091 
L 339.641428 223.765298 
L 351.155731 222.803059 
L 362.670034 223.59394 
L 374.184337 223.328514 
L 385.69864 225.330183 
L 397.212943 223.559141 
L 408.727246 223.736893 
L 420.241549 224.611304 
L 431.755852 224.54356 
L 443.270155 223.349525 
L 454.784458 224.124626 
L 466.298761 223.279753 
L 477.813064 223.907917 
L 489.327367 223.848175 
L 500.84167 224.890777 
L 512.355973 224.492029 
L 523.870277 224.845675 
L 535.38458 224.179202 
L 546.898883 224.366774 
L 558.413186 224.894574 
L 569.927489 223.160592 
L 581.441792 224.132212 
L 592.956095 224.234477 
L 604.470398 223.789108 
L 615.984701 224.137353 
L 627.499004 224.953513 
L 639.013307 225.266922 
L 650.52761 225.502193 
L 662.041913 225.057028 
L 673.556216 225.29037 
L 685.070519 224.497711 
L 696.584822 224.907393 
L 708.099125 223.893068 
L 719.613428 224.519491 
L 731.127731 224.937872 
L 742.642034 225.317711 
L 754.156337 225.016434 
L 765.67064 225.006734 
L 777.184943 224.747011 
L 788.699246 225.060796 
L 800.213549 224.323128 
L 811.727852 224.792646 
L 823.242155 225.097373 
L 834.756458 224.805877 
L 846.270761 225.572426 
L 857.785064 224.491838 
L 869.299367 224.749182 
L 880.81367 224.731437 
L 892.327973 225.039402 
L 903.842277 225.534005 
L 915.35658 225.393785 
L 926.870883 226.859217 
L 938.385186 230.109175 
L 949.899489 240.037975 
" clip-path="url(#p6440591710)" style="fill: none; stroke: #434348; stroke-linecap: square"/>
   </g>
   <g id="line2d_9">
    <path d="M 86.326761 201.319693 
L 97.841064 227.271249 
L 109.355367 223.710802 
L 120.86967 224.348315 
L 132.383973 243.936778 
L 143.898277 224.516714 
L 155.41258 223.572476 
L 166.926883 226.020281 
L 178.441186 204.45914 
L 189.955489 227.445663 
L 201.469792 214.172179 
L 212.984095 224.462587 
L 224.498398 214.100007 
L 236.012701 213.540681 
L 247.527004 220.396944 
L 259.041307 223.235677 
L 270.55561 226.585623 
L 282.069913 226.784093 
L 293.584216 226.31498 
L 305.098519 225.605297 
L 316.612822 225.89398 
L 328.127125 224.414473 
L 339.641428 224.823442 
L 351.155731 224.095717 
L 362.670034 224.900409 
L 374.184337 226.014332 
L 385.69864 225.708846 
L 397.212943 224.961247 
L 408.727246 226.115067 
L 420.241549 224.978676 
L 431.755852 224.948268 
L 443.270155 224.948067 
L 454.784458 225.08784 
L 466.298761 224.547607 
L 477.813064 225.01569 
L 489.327367 224.660395 
L 500.84167 224.788788 
L 512.355973 225.795569 
L 523.870277 225.601752 
L 535.38458 226.246474 
L 546.898883 225.316435 
L 558.413186 225.628108 
L 569.927489 225.088963 
L 581.441792 224.17808 
L 592.956095 224.762951 
L 604.470398 224.144245 
L 615.984701 226.104887 
L 627.499004 224.822659 
L 639.013307 225.860335 
L 650.52761 226.495709 
L 662.041913 225.412642 
L 673.556216 225.26409 
L 685.070519 224.947383 
L 696.584822 225.439854 
L 708.099125 225.931394 
L 719.613428 224.164771 
L 731.127731 225.824939 
L 742.642034 226.377164 
L 754.156337 225.685189 
L 765.67064 225.768949 
L 777.184943 226.541712 
L 788.699246 225.999444 
L 800.213549 226.827931 
L 811.727852 225.484063 
L 823.242155 225.727635 
L 834.756458 225.258515 
L 846.270761 226.478699 
L 857.785064 226.900368 
L 869.299367 227.174212 
L 880.81367 225.39952 
L 892.327973 227.110629 
L 903.842277 225.948625 
L 915.35658 226.66478 
L 926.870883 226.225398 
L 938.385186 231.531744 
L 949.899489 242.249544 
" clip-path="url(#p6440591710)" style="fill: none; stroke: #90ed7d; stroke-linecap: square"/>
   </g>
   <g id="line2d_10">
    <path d="M 86.326761 200.387483 
L 97.841064 227.415589 
L 109.355367 223.770946 
L 120.86967 224.552799 
L 132.383973 243.912719 
L 143.898277 224.197958 
L 155.41258 222.658306 
L 166.926883 226.525479 
L 178.441186 205.511636 
L 189.955489 227.944847 
L 201.469792 214.779618 
L 212.984095 225.045969 
L 224.498398 213.859437 
L 236.012701 213.991751 
L 247.527004 220.95627 
L 259.041307 224.588887 
L 270.55561 226.278895 
L 282.069913 226.838221 
L 293.584216 225.25647 
L 305.098519 225.346683 
L 316.612822 224.395199 
L 328.127125 224.320562 
L 339.641428 224.312084 
L 351.155731 224.710201 
L 362.670034 224.439369 
L 374.184337 224.537965 
L 385.69864 226.017104 
L 397.212943 225.641572 
L 408.727246 224.493261 
L 420.241549 224.615567 
L 431.755852 226.009867 
L 443.270155 225.569501 
L 454.784458 225.035731 
L 466.298761 224.792445 
L 477.813064 225.379695 
L 489.327367 225.117295 
L 500.84167 225.527596 
L 512.355973 225.178999 
L 523.870277 226.276262 
L 535.38458 226.850686 
L 546.898883 226.014262 
L 558.413186 227.149937 
L 569.927489 225.155716 
L 581.441792 225.303451 
L 592.956095 224.244827 
L 604.470398 224.517628 
L 615.984701 225.426948 
L 627.499004 226.262157 
L 639.013307 226.195211 
L 650.52761 225.844655 
L 662.041913 225.924408 
L 673.556216 225.718745 
L 685.070519 226.175143 
L 696.584822 225.338064 
L 708.099125 225.606748 
L 719.613428 224.564418 
L 731.127731 226.547048 
L 742.642034 225.119871 
L 754.156337 226.406905 
L 765.67064 226.887094 
L 777.184943 226.041558 
L 788.699246 226.33029 
L 800.213549 225.371011 
L 811.727852 225.917351 
L 823.242155 225.392008 
L 834.756458 226.221382 
L 846.270761 227.151196 
L 857.785064 227.025582 
L 869.299367 226.343989 
L 880.81367 226.047408 
L 892.327973 227.00138 
L 903.842277 226.127331 
L 915.35658 226.346499 
L 926.870883 226.480993 
L 938.385186 230.221187 
L 949.899489 239.428991 
" clip-path="url(#p6440591710)" style="fill: none; stroke: #f7a35c; stroke-linecap: square"/>
   </g>
   <g id="line2d_11">
    <path d="M 86.326761 199.223107 
L 97.841064 227.391797 
L 109.355367 224.297706 
L 120.86967 223.892775 
L 132.383973 243.39178 
L 143.898277 223.1504 
L 155.41258 222.293816 
L 166.926883 224.853188 
L 178.441186 203.755224 
L 189.955489 228.352213 
L 201.469792 212.492397 
L 212.984095 222.766234 
L 224.498398 212.435292 
L 236.012701 213.406089 
L 247.527004 219.77078 
L 259.041307 223.358058 
L 270.55561 225.455394 
L 282.069913 225.886283 
L 293.584216 225.367141 
L 305.098519 224.827233 
L 316.612822 224.500173 
L 328.127125 223.903159 
L 339.641428 223.103678 
L 351.155731 222.999849 
L 362.670034 222.418409 
L 374.184337 223.679926 
L 385.69864 223.508609 
L 397.212943 224.110815 
L 408.727246 225.445012 
L 420.241549 224.048518 
L 431.755852 224.159741 
L 443.270155 223.164698 
L 454.784458 224.359686 
L 466.298761 224.312569 
L 477.813064 224.081271 
L 489.327367 223.905463 
L 500.84167 223.124126 
L 512.355973 224.408874 
L 523.870277 224.405018 
L 535.38458 223.778544 
L 546.898883 225.149925 
L 558.413186 225.105318 
L 569.927489 223.358332 
L 581.441792 223.968381 
L 592.956095 225.108883 
L 604.470398 224.154908 
L 615.984701 224.224534 
L 627.499004 223.526101 
L 639.013307 224.873348 
L 650.52761 224.731799 
L 662.041913 224.372585 
L 673.556216 225.059758 
L 685.070519 224.357137 
L 696.584822 224.663935 
L 708.099125 224.006513 
L 719.613428 224.046682 
L 731.127731 224.295385 
L 742.642034 224.691128 
L 754.156337 224.879282 
L 765.67064 224.823714 
L 777.184943 225.117773 
L 788.699246 224.217341 
L 800.213549 225.264032 
L 811.727852 224.224183 
L 823.242155 223.163878 
L 834.756458 224.928593 
L 846.270761 224.918988 
L 857.785064 225.347112 
L 869.299367 224.198659 
L 880.81367 223.77989 
L 892.327973 224.752162 
L 903.842277 224.950516 
L 915.35658 224.721005 
L 926.870883 225.905158 
L 938.385186 230.294177 
L 949.899489 240.573584 
" clip-path="url(#p6440591710)" style="fill: none; stroke: #8085e9; stroke-linecap: square"/>
   </g>
   <g id="line2d_12">
    <path d="M 86.326761 200.599553 
L 97.841064 226.641761 
L 109.355367 222.755057 
L 120.86967 223.964826 
L 132.383973 243.26965 
L 143.898277 223.771778 
L 155.41258 222.684272 
L 166.926883 225.238944 
L 178.441186 203.977899 
L 189.955489 226.802636 
L 201.469792 213.379348 
L 212.984095 223.848997 
L 224.498398 213.089775 
L 236.012701 213.52735 
L 247.527004 219.827158 
L 259.041307 223.04463 
L 270.55561 226.229926 
L 282.069913 226.056181 
L 293.584216 225.670086 
L 305.098519 224.994417 
L 316.612822 225.174595 
L 328.127125 223.926216 
L 339.641428 224.318748 
L 351.155731 223.64308 
L 362.670034 224.441011 
L 374.184337 225.110246 
L 385.69864 224.949371 
L 397.212943 224.267269 
L 408.727246 225.567127 
L 420.241549 224.782063 
L 431.755852 224.226836 
L 443.270155 224.419539 
L 454.784458 224.550474 
L 466.298761 223.523339 
L 477.813064 223.926347 
L 489.327367 224.463532 
L 500.84167 224.298943 
L 512.355973 225.371215 
L 523.870277 225.097744 
L 535.38458 225.455603 
L 546.898883 225.088255 
L 558.413186 224.437152 
L 569.927489 224.500721 
L 581.441792 223.485283 
L 592.956095 224.081649 
L 604.470398 223.751536 
L 615.984701 225.272253 
L 627.499004 224.225701 
L 639.013307 225.441816 
L 650.52761 225.577203 
L 662.041913 225.211534 
L 673.556216 224.454506 
L 685.070519 224.329908 
L 696.584822 224.950654 
L 708.099125 225.277835 
L 719.613428 224.264919 
L 731.127731 225.197982 
L 742.642034 225.708256 
L 754.156337 225.559808 
L 765.67064 225.047087 
L 777.184943 226.324634 
L 788.699246 225.464806 
L 800.213549 226.137014 
L 811.727852 224.999684 
L 823.242155 224.652361 
L 834.756458 224.752434 
L 846.270761 225.786074 
L 857.785064 226.279358 
L 869.299367 226.257899 
L 880.81367 224.796827 
L 892.327973 226.951916 
L 903.842277 225.224185 
L 915.35658 225.83969 
L 926.870883 225.84577 
L 938.385186 230.789852 
L 949.899489 241.494886 
" clip-path="url(#p6440591710)" style="fill: none; stroke: #f15c80; stroke-linecap: square"/>
   </g>
   <g id="line2d_13">
    <path d="M 86.326761 197.727725 
L 97.841064 227.094098 
L 109.355367 224.576495 
L 120.86967 224.70844 
L 132.383973 244.823734 
L 143.898277 224.323244 
L 155.41258 223.3826 
L 166.926883 225.870411 
L 178.441186 202.009568 
L 189.955489 230.245891 
L 201.469792 212.265134 
L 212.984095 224.027432 
L 224.498398 212.899322 
L 236.012701 213.780377 
L 247.527004 220.113758 
L 259.041307 223.657133 
L 270.55561 226.174736 
L 282.069913 225.791669 
L 293.584216 225.157479 
L 305.098519 224.995741 
L 316.612822 224.523291 
L 328.127125 223.92528 
L 339.641428 222.850564 
L 351.155731 223.469854 
L 362.670034 223.208092 
L 374.184337 223.661389 
L 385.69864 224.467958 
L 397.212943 224.853154 
L 408.727246 225.104275 
L 420.241549 224.910614 
L 431.755852 223.642551 
L 443.270155 224.099117 
L 454.784458 223.772018 
L 466.298761 223.68157 
L 477.813064 223.439126 
L 489.327367 223.698975 
L 500.84167 223.89358 
L 512.355973 224.745287 
L 523.870277 224.502891 
L 535.38458 224.700154 
L 546.898883 224.829837 
L 558.413186 225.129156 
L 569.927489 223.959428 
L 581.441792 223.62453 
L 592.956095 224.201593 
L 604.470398 223.617497 
L 615.984701 224.060371 
L 627.499004 224.336633 
L 639.013307 224.472558 
L 650.52761 224.4137 
L 662.041913 224.997642 
L 673.556216 224.490861 
L 685.070519 224.029081 
L 696.584822 224.10501 
L 708.099125 224.416154 
L 719.613428 223.750115 
L 731.127731 224.781551 
L 742.642034 224.794065 
L 754.156337 224.412645 
L 765.67064 224.754396 
L 777.184943 225.054331 
L 788.699246 224.481248 
L 800.213549 224.708644 
L 811.727852 224.161405 
L 823.242155 224.455391 
L 834.756458 224.414999 
L 846.270761 224.380437 
L 857.785064 224.649344 
L 869.299367 224.626868 
L 880.81367 224.810674 
L 892.327973 225.158992 
L 903.842277 224.217577 
L 915.35658 224.683802 
L 926.870883 225.249961 
L 938.385186 229.182795 
L 949.899489 240.389346 
" clip-path="url(#p6440591710)" style="fill: none; stroke: #e4d354; stroke-linecap: square"/>
   </g>
   <g id="line2d_14">
    <path d="M 86.326761 197.879173 
L 97.841064 227.164517 
L 109.355367 224.708603 
L 120.86967 224.812631 
L 132.383973 245.155513 
L 143.898277 224.500544 
L 155.41258 223.762136 
L 166.926883 226.079346 
L 178.441186 201.846576 
L 189.955489 230.540377 
L 201.469792 212.331123 
L 212.984095 224.235369 
L 224.498398 212.945102 
L 236.012701 213.181719 
L 247.527004 220.363839 
L 259.041307 223.729499 
L 270.55561 226.328199 
L 282.069913 226.067106 
L 293.584216 225.287904 
L 305.098519 225.067606 
L 316.612822 224.610693 
L 328.127125 224.040328 
L 339.641428 222.883736 
L 351.155731 223.75714 
L 362.670034 223.203894 
L 374.184337 223.863989 
L 385.69864 224.587989 
L 397.212943 224.919994 
L 408.727246 225.094119 
L 420.241549 224.865575 
L 431.755852 223.792903 
L 443.270155 224.252384 
L 454.784458 223.788235 
L 466.298761 223.99292 
L 477.813064 223.580479 
L 489.327367 223.728301 
L 500.84167 224.096085 
L 512.355973 224.590102 
L 523.870277 224.74439 
L 535.38458 224.895173 
L 546.898883 224.917533 
L 558.413186 225.447753 
L 569.927489 223.996202 
L 581.441792 223.830509 
L 592.956095 224.41554 
L 604.470398 223.566399 
L 615.984701 224.337089 
L 627.499004 224.34725 
L 639.013307 224.566334 
L 650.52761 224.65205 
L 662.041913 224.917018 
L 673.556216 224.567784 
L 685.070519 224.092853 
L 696.584822 224.206882 
L 708.099125 224.609107 
L 719.613428 223.550997 
L 731.127731 224.947848 
L 742.642034 224.782873 
L 754.156337 224.534873 
L 765.67064 225.04505 
L 777.184943 225.174151 
L 788.699246 224.775768 
L 800.213549 224.91293 
L 811.727852 224.11301 
L 823.242155 224.912629 
L 834.756458 224.294136 
L 846.270761 224.542485 
L 857.785064 224.736532 
L 869.299367 224.475937 
L 880.81367 225.161897 
L 892.327973 225.201239 
L 903.842277 224.311252 
L 915.35658 224.86582 
L 926.870883 225.413212 
L 938.385186 229.461734 
L 949.899489 240.578764 
" clip-path="url(#p6440591710)" style="fill: none; stroke: #2b908f; stroke-linecap: square"/>
   </g>
   <g id="line2d_15">
    <path d="M 86.326761 196.718529 
L 97.841064 227.429689 
L 109.355367 224.555617 
L 120.86967 224.237409 
L 132.383973 244.829144 
L 143.898277 224.665766 
L 155.41258 223.511243 
L 166.926883 225.573476 
L 178.441186 202.09543 
L 189.955489 229.602071 
L 201.469792 212.635052 
L 212.984095 224.398553 
L 224.498398 213.206195 
L 236.012701 213.457091 
L 247.527004 219.862048 
L 259.041307 223.962037 
L 270.55561 225.771335 
L 282.069913 226.109943 
L 293.584216 225.875366 
L 305.098519 225.304222 
L 316.612822 224.719183 
L 328.127125 223.578051 
L 339.641428 224.019029 
L 351.155731 223.699101 
L 362.670034 223.518305 
L 374.184337 224.25964 
L 385.69864 224.746664 
L 397.212943 224.155703 
L 408.727246 224.690963 
L 420.241549 224.028698 
L 431.755852 224.282042 
L 443.270155 223.960735 
L 454.784458 223.74924 
L 466.298761 224.050494 
L 477.813064 224.5163 
L 489.327367 224.044322 
L 500.84167 224.629315 
L 512.355973 224.706471 
L 523.870277 224.694637 
L 535.38458 224.994371 
L 546.898883 224.769276 
L 558.413186 224.812871 
L 569.927489 223.914469 
L 581.441792 224.315487 
L 592.956095 224.209538 
L 604.470398 224.017947 
L 615.984701 224.791269 
L 627.499004 224.737284 
L 639.013307 224.692423 
L 650.52761 224.513576 
L 662.041913 225.16456 
L 673.556216 224.608353 
L 685.070519 224.740754 
L 696.584822 224.520471 
L 708.099125 224.298208 
L 719.613428 223.661025 
L 731.127731 224.156099 
L 742.642034 224.815517 
L 754.156337 225.072422 
L 765.67064 225.421419 
L 777.184943 224.808865 
L 788.699246 224.896493 
L 800.213549 225.059698 
L 811.727852 224.065993 
L 823.242155 224.754723 
L 834.756458 224.581214 
L 846.270761 225.28051 
L 857.785064 225.064409 
L 869.299367 224.320817 
L 880.81367 225.155233 
L 892.327973 225.782718 
L 903.842277 225.157697 
L 915.35658 225.279106 
L 926.870883 225.98801 
L 938.385186 229.592727 
L 949.899489 241.052737 
" clip-path="url(#p6440591710)" style="fill: none; stroke: #f45b5b; stroke-linecap: square"/>
   </g>
   <g id="line2d_16">
    <path d="M 43.148125 273.99006 
L 993.078125 273.99006 
" clip-path="url(#p6440591710)" style="fill: none; stroke: #dedede; stroke-width: 2; stroke-linecap: square"/>
   </g>
   <g id="text_17">
    <!-- Picard: Base Distribution -->
    <g transform="translate(419.786875 19.3575)scale(0.16 -0.16)">
     <defs>
      <path id="DejaVuSans-50" d="M 1259 4147 
L 1259 2394 
L 2053 2394 
Q 2494 2394 2734 2622 
Q 2975 2850 2975 3272 
Q 2975 3691 2734 3919 
Q 2494 4147 2053 4147 
L 1259 4147 
z
M 628 4666 
L 2053 4666 
Q 2838 4666 3239 4311 
Q 3641 3956 3641 3272 
Q 3641 2581 3239 2228 
Q 2838 1875 2053 1875 
L 1259 1875 
L 1259 0 
L 628 0 
L 628 4666 
z
" transform="scale(0.015625)"/>
      <path id="DejaVuSans-72" d="M 2631 2963 
Q 2534 3019 2420 3045 
Q 2306 3072 2169 3072 
Q 1681 3072 1420 2755 
Q 1159 2438 1159 1844 
L 1159 0 
L 581 0 
L 581 3500 
L 1159 3500 
L 1159 2956 
Q 1341 3275 1631 3429 
Q 1922 3584 2338 3584 
Q 2397 3584 2469 3576 
Q 2541 3569 2628 3553 
L 2631 2963 
z
" transform="scale(0.015625)"/>
      <path id="DejaVuSans-64" d="M 2906 2969 
L 2906 4863 
L 3481 4863 
L 3481 0 
L 2906 0 
L 2906 525 
Q 2725 213 2448 61 
Q 2172 -91 1784 -91 
Q 1150 -91 751 415 
Q 353 922 353 1747 
Q 353 2572 751 3078 
Q 1150 3584 1784 3584 
Q 2172 3584 2448 3432 
Q 2725 3281 2906 2969 
z
M 947 1747 
Q 947 1113 1208 752 
Q 1469 391 1925 391 
Q 2381 391 2643 752 
Q 2906 1113 2906 1747 
Q 2906 2381 2643 2742 
Q 2381 3103 1925 3103 
Q 1469 3103 1208 2742 
Q 947 2381 947 1747 
z
" transform="scale(0.015625)"/>
      <path id="DejaVuSans-3a" d="M 750 794 
L 1409 794 
L 1409 0 
L 750 0 
L 750 794 
z
M 750 3309 
L 1409 3309 
L 1409 2516 
L 750 2516 
L 750 3309 
z
" transform="scale(0.015625)"/>
      <path id="DejaVuSans-42" d="M 1259 2228 
L 1259 519 
L 2272 519 
Q 2781 519 3026 730 
Q 3272 941 3272 1375 
Q 3272 1813 3026 2020 
Q 2781 2228 2272 2228 
L 1259 2228 
z
M 1259 4147 
L 1259 2741 
L 2194 2741 
Q 2656 2741 2882 2914 
Q 3109 3088 3109 3444 
Q 3109 3797 2882 3972 
Q 2656 4147 2194 4147 
L 1259 4147 
z
M 628 4666 
L 2241 4666 
Q 2963 4666 3353 4366 
Q 3744 4066 3744 3513 
Q 3744 3084 3544 2831 
Q 3344 2578 2956 2516 
Q 3422 2416 3680 2098 
Q 3938 1781 3938 1306 
Q 3938 681 3513 340 
Q 3088 0 2303 0 
L 628 0 
L 628 4666 
z
" transform="scale(0.015625)"/>
      <path id="DejaVuSans-73" d="M 2834 3397 
L 2834 2853 
Q 2591 2978 2328 3040 
Q 2066 3103 1784 3103 
Q 1356 3103 1142 2972 
Q 928 2841 928 2578 
Q 928 2378 1081 2264 
Q 1234 2150 1697 2047 
L 1894 2003 
Q 2506 1872 2764 1633 
Q 3022 1394 3022 966 
Q 3022 478 2636 193 
Q 2250 -91 1575 -91 
Q 1294 -91 989 -36 
Q 684 19 347 128 
L 347 722 
Q 666 556 975 473 
Q 1284 391 1588 391 
Q 1994 391 2212 530 
Q 2431 669 2431 922 
Q 2431 1156 2273 1281 
Q 2116 1406 1581 1522 
L 1381 1569 
Q 847 1681 609 1914 
Q 372 2147 372 2553 
Q 372 3047 722 3315 
Q 1072 3584 1716 3584 
Q 2034 3584 2315 3537 
Q 2597 3491 2834 3397 
z
" transform="scale(0.015625)"/>
      <path id="DejaVuSans-44" d="M 1259 4147 
L 1259 519 
L 2022 519 
Q 2988 519 3436 956 
Q 3884 1394 3884 2338 
Q 3884 3275 3436 3711 
Q 2988 4147 2022 4147 
L 1259 4147 
z
M 628 4666 
L 1925 4666 
Q 3281 4666 3915 4102 
Q 4550 3538 4550 2338 
Q 4550 1131 3912 565 
Q 3275 0 1925 0 
L 628 0 
L 628 4666 
z
" transform="scale(0.015625)"/>
      <path id="DejaVuSans-74" d="M 1172 4494 
L 1172 3500 
L 2356 3500 
L 2356 3053 
L 1172 3053 
L 1172 1153 
Q 1172 725 1289 603 
Q 1406 481 1766 481 
L 2356 481 
L 2356 0 
L 1766 0 
Q 1100 0 847 248 
Q 594 497 594 1153 
L 594 3053 
L 172 3053 
L 172 3500 
L 594 3500 
L 594 4494 
L 1172 4494 
z
" transform="scale(0.015625)"/>
      <path id="DejaVuSans-62" d="M 3116 1747 
Q 3116 2381 2855 2742 
Q 2594 3103 2138 3103 
Q 1681 3103 1420 2742 
Q 1159 2381 1159 1747 
Q 1159 1113 1420 752 
Q 1681 391 2138 391 
Q 2594 391 2855 752 
Q 3116 1113 3116 1747 
z
M 1159 2969 
Q 1341 3281 1617 3432 
Q 1894 3584 2278 3584 
Q 2916 3584 3314 3078 
Q 3713 2572 3713 1747 
Q 3713 922 3314 415 
Q 2916 -91 2278 -91 
Q 1894 -91 1617 61 
Q 1341 213 1159 525 
L 1159 0 
L 581 0 
L 581 4863 
L 1159 4863 
L 1159 2969 
z
" transform="scale(0.015625)"/>
      <path id="DejaVuSans-6f" d="M 1959 3097 
Q 1497 3097 1228 2736 
Q 959 2375 959 1747 
Q 959 1119 1226 758 
Q 1494 397 1959 397 
Q 2419 397 2687 759 
Q 2956 1122 2956 1747 
Q 2956 2369 2687 2733 
Q 2419 3097 1959 3097 
z
M 1959 3584 
Q 2709 3584 3137 3096 
Q 3566 2609 3566 1747 
Q 3566 888 3137 398 
Q 2709 -91 1959 -91 
Q 1206 -91 779 398 
Q 353 888 353 1747 
Q 353 2609 779 3096 
Q 1206 3584 1959 3584 
z
" transform="scale(0.015625)"/>
     </defs>
     <use xlink:href="#DejaVuSans-50"/>
     <use xlink:href="#DejaVuSans-69" x="58.052734"/>
     <use xlink:href="#DejaVuSans-63" x="85.835938"/>
     <use xlink:href="#DejaVuSans-61" x="140.816406"/>
     <use xlink:href="#DejaVuSans-72" x="202.095703"/>
     <use xlink:href="#DejaVuSans-64" x="241.458984"/>
     <use xlink:href="#DejaVuSans-3a" x="304.935547"/>
     <use xlink:href="#DejaVuSans-20" x="338.626953"/>
     <use xlink:href="#DejaVuSans-42" x="370.414062"/>
     <use xlink:href="#DejaVuSans-61" x="439.017578"/>
     <use xlink:href="#DejaVuSans-73" x="500.296875"/>
     <use xlink:href="#DejaVuSans-65" x="552.396484"/>
     <use xlink:href="#DejaVuSans-20" x="613.919922"/>
     <use xlink:href="#DejaVuSans-44" x="645.707031"/>
     <use xlink:href="#DejaVuSans-69" x="722.708984"/>
     <use xlink:href="#DejaVuSans-73" x="750.492188"/>
     <use xlink:href="#DejaVuSans-74" x="802.591797"/>
     <use xlink:href="#DejaVuSans-72" x="841.800781"/>
     <use xlink:href="#DejaVuSans-69" x="882.914062"/>
     <use xlink:href="#DejaVuSans-62" x="910.697266"/>
     <use xlink:href="#DejaVuSans-75" x="974.173828"/>
     <use xlink:href="#DejaVuSans-74" x="1037.552734"/>
     <use xlink:href="#DejaVuSans-69" x="1076.761719"/>
     <use xlink:href="#DejaVuSans-6f" x="1104.544922"/>
     <use xlink:href="#DejaVuSans-6e" x="1165.726562"/>
    </g>
   </g>
   <g id="legend_1">
    <g id="line2d_17">
     <path d="M 50.348125 303.490394 
L 58.348125 303.490394 
L 66.348125 303.490394 
" style="fill: none; stroke: #7cb5ec; stroke-linecap: square"/>
    </g>
    <g id="text_18">
     <!-- OSMOTIC_STRESS_T0_PE_REP1_R1 -->
     <g transform="translate(72.748125 306.290394)scale(0.08 -0.08)">
      <defs>
       <path id="DejaVuSans-4f" d="M 2522 4238 
Q 1834 4238 1429 3725 
Q 1025 3213 1025 2328 
Q 1025 1447 1429 934 
Q 1834 422 2522 422 
Q 3209 422 3611 934 
Q 4013 1447 4013 2328 
Q 4013 3213 3611 3725 
Q 3209 4238 2522 4238 
z
M 2522 4750 
Q 3503 4750 4090 4092 
Q 4678 3434 4678 2328 
Q 4678 1225 4090 567 
Q 3503 -91 2522 -91 
Q 1538 -91 948 565 
Q 359 1222 359 2328 
Q 359 3434 948 4092 
Q 1538 4750 2522 4750 
z
" transform="scale(0.015625)"/>
       <path id="DejaVuSans-53" d="M 3425 4513 
L 3425 3897 
Q 3066 4069 2747 4153 
Q 2428 4238 2131 4238 
Q 1616 4238 1336 4038 
Q 1056 3838 1056 3469 
Q 1056 3159 1242 3001 
Q 1428 2844 1947 2747 
L 2328 2669 
Q 3034 2534 3370 2195 
Q 3706 1856 3706 1288 
Q 3706 609 3251 259 
Q 2797 -91 1919 -91 
Q 1588 -91 1214 -16 
Q 841 59 441 206 
L 441 856 
Q 825 641 1194 531 
Q 1563 422 1919 422 
Q 2459 422 2753 634 
Q 3047 847 3047 1241 
Q 3047 1584 2836 1778 
Q 2625 1972 2144 2069 
L 1759 2144 
Q 1053 2284 737 2584 
Q 422 2884 422 3419 
Q 422 4038 858 4394 
Q 1294 4750 2059 4750 
Q 2388 4750 2728 4690 
Q 3069 4631 3425 4513 
z
" transform="scale(0.015625)"/>
       <path id="DejaVuSans-4d" d="M 628 4666 
L 1569 4666 
L 2759 1491 
L 3956 4666 
L 4897 4666 
L 4897 0 
L 4281 0 
L 4281 4097 
L 3078 897 
L 2444 897 
L 1241 4097 
L 1241 0 
L 628 0 
L 628 4666 
z
" transform="scale(0.015625)"/>
       <path id="DejaVuSans-54" d="M -19 4666 
L 3928 4666 
L 3928 4134 
L 2272 4134 
L 2272 0 
L 1638 0 
L 1638 4134 
L -19 4134 
L -19 4666 
z
" transform="scale(0.015625)"/>
       <path id="DejaVuSans-49" d="M 628 4666 
L 1259 4666 
L 1259 0 
L 628 0 
L 628 4666 
z
" transform="scale(0.015625)"/>
       <path id="DejaVuSans-5f" d="M 3263 -1063 
L 3263 -1509 
L -63 -1509 
L -63 -1063 
L 3263 -1063 
z
" transform="scale(0.015625)"/>
       <path id="DejaVuSans-52" d="M 2841 2188 
Q 3044 2119 3236 1894 
Q 3428 1669 3622 1275 
L 4263 0 
L 3584 0 
L 2988 1197 
Q 2756 1666 2539 1819 
Q 2322 1972 1947 1972 
L 1259 1972 
L 1259 0 
L 628 0 
L 628 4666 
L 2053 4666 
Q 2853 4666 3247 4331 
Q 3641 3997 3641 3322 
Q 3641 2881 3436 2590 
Q 3231 2300 2841 2188 
z
M 1259 4147 
L 1259 2491 
L 2053 2491 
Q 2509 2491 2742 2702 
Q 2975 2913 2975 3322 
Q 2975 3731 2742 3939 
Q 2509 4147 2053 4147 
L 1259 4147 
z
" transform="scale(0.015625)"/>
       <path id="DejaVuSans-45" d="M 628 4666 
L 3578 4666 
L 3578 4134 
L 1259 4134 
L 1259 2753 
L 3481 2753 
L 3481 2222 
L 1259 2222 
L 1259 531 
L 3634 531 
L 3634 0 
L 628 0 
L 628 4666 
z
" transform="scale(0.015625)"/>
      </defs>
      <use xlink:href="#DejaVuSans-4f"/>
      <use xlink:href="#DejaVuSans-53" x="78.710938"/>
      <use xlink:href="#DejaVuSans-4d" x="142.1875"/>
      <use xlink:href="#DejaVuSans-4f" x="228.466797"/>
      <use xlink:href="#DejaVuSans-54" x="307.177734"/>
      <use xlink:href="#DejaVuSans-49" x="368.261719"/>
      <use xlink:href="#DejaVuSans-43" x="397.753906"/>
      <use xlink:href="#DejaVuSans-5f" x="467.578125"/>
      <use xlink:href="#DejaVuSans-53" x="517.578125"/>
      <use xlink:href="#DejaVuSans-54" x="581.054688"/>
      <use xlink:href="#DejaVuSans-52" x="642.138672"/>
      <use xlink:href="#DejaVuSans-45" x="711.621094"/>
      <use xlink:href="#DejaVuSans-53" x="774.804688"/>
      <use xlink:href="#DejaVuSans-53" x="838.28125"/>
      <use xlink:href="#DejaVuSans-5f" x="901.757812"/>
      <use xlink:href="#DejaVuSans-54" x="951.757812"/>
      <use xlink:href="#DejaVuSans-30" x="1012.841797"/>
      <use xlink:href="#DejaVuSans-5f" x="1076.464844"/>
      <use xlink:href="#DejaVuSans-50" x="1126.464844"/>
      <use xlink:href="#DejaVuSans-45" x="1186.767578"/>
      <use xlink:href="#DejaVuSans-5f" x="1249.951172"/>
      <use xlink:href="#DejaVuSans-52" x="1299.951172"/>
      <use xlink:href="#DejaVuSans-45" x="1369.433594"/>
      <use xlink:href="#DejaVuSans-50" x="1432.617188"/>
      <use xlink:href="#DejaVuSans-31" x="1492.919922"/>
      <use xlink:href="#DejaVuSans-5f" x="1556.542969"/>
      <use xlink:href="#DejaVuSans-52" x="1606.542969"/>
      <use xlink:href="#DejaVuSans-31" x="1676.025391"/>
     </g>
    </g>
    <g id="line2d_18">
     <path d="M 50.348125 315.455394 
L 58.348125 315.455394 
L 66.348125 315.455394 
" style="fill: none; stroke: #434348; stroke-linecap: square"/>
    </g>
    <g id="text_19">
     <!-- OSMOTIC_STRESS_T0_PE_REP1_R2 -->
     <g transform="translate(72.748125 318.255394)scale(0.08 -0.08)">
      <use xlink:href="#DejaVuSans-4f"/>
      <use xlink:href="#DejaVuSans-53" x="78.710938"/>
      <use xlink:href="#DejaVuSans-4d" x="142.1875"/>
      <use xlink:href="#DejaVuSans-4f" x="228.466797"/>
      <use xlink:href="#DejaVuSans-54" x="307.177734"/>
      <use xlink:href="#DejaVuSans-49" x="368.261719"/>
      <use xlink:href="#DejaVuSans-43" x="397.753906"/>
      <use xlink:href="#DejaVuSans-5f" x="467.578125"/>
      <use xlink:href="#DejaVuSans-53" x="517.578125"/>
      <use xlink:href="#DejaVuSans-54" x="581.054688"/>
      <use xlink:href="#DejaVuSans-52" x="642.138672"/>
      <use xlink:href="#DejaVuSans-45" x="711.621094"/>
      <use xlink:href="#DejaVuSans-53" x="774.804688"/>
      <use xlink:href="#DejaVuSans-53" x="838.28125"/>
      <use xlink:href="#DejaVuSans-5f" x="901.757812"/>
      <use xlink:href="#DejaVuSans-54" x="951.757812"/>
      <use xlink:href="#DejaVuSans-30" x="1012.841797"/>
      <use xlink:href="#DejaVuSans-5f" x="1076.464844"/>
      <use xlink:href="#DejaVuSans-50" x="1126.464844"/>
      <use xlink:href="#DejaVuSans-45" x="1186.767578"/>
      <use xlink:href="#DejaVuSans-5f" x="1249.951172"/>
      <use xlink:href="#DejaVuSans-52" x="1299.951172"/>
      <use xlink:href="#DejaVuSans-45" x="1369.433594"/>
      <use xlink:href="#DejaVuSans-50" x="1432.617188"/>
      <use xlink:href="#DejaVuSans-31" x="1492.919922"/>
      <use xlink:href="#DejaVuSans-5f" x="1556.542969"/>
      <use xlink:href="#DejaVuSans-52" x="1606.542969"/>
      <use xlink:href="#DejaVuSans-32" x="1676.025391"/>
     </g>
    </g>
    <g id="line2d_19">
     <path d="M 242.345 303.490394 
L 250.345 303.490394 
L 258.345 303.490394 
" style="fill: none; stroke: #90ed7d; stroke-linecap: square"/>
    </g>
    <g id="text_20">
     <!-- OSMOTIC_STRESS_T0_PE_REP2_R1 -->
     <g transform="translate(264.745 306.290394)scale(0.08 -0.08)">
      <use xlink:href="#DejaVuSans-4f"/>
      <use xlink:href="#DejaVuSans-53" x="78.710938"/>
      <use xlink:href="#DejaVuSans-4d" x="142.1875"/>
      <use xlink:href="#DejaVuSans-4f" x="228.466797"/>
      <use xlink:href="#DejaVuSans-54" x="307.177734"/>
      <use xlink:href="#DejaVuSans-49" x="368.261719"/>
      <use xlink:href="#DejaVuSans-43" x="397.753906"/>
      <use xlink:href="#DejaVuSans-5f" x="467.578125"/>
      <use xlink:href="#DejaVuSans-53" x="517.578125"/>
      <use xlink:href="#DejaVuSans-54" x="581.054688"/>
      <use xlink:href="#DejaVuSans-52" x="642.138672"/>
      <use xlink:href="#DejaVuSans-45" x="711.621094"/>
      <use xlink:href="#DejaVuSans-53" x="774.804688"/>
      <use xlink:href="#DejaVuSans-53" x="838.28125"/>
      <use xlink:href="#DejaVuSans-5f" x="901.757812"/>
      <use xlink:href="#DejaVuSans-54" x="951.757812"/>
      <use xlink:href="#DejaVuSans-30" x="1012.841797"/>
      <use xlink:href="#DejaVuSans-5f" x="1076.464844"/>
      <use xlink:href="#DejaVuSans-50" x="1126.464844"/>
      <use xlink:href="#DejaVuSans-45" x="1186.767578"/>
      <use xlink:href="#DejaVuSans-5f" x="1249.951172"/>
      <use xlink:href="#DejaVuSans-52" x="1299.951172"/>
      <use xlink:href="#DejaVuSans-45" x="1369.433594"/>
      <use xlink:href="#DejaVuSans-50" x="1432.617188"/>
      <use xlink:href="#DejaVuSans-32" x="1492.919922"/>
      <use xlink:href="#DejaVuSans-5f" x="1556.542969"/>
      <use xlink:href="#DejaVuSans-52" x="1606.542969"/>
      <use xlink:href="#DejaVuSans-31" x="1676.025391"/>
     </g>
    </g>
    <g id="line2d_20">
     <path d="M 242.345 315.455394 
L 250.345 315.455394 
L 258.345 315.455394 
" style="fill: none; stroke: #f7a35c; stroke-linecap: square"/>
    </g>
    <g id="text_21">
     <!-- OSMOTIC_STRESS_T0_PE_REP2_R2 -->
     <g transform="translate(264.745 318.255394)scale(0.08 -0.08)">
      <use xlink:href="#DejaVuSans-4f"/>
      <use xlink:href="#DejaVuSans-53" x="78.710938"/>
      <use xlink:href="#DejaVuSans-4d" x="142.1875"/>
      <use xlink:href="#DejaVuSans-4f" x="228.466797"/>
      <use xlink:href="#DejaVuSans-54" x="307.177734"/>
      <use xlink:href="#DejaVuSans-49" x="368.261719"/>
      <use xlink:href="#DejaVuSans-43" x="397.753906"/>
      <use xlink:href="#DejaVuSans-5f" x="467.578125"/>
      <use xlink:href="#DejaVuSans-53" x="517.578125"/>
      <use xlink:href="#DejaVuSans-54" x="581.054688"/>
      <use xlink:href="#DejaVuSans-52" x="642.138672"/>
      <use xlink:href="#DejaVuSans-45" x="711.621094"/>
      <use xlink:href="#DejaVuSans-53" x="774.804688"/>
      <use xlink:href="#DejaVuSans-53" x="838.28125"/>
      <use xlink:href="#DejaVuSans-5f" x="901.757812"/>
      <use xlink:href="#DejaVuSans-54" x="951.757812"/>
      <use xlink:href="#DejaVuSans-30" x="1012.841797"/>
      <use xlink:href="#DejaVuSans-5f" x="1076.464844"/>
      <use xlink:href="#DejaVuSans-50" x="1126.464844"/>
      <use xlink:href="#DejaVuSans-45" x="1186.767578"/>
      <use xlink:href="#DejaVuSans-5f" x="1249.951172"/>
      <use xlink:href="#DejaVuSans-52" x="1299.951172"/>
      <use xlink:href="#DejaVuSans-45" x="1369.433594"/>
      <use xlink:href="#DejaVuSans-50" x="1432.617188"/>
      <use xlink:href="#DejaVuSans-32" x="1492.919922"/>
      <use xlink:href="#DejaVuSans-5f" x="1556.542969"/>
      <use xlink:href="#DejaVuSans-52" x="1606.542969"/>
      <use xlink:href="#DejaVuSans-32" x="1676.025391"/>
     </g>
    </g>
    <g id="line2d_21">
     <path d="M 434.341875 303.490394 
L 442.341875 303.490394 
L 450.341875 303.490394 
" style="fill: none; stroke: #8085e9; stroke-linecap: square"/>
    </g>
    <g id="text_22">
     <!-- OSMOTIC_STRESS_T100_SE_REP1 -->
     <g transform="translate(456.741875 306.290394)scale(0.08 -0.08)">
      <use xlink:href="#DejaVuSans-4f"/>
      <use xlink:href="#DejaVuSans-53" x="78.710938"/>
      <use xlink:href="#DejaVuSans-4d" x="142.1875"/>
      <use xlink:href="#DejaVuSans-4f" x="228.466797"/>
      <use xlink:href="#DejaVuSans-54" x="307.177734"/>
      <use xlink:href="#DejaVuSans-49" x="368.261719"/>
      <use xlink:href="#DejaVuSans-43" x="397.753906"/>
      <use xlink:href="#DejaVuSans-5f" x="467.578125"/>
      <use xlink:href="#DejaVuSans-53" x="517.578125"/>
      <use xlink:href="#DejaVuSans-54" x="581.054688"/>
      <use xlink:href="#DejaVuSans-52" x="642.138672"/>
      <use xlink:href="#DejaVuSans-45" x="711.621094"/>
      <use xlink:href="#DejaVuSans-53" x="774.804688"/>
      <use xlink:href="#DejaVuSans-53" x="838.28125"/>
      <use xlink:href="#DejaVuSans-5f" x="901.757812"/>
      <use xlink:href="#DejaVuSans-54" x="951.757812"/>
      <use xlink:href="#DejaVuSans-31" x="1012.841797"/>
      <use xlink:href="#DejaVuSans-30" x="1076.464844"/>
      <use xlink:href="#DejaVuSans-30" x="1140.087891"/>
      <use xlink:href="#DejaVuSans-5f" x="1203.710938"/>
      <use xlink:href="#DejaVuSans-53" x="1253.710938"/>
      <use xlink:href="#DejaVuSans-45" x="1317.1875"/>
      <use xlink:href="#DejaVuSans-5f" x="1380.371094"/>
      <use xlink:href="#DejaVuSans-52" x="1430.371094"/>
      <use xlink:href="#DejaVuSans-45" x="1499.853516"/>
      <use xlink:href="#DejaVuSans-50" x="1563.037109"/>
      <use xlink:href="#DejaVuSans-31" x="1623.339844"/>
     </g>
    </g>
    <g id="line2d_22">
     <path d="M 434.341875 315.455394 
L 442.341875 315.455394 
L 450.341875 315.455394 
" style="fill: none; stroke: #f15c80; stroke-linecap: square"/>
    </g>
    <g id="text_23">
     <!-- OSMOTIC_STRESS_T100_SE_REP2 -->
     <g transform="translate(456.741875 318.255394)scale(0.08 -0.08)">
      <use xlink:href="#DejaVuSans-4f"/>
      <use xlink:href="#DejaVuSans-53" x="78.710938"/>
      <use xlink:href="#DejaVuSans-4d" x="142.1875"/>
      <use xlink:href="#DejaVuSans-4f" x="228.466797"/>
      <use xlink:href="#DejaVuSans-54" x="307.177734"/>
      <use xlink:href="#DejaVuSans-49" x="368.261719"/>
      <use xlink:href="#DejaVuSans-43" x="397.753906"/>
      <use xlink:href="#DejaVuSans-5f" x="467.578125"/>
      <use xlink:href="#DejaVuSans-53" x="517.578125"/>
      <use xlink:href="#DejaVuSans-54" x="581.054688"/>
      <use xlink:href="#DejaVuSans-52" x="642.138672"/>
      <use xlink:href="#DejaVuSans-45" x="711.621094"/>
      <use xlink:href="#DejaVuSans-53" x="774.804688"/>
      <use xlink:href="#DejaVuSans-53" x="838.28125"/>
      <use xlink:href="#DejaVuSans-5f" x="901.757812"/>
      <use xlink:href="#DejaVuSans-54" x="951.757812"/>
      <use xlink:href="#DejaVuSans-31" x="1012.841797"/>
      <use xlink:href="#DejaVuSans-30" x="1076.464844"/>
      <use xlink:href="#DejaVuSans-30" x="1140.087891"/>
      <use xlink:href="#DejaVuSans-5f" x="1203.710938"/>
      <use xlink:href="#DejaVuSans-53" x="1253.710938"/>
      <use xlink:href="#DejaVuSans-45" x="1317.1875"/>
      <use xlink:href="#DejaVuSans-5f" x="1380.371094"/>
      <use xlink:href="#DejaVuSans-52" x="1430.371094"/>
      <use xlink:href="#DejaVuSans-45" x="1499.853516"/>
      <use xlink:href="#DejaVuSans-50" x="1563.037109"/>
      <use xlink:href="#DejaVuSans-32" x="1623.339844"/>
     </g>
    </g>
    <g id="line2d_23">
     <path d="M 622.125 303.490394 
L 630.125 303.490394 
L 638.125 303.490394 
" style="fill: none; stroke: #e4d354; stroke-linecap: square"/>
    </g>
    <g id="text_24">
     <!-- OSMOTIC_STRESS_T150_SE_REP1 -->
     <g transform="translate(644.525 306.290394)scale(0.08 -0.08)">
      <use xlink:href="#DejaVuSans-4f"/>
      <use xlink:href="#DejaVuSans-53" x="78.710938"/>
      <use xlink:href="#DejaVuSans-4d" x="142.1875"/>
      <use xlink:href="#DejaVuSans-4f" x="228.466797"/>
      <use xlink:href="#DejaVuSans-54" x="307.177734"/>
      <use xlink:href="#DejaVuSans-49" x="368.261719"/>
      <use xlink:href="#DejaVuSans-43" x="397.753906"/>
      <use xlink:href="#DejaVuSans-5f" x="467.578125"/>
      <use xlink:href="#DejaVuSans-53" x="517.578125"/>
      <use xlink:href="#DejaVuSans-54" x="581.054688"/>
      <use xlink:href="#DejaVuSans-52" x="642.138672"/>
      <use xlink:href="#DejaVuSans-45" x="711.621094"/>
      <use xlink:href="#DejaVuSans-53" x="774.804688"/>
      <use xlink:href="#DejaVuSans-53" x="838.28125"/>
      <use xlink:href="#DejaVuSans-5f" x="901.757812"/>
      <use xlink:href="#DejaVuSans-54" x="951.757812"/>
      <use xlink:href="#DejaVuSans-31" x="1012.841797"/>
      <use xlink:href="#DejaVuSans-35" x="1076.464844"/>
      <use xlink:href="#DejaVuSans-30" x="1140.087891"/>
      <use xlink:href="#DejaVuSans-5f" x="1203.710938"/>
      <use xlink:href="#DejaVuSans-53" x="1253.710938"/>
      <use xlink:href="#DejaVuSans-45" x="1317.1875"/>
      <use xlink:href="#DejaVuSans-5f" x="1380.371094"/>
      <use xlink:href="#DejaVuSans-52" x="1430.371094"/>
      <use xlink:href="#DejaVuSans-45" x="1499.853516"/>
      <use xlink:href="#DejaVuSans-50" x="1563.037109"/>
      <use xlink:href="#DejaVuSans-31" x="1623.339844"/>
     </g>
    </g>
    <g id="line2d_24">
     <path d="M 622.125 315.455394 
L 630.125 315.455394 
L 638.125 315.455394 
" style="fill: none; stroke: #2b908f; stroke-linecap: square"/>
    </g>
    <g id="text_25">
     <!-- OSMOTIC_STRESS_T15_PE_REP1_R1 -->
     <g transform="translate(644.525 318.255394)scale(0.08 -0.08)">
      <use xlink:href="#DejaVuSans-4f"/>
      <use xlink:href="#DejaVuSans-53" x="78.710938"/>
      <use xlink:href="#DejaVuSans-4d" x="142.1875"/>
      <use xlink:href="#DejaVuSans-4f" x="228.466797"/>
      <use xlink:href="#DejaVuSans-54" x="307.177734"/>
      <use xlink:href="#DejaVuSans-49" x="368.261719"/>
      <use xlink:href="#DejaVuSans-43" x="397.753906"/>
      <use xlink:href="#DejaVuSans-5f" x="467.578125"/>
      <use xlink:href="#DejaVuSans-53" x="517.578125"/>
      <use xlink:href="#DejaVuSans-54" x="581.054688"/>
      <use xlink:href="#DejaVuSans-52" x="642.138672"/>
      <use xlink:href="#DejaVuSans-45" x="711.621094"/>
      <use xlink:href="#DejaVuSans-53" x="774.804688"/>
      <use xlink:href="#DejaVuSans-53" x="838.28125"/>
      <use xlink:href="#DejaVuSans-5f" x="901.757812"/>
      <use xlink:href="#DejaVuSans-54" x="951.757812"/>
      <use xlink:href="#DejaVuSans-31" x="1012.841797"/>
      <use xlink:href="#DejaVuSans-35" x="1076.464844"/>
      <use xlink:href="#DejaVuSans-5f" x="1140.087891"/>
      <use xlink:href="#DejaVuSans-50" x="1190.087891"/>
      <use xlink:href="#DejaVuSans-45" x="1250.390625"/>
      <use xlink:href="#DejaVuSans-5f" x="1313.574219"/>
      <use xlink:href="#DejaVuSans-52" x="1363.574219"/>
      <use xlink:href="#DejaVuSans-45" x="1433.056641"/>
      <use xlink:href="#DejaVuSans-50" x="1496.240234"/>
      <use xlink:href="#DejaVuSans-31" x="1556.542969"/>
      <use xlink:href="#DejaVuSans-5f" x="1620.166016"/>
      <use xlink:href="#DejaVuSans-52" x="1670.166016"/>
      <use xlink:href="#DejaVuSans-31" x="1739.648438"/>
     </g>
    </g>
    <g id="line2d_25">
     <path d="M 819.211875 303.490394 
L 827.211875 303.490394 
L 835.211875 303.490394 
" style="fill: none; stroke: #f45b5b; stroke-linecap: square"/>
    </g>
    <g id="text_26">
     <!-- OSMOTIC_STRESS_T15_PE_REP1_R2 -->
     <g transform="translate(841.611875 306.290394)scale(0.08 -0.08)">
      <use xlink:href="#DejaVuSans-4f"/>
      <use xlink:href="#DejaVuSans-53" x="78.710938"/>
      <use xlink:href="#DejaVuSans-4d" x="142.1875"/>
      <use xlink:href="#DejaVuSans-4f" x="228.466797"/>
      <use xlink:href="#DejaVuSans-54" x="307.177734"/>
      <use xlink:href="#DejaVuSans-49" x="368.261719"/>
      <use xlink:href="#DejaVuSans-43" x="397.753906"/>
      <use xlink:href="#DejaVuSans-5f" x="467.578125"/>
      <use xlink:href="#DejaVuSans-53" x="517.578125"/>
      <use xlink:href="#DejaVuSans-54" x="581.054688"/>
      <use xlink:href="#DejaVuSans-52" x="642.138672"/>
      <use xlink:href="#DejaVuSans-45" x="711.621094"/>
      <use xlink:href="#DejaVuSans-53" x="774.804688"/>
      <use xlink:href="#DejaVuSans-53" x="838.28125"/>
      <use xlink:href="#DejaVuSans-5f" x="901.757812"/>
      <use xlink:href="#DejaVuSans-54" x="951.757812"/>
      <use xlink:href="#DejaVuSans-31" x="1012.841797"/>
      <use xlink:href="#DejaVuSans-35" x="1076.464844"/>
      <use xlink:href="#DejaVuSans-5f" x="1140.087891"/>
      <use xlink:href="#DejaVuSans-50" x="1190.087891"/>
      <use xlink:href="#DejaVuSans-45" x="1250.390625"/>
      <use xlink:href="#DejaVuSans-5f" x="1313.574219"/>
      <use xlink:href="#DejaVuSans-52" x="1363.574219"/>
      <use xlink:href="#DejaVuSans-45" x="1433.056641"/>
      <use xlink:href="#DejaVuSans-50" x="1496.240234"/>
      <use xlink:href="#DejaVuSans-31" x="1556.542969"/>
      <use xlink:href="#DejaVuSans-5f" x="1620.166016"/>
      <use xlink:href="#DejaVuSans-52" x="1670.166016"/>
      <use xlink:href="#DejaVuSans-32" x="1739.648438"/>
     </g>
    </g>
   </g>
  </g>
 </g>
 <defs>
  <clipPath id="p6440591710">
   <rect x="43.148125" y="31.48286" width="949.93" height="242.5072"/>
  </clipPath>
 </defs>
</svg>
